<svg width="86" height="88" viewBox="0 0 86 88" fill="none" xmlns="http://www.w3.org/2000/svg">
<mask id="path-1-inside-1_350_782" fill="white">
<path fill-rule="evenodd" clip-rule="evenodd" d="M40.9815 0.0113334C41.3477 0.0339974 41.8421 0.151096 42.0837 0.271974C42.3252 0.392851 42.9179 0.804588 43.401 1.18611C43.8766 1.56762 44.5674 2.1569 44.9184 2.48559C45.3148 2.85577 45.6771 3.31284 45.8545 3.68305C46.0961 4.19677 46.1187 4.37054 46.0621 4.91445C46.0206 5.25441 45.8772 5.7417 45.7564 6.00611C45.6243 6.25542 45.1185 6.87492 44.624 7.37735C44.1408 7.87974 42.6423 9.2963 41.3136 10.5277C39.9812 11.7591 37.4107 14.1465 35.5951 15.8237C33.7795 17.4896 30.8882 20.1715 29.1632 21.7617C27.4344 23.352 25.6 25.0632 24.1052 26.4609L21.5951 24.5835C20.2211 23.5485 19.0661 22.657 19.0246 22.6003C18.9793 22.5361 18.934 22.385 18.934 22.2642C18.934 22.1319 19.4209 21.5427 20.123 20.8363C20.7722 20.1601 21.6857 19.178 22.1462 18.6567C22.6105 18.1241 23.5541 17.0664 24.2374 16.3147C24.9168 15.563 26.7324 13.5987 28.2724 11.9555C29.8125 10.3086 32.3075 7.64931 33.8249 6.02501C35.3423 4.41202 37.0257 2.62536 37.5617 2.04737C38.1015 1.48076 38.6941 0.895266 38.8829 0.75176C39.0716 0.611997 39.4642 0.381576 39.7737 0.230479C40.2229 0.0113911 40.4455 -0.022667 40.9815 0.0113334ZM44.7222 15.9449C45.2733 15.9751 45.9867 16.0733 46.315 16.1715C46.6472 16.2698 47.2624 16.5228 47.689 16.7382C48.1759 16.9913 48.7459 17.4257 49.2404 17.9054C49.6594 18.3209 50.1878 18.9857 50.4067 19.3747C50.6256 19.7676 50.9238 20.4551 51.0559 20.9008C51.2409 21.5127 51.3088 21.9811 51.3088 22.7555C51.3088 23.4204 51.2333 24.0398 51.1012 24.4969C50.988 24.8898 50.7275 25.5547 50.5048 25.9701C50.2406 26.48 49.8443 27.0051 49.2857 27.549C48.7459 28.093 48.1948 28.5085 47.6891 28.7691C47.2625 28.9882 46.5265 29.2715 46.0434 29.4113C45.3035 29.6077 44.9864 29.6417 44.0617 29.5888C43.3596 29.5548 42.7217 29.4453 42.3027 29.2942C41.9404 29.1733 41.3478 28.9127 40.9816 28.7162C40.6192 28.5198 39.97 28.0287 39.5548 27.6057C39.0603 27.126 38.63 26.5594 38.377 26.0797C38.1581 25.6641 37.8939 24.9993 37.7844 24.6065C37.6825 24.2023 37.5957 23.4733 37.5844 22.918C37.5844 22.2872 37.6523 21.6866 37.7731 21.2295C37.8826 20.8366 38.1468 20.1491 38.377 19.7034C38.6752 19.0915 39.0036 18.6571 39.6642 18.0149C40.2454 17.437 40.8079 16.9988 41.3136 16.7382C41.7402 16.5115 42.4573 16.2395 42.9065 16.1073C43.5557 15.9336 43.9408 15.8996 44.7222 15.9449ZM17.2542 25.2713C17.5184 25.26 17.9903 25.3582 18.3073 25.4791C18.6281 25.5999 19.2434 25.9815 19.7039 26.363C20.1568 26.7445 21.2213 27.6586 22.0705 28.4103C22.916 29.1507 24.3995 30.5031 25.3696 31.4172C26.3359 32.3238 27.2493 33.1511 27.4041 33.2492C27.657 33.423 27.8193 33.4343 29.2159 33.3361C30.0652 33.2719 31.5259 33.151 32.4621 33.0528C33.3944 32.9659 34.7042 32.845 35.3761 32.7921C36.0442 32.7242 38.8185 32.4522 41.5324 32.1802C44.722 31.8553 46.7791 31.6891 47.3076 31.7231C47.7681 31.7458 48.3947 31.8742 48.7344 32.0064C49.0666 32.1273 49.5913 32.422 49.8894 32.6486C50.199 32.879 50.6028 33.3021 50.8029 33.5967C50.9992 33.9027 51.2634 34.4164 51.3955 34.7413C51.5163 35.0699 51.6371 35.6365 51.6711 35.9954C51.705 36.3543 51.6711 36.9436 51.5956 37.3024C51.505 37.6953 51.12 38.6095 50.6029 39.5916C50.1424 40.4944 49.1534 42.3793 48.4174 43.7882C47.67 45.1934 46.3149 47.7659 45.4128 49.5073C44.5031 51.2525 43.7859 52.7446 43.8086 52.8314C43.8425 52.9183 44.3596 53.738 44.9636 54.6295C45.5675 55.5361 46.9225 57.5948 47.9644 59.2077C49.0099 60.832 50.0895 62.4978 50.3613 62.9134C50.6369 63.3364 51.0332 64.0239 51.2521 64.4394C51.6371 65.1798 51.6484 65.2327 51.6484 66.3999C51.6484 67.3593 51.6069 67.7069 51.4295 68.0884C51.3201 68.3603 50.2518 70.147 49.0666 72.066C47.8776 73.9849 46.0733 76.9162 45.0391 78.5821C44.0162 80.2517 42.9857 81.8646 42.7329 82.1782C42.4913 82.4955 42.0496 82.911 41.7402 83.1037C41.4458 83.3001 40.9286 83.5645 40.5965 83.6816C40.1133 83.8592 39.7963 83.9007 39.0375 83.8667C38.1882 83.8365 38.0372 83.8025 37.6182 83.5079C37.354 83.3341 37.003 82.9866 36.8256 82.7448C36.618 82.4502 36.4972 82.1253 36.4519 81.7665C36.4104 81.3057 36.4519 81.0903 36.7727 80.4028C36.9803 79.9571 38.0788 77.6793 39.2111 75.3373C40.3435 72.9915 41.6985 70.234 42.2044 69.2104C42.7102 68.1753 43.1292 67.1932 43.1292 67.0308C43.1178 66.8344 42.9065 66.4415 42.5328 65.9617C42.2157 65.55 40.9738 63.8804 39.7848 62.2599C38.5958 60.6469 37.5843 59.3059 37.5427 59.2833C37.4974 59.272 34.9232 61.8217 31.8129 64.9495C28.6988 68.0885 25.2791 71.5335 24.2259 72.6101C23.169 73.6904 21.3345 75.5527 20.1569 76.754C18.9679 77.9514 17.0127 79.9346 15.801 81.1434C14.261 82.7035 13.4382 83.4438 13.0531 83.6402C12.6907 83.8253 12.2604 83.9348 11.7886 83.9651C11.2262 84.0104 10.9318 83.965 10.4146 83.78C9.95034 83.6062 9.58798 83.3682 9.19167 82.9754C8.82931 82.6165 8.57641 82.235 8.45562 81.8724C8.34616 81.5815 8.27066 81.1887 8.27066 81.0036C8.27066 80.8298 8.39145 80.437 8.53489 80.131C8.67455 79.8364 9.1275 79.1942 9.5352 78.7145C9.95041 78.2348 10.8526 77.1356 11.5697 76.2629C12.2718 75.3904 13.9779 73.2864 15.3519 71.5751C16.7372 69.864 18.3187 67.8808 18.8811 67.1631C19.4435 66.4416 20.3759 65.1686 20.9685 64.33C21.5649 63.4914 22.2443 62.5622 22.4972 62.26C22.7388 61.9654 23.6635 60.9077 24.543 59.9142C25.4225 58.9246 26.7889 57.3871 27.5665 56.4843C28.3478 55.5891 29.7105 54.1196 32.1865 51.5775L33.5265 48.7444C34.2626 47.1881 35.4403 44.7138 36.146 43.2407C36.8481 41.7713 37.3992 40.5625 37.3879 40.5398C37.3653 40.5285 34.9571 40.5927 32.0204 40.6796C28.3138 40.7891 26.5133 40.8118 26.1169 40.7362C25.7961 40.6796 25.2488 40.4945 24.9053 40.332C24.3806 40.0827 23.4559 39.2441 19.451 35.342C15.1216 31.134 14.5932 30.5787 14.2836 29.9479C14.008 29.3926 13.9325 29.1093 13.9325 28.5842C13.9439 28.1725 14.0194 27.7456 14.1628 27.4397C14.2836 27.1677 14.6044 26.7106 14.88 26.416C15.1404 26.1327 15.5594 25.7851 15.801 25.6643C16.0425 25.5434 16.3634 25.4036 16.5181 25.3583C16.6691 25.3167 17.0013 25.2714 17.2655 25.2714L17.2542 25.2713ZM74.6204 28.2139C74.9185 28.2026 75.4659 28.2782 75.8282 28.3764C76.1906 28.4633 76.6888 28.6597 76.9304 28.8032C77.172 28.943 77.5683 29.2716 77.8212 29.5323C78.0628 29.7929 78.4025 30.2953 78.5686 30.6542C78.7648 31.0471 78.9083 31.5721 78.9423 31.9612C78.9725 32.3239 78.9309 32.8905 78.8517 33.2154C78.7762 33.544 78.5912 34.0539 78.4251 34.3486C78.2704 34.6432 77.8627 35.1343 77.5343 35.4403C77.1606 35.7991 76.6888 36.1051 76.2698 36.2562C75.764 36.4526 75.3903 36.5168 74.6732 36.5282C73.839 36.5282 73.6616 36.498 72.9935 36.1806C72.5858 35.9842 72.0347 35.614 71.7592 35.3421C71.4875 35.0701 71.1138 34.5224 70.9137 34.122C70.5967 33.4571 70.5627 33.272 70.5514 32.3995C70.5514 31.5156 70.5853 31.3532 70.9137 30.6884C71.1025 30.2729 71.4875 29.7289 71.7592 29.457C72.0348 29.185 72.4651 28.8564 72.718 28.7279C72.9822 28.5957 73.3899 28.4333 73.6314 28.3577C73.873 28.2784 74.3109 28.2139 74.6204 28.2139ZM12.4034 31.7761C12.5015 31.8214 12.7658 32.1274 12.996 32.4522C13.2187 32.7808 13.7774 33.3475 14.2417 33.7063C14.6908 34.0652 15.0645 34.3938 15.0759 34.4467C15.0759 34.492 14.4832 35.0247 13.7547 35.6479C13.0187 36.2561 12.2713 36.8114 12.075 36.8793C11.7995 36.9851 11.6447 36.9776 11.3352 36.8453C11.1276 36.7585 10.6784 36.4752 10.3463 36.2221C10.0179 35.9614 9.63291 35.6139 9.48947 35.4402C9.32339 35.2211 9.24789 34.9831 9.24789 34.6885C9.24789 34.4467 9.34603 34.1105 9.45549 33.9254C9.57628 33.7517 9.94997 33.3701 10.3161 33.0982C10.6671 32.8224 11.2371 32.388 11.5881 32.15C12.0071 31.8554 12.2826 31.7345 12.4034 31.7761ZM65.9536 47.611C67.6824 47.5997 68.7355 47.645 68.9242 47.7205C69.0979 47.7847 69.5508 48.1549 69.9472 48.5365C70.3435 48.918 70.6945 49.2353 70.7398 49.2353C70.7926 49.2353 71.2003 48.8764 72.4988 47.6563L75.4769 47.6223C78.2248 47.5997 78.5003 47.611 78.8514 47.7961C79.0628 47.917 79.3496 48.1663 79.7422 48.7442L79.7309 82.0387H78.0832V49.3266L71.5 49.5V51.5C71.4019 51.7191 72 54.6945 72 82.039H70V66.8403C70 66.8403 69.7609 50.0772 69.7269 49.9902C69.6854 49.8504 66.8657 49.2353 63.2835 49.2353L63.5 82.0387L61.9184 82.039L61.975 48.4505L62.3789 48.0803C62.6016 47.8839 62.896 47.6988 63.0394 47.6799C63.1715 47.6573 64.4929 47.6223 65.9536 47.611ZM43.8086 87L86 85.9404C86 86.4616 85.9434 87.0736 85.8905 87.3002C85.8226 87.5193 85.6716 87.7799 85.5282 87.8668C85.3168 88.0103 80.1947 88.0217 0.430301 87.9763L0.218924 87.7044C0.033965 87.4739 0 87.2586 0 86.1783C0 85.2831 0.045295 84.894 0.143437 84.7958C0.218928 84.7278 0.407661 86.2765 0.562413 86.2425C0.713397 86.2237 43.8086 87 43.8086 87Z"/>
</mask>
<path fill-rule="evenodd" clip-rule="evenodd" d="M40.9815 0.0113334C41.3477 0.0339974 41.8421 0.151096 42.0837 0.271974C42.3252 0.392851 42.9179 0.804588 43.401 1.18611C43.8766 1.56762 44.5674 2.1569 44.9184 2.48559C45.3148 2.85577 45.6771 3.31284 45.8545 3.68305C46.0961 4.19677 46.1187 4.37054 46.0621 4.91445C46.0206 5.25441 45.8772 5.7417 45.7564 6.00611C45.6243 6.25542 45.1185 6.87492 44.624 7.37735C44.1408 7.87974 42.6423 9.2963 41.3136 10.5277C39.9812 11.7591 37.4107 14.1465 35.5951 15.8237C33.7795 17.4896 30.8882 20.1715 29.1632 21.7617C27.4344 23.352 25.6 25.0632 24.1052 26.4609L21.5951 24.5835C20.2211 23.5485 19.0661 22.657 19.0246 22.6003C18.9793 22.5361 18.934 22.385 18.934 22.2642C18.934 22.1319 19.4209 21.5427 20.123 20.8363C20.7722 20.1601 21.6857 19.178 22.1462 18.6567C22.6105 18.1241 23.5541 17.0664 24.2374 16.3147C24.9168 15.563 26.7324 13.5987 28.2724 11.9555C29.8125 10.3086 32.3075 7.64931 33.8249 6.02501C35.3423 4.41202 37.0257 2.62536 37.5617 2.04737C38.1015 1.48076 38.6941 0.895266 38.8829 0.75176C39.0716 0.611997 39.4642 0.381576 39.7737 0.230479C40.2229 0.0113911 40.4455 -0.022667 40.9815 0.0113334ZM44.7222 15.9449C45.2733 15.9751 45.9867 16.0733 46.315 16.1715C46.6472 16.2698 47.2624 16.5228 47.689 16.7382C48.1759 16.9913 48.7459 17.4257 49.2404 17.9054C49.6594 18.3209 50.1878 18.9857 50.4067 19.3747C50.6256 19.7676 50.9238 20.4551 51.0559 20.9008C51.2409 21.5127 51.3088 21.9811 51.3088 22.7555C51.3088 23.4204 51.2333 24.0398 51.1012 24.4969C50.988 24.8898 50.7275 25.5547 50.5048 25.9701C50.2406 26.48 49.8443 27.0051 49.2857 27.549C48.7459 28.093 48.1948 28.5085 47.6891 28.7691C47.2625 28.9882 46.5265 29.2715 46.0434 29.4113C45.3035 29.6077 44.9864 29.6417 44.0617 29.5888C43.3596 29.5548 42.7217 29.4453 42.3027 29.2942C41.9404 29.1733 41.3478 28.9127 40.9816 28.7162C40.6192 28.5198 39.97 28.0287 39.5548 27.6057C39.0603 27.126 38.63 26.5594 38.377 26.0797C38.1581 25.6641 37.8939 24.9993 37.7844 24.6065C37.6825 24.2023 37.5957 23.4733 37.5844 22.918C37.5844 22.2872 37.6523 21.6866 37.7731 21.2295C37.8826 20.8366 38.1468 20.1491 38.377 19.7034C38.6752 19.0915 39.0036 18.6571 39.6642 18.0149C40.2454 17.437 40.8079 16.9988 41.3136 16.7382C41.7402 16.5115 42.4573 16.2395 42.9065 16.1073C43.5557 15.9336 43.9408 15.8996 44.7222 15.9449ZM17.2542 25.2713C17.5184 25.26 17.9903 25.3582 18.3073 25.4791C18.6281 25.5999 19.2434 25.9815 19.7039 26.363C20.1568 26.7445 21.2213 27.6586 22.0705 28.4103C22.916 29.1507 24.3995 30.5031 25.3696 31.4172C26.3359 32.3238 27.2493 33.1511 27.4041 33.2492C27.657 33.423 27.8193 33.4343 29.2159 33.3361C30.0652 33.2719 31.5259 33.151 32.4621 33.0528C33.3944 32.9659 34.7042 32.845 35.3761 32.7921C36.0442 32.7242 38.8185 32.4522 41.5324 32.1802C44.722 31.8553 46.7791 31.6891 47.3076 31.7231C47.7681 31.7458 48.3947 31.8742 48.7344 32.0064C49.0666 32.1273 49.5913 32.422 49.8894 32.6486C50.199 32.879 50.6028 33.3021 50.8029 33.5967C50.9992 33.9027 51.2634 34.4164 51.3955 34.7413C51.5163 35.0699 51.6371 35.6365 51.6711 35.9954C51.705 36.3543 51.6711 36.9436 51.5956 37.3024C51.505 37.6953 51.12 38.6095 50.6029 39.5916C50.1424 40.4944 49.1534 42.3793 48.4174 43.7882C47.67 45.1934 46.3149 47.7659 45.4128 49.5073C44.5031 51.2525 43.7859 52.7446 43.8086 52.8314C43.8425 52.9183 44.3596 53.738 44.9636 54.6295C45.5675 55.5361 46.9225 57.5948 47.9644 59.2077C49.0099 60.832 50.0895 62.4978 50.3613 62.9134C50.6369 63.3364 51.0332 64.0239 51.2521 64.4394C51.6371 65.1798 51.6484 65.2327 51.6484 66.3999C51.6484 67.3593 51.6069 67.7069 51.4295 68.0884C51.3201 68.3603 50.2518 70.147 49.0666 72.066C47.8776 73.9849 46.0733 76.9162 45.0391 78.5821C44.0162 80.2517 42.9857 81.8646 42.7329 82.1782C42.4913 82.4955 42.0496 82.911 41.7402 83.1037C41.4458 83.3001 40.9286 83.5645 40.5965 83.6816C40.1133 83.8592 39.7963 83.9007 39.0375 83.8667C38.1882 83.8365 38.0372 83.8025 37.6182 83.5079C37.354 83.3341 37.003 82.9866 36.8256 82.7448C36.618 82.4502 36.4972 82.1253 36.4519 81.7665C36.4104 81.3057 36.4519 81.0903 36.7727 80.4028C36.9803 79.9571 38.0788 77.6793 39.2111 75.3373C40.3435 72.9915 41.6985 70.234 42.2044 69.2104C42.7102 68.1753 43.1292 67.1932 43.1292 67.0308C43.1178 66.8344 42.9065 66.4415 42.5328 65.9617C42.2157 65.55 40.9738 63.8804 39.7848 62.2599C38.5958 60.6469 37.5843 59.3059 37.5427 59.2833C37.4974 59.272 34.9232 61.8217 31.8129 64.9495C28.6988 68.0885 25.2791 71.5335 24.2259 72.6101C23.169 73.6904 21.3345 75.5527 20.1569 76.754C18.9679 77.9514 17.0127 79.9346 15.801 81.1434C14.261 82.7035 13.4382 83.4438 13.0531 83.6402C12.6907 83.8253 12.2604 83.9348 11.7886 83.9651C11.2262 84.0104 10.9318 83.965 10.4146 83.78C9.95034 83.6062 9.58798 83.3682 9.19167 82.9754C8.82931 82.6165 8.57641 82.235 8.45562 81.8724C8.34616 81.5815 8.27066 81.1887 8.27066 81.0036C8.27066 80.8298 8.39145 80.437 8.53489 80.131C8.67455 79.8364 9.1275 79.1942 9.5352 78.7145C9.95041 78.2348 10.8526 77.1356 11.5697 76.2629C12.2718 75.3904 13.9779 73.2864 15.3519 71.5751C16.7372 69.864 18.3187 67.8808 18.8811 67.1631C19.4435 66.4416 20.3759 65.1686 20.9685 64.33C21.5649 63.4914 22.2443 62.5622 22.4972 62.26C22.7388 61.9654 23.6635 60.9077 24.543 59.9142C25.4225 58.9246 26.7889 57.3871 27.5665 56.4843C28.3478 55.5891 29.7105 54.1196 32.1865 51.5775L33.5265 48.7444C34.2626 47.1881 35.4403 44.7138 36.146 43.2407C36.8481 41.7713 37.3992 40.5625 37.3879 40.5398C37.3653 40.5285 34.9571 40.5927 32.0204 40.6796C28.3138 40.7891 26.5133 40.8118 26.1169 40.7362C25.7961 40.6796 25.2488 40.4945 24.9053 40.332C24.3806 40.0827 23.4559 39.2441 19.451 35.342C15.1216 31.134 14.5932 30.5787 14.2836 29.9479C14.008 29.3926 13.9325 29.1093 13.9325 28.5842C13.9439 28.1725 14.0194 27.7456 14.1628 27.4397C14.2836 27.1677 14.6044 26.7106 14.88 26.416C15.1404 26.1327 15.5594 25.7851 15.801 25.6643C16.0425 25.5434 16.3634 25.4036 16.5181 25.3583C16.6691 25.3167 17.0013 25.2714 17.2655 25.2714L17.2542 25.2713ZM74.6204 28.2139C74.9185 28.2026 75.4659 28.2782 75.8282 28.3764C76.1906 28.4633 76.6888 28.6597 76.9304 28.8032C77.172 28.943 77.5683 29.2716 77.8212 29.5323C78.0628 29.7929 78.4025 30.2953 78.5686 30.6542C78.7648 31.0471 78.9083 31.5721 78.9423 31.9612C78.9725 32.3239 78.9309 32.8905 78.8517 33.2154C78.7762 33.544 78.5912 34.0539 78.4251 34.3486C78.2704 34.6432 77.8627 35.1343 77.5343 35.4403C77.1606 35.7991 76.6888 36.1051 76.2698 36.2562C75.764 36.4526 75.3903 36.5168 74.6732 36.5282C73.839 36.5282 73.6616 36.498 72.9935 36.1806C72.5858 35.9842 72.0347 35.614 71.7592 35.3421C71.4875 35.0701 71.1138 34.5224 70.9137 34.122C70.5967 33.4571 70.5627 33.272 70.5514 32.3995C70.5514 31.5156 70.5853 31.3532 70.9137 30.6884C71.1025 30.2729 71.4875 29.7289 71.7592 29.457C72.0348 29.185 72.4651 28.8564 72.718 28.7279C72.9822 28.5957 73.3899 28.4333 73.6314 28.3577C73.873 28.2784 74.3109 28.2139 74.6204 28.2139ZM12.4034 31.7761C12.5015 31.8214 12.7658 32.1274 12.996 32.4522C13.2187 32.7808 13.7774 33.3475 14.2417 33.7063C14.6908 34.0652 15.0645 34.3938 15.0759 34.4467C15.0759 34.492 14.4832 35.0247 13.7547 35.6479C13.0187 36.2561 12.2713 36.8114 12.075 36.8793C11.7995 36.9851 11.6447 36.9776 11.3352 36.8453C11.1276 36.7585 10.6784 36.4752 10.3463 36.2221C10.0179 35.9614 9.63291 35.6139 9.48947 35.4402C9.32339 35.2211 9.24789 34.9831 9.24789 34.6885C9.24789 34.4467 9.34603 34.1105 9.45549 33.9254C9.57628 33.7517 9.94997 33.3701 10.3161 33.0982C10.6671 32.8224 11.2371 32.388 11.5881 32.15C12.0071 31.8554 12.2826 31.7345 12.4034 31.7761ZM65.9536 47.611C67.6824 47.5997 68.7355 47.645 68.9242 47.7205C69.0979 47.7847 69.5508 48.1549 69.9472 48.5365C70.3435 48.918 70.6945 49.2353 70.7398 49.2353C70.7926 49.2353 71.2003 48.8764 72.4988 47.6563L75.4769 47.6223C78.2248 47.5997 78.5003 47.611 78.8514 47.7961C79.0628 47.917 79.3496 48.1663 79.7422 48.7442L79.7309 82.0387H78.0832V49.3266L71.5 49.5V51.5C71.4019 51.7191 72 54.6945 72 82.039H70V66.8403C70 66.8403 69.7609 50.0772 69.7269 49.9902C69.6854 49.8504 66.8657 49.2353 63.2835 49.2353L63.5 82.0387L61.9184 82.039L61.975 48.4505L62.3789 48.0803C62.6016 47.8839 62.896 47.6988 63.0394 47.6799C63.1715 47.6573 64.4929 47.6223 65.9536 47.611ZM43.8086 87L86 85.9404C86 86.4616 85.9434 87.0736 85.8905 87.3002C85.8226 87.5193 85.6716 87.7799 85.5282 87.8668C85.3168 88.0103 80.1947 88.0217 0.430301 87.9763L0.218924 87.7044C0.033965 87.4739 0 87.2586 0 86.1783C0 85.2831 0.045295 84.894 0.143437 84.7958C0.218928 84.7278 0.407661 86.2765 0.562413 86.2425C0.713397 86.2237 43.8086 87 43.8086 87Z" stroke="white" stroke-width="2" mask="url(#path-1-inside-1_350_782)"/>
</svg>
