<svg width="6118" height="2142" viewBox="0 0 6118 2142" fill="none" xmlns="http://www.w3.org/2000/svg">
<path d="M289.87 1C427.507 1 500.329 1.0608 538.896 1.63867C558.189 1.92777 568.871 2.34567 574.8 2.94531C577.778 3.24657 579.473 3.5874 580.439 3.94336C580.914 4.1183 581.155 4.2769 581.279 4.38965C581.385 4.48581 581.427 4.56624 581.455 4.66309L581.46 4.67969L581.466 4.69727C582.214 6.93959 702.215 318.259 848.228 696.432C921.242 885.539 987.746 1057.67 1036.12 1182.65C1060.3 1245.14 1079.96 1295.84 1093.62 1330.97C1100.46 1348.54 1105.8 1362.22 1109.46 1371.54C1111.29 1376.2 1112.7 1379.77 1113.67 1382.19C1114.15 1383.4 1114.53 1384.33 1114.79 1384.96C1114.92 1385.28 1115.02 1385.53 1115.1 1385.7C1115.14 1385.79 1115.18 1385.87 1115.21 1385.93C1115.22 1385.96 1115.24 1386 1115.26 1386.04C1115.27 1386.05 1115.29 1386.09 1115.31 1386.11C1115.32 1386.12 1115.33 1386.14 1115.35 1386.17L1115.35 1386.17C1115.36 1386.18 1115.36 1386.18 1115.37 1386.19C1115.39 1386.22 1115.42 1386.25 1115.44 1386.28L1115.46 1386.26C1115.7 1386.43 1116.12 1386.57 1116.36 1386.55C1116.52 1386.5 1116.75 1386.38 1116.82 1386.32C1116.93 1386.22 1117 1386.12 1117.02 1386.09C1117.08 1386.01 1117.12 1385.92 1117.16 1385.84C1117.25 1385.68 1117.36 1385.44 1117.49 1385.14C1117.76 1384.54 1118.15 1383.61 1118.67 1382.37C1119.7 1379.88 1121.25 1376.06 1123.35 1370.8C1127.55 1360.29 1133.98 1344.02 1142.96 1321.11C1160.94 1275.3 1189.15 1202.94 1230.31 1096.98C1312.61 885.136 1446.64 538.995 1653.98 2.2168H2479.57C2813.73 2.2168 3021.4 2.399 3147.98 2.88574C3211.28 3.12912 3254.3 3.44875 3282.73 3.85938C3311.17 4.27028 3324.95 4.77232 3329.82 5.37207C3343.19 7.31805 3367.99 11.4514 3384.5 14.8525H3384.51C3401.28 18.2555 3427.29 24.5763 3442.34 29.1885C3457.4 33.8031 3480.73 42.0669 3494.59 47.415C3508.2 53.006 3533.72 64.4301 3550.97 73.1758L3550.98 73.1787C3568.48 81.9327 3592.05 95.0529 3603.19 102.562L3603.21 102.576C3614.63 109.863 3633.83 123.233 3645.74 132.224L3645.75 132.229C3657.89 141.214 3678.06 157.744 3690.7 169.162L3690.7 169.168C3703.57 180.574 3723.74 201.23 3735.64 214.834L3735.65 214.842C3747.79 228.441 3766.26 251.776 3776.95 266.838L3776.96 266.845C3787.64 281.662 3803.2 305.967 3811.45 320.776L3811.46 320.783C3819.72 335.359 3831.38 358.686 3837.2 372.756L3837.21 372.77C3843.28 386.851 3852.51 411.888 3857.86 428.655L3857.86 428.668C3863.45 445.418 3870.49 472.636 3873.9 489.396C3877.08 505.11 3880.7 528.737 3882.34 543.633L3882.64 546.491C3884.1 561.283 3885.07 603.337 3885.07 640.093C3885.07 676.849 3884.1 719.638 3882.64 734.917L3882.64 734.933C3881.43 750.228 3878.02 775.508 3875.35 790.817C3872.85 805.163 3867.35 830.205 3862.67 848.097L3861.74 851.574L3861.74 851.587C3857.12 869.555 3847.65 899.206 3841.08 917.194C3834.28 935.171 3820.18 967.512 3809.72 988.906C3799.27 1010.29 3781.53 1041.65 3770.37 1058.15L3770.36 1058.16L3770.36 1058.16C3759.42 1074.93 3740.94 1100.71 3729.52 1115.29L3729.51 1115.3C3718.35 1129.86 3694.77 1156.35 3677.27 1173.85L3677.27 1173.86C3660 1191.37 3635.45 1214.46 3622.59 1224.89L3622.58 1224.9C3616.24 1230.14 3610.43 1235.34 3606.24 1239.5C3604.14 1241.58 3602.43 1243.42 3601.25 1244.89C3600.67 1245.63 3600.19 1246.3 3599.87 1246.87C3599.7 1247.16 3599.56 1247.45 3599.47 1247.73C3599.38 1247.99 3599.31 1248.32 3599.35 1248.66L3599.35 1248.66C3599.36 1248.75 3599.37 1248.82 3599.38 1248.85C3599.39 1248.91 3599.41 1248.98 3599.43 1249.05C3599.47 1249.18 3599.53 1249.36 3599.6 1249.57C3599.73 1249.99 3599.94 1250.58 3600.21 1251.34C3600.74 1252.85 3601.54 1255.03 3602.58 1257.84C3604.67 1263.48 3607.74 1271.67 3611.7 1282.13C3619.61 1303.05 3631.05 1333.07 3645.16 1369.96C3673.4 1443.73 3712.34 1544.98 3755.17 1655.84V1655.84C3797.89 1766.82 3837.01 1867.65 3865.61 1940.66C3879.91 1977.17 3891.58 2006.73 3899.75 2027.13C3903.83 2037.33 3907.04 2045.25 3909.27 2050.6C3910.39 2053.27 3911.26 2055.31 3911.87 2056.68C3912.18 2057.36 3912.43 2057.89 3912.61 2058.25C3912.7 2058.43 3912.79 2058.59 3912.87 2058.72C3912.91 2058.77 3912.97 2058.87 3913.06 2058.96C3913.1 2059 3913.19 2059.09 3913.33 2059.16C3913.44 2059.22 3913.7 2059.32 3914.01 2059.26L3914.01 2059.26C3914.02 2059.26 3914.02 2059.26 3914.02 2059.25C3914.07 2059.24 3914.13 2059.23 3914.19 2059.21L3914.18 2059.19C3914.35 2059.11 3914.5 2059 3914.56 2058.95C3914.59 2058.91 3914.65 2058.84 3914.67 2058.81C3914.71 2058.75 3914.74 2058.7 3914.76 2058.66C3914.81 2058.57 3914.86 2058.46 3914.91 2058.34C3915.03 2058.1 3915.18 2057.74 3915.38 2057.27C3915.78 2056.33 3916.36 2054.92 3917.13 2053.02C3918.66 2049.22 3920.95 2043.46 3924.07 2035.56C3930.3 2019.76 3939.82 1995.43 3953.14 1961.26C3979.77 1892.93 4021.58 1785.23 4082.59 1627.73C4204.58 1312.82 4403.35 798.804 4711.09 2.21484L5290.91 1.00098L5703.2 1069.05V1069.05C5924.38 1641.32 6106.31 2113.39 6116.05 2138.63C6115.24 2138.73 6113.96 2138.82 6112.13 2138.91C6108.46 2139.08 6102.66 2139.23 6094.18 2139.37C6077.23 2139.64 6049.62 2139.83 6007.05 2139.94C5921.98 2140.15 5777.18 2140.03 5538.34 2139.54L5434.67 1871.24C5377.47 1723.26 5328.55 1597.2 5321.74 1579.43L5321.3 1578.3L5320.28 1578.94L5162.08 1677.51H5162.08L5123.21 1701.79C5088.95 1723.19 5058.9 1741.96 5037.31 1755.44C5026.51 1762.18 5017.83 1767.59 5011.8 1771.34C5008.78 1773.22 5006.43 1774.68 5004.81 1775.69C5004.3 1776 5003.86 1776.27 5003.5 1776.49C5003.45 1775.63 5003.39 1774.38 5003.34 1772.72C5003.22 1768.96 5003.1 1763.14 5002.99 1754.92C5002.76 1738.47 5002.55 1712.47 5002.37 1674.37C5002 1598.23 5001.76 1473.79 5001.76 1280.74L5166.78 1178.82L5167.49 1178.38L5167.19 1177.6L5113.65 1039.61L5104.75 1016.68C5084.03 963.235 5061.14 904.224 5044.98 862.6L5031.38 827.621C5023.59 807.418 5016.35 789.039 5010.96 775.708C5008.27 769.043 5006.04 763.636 5004.43 759.892C5003.63 758.021 5002.98 756.557 5002.51 755.556C5002.27 755.058 5002.07 754.657 5001.91 754.374C5001.83 754.236 5001.75 754.098 5001.67 753.984C5001.63 753.931 5001.56 753.848 5001.48 753.77C5001.43 753.73 5001.36 753.669 5001.26 753.614C5001.17 753.563 5000.99 753.482 5000.76 753.482C5000.41 753.543 5000.04 753.789 4999.97 753.868C4999.94 753.905 4999.9 753.966 4999.88 753.991C4999.86 754.035 4999.84 754.077 4999.83 754.103C4999.8 754.16 4999.76 754.233 4999.73 754.313C4999.66 754.478 4999.56 754.718 4999.43 755.031C4999.17 755.66 4998.79 756.606 4998.28 757.882C4997.26 760.434 4995.73 764.316 4993.65 769.635C4989.48 780.274 4983.08 796.672 4974.12 819.708C4956.21 865.78 4928.04 938.407 4886.93 1044.63C4804.73 1256.99 4670.76 1603.61 4463.42 2140.76L3364.71 2141L3249.35 1842.04L3233.32 1800.57C3197.58 1708.17 3173.31 1645.86 3157.31 1605.76C3148.17 1582.86 3141.72 1567.19 3137.38 1557.31C3135.21 1552.37 3133.55 1548.86 3132.34 1546.6C3131.73 1545.48 3131.22 1544.62 3130.79 1544.06C3130.58 1543.78 3130.36 1543.52 3130.11 1543.33C3129.93 1543.19 3129.49 1542.9 3128.95 1543.03L3128.91 1543.04C3128.91 1543.04 3128.91 1543.04 3128.91 1543.04C3128.89 1543.05 3128.86 1543.06 3128.84 1543.06V1543.07C3128.73 1543.1 3128.64 1543.14 3128.58 1543.17C3128.49 1543.21 3128.38 1543.27 3128.26 1543.33C3128.02 1543.46 3127.69 1543.64 3127.28 1543.87C3126.47 1544.33 3125.3 1545.02 3123.74 1545.95C3120.63 1547.8 3115.98 1550.63 3109.54 1554.56C3096.67 1562.44 3076.67 1574.79 3047.64 1592.78C2989.6 1628.77 2895.47 1687.37 2750.17 1778.03L2749.7 1778.32L2749.7 1778.87L2748.48 2140.76H2171.23L2171.48 1159.23H2171.48C2171.48 757.16 2171.36 511.587 2170.9 366.834C2170.67 294.458 2170.36 247.282 2169.94 218.352C2169.73 203.888 2169.49 193.975 2169.22 187.751C2169.08 184.643 2168.94 182.434 2168.78 181.031C2168.71 180.343 2168.62 179.795 2168.52 179.423C2168.48 179.27 2168.4 178.998 2168.22 178.774C2168.13 178.657 2167.91 178.42 2167.53 178.36C2167.16 178.303 2166.88 178.444 2166.71 178.576L2166.66 178.613C2166.66 178.614 2166.66 178.615 2166.66 178.616C2166.65 178.621 2166.65 178.627 2166.64 178.632L2166.64 178.633C2166.52 178.747 2166.44 178.872 2166.43 178.884C2166.4 178.932 2166.38 178.983 2166.36 179.025C2166.31 179.113 2166.26 179.223 2166.2 179.349C2166.08 179.603 2165.92 179.964 2165.73 180.43C2165.33 181.363 2164.76 182.745 2164.02 184.591C2162.52 188.285 2160.3 193.855 2157.3 201.455C2151.3 216.655 2142.17 239.984 2129.42 272.681C2103.92 338.075 2063.98 440.95 2005.75 591.238C1889.32 891.73 1699.8 1381.77 1406.55 2140.76H827.457L817.725 2115.36C812.3 2100.82 626.624 1619.71 404.948 1046.18H404.949C294.211 759.355 193.39 498.449 120.162 309.129C83.5486 214.469 53.8332 137.705 33.2256 84.5449C22.9218 57.9649 14.8948 37.2847 9.4209 23.2197C6.68401 16.1875 4.58444 10.8078 3.1582 7.1709C2.44526 5.3529 1.89945 3.96884 1.52637 3.03125C1.4891 2.9376 1.45284 2.84858 1.41895 2.76367C1.42659 2.76318 1.43466 2.76319 1.44238 2.7627C2.38019 2.70315 3.80933 2.64283 5.71191 2.58301C9.51371 2.46348 15.1691 2.34648 22.4824 2.23242C37.1076 2.00432 58.3466 1.79092 84.6152 1.6084C137.152 1.24335 209.799 1 289.87 1Z" fill="#202020"/>
<path d="M289.87 1C427.507 1 500.329 1.0608 538.896 1.63867C558.189 1.92777 568.871 2.34567 574.8 2.94531C577.778 3.24657 579.473 3.5874 580.439 3.94336C580.914 4.1183 581.155 4.2769 581.279 4.38965C581.385 4.48581 581.427 4.56624 581.455 4.66309L581.46 4.67969L581.466 4.69727C582.214 6.93959 702.215 318.259 848.228 696.432C921.242 885.539 987.746 1057.67 1036.12 1182.65C1060.3 1245.14 1079.96 1295.84 1093.62 1330.97C1100.46 1348.54 1105.8 1362.22 1109.46 1371.54C1111.29 1376.2 1112.7 1379.77 1113.67 1382.19C1114.15 1383.4 1114.53 1384.33 1114.79 1384.96C1114.92 1385.28 1115.02 1385.53 1115.1 1385.7C1115.14 1385.79 1115.18 1385.87 1115.21 1385.93C1115.22 1385.96 1115.24 1386 1115.26 1386.04C1115.27 1386.05 1115.29 1386.09 1115.31 1386.11C1115.32 1386.12 1115.33 1386.14 1115.35 1386.17L1115.35 1386.17C1115.36 1386.18 1115.36 1386.18 1115.37 1386.19C1115.39 1386.22 1115.42 1386.25 1115.44 1386.28L1115.46 1386.26C1115.7 1386.43 1116.12 1386.57 1116.36 1386.55C1116.52 1386.5 1116.75 1386.38 1116.82 1386.32C1116.93 1386.22 1117 1386.12 1117.02 1386.09C1117.08 1386.01 1117.12 1385.92 1117.16 1385.84C1117.25 1385.68 1117.36 1385.44 1117.49 1385.14C1117.76 1384.54 1118.15 1383.61 1118.67 1382.37C1119.7 1379.88 1121.25 1376.06 1123.35 1370.8C1127.55 1360.29 1133.98 1344.02 1142.96 1321.11C1160.94 1275.3 1189.15 1202.94 1230.31 1096.98C1312.61 885.136 1446.64 538.995 1653.98 2.2168H2479.57C2813.73 2.2168 3021.4 2.399 3147.98 2.88574C3211.28 3.12912 3254.3 3.44875 3282.73 3.85938C3311.17 4.27028 3324.95 4.77232 3329.82 5.37207C3343.19 7.31805 3367.99 11.4514 3384.5 14.8525H3384.51C3401.28 18.2555 3427.29 24.5763 3442.34 29.1885C3457.4 33.8031 3480.73 42.0669 3494.59 47.415C3508.2 53.006 3533.72 64.4301 3550.97 73.1758L3550.98 73.1787C3568.48 81.9327 3592.05 95.0529 3603.19 102.562L3603.21 102.576C3614.63 109.863 3633.83 123.233 3645.74 132.224L3645.75 132.229C3657.89 141.214 3678.06 157.744 3690.7 169.162L3690.7 169.168C3703.57 180.574 3723.74 201.23 3735.64 214.834L3735.65 214.842C3747.79 228.441 3766.26 251.776 3776.95 266.838L3776.96 266.845C3787.64 281.662 3803.2 305.967 3811.45 320.776L3811.46 320.783C3819.72 335.359 3831.38 358.686 3837.2 372.756L3837.21 372.77C3843.28 386.851 3852.51 411.888 3857.86 428.655L3857.86 428.668C3863.45 445.418 3870.49 472.636 3873.9 489.396C3877.08 505.11 3880.7 528.737 3882.34 543.633L3882.64 546.491C3884.1 561.283 3885.07 603.337 3885.07 640.093C3885.07 676.849 3884.1 719.638 3882.64 734.917L3882.64 734.933C3881.43 750.228 3878.02 775.508 3875.35 790.817C3872.85 805.163 3867.35 830.205 3862.67 848.097L3861.74 851.574L3861.74 851.587C3857.12 869.555 3847.65 899.206 3841.08 917.194C3834.28 935.171 3820.18 967.512 3809.72 988.906C3799.27 1010.29 3781.53 1041.65 3770.37 1058.15L3770.36 1058.16L3770.36 1058.16C3759.42 1074.93 3740.94 1100.71 3729.52 1115.29L3729.51 1115.3C3718.35 1129.86 3694.77 1156.35 3677.27 1173.85L3677.27 1173.86C3660 1191.37 3635.45 1214.46 3622.59 1224.89L3622.58 1224.9C3616.24 1230.14 3610.43 1235.34 3606.24 1239.5C3604.14 1241.58 3602.43 1243.42 3601.25 1244.89C3600.67 1245.63 3600.19 1246.3 3599.87 1246.87C3599.7 1247.16 3599.56 1247.45 3599.47 1247.73C3599.38 1247.99 3599.31 1248.32 3599.35 1248.66L3599.35 1248.66C3599.36 1248.75 3599.37 1248.82 3599.38 1248.85C3599.39 1248.91 3599.41 1248.98 3599.43 1249.05C3599.47 1249.18 3599.53 1249.36 3599.6 1249.57C3599.73 1249.99 3599.94 1250.58 3600.21 1251.34C3600.74 1252.85 3601.54 1255.03 3602.58 1257.84C3604.67 1263.48 3607.74 1271.67 3611.7 1282.13C3619.61 1303.05 3631.05 1333.07 3645.16 1369.96C3673.4 1443.73 3712.34 1544.98 3755.17 1655.84V1655.84C3797.89 1766.82 3837.01 1867.65 3865.61 1940.66C3879.91 1977.17 3891.58 2006.73 3899.75 2027.13C3903.83 2037.33 3907.04 2045.25 3909.27 2050.6C3910.39 2053.27 3911.26 2055.31 3911.87 2056.68C3912.18 2057.36 3912.43 2057.89 3912.61 2058.25C3912.7 2058.43 3912.79 2058.59 3912.87 2058.72C3912.91 2058.77 3912.97 2058.87 3913.06 2058.96C3913.1 2059 3913.19 2059.09 3913.33 2059.16C3913.44 2059.22 3913.7 2059.32 3914.01 2059.26L3914.01 2059.26C3914.02 2059.26 3914.02 2059.26 3914.02 2059.25C3914.07 2059.24 3914.13 2059.23 3914.19 2059.21L3914.18 2059.19C3914.35 2059.11 3914.5 2059 3914.56 2058.95C3914.59 2058.91 3914.65 2058.84 3914.67 2058.81C3914.71 2058.75 3914.74 2058.7 3914.76 2058.66C3914.81 2058.57 3914.86 2058.46 3914.91 2058.34C3915.03 2058.1 3915.18 2057.74 3915.38 2057.27C3915.78 2056.33 3916.36 2054.92 3917.13 2053.02C3918.66 2049.22 3920.95 2043.46 3924.07 2035.56C3930.3 2019.76 3939.82 1995.43 3953.14 1961.26C3979.77 1892.93 4021.58 1785.23 4082.59 1627.73C4204.58 1312.82 4403.35 798.804 4711.09 2.21484L5290.91 1.00098L5703.2 1069.05V1069.05C5924.38 1641.32 6106.31 2113.39 6116.05 2138.63C6115.24 2138.73 6113.96 2138.82 6112.13 2138.91C6108.46 2139.08 6102.66 2139.23 6094.18 2139.37C6077.23 2139.64 6049.62 2139.83 6007.05 2139.94C5921.98 2140.15 5777.18 2140.03 5538.34 2139.54L5434.67 1871.24C5377.47 1723.26 5328.55 1597.2 5321.74 1579.43L5321.3 1578.3L5320.28 1578.94L5162.08 1677.51H5162.08L5123.21 1701.79C5088.95 1723.19 5058.9 1741.96 5037.31 1755.44C5026.51 1762.18 5017.83 1767.59 5011.8 1771.34C5008.78 1773.22 5006.43 1774.68 5004.81 1775.69C5004.3 1776 5003.86 1776.27 5003.5 1776.49C5003.45 1775.63 5003.39 1774.38 5003.34 1772.72C5003.22 1768.96 5003.1 1763.14 5002.99 1754.92C5002.76 1738.47 5002.55 1712.47 5002.37 1674.37C5002 1598.23 5001.76 1473.79 5001.76 1280.74L5166.78 1178.82L5167.49 1178.38L5167.19 1177.6L5113.65 1039.61L5104.75 1016.68C5084.03 963.235 5061.14 904.224 5044.98 862.6L5031.38 827.621C5023.59 807.418 5016.35 789.039 5010.96 775.708C5008.27 769.043 5006.04 763.636 5004.43 759.892C5003.63 758.021 5002.98 756.557 5002.51 755.556C5002.27 755.058 5002.07 754.657 5001.91 754.374C5001.83 754.236 5001.75 754.098 5001.67 753.984C5001.63 753.931 5001.56 753.848 5001.48 753.77C5001.43 753.73 5001.36 753.669 5001.26 753.614C5001.17 753.563 5000.99 753.482 5000.76 753.482C5000.41 753.543 5000.04 753.789 4999.97 753.868C4999.94 753.905 4999.9 753.966 4999.88 753.991C4999.86 754.035 4999.84 754.077 4999.83 754.103C4999.8 754.16 4999.76 754.233 4999.73 754.313C4999.66 754.478 4999.56 754.718 4999.43 755.031C4999.17 755.66 4998.79 756.606 4998.28 757.882C4997.26 760.434 4995.73 764.316 4993.65 769.635C4989.48 780.274 4983.08 796.672 4974.12 819.708C4956.21 865.78 4928.04 938.407 4886.93 1044.63C4804.73 1256.99 4670.76 1603.61 4463.42 2140.76L3364.71 2141L3249.35 1842.04L3233.32 1800.57C3197.58 1708.17 3173.31 1645.86 3157.31 1605.76C3148.17 1582.86 3141.72 1567.19 3137.38 1557.31C3135.21 1552.37 3133.55 1548.86 3132.34 1546.6C3131.73 1545.48 3131.22 1544.62 3130.79 1544.06C3130.58 1543.78 3130.36 1543.52 3130.11 1543.33C3129.93 1543.19 3129.49 1542.9 3128.95 1543.03L3128.91 1543.04C3128.91 1543.04 3128.91 1543.04 3128.91 1543.04C3128.89 1543.05 3128.86 1543.06 3128.84 1543.06V1543.07C3128.73 1543.1 3128.64 1543.14 3128.58 1543.17C3128.49 1543.21 3128.38 1543.27 3128.26 1543.33C3128.02 1543.46 3127.69 1543.64 3127.28 1543.87C3126.47 1544.33 3125.3 1545.02 3123.74 1545.95C3120.63 1547.8 3115.98 1550.63 3109.54 1554.56C3096.67 1562.44 3076.67 1574.79 3047.64 1592.78C2989.6 1628.77 2895.47 1687.37 2750.17 1778.03L2749.7 1778.32L2749.7 1778.87L2748.48 2140.76H2171.23L2171.48 1159.23H2171.48C2171.48 757.16 2171.36 511.587 2170.9 366.834C2170.67 294.458 2170.36 247.282 2169.94 218.352C2169.73 203.888 2169.49 193.975 2169.22 187.751C2169.08 184.643 2168.94 182.434 2168.78 181.031C2168.71 180.343 2168.62 179.795 2168.52 179.423C2168.48 179.27 2168.4 178.998 2168.22 178.774C2168.13 178.657 2167.91 178.42 2167.53 178.36C2167.16 178.303 2166.88 178.444 2166.71 178.576L2166.66 178.613C2166.66 178.614 2166.66 178.615 2166.66 178.616C2166.65 178.621 2166.65 178.627 2166.64 178.632L2166.64 178.633C2166.52 178.747 2166.44 178.872 2166.43 178.884C2166.4 178.932 2166.38 178.983 2166.36 179.025C2166.31 179.113 2166.26 179.223 2166.2 179.349C2166.08 179.603 2165.92 179.964 2165.73 180.43C2165.33 181.363 2164.76 182.745 2164.02 184.591C2162.52 188.285 2160.3 193.855 2157.3 201.455C2151.3 216.655 2142.17 239.984 2129.42 272.681C2103.92 338.075 2063.98 440.95 2005.75 591.238C1889.32 891.73 1699.8 1381.77 1406.55 2140.76H827.457L817.725 2115.36C812.3 2100.82 626.624 1619.71 404.948 1046.18H404.949C294.211 759.355 193.39 498.449 120.162 309.129C83.5486 214.469 53.8332 137.705 33.2256 84.5449C22.9218 57.9649 14.8948 37.2847 9.4209 23.2197C6.68401 16.1875 4.58444 10.8078 3.1582 7.1709C2.44526 5.3529 1.89945 3.96884 1.52637 3.03125C1.4891 2.9376 1.45284 2.84858 1.41895 2.76367C1.42659 2.76318 1.43466 2.76319 1.44238 2.7627C2.38019 2.70315 3.80933 2.64283 5.71191 2.58301C9.51371 2.46348 15.1691 2.34648 22.4824 2.23242C37.1076 2.00432 58.3466 1.79092 84.6152 1.6084C137.152 1.24335 209.799 1 289.87 1Z" stroke="#DB3242" stroke-width="2"/>
<path d="M289.87 1C427.507 1 500.329 1.0608 538.896 1.63867C558.189 1.92777 568.871 2.34567 574.8 2.94531C577.778 3.24657 579.473 3.5874 580.439 3.94336C580.914 4.1183 581.155 4.2769 581.279 4.38965C581.385 4.48581 581.427 4.56624 581.455 4.66309L581.46 4.67969L581.466 4.69727C582.214 6.93959 702.215 318.259 848.228 696.432C921.242 885.539 987.746 1057.67 1036.12 1182.65C1060.3 1245.14 1079.96 1295.84 1093.62 1330.97C1100.46 1348.54 1105.8 1362.22 1109.46 1371.54C1111.29 1376.2 1112.7 1379.77 1113.67 1382.19C1114.15 1383.4 1114.53 1384.33 1114.79 1384.96C1114.92 1385.28 1115.02 1385.53 1115.1 1385.7C1115.14 1385.79 1115.18 1385.87 1115.21 1385.93C1115.22 1385.96 1115.24 1386 1115.26 1386.04C1115.27 1386.05 1115.29 1386.09 1115.31 1386.11C1115.32 1386.12 1115.33 1386.14 1115.35 1386.17L1115.35 1386.17C1115.36 1386.18 1115.36 1386.18 1115.37 1386.19C1115.39 1386.22 1115.42 1386.25 1115.44 1386.28L1115.46 1386.26C1115.7 1386.43 1116.12 1386.57 1116.36 1386.55C1116.52 1386.5 1116.75 1386.38 1116.82 1386.32C1116.93 1386.22 1117 1386.12 1117.02 1386.09C1117.08 1386.01 1117.12 1385.92 1117.16 1385.84C1117.25 1385.68 1117.36 1385.44 1117.49 1385.14C1117.76 1384.54 1118.15 1383.61 1118.67 1382.37C1119.7 1379.88 1121.25 1376.06 1123.35 1370.8C1127.55 1360.29 1133.98 1344.02 1142.96 1321.11C1160.94 1275.3 1189.15 1202.94 1230.31 1096.98C1312.61 885.136 1446.64 538.995 1653.98 2.2168H2479.57C2813.73 2.2168 3021.4 2.399 3147.98 2.88574C3211.28 3.12912 3254.3 3.44875 3282.73 3.85938C3311.17 4.27028 3324.95 4.77232 3329.82 5.37207C3343.19 7.31805 3367.99 11.4514 3384.5 14.8525H3384.51C3401.28 18.2555 3427.29 24.5763 3442.34 29.1885C3457.4 33.8031 3480.73 42.0669 3494.59 47.415C3508.2 53.006 3533.72 64.4301 3550.97 73.1758L3550.98 73.1787C3568.48 81.9327 3592.05 95.0529 3603.19 102.562L3603.21 102.576C3614.63 109.863 3633.83 123.233 3645.74 132.224L3645.75 132.229C3657.89 141.214 3678.06 157.744 3690.7 169.162L3690.7 169.168C3703.57 180.574 3723.74 201.23 3735.64 214.834L3735.65 214.842C3747.79 228.441 3766.26 251.776 3776.95 266.838L3776.96 266.845C3787.64 281.662 3803.2 305.967 3811.45 320.776L3811.46 320.783C3819.72 335.359 3831.38 358.686 3837.2 372.756L3837.21 372.77C3843.28 386.851 3852.51 411.888 3857.86 428.655L3857.86 428.668C3863.45 445.418 3870.49 472.636 3873.9 489.396C3877.08 505.11 3880.7 528.737 3882.34 543.633L3882.64 546.491C3884.1 561.283 3885.07 603.337 3885.07 640.093C3885.07 676.849 3884.1 719.638 3882.64 734.917L3882.64 734.933C3881.43 750.228 3878.02 775.508 3875.35 790.817C3872.85 805.163 3867.35 830.205 3862.67 848.097L3861.74 851.574L3861.74 851.587C3857.12 869.555 3847.65 899.206 3841.08 917.194C3834.28 935.171 3820.18 967.512 3809.72 988.906C3799.27 1010.29 3781.53 1041.65 3770.37 1058.15L3770.36 1058.16L3770.36 1058.16C3759.42 1074.93 3740.94 1100.71 3729.52 1115.29L3729.51 1115.3C3718.35 1129.86 3694.77 1156.35 3677.27 1173.85L3677.27 1173.86C3660 1191.37 3635.45 1214.46 3622.59 1224.89L3622.58 1224.9C3616.24 1230.14 3610.43 1235.34 3606.24 1239.5C3604.14 1241.58 3602.43 1243.42 3601.25 1244.89C3600.67 1245.63 3600.19 1246.3 3599.87 1246.87C3599.7 1247.16 3599.56 1247.45 3599.47 1247.73C3599.38 1247.99 3599.31 1248.32 3599.35 1248.66L3599.35 1248.66C3599.36 1248.75 3599.37 1248.82 3599.38 1248.85C3599.39 1248.91 3599.41 1248.98 3599.43 1249.05C3599.47 1249.18 3599.53 1249.36 3599.6 1249.57C3599.73 1249.99 3599.94 1250.58 3600.21 1251.34C3600.74 1252.85 3601.54 1255.03 3602.58 1257.84C3604.67 1263.48 3607.74 1271.67 3611.7 1282.13C3619.61 1303.05 3631.05 1333.07 3645.16 1369.96C3673.4 1443.73 3712.34 1544.98 3755.17 1655.84V1655.84C3797.89 1766.82 3837.01 1867.65 3865.61 1940.66C3879.91 1977.17 3891.58 2006.73 3899.75 2027.13C3903.83 2037.33 3907.04 2045.25 3909.27 2050.6C3910.39 2053.27 3911.26 2055.31 3911.87 2056.68C3912.18 2057.36 3912.43 2057.89 3912.61 2058.25C3912.7 2058.43 3912.79 2058.59 3912.87 2058.72C3912.91 2058.77 3912.97 2058.87 3913.06 2058.96C3913.1 2059 3913.19 2059.09 3913.33 2059.16C3913.44 2059.22 3913.7 2059.32 3914.01 2059.26L3914.01 2059.26C3914.02 2059.26 3914.02 2059.26 3914.02 2059.25C3914.07 2059.24 3914.13 2059.23 3914.19 2059.21L3914.18 2059.19C3914.35 2059.11 3914.5 2059 3914.56 2058.95C3914.59 2058.91 3914.65 2058.84 3914.67 2058.81C3914.71 2058.75 3914.74 2058.7 3914.76 2058.66C3914.81 2058.57 3914.86 2058.46 3914.91 2058.34C3915.03 2058.1 3915.18 2057.74 3915.38 2057.27C3915.78 2056.33 3916.36 2054.92 3917.13 2053.02C3918.66 2049.22 3920.95 2043.46 3924.07 2035.56C3930.3 2019.76 3939.82 1995.43 3953.14 1961.26C3979.77 1892.93 4021.58 1785.23 4082.59 1627.73C4204.58 1312.82 4403.35 798.804 4711.09 2.21484L5290.91 1.00098L5703.2 1069.05V1069.05C5924.38 1641.32 6106.31 2113.39 6116.05 2138.63C6115.24 2138.73 6113.96 2138.82 6112.13 2138.91C6108.46 2139.08 6102.66 2139.23 6094.18 2139.37C6077.23 2139.64 6049.62 2139.83 6007.05 2139.94C5921.98 2140.15 5777.18 2140.03 5538.34 2139.54L5434.67 1871.24C5377.47 1723.26 5328.55 1597.2 5321.74 1579.43L5321.3 1578.3L5320.28 1578.94L5162.08 1677.51H5162.08L5123.21 1701.79C5088.95 1723.19 5058.9 1741.96 5037.31 1755.44C5026.51 1762.18 5017.83 1767.59 5011.8 1771.34C5008.78 1773.22 5006.43 1774.68 5004.81 1775.69C5004.3 1776 5003.86 1776.27 5003.5 1776.49C5003.45 1775.63 5003.39 1774.38 5003.34 1772.72C5003.22 1768.96 5003.1 1763.14 5002.99 1754.92C5002.76 1738.47 5002.55 1712.47 5002.37 1674.37C5002 1598.23 5001.76 1473.79 5001.76 1280.74L5166.78 1178.82L5167.49 1178.38L5167.19 1177.6L5113.65 1039.61L5104.75 1016.68C5084.03 963.235 5061.14 904.224 5044.98 862.6L5031.38 827.621C5023.59 807.418 5016.35 789.039 5010.96 775.708C5008.27 769.043 5006.04 763.636 5004.43 759.892C5003.63 758.021 5002.98 756.557 5002.51 755.556C5002.27 755.058 5002.07 754.657 5001.91 754.374C5001.83 754.236 5001.75 754.098 5001.67 753.984C5001.63 753.931 5001.56 753.848 5001.48 753.77C5001.43 753.73 5001.36 753.669 5001.26 753.614C5001.17 753.563 5000.99 753.482 5000.76 753.482C5000.41 753.543 5000.04 753.789 4999.97 753.868C4999.94 753.905 4999.9 753.966 4999.88 753.991C4999.86 754.035 4999.84 754.077 4999.83 754.103C4999.8 754.16 4999.76 754.233 4999.73 754.313C4999.66 754.478 4999.56 754.718 4999.43 755.031C4999.17 755.66 4998.79 756.606 4998.28 757.882C4997.26 760.434 4995.73 764.316 4993.65 769.635C4989.48 780.274 4983.08 796.672 4974.12 819.708C4956.21 865.78 4928.04 938.407 4886.93 1044.63C4804.73 1256.99 4670.76 1603.61 4463.42 2140.76L3364.71 2141L3249.35 1842.04L3233.32 1800.57C3197.58 1708.17 3173.31 1645.86 3157.31 1605.76C3148.17 1582.86 3141.72 1567.19 3137.38 1557.31C3135.21 1552.37 3133.55 1548.86 3132.34 1546.6C3131.73 1545.48 3131.22 1544.62 3130.79 1544.06C3130.58 1543.78 3130.36 1543.52 3130.11 1543.33C3129.93 1543.19 3129.49 1542.9 3128.95 1543.03L3128.91 1543.04C3128.91 1543.04 3128.91 1543.04 3128.91 1543.04C3128.89 1543.05 3128.86 1543.06 3128.84 1543.06V1543.07C3128.73 1543.1 3128.64 1543.14 3128.58 1543.17C3128.49 1543.21 3128.38 1543.27 3128.26 1543.33C3128.02 1543.46 3127.69 1543.64 3127.28 1543.87C3126.47 1544.33 3125.3 1545.02 3123.74 1545.95C3120.63 1547.8 3115.98 1550.63 3109.54 1554.56C3096.67 1562.44 3076.67 1574.79 3047.64 1592.78C2989.6 1628.77 2895.47 1687.37 2750.17 1778.03L2749.7 1778.32L2749.7 1778.87L2748.48 2140.76H2171.23L2171.48 1159.23H2171.48C2171.48 757.16 2171.36 511.587 2170.9 366.834C2170.67 294.458 2170.36 247.282 2169.94 218.352C2169.73 203.888 2169.49 193.975 2169.22 187.751C2169.08 184.643 2168.94 182.434 2168.78 181.031C2168.71 180.343 2168.62 179.795 2168.52 179.423C2168.48 179.27 2168.4 178.998 2168.22 178.774C2168.13 178.657 2167.91 178.42 2167.53 178.36C2167.16 178.303 2166.88 178.444 2166.71 178.576L2166.66 178.613C2166.66 178.614 2166.66 178.615 2166.66 178.616C2166.65 178.621 2166.65 178.627 2166.64 178.632L2166.64 178.633C2166.52 178.747 2166.44 178.872 2166.43 178.884C2166.4 178.932 2166.38 178.983 2166.36 179.025C2166.31 179.113 2166.26 179.223 2166.2 179.349C2166.08 179.603 2165.92 179.964 2165.73 180.43C2165.33 181.363 2164.76 182.745 2164.02 184.591C2162.52 188.285 2160.3 193.855 2157.3 201.455C2151.3 216.655 2142.17 239.984 2129.42 272.681C2103.92 338.075 2063.98 440.95 2005.75 591.238C1889.32 891.73 1699.8 1381.77 1406.55 2140.76H827.457L817.725 2115.36C812.3 2100.82 626.624 1619.71 404.948 1046.18H404.949C294.211 759.355 193.39 498.449 120.162 309.129C83.5486 214.469 53.8332 137.705 33.2256 84.5449C22.9218 57.9649 14.8948 37.2847 9.4209 23.2197C6.68401 16.1875 4.58444 10.8078 3.1582 7.1709C2.44526 5.3529 1.89945 3.96884 1.52637 3.03125C1.4891 2.9376 1.45284 2.84858 1.41895 2.76367C1.42659 2.76318 1.43466 2.76319 1.44238 2.7627C2.38019 2.70315 3.80933 2.64283 5.71191 2.58301C9.51371 2.46348 15.1691 2.34648 22.4824 2.23242C37.1076 2.00432 58.3466 1.79092 84.6152 1.6084C137.152 1.24335 209.799 1 289.87 1Z" stroke="#202020" stroke-width="2"/>
</svg>
