<svg width="59" height="66" viewBox="0 0 59 66" fill="none" xmlns="http://www.w3.org/2000/svg">
<path d="M4.54063e-05 19.0349C4.50411e-05 9.2287 4.29602e-05 4.3256 2.65826 1.93213C3.49496 1.17877 4.48065 0.609675 5.55143 0.261759C8.95335 -0.843592 13.1996 1.60796 21.692 6.51105L45.3422 20.1655C53.8346 25.0686 58.0808 27.5201 58.8245 31.019C59.0586 32.1202 59.0586 33.2584 58.8245 34.3597C58.0808 37.8585 53.8346 40.3101 45.3422 45.2132L21.692 58.8676C13.1996 63.7707 8.95335 66.2223 5.55143 65.1169C4.48065 64.769 3.49496 64.1999 2.65826 63.4466C4.23437e-05 61.0531 4.38371e-05 56.15 4.24202e-05 46.3438L4.54063e-05 19.0349Z" fill="#434343"/>
</svg>
