<svg width="1071" height="375" viewBox="0 0 1071 375" fill="none" xmlns="http://www.w3.org/2000/svg">
<path d="M50.748 0.976187C74.8475 0.976187 87.5884 0.987508 94.3325 1.08856C97.7147 1.13924 99.5508 1.21236 100.549 1.31331C100.841 1.34277 101.035 1.37266 101.16 1.39734C102.911 5.98967 123.247 58.7461 147.752 122.213C160.535 155.32 172.178 185.456 180.646 207.336C184.881 218.275 188.321 227.152 190.714 233.305C191.91 236.38 192.845 238.776 193.486 240.409C193.807 241.225 194.055 241.852 194.226 242.278C194.311 242.491 194.378 242.657 194.426 242.772C194.45 242.829 194.471 242.88 194.488 242.919C194.496 242.937 194.507 242.962 194.519 242.986C194.525 242.998 194.536 243.02 194.55 243.046C194.558 243.06 194.576 243.09 194.588 243.108C194.595 243.118 194.61 243.134 194.626 243.155L194.624 243.157C194.628 243.162 194.634 243.165 194.638 243.169C194.663 243.2 194.69 243.236 194.714 243.262L194.731 243.244C194.967 243.406 195.369 243.543 195.602 243.529C195.759 243.483 195.981 243.361 196.051 243.305C196.154 243.215 196.215 243.122 196.223 243.109C196.26 243.053 196.286 243.002 196.296 242.985C196.321 242.936 196.347 242.877 196.372 242.822C196.423 242.707 196.495 242.537 196.586 242.318C196.769 241.877 197.041 241.204 197.409 240.284C198.145 238.441 199.271 235.59 200.844 231.58C203.991 223.559 208.933 210.889 216.139 192.338C230.52 155.318 253.925 94.8711 290.112 1.18921H434.099C492.601 1.18921 528.955 1.22126 551.115 1.30647C562.195 1.34907 569.723 1.40565 574.696 1.47747C579.686 1.54956 582.045 1.63738 582.848 1.73544C585.182 2.07527 589.497 2.79445 592.365 3.3849L592.367 3.38587C595.285 3.97811 599.812 5.07892 602.416 5.87666C605.027 6.67685 609.088 8.11431 611.501 9.04561C613.87 10.0189 618.312 12.0076 621.306 13.5259L621.311 13.5279C624.364 15.0543 628.455 17.3334 630.364 18.6199L630.373 18.6267L630.384 18.6335C632.364 19.8973 635.709 22.2261 637.777 23.7881L637.785 23.7939C639.889 25.3505 643.4 28.2277 645.594 30.21L645.6 30.2159C647.822 32.1863 651.33 35.7775 653.396 38.1387L653.402 38.1465C655.506 40.5034 658.722 44.565 660.577 47.1794L660.582 47.1853C662.437 49.7562 665.143 53.9851 666.571 56.5485L666.575 56.5543C668.009 59.0845 670.035 63.1386 671.039 65.5648L671.045 65.5784C672.095 68.0159 673.704 72.3741 674.633 75.2885L674.637 75.3003C675.603 78.1975 676.828 82.9311 677.418 85.838C677.935 88.3841 678.518 92.1356 678.824 94.7233L678.937 95.7542C679.188 98.2999 679.359 105.622 679.359 112.061C679.359 118.501 679.188 125.955 678.937 128.586L678.935 128.602C678.725 131.249 678.134 135.65 677.669 138.311C677.206 140.964 676.147 145.75 675.302 148.876L675.298 148.888C674.5 151.999 672.851 157.158 671.709 160.289C670.529 163.409 668.07 169.049 666.249 172.776C664.432 176.495 661.343 181.95 659.415 184.801L659.411 184.808L659.406 184.815C657.504 187.731 654.282 192.225 652.297 194.76L652.291 194.767C650.363 197.282 646.26 201.894 643.214 204.94L643.209 204.944C640.194 208.003 635.92 212.02 633.703 213.819L633.696 213.825C632.573 214.754 631.536 215.68 630.78 216.431C630.404 216.804 630.081 217.15 629.847 217.442C629.731 217.586 629.618 217.742 629.531 217.896C629.487 217.973 629.438 218.072 629.4 218.184C629.371 218.269 629.335 218.41 629.338 218.583H629.336C629.336 218.596 629.338 218.609 629.339 218.621C629.34 218.644 629.339 218.667 629.341 218.691L629.344 218.69C629.352 218.76 629.362 218.81 629.363 218.814C629.37 218.845 629.377 218.873 629.382 218.892C629.394 218.93 629.407 218.972 629.421 219.013C629.448 219.096 629.486 219.206 629.534 219.34C629.63 219.609 629.77 219.995 629.953 220.489C630.319 221.478 630.858 222.914 631.551 224.746C632.936 228.41 634.94 233.666 637.411 240.124C642.354 253.041 649.171 270.768 656.671 290.177C664.149 309.607 671 327.26 676.007 340.044C678.51 346.436 680.554 351.613 681.985 355.187C682.701 356.974 683.265 358.364 683.657 359.306C683.853 359.776 684.009 360.142 684.121 360.392C684.176 360.514 684.226 360.623 684.269 360.705C684.288 360.742 684.319 360.8 684.358 360.859C684.372 360.881 684.418 360.951 684.489 361.023C684.521 361.056 684.604 361.138 684.733 361.206C684.835 361.26 685.08 361.36 685.383 361.299L685.384 361.3C685.386 361.3 685.388 361.298 685.39 361.298C685.443 361.286 685.499 361.272 685.556 361.25L685.549 361.233C685.707 361.157 685.859 361.055 685.908 361.007C685.941 360.971 685.988 360.91 686.005 360.885C686.035 360.841 686.057 360.802 686.065 360.787C686.084 360.751 686.101 360.715 686.113 360.69C686.138 360.635 686.169 360.562 686.205 360.479C686.277 360.308 686.381 360.056 686.515 359.722C686.785 359.055 687.187 358.043 687.733 356.66C688.824 353.893 690.493 349.632 692.824 343.65C697.487 331.685 704.806 312.83 715.487 285.257C736.819 230.192 771.557 140.355 825.32 1.18725L925.731 0.977164L997.712 187.446V187.447C1034.72 283.211 1065.46 362.96 1069.59 373.671C1068.97 373.694 1068.09 373.719 1066.9 373.738C1063.94 373.785 1059.11 373.819 1051.65 373.838C1036.83 373.875 1011.63 373.853 970.148 373.769L952.195 327.31C942.181 301.4 933.618 279.333 932.425 276.224L932.002 275.119L930.998 275.745L903.302 293.002H903.301L896.419 297.301C890.441 301.036 885.199 304.311 881.434 306.66C879.551 307.835 878.037 308.778 876.986 309.433C876.893 309.49 876.804 309.545 876.718 309.598C876.704 308.992 876.689 308.206 876.675 307.222C876.635 304.347 876.599 299.798 876.567 293.128C876.503 279.86 876.461 258.208 876.46 224.667L904.971 207.057L905.662 206.63L905.368 205.874L895.994 181.714L894.402 177.608L881.592 144.601C880.228 141.062 878.958 137.842 878.013 135.503C877.541 134.335 877.148 133.382 876.864 132.718C876.722 132.389 876.604 132.121 876.514 131.932C876.471 131.84 876.426 131.749 876.384 131.675C876.365 131.641 876.332 131.583 876.287 131.523C876.267 131.496 876.221 131.435 876.151 131.371C876.115 131.338 876.052 131.285 875.962 131.235C875.899 131.2 875.788 131.148 875.641 131.124L875.483 131.111C875.148 131.17 874.781 131.41 874.715 131.485C874.689 131.52 874.652 131.576 874.639 131.597C874.618 131.632 874.603 131.661 874.599 131.671C874.587 131.696 874.576 131.721 874.569 131.737C874.553 131.774 874.533 131.823 874.51 131.879C874.463 131.993 874.395 132.162 874.306 132.386C874.127 132.835 873.858 133.516 873.493 134.447C872.762 136.311 871.642 139.183 870.074 143.216C866.937 151.283 862.006 163.998 854.807 182.594C840.443 219.704 817.047 280.235 780.86 373.981L589.608 374.022L569.611 322.197V322.196L564.246 308.324C559.365 295.723 555.898 286.845 553.496 280.824C551.895 276.813 550.762 274.059 549.995 272.315C549.613 271.447 549.313 270.808 549.085 270.384C548.975 270.179 548.861 269.985 548.748 269.835C548.695 269.766 548.604 269.654 548.478 269.557C548.396 269.493 548.016 269.216 547.513 269.384V269.386C547.441 269.409 547.389 269.433 547.382 269.436C547.35 269.451 547.318 269.467 547.292 269.481C547.238 269.51 547.172 269.547 547.097 269.589C546.947 269.674 546.737 269.798 546.463 269.961C545.915 270.288 545.097 270.784 543.97 271.474C541.714 272.854 538.21 275.017 533.129 278.167C522.965 284.469 506.485 294.728 481.048 310.599L480.591 310.885L480.589 311.424L480.379 373.981H380.92L380.962 202.946V202.945C380.962 132.556 380.941 89.5626 380.861 64.2192C380.821 51.5484 380.766 43.2849 380.692 38.2149C380.655 35.682 380.614 33.9367 380.566 32.8347C380.543 32.2882 380.516 31.879 380.486 31.6054C380.472 31.4807 380.453 31.3306 380.417 31.1999C380.408 31.1664 380.36 30.9789 380.221 30.8022C380.148 30.7086 379.947 30.4892 379.594 30.4338C379.221 30.3753 378.942 30.5388 378.798 30.6624L378.797 30.6614C378.794 30.6637 378.791 30.6659 378.789 30.6683C378.784 30.6723 378.779 30.6761 378.775 30.68L378.777 30.682C378.728 30.7298 378.668 30.7946 378.646 30.8227C378.631 30.8439 378.606 30.8798 378.596 30.896C378.577 30.9279 378.561 30.9558 378.553 30.9712C378.536 31.004 378.52 31.0377 378.508 31.064C378.483 31.1195 378.452 31.1916 378.417 31.2751C378.345 31.4447 378.243 31.6916 378.112 32.0158C377.849 32.6658 377.46 33.6438 376.934 34.9747C375.883 37.6374 374.283 41.7227 372.051 47.4472C367.588 58.8966 360.593 76.9078 350.399 103.219C330.043 155.759 296.923 241.398 245.695 373.981H145.414L143.908 370.049C142.904 367.364 110.416 283.186 71.6418 182.865C52.2548 132.651 34.6039 86.9744 21.7839 53.83C15.374 37.258 10.1715 23.8188 6.56361 14.5119C4.75974 9.85856 3.35453 6.23764 2.39601 3.77478C1.98277 2.71299 1.65159 1.86596 1.40809 1.24393C2.04434 1.22696 2.89719 1.20854 3.94872 1.19214C6.5057 1.15226 10.2217 1.11465 14.8197 1.0827C24.015 1.01881 36.7317 0.976187 50.748 0.976187Z" fill="#202020"/>
<path d="M50.748 0.976187C74.8475 0.976187 87.5884 0.987508 94.3325 1.08856C97.7147 1.13924 99.5508 1.21236 100.549 1.31331C100.841 1.34277 101.035 1.37266 101.16 1.39734C102.911 5.98967 123.247 58.7461 147.752 122.213C160.535 155.32 172.178 185.456 180.646 207.336C184.881 218.275 188.321 227.152 190.714 233.305C191.91 236.38 192.845 238.776 193.486 240.409C193.807 241.225 194.055 241.852 194.226 242.278C194.311 242.491 194.378 242.657 194.426 242.772C194.45 242.829 194.471 242.88 194.488 242.919C194.496 242.937 194.507 242.962 194.519 242.986C194.525 242.998 194.536 243.02 194.55 243.046C194.558 243.06 194.576 243.09 194.588 243.108C194.595 243.118 194.61 243.134 194.626 243.155L194.624 243.157C194.628 243.162 194.634 243.165 194.638 243.169C194.663 243.2 194.69 243.236 194.714 243.262L194.731 243.244C194.967 243.406 195.369 243.543 195.602 243.529C195.759 243.483 195.981 243.361 196.051 243.305C196.154 243.215 196.215 243.122 196.223 243.109C196.26 243.053 196.286 243.002 196.296 242.985C196.321 242.936 196.347 242.877 196.372 242.822C196.423 242.707 196.495 242.537 196.586 242.318C196.769 241.877 197.041 241.204 197.409 240.284C198.145 238.441 199.271 235.59 200.844 231.58C203.991 223.559 208.933 210.889 216.139 192.338C230.52 155.318 253.925 94.8711 290.112 1.18921H434.099C492.601 1.18921 528.955 1.22126 551.115 1.30647C562.195 1.34907 569.723 1.40565 574.696 1.47747C579.686 1.54956 582.045 1.63738 582.848 1.73544C585.182 2.07527 589.497 2.79445 592.365 3.3849L592.367 3.38587C595.285 3.97811 599.812 5.07892 602.416 5.87666C605.027 6.67685 609.088 8.11431 611.501 9.04561C613.87 10.0189 618.312 12.0076 621.306 13.5259L621.311 13.5279C624.364 15.0543 628.455 17.3334 630.364 18.6199L630.373 18.6267L630.384 18.6335C632.364 19.8973 635.709 22.2261 637.777 23.7881L637.785 23.7939C639.889 25.3505 643.4 28.2277 645.594 30.21L645.6 30.2159C647.822 32.1863 651.33 35.7775 653.396 38.1387L653.402 38.1465C655.506 40.5034 658.722 44.565 660.577 47.1794L660.582 47.1853C662.437 49.7562 665.143 53.9851 666.571 56.5485L666.575 56.5543C668.009 59.0845 670.035 63.1386 671.039 65.5648L671.045 65.5784C672.095 68.0159 673.704 72.3741 674.633 75.2885L674.637 75.3003C675.603 78.1975 676.828 82.9311 677.418 85.838C677.935 88.3841 678.518 92.1356 678.824 94.7233L678.937 95.7542C679.188 98.2999 679.359 105.622 679.359 112.061C679.359 118.501 679.188 125.955 678.937 128.586L678.935 128.602C678.725 131.249 678.134 135.65 677.669 138.311C677.206 140.964 676.147 145.75 675.302 148.876L675.298 148.888C674.5 151.999 672.851 157.158 671.709 160.289C670.529 163.409 668.07 169.049 666.249 172.776C664.432 176.495 661.343 181.95 659.415 184.801L659.411 184.808L659.406 184.815C657.504 187.731 654.282 192.225 652.297 194.76L652.291 194.767C650.363 197.282 646.26 201.894 643.214 204.94L643.209 204.944C640.194 208.003 635.92 212.02 633.703 213.819L633.696 213.825C632.573 214.754 631.536 215.68 630.78 216.431C630.404 216.804 630.081 217.15 629.847 217.442C629.731 217.586 629.618 217.742 629.531 217.896C629.487 217.973 629.438 218.072 629.4 218.184C629.371 218.269 629.335 218.41 629.338 218.583H629.336C629.336 218.596 629.338 218.609 629.339 218.621C629.34 218.644 629.339 218.667 629.341 218.691L629.344 218.69C629.352 218.76 629.362 218.81 629.363 218.814C629.37 218.845 629.377 218.873 629.382 218.892C629.394 218.93 629.407 218.972 629.421 219.013C629.448 219.096 629.486 219.206 629.534 219.34C629.63 219.609 629.77 219.995 629.953 220.489C630.319 221.478 630.858 222.914 631.551 224.746C632.936 228.41 634.94 233.666 637.411 240.124C642.354 253.041 649.171 270.768 656.671 290.177C664.149 309.607 671 327.26 676.007 340.044C678.51 346.436 680.554 351.613 681.985 355.187C682.701 356.974 683.265 358.364 683.657 359.306C683.853 359.776 684.009 360.142 684.121 360.392C684.176 360.514 684.226 360.623 684.269 360.705C684.288 360.742 684.319 360.8 684.358 360.859C684.372 360.881 684.418 360.951 684.489 361.023C684.521 361.056 684.604 361.138 684.733 361.206C684.835 361.26 685.08 361.36 685.383 361.299L685.384 361.3C685.386 361.3 685.388 361.298 685.39 361.298C685.443 361.286 685.499 361.272 685.556 361.25L685.549 361.233C685.707 361.157 685.859 361.055 685.908 361.007C685.941 360.971 685.988 360.91 686.005 360.885C686.035 360.841 686.057 360.802 686.065 360.787C686.084 360.751 686.101 360.715 686.113 360.69C686.138 360.635 686.169 360.562 686.205 360.479C686.277 360.308 686.381 360.056 686.515 359.722C686.785 359.055 687.187 358.043 687.733 356.66C688.824 353.893 690.493 349.632 692.824 343.65C697.487 331.685 704.806 312.83 715.487 285.257C736.819 230.192 771.557 140.355 825.32 1.18725L925.731 0.977164L997.712 187.446V187.447C1034.72 283.211 1065.46 362.96 1069.59 373.671C1068.97 373.694 1068.09 373.719 1066.9 373.738C1063.94 373.785 1059.11 373.819 1051.65 373.838C1036.83 373.875 1011.63 373.853 970.148 373.769L952.195 327.31C942.181 301.4 933.618 279.333 932.425 276.224L932.002 275.119L930.998 275.745L903.302 293.002H903.301L896.419 297.301C890.441 301.036 885.199 304.311 881.434 306.66C879.551 307.835 878.037 308.778 876.986 309.433C876.893 309.49 876.804 309.545 876.718 309.598C876.704 308.992 876.689 308.206 876.675 307.222C876.635 304.347 876.599 299.798 876.567 293.128C876.503 279.86 876.461 258.208 876.46 224.667L904.971 207.057L905.662 206.63L905.368 205.874L895.994 181.714L894.402 177.608L881.592 144.601C880.228 141.062 878.958 137.842 878.013 135.503C877.541 134.335 877.148 133.382 876.864 132.718C876.722 132.389 876.604 132.121 876.514 131.932C876.471 131.84 876.426 131.749 876.384 131.675C876.365 131.641 876.332 131.583 876.287 131.523C876.267 131.496 876.221 131.435 876.151 131.371C876.115 131.338 876.052 131.285 875.962 131.235C875.899 131.2 875.788 131.148 875.641 131.124L875.483 131.111C875.148 131.17 874.781 131.41 874.715 131.485C874.689 131.52 874.652 131.576 874.639 131.597C874.618 131.632 874.603 131.661 874.599 131.671C874.587 131.696 874.576 131.721 874.569 131.737C874.553 131.774 874.533 131.823 874.51 131.879C874.463 131.993 874.395 132.162 874.306 132.386C874.127 132.835 873.858 133.516 873.493 134.447C872.762 136.311 871.642 139.183 870.074 143.216C866.937 151.283 862.006 163.998 854.807 182.594C840.443 219.704 817.047 280.235 780.86 373.981L589.608 374.022L569.611 322.197V322.196L564.246 308.324C559.365 295.723 555.898 286.845 553.496 280.824C551.895 276.813 550.762 274.059 549.995 272.315C549.613 271.447 549.313 270.808 549.085 270.384C548.975 270.179 548.861 269.985 548.748 269.835C548.695 269.766 548.604 269.654 548.478 269.557C548.396 269.493 548.016 269.216 547.513 269.384V269.386C547.441 269.409 547.389 269.433 547.382 269.436C547.35 269.451 547.318 269.467 547.292 269.481C547.238 269.51 547.172 269.547 547.097 269.589C546.947 269.674 546.737 269.798 546.463 269.961C545.915 270.288 545.097 270.784 543.97 271.474C541.714 272.854 538.21 275.017 533.129 278.167C522.965 284.469 506.485 294.728 481.048 310.599L480.591 310.885L480.589 311.424L480.379 373.981H380.92L380.962 202.946V202.945C380.962 132.556 380.941 89.5626 380.861 64.2192C380.821 51.5484 380.766 43.2849 380.692 38.2149C380.655 35.682 380.614 33.9367 380.566 32.8347C380.543 32.2882 380.516 31.879 380.486 31.6054C380.472 31.4807 380.453 31.3306 380.417 31.1999C380.408 31.1664 380.36 30.9789 380.221 30.8022C380.148 30.7086 379.947 30.4892 379.594 30.4338C379.221 30.3753 378.942 30.5388 378.798 30.6624L378.797 30.6614C378.794 30.6637 378.791 30.6659 378.789 30.6683C378.784 30.6723 378.779 30.6761 378.775 30.68L378.777 30.682C378.728 30.7298 378.668 30.7946 378.646 30.8227C378.631 30.8439 378.606 30.8798 378.596 30.896C378.577 30.9279 378.561 30.9558 378.553 30.9712C378.536 31.004 378.52 31.0377 378.508 31.064C378.483 31.1195 378.452 31.1916 378.417 31.2751C378.345 31.4447 378.243 31.6916 378.112 32.0158C377.849 32.6658 377.46 33.6438 376.934 34.9747C375.883 37.6374 374.283 41.7227 372.051 47.4472C367.588 58.8966 360.593 76.9078 350.399 103.219C330.043 155.759 296.923 241.398 245.695 373.981H145.414L143.908 370.049C142.904 367.364 110.416 283.186 71.6418 182.865C52.2548 132.651 34.6039 86.9744 21.7839 53.83C15.374 37.258 10.1715 23.8188 6.56361 14.5119C4.75974 9.85856 3.35453 6.23764 2.39601 3.77478C1.98277 2.71299 1.65159 1.86596 1.40809 1.24393C2.04434 1.22696 2.89719 1.20854 3.94872 1.19214C6.5057 1.15226 10.2217 1.11465 14.8197 1.0827C24.015 1.01881 36.7317 0.976187 50.748 0.976187Z" stroke="#DB3242" stroke-width="1.95192"/>
<path d="M50.748 0.976187C74.8475 0.976187 87.5884 0.987508 94.3325 1.08856C97.7147 1.13924 99.5508 1.21236 100.549 1.31331C100.841 1.34277 101.035 1.37266 101.16 1.39734C102.911 5.98967 123.247 58.7461 147.752 122.213C160.535 155.32 172.178 185.456 180.646 207.336C184.881 218.275 188.321 227.152 190.714 233.305C191.91 236.38 192.845 238.776 193.486 240.409C193.807 241.225 194.055 241.852 194.226 242.278C194.311 242.491 194.378 242.657 194.426 242.772C194.45 242.829 194.471 242.88 194.488 242.919C194.496 242.937 194.507 242.962 194.519 242.986C194.525 242.998 194.536 243.02 194.55 243.046C194.558 243.06 194.576 243.09 194.588 243.108C194.595 243.118 194.61 243.134 194.626 243.155L194.624 243.157C194.628 243.162 194.634 243.165 194.638 243.169C194.663 243.2 194.69 243.236 194.714 243.262L194.731 243.244C194.967 243.406 195.369 243.543 195.602 243.529C195.759 243.483 195.981 243.361 196.051 243.305C196.154 243.215 196.215 243.122 196.223 243.109C196.26 243.053 196.286 243.002 196.296 242.985C196.321 242.936 196.347 242.877 196.372 242.822C196.423 242.707 196.495 242.537 196.586 242.318C196.769 241.877 197.041 241.204 197.409 240.284C198.145 238.441 199.271 235.59 200.844 231.58C203.991 223.559 208.933 210.889 216.139 192.338C230.52 155.318 253.925 94.8711 290.112 1.18921H434.099C492.601 1.18921 528.955 1.22126 551.115 1.30647C562.195 1.34907 569.723 1.40565 574.696 1.47747C579.686 1.54956 582.045 1.63738 582.848 1.73544C585.182 2.07527 589.497 2.79445 592.365 3.3849L592.367 3.38587C595.285 3.97811 599.812 5.07892 602.416 5.87666C605.027 6.67685 609.088 8.11431 611.501 9.04561C613.87 10.0189 618.312 12.0076 621.306 13.5259L621.311 13.5279C624.364 15.0543 628.455 17.3334 630.364 18.6199L630.373 18.6267L630.384 18.6335C632.364 19.8973 635.709 22.2261 637.777 23.7881L637.785 23.7939C639.889 25.3505 643.4 28.2277 645.594 30.21L645.6 30.2159C647.822 32.1863 651.33 35.7775 653.396 38.1387L653.402 38.1465C655.506 40.5034 658.722 44.565 660.577 47.1794L660.582 47.1853C662.437 49.7562 665.143 53.9851 666.571 56.5485L666.575 56.5543C668.009 59.0845 670.035 63.1386 671.039 65.5648L671.045 65.5784C672.095 68.0159 673.704 72.3741 674.633 75.2885L674.637 75.3003C675.603 78.1975 676.828 82.9311 677.418 85.838C677.935 88.3841 678.518 92.1356 678.824 94.7233L678.937 95.7542C679.188 98.2999 679.359 105.622 679.359 112.061C679.359 118.501 679.188 125.955 678.937 128.586L678.935 128.602C678.725 131.249 678.134 135.65 677.669 138.311C677.206 140.964 676.147 145.75 675.302 148.876L675.298 148.888C674.5 151.999 672.851 157.158 671.709 160.289C670.529 163.409 668.07 169.049 666.249 172.776C664.432 176.495 661.343 181.95 659.415 184.801L659.411 184.808L659.406 184.815C657.504 187.731 654.282 192.225 652.297 194.76L652.291 194.767C650.363 197.282 646.26 201.894 643.214 204.94L643.209 204.944C640.194 208.003 635.92 212.02 633.703 213.819L633.696 213.825C632.573 214.754 631.536 215.68 630.78 216.431C630.404 216.804 630.081 217.15 629.847 217.442C629.731 217.586 629.618 217.742 629.531 217.896C629.487 217.973 629.438 218.072 629.4 218.184C629.371 218.269 629.335 218.41 629.338 218.583H629.336C629.336 218.596 629.338 218.609 629.339 218.621C629.34 218.644 629.339 218.667 629.341 218.691L629.344 218.69C629.352 218.76 629.362 218.81 629.363 218.814C629.37 218.845 629.377 218.873 629.382 218.892C629.394 218.93 629.407 218.972 629.421 219.013C629.448 219.096 629.486 219.206 629.534 219.34C629.63 219.609 629.77 219.995 629.953 220.489C630.319 221.478 630.858 222.914 631.551 224.746C632.936 228.41 634.94 233.666 637.411 240.124C642.354 253.041 649.171 270.768 656.671 290.177C664.149 309.607 671 327.26 676.007 340.044C678.51 346.436 680.554 351.613 681.985 355.187C682.701 356.974 683.265 358.364 683.657 359.306C683.853 359.776 684.009 360.142 684.121 360.392C684.176 360.514 684.226 360.623 684.269 360.705C684.288 360.742 684.319 360.8 684.358 360.859C684.372 360.881 684.418 360.951 684.489 361.023C684.521 361.056 684.604 361.138 684.733 361.206C684.835 361.26 685.08 361.36 685.383 361.299L685.384 361.3C685.386 361.3 685.388 361.298 685.39 361.298C685.443 361.286 685.499 361.272 685.556 361.25L685.549 361.233C685.707 361.157 685.859 361.055 685.908 361.007C685.941 360.971 685.988 360.91 686.005 360.885C686.035 360.841 686.057 360.802 686.065 360.787C686.084 360.751 686.101 360.715 686.113 360.69C686.138 360.635 686.169 360.562 686.205 360.479C686.277 360.308 686.381 360.056 686.515 359.722C686.785 359.055 687.187 358.043 687.733 356.66C688.824 353.893 690.493 349.632 692.824 343.65C697.487 331.685 704.806 312.83 715.487 285.257C736.819 230.192 771.557 140.355 825.32 1.18725L925.731 0.977164L997.712 187.446V187.447C1034.72 283.211 1065.46 362.96 1069.59 373.671C1068.97 373.694 1068.09 373.719 1066.9 373.738C1063.94 373.785 1059.11 373.819 1051.65 373.838C1036.83 373.875 1011.63 373.853 970.148 373.769L952.195 327.31C942.181 301.4 933.618 279.333 932.425 276.224L932.002 275.119L930.998 275.745L903.302 293.002H903.301L896.419 297.301C890.441 301.036 885.199 304.311 881.434 306.66C879.551 307.835 878.037 308.778 876.986 309.433C876.893 309.49 876.804 309.545 876.718 309.598C876.704 308.992 876.689 308.206 876.675 307.222C876.635 304.347 876.599 299.798 876.567 293.128C876.503 279.86 876.461 258.208 876.46 224.667L904.971 207.057L905.662 206.63L905.368 205.874L895.994 181.714L894.402 177.608L881.592 144.601C880.228 141.062 878.958 137.842 878.013 135.503C877.541 134.335 877.148 133.382 876.864 132.718C876.722 132.389 876.604 132.121 876.514 131.932C876.471 131.84 876.426 131.749 876.384 131.675C876.365 131.641 876.332 131.583 876.287 131.523C876.267 131.496 876.221 131.435 876.151 131.371C876.115 131.338 876.052 131.285 875.962 131.235C875.899 131.2 875.788 131.148 875.641 131.124L875.483 131.111C875.148 131.17 874.781 131.41 874.715 131.485C874.689 131.52 874.652 131.576 874.639 131.597C874.618 131.632 874.603 131.661 874.599 131.671C874.587 131.696 874.576 131.721 874.569 131.737C874.553 131.774 874.533 131.823 874.51 131.879C874.463 131.993 874.395 132.162 874.306 132.386C874.127 132.835 873.858 133.516 873.493 134.447C872.762 136.311 871.642 139.183 870.074 143.216C866.937 151.283 862.006 163.998 854.807 182.594C840.443 219.704 817.047 280.235 780.86 373.981L589.608 374.022L569.611 322.197V322.196L564.246 308.324C559.365 295.723 555.898 286.845 553.496 280.824C551.895 276.813 550.762 274.059 549.995 272.315C549.613 271.447 549.313 270.808 549.085 270.384C548.975 270.179 548.861 269.985 548.748 269.835C548.695 269.766 548.604 269.654 548.478 269.557C548.396 269.493 548.016 269.216 547.513 269.384V269.386C547.441 269.409 547.389 269.433 547.382 269.436C547.35 269.451 547.318 269.467 547.292 269.481C547.238 269.51 547.172 269.547 547.097 269.589C546.947 269.674 546.737 269.798 546.463 269.961C545.915 270.288 545.097 270.784 543.97 271.474C541.714 272.854 538.21 275.017 533.129 278.167C522.965 284.469 506.485 294.728 481.048 310.599L480.591 310.885L480.589 311.424L480.379 373.981H380.92L380.962 202.946V202.945C380.962 132.556 380.941 89.5626 380.861 64.2192C380.821 51.5484 380.766 43.2849 380.692 38.2149C380.655 35.682 380.614 33.9367 380.566 32.8347C380.543 32.2882 380.516 31.879 380.486 31.6054C380.472 31.4807 380.453 31.3306 380.417 31.1999C380.408 31.1664 380.36 30.9789 380.221 30.8022C380.148 30.7086 379.947 30.4892 379.594 30.4338C379.221 30.3753 378.942 30.5388 378.798 30.6624L378.797 30.6614C378.794 30.6637 378.791 30.6659 378.789 30.6683C378.784 30.6723 378.779 30.6761 378.775 30.68L378.777 30.682C378.728 30.7298 378.668 30.7946 378.646 30.8227C378.631 30.8439 378.606 30.8798 378.596 30.896C378.577 30.9279 378.561 30.9558 378.553 30.9712C378.536 31.004 378.52 31.0377 378.508 31.064C378.483 31.1195 378.452 31.1916 378.417 31.2751C378.345 31.4447 378.243 31.6916 378.112 32.0158C377.849 32.6658 377.46 33.6438 376.934 34.9747C375.883 37.6374 374.283 41.7227 372.051 47.4472C367.588 58.8966 360.593 76.9078 350.399 103.219C330.043 155.759 296.923 241.398 245.695 373.981H145.414L143.908 370.049C142.904 367.364 110.416 283.186 71.6418 182.865C52.2548 132.651 34.6039 86.9744 21.7839 53.83C15.374 37.258 10.1715 23.8188 6.56361 14.5119C4.75974 9.85856 3.35453 6.23764 2.39601 3.77478C1.98277 2.71299 1.65159 1.86596 1.40809 1.24393C2.04434 1.22696 2.89719 1.20854 3.94872 1.19214C6.5057 1.15226 10.2217 1.11465 14.8197 1.0827C24.015 1.01881 36.7317 0.976187 50.748 0.976187Z" stroke="#202020" stroke-width="1.95192"/>
</svg>
