<svg width="84" height="86" viewBox="0 0 84 86" fill="none" xmlns="http://www.w3.org/2000/svg">
<path fill-rule="evenodd" clip-rule="evenodd" d="M40.0285 0.0110809C40.3861 0.0332179 40.8691 0.147594 41.105 0.26566C41.341 0.383727 41.9198 0.785889 42.3917 1.15853C42.8563 1.53118 43.5309 2.10675 43.8738 2.4278C44.2609 2.78937 44.6149 3.23581 44.7882 3.59741C45.0241 4.09919 45.0462 4.26891 44.9909 4.80017C44.9504 5.13223 44.8103 5.60819 44.6923 5.86645C44.5633 6.10996 44.0692 6.71506 43.5862 7.2058C43.1143 7.69651 41.6506 9.08013 40.3529 10.2829C39.0514 11.4857 36.5407 13.8175 34.7673 15.4557C32.994 17.0829 30.1699 19.7024 28.485 21.2557C26.7964 22.809 25.0047 24.4804 23.5447 25.8456L21.0929 24.0118C19.7509 23.0009 18.6227 22.1301 18.5821 22.0748C18.5379 22.0121 18.4936 21.8645 18.4936 21.7464C18.4936 21.6173 18.9693 21.0417 19.655 20.3517C20.2892 19.6913 21.1814 18.732 21.6312 18.2228C22.0847 17.7026 23.0064 16.6696 23.6737 15.9353C24.3374 15.2011 26.1107 13.2825 27.615 11.6775C29.1192 10.0689 31.5562 7.47144 33.0383 5.88491C34.5204 4.30943 36.1647 2.56432 36.6882 1.99977C37.2154 1.44633 37.7943 0.874458 37.9786 0.734289C38.163 0.597776 38.5464 0.372713 38.8487 0.22513C39.2875 0.0111373 39.505 -0.0221288 40.0285 0.0110809ZM43.6821 15.5741C44.2204 15.6036 44.9172 15.6996 45.2379 15.7955C45.5624 15.8914 46.1633 16.1386 46.58 16.3489C47.0556 16.5961 47.6123 17.0204 48.0953 17.489C48.5045 17.8948 49.0207 18.5442 49.2345 18.9242C49.4483 19.3079 49.7396 19.9794 49.8686 20.4148C50.0493 21.0125 50.1156 21.47 50.1156 22.2264C50.1156 22.8757 50.0419 23.4808 49.9129 23.9273C49.8022 24.311 49.5479 24.9604 49.3303 25.3662C49.0723 25.8643 48.6851 26.3771 48.1395 26.9084C47.6123 27.4397 47.074 27.8456 46.58 28.1001C46.1634 28.3141 45.4445 28.5908 44.9726 28.7274C44.25 28.9192 43.9402 28.9524 43.037 28.9008C42.3513 28.8676 41.7282 28.7606 41.319 28.613C40.965 28.4949 40.3862 28.2403 40.0286 28.0485C39.6746 27.8566 39.0405 27.377 38.6349 26.9638C38.1519 26.4952 37.7316 25.9418 37.4846 25.4732C37.2707 25.0673 37.0127 24.418 36.9057 24.0343C36.8062 23.6395 36.7214 22.9274 36.7103 22.3851C36.7103 21.7689 36.7767 21.1823 36.8947 20.7358C37.0016 20.3521 37.2597 19.6806 37.4846 19.2452C37.7758 18.6475 38.0966 18.2233 38.7417 17.596C39.3095 17.0315 39.8589 16.6035 40.3529 16.3489C40.7695 16.1276 41.47 15.8619 41.9087 15.7328C42.5428 15.5631 42.919 15.5298 43.6821 15.5741ZM16.853 24.6836C17.111 24.6726 17.5719 24.7685 17.8816 24.8866C18.1949 25.0046 18.7959 25.3773 19.2457 25.7499C19.6881 26.1226 20.7277 27.0154 21.5573 27.7497C22.3831 28.4728 23.8321 29.7937 24.7796 30.6866C25.7234 31.5721 26.6156 32.3802 26.7668 32.476C27.0138 32.6458 27.1724 32.6568 28.5365 32.5609C29.366 32.4982 30.7928 32.3801 31.7072 32.2842C32.6178 32.1993 33.8971 32.0812 34.5534 32.0296C35.2059 31.9632 37.9157 31.6975 40.5666 31.4319C43.6819 31.1146 45.6913 30.9522 46.2074 30.9854C46.6572 31.0076 47.2692 31.133 47.6011 31.2622C47.9255 31.3802 48.438 31.668 48.7292 31.8894C49.0316 32.1144 49.4261 32.5277 49.6215 32.8155C49.8132 33.1143 50.0712 33.6161 50.2003 33.9334C50.3183 34.2544 50.4362 34.8078 50.4694 35.1584C50.5026 35.5089 50.4694 36.0845 50.3957 36.435C50.3072 36.8187 49.9311 37.7116 49.4261 38.6709C48.9763 39.5527 48.0104 41.3938 47.2914 42.77C46.5615 44.1425 45.2379 46.6551 44.3567 48.356C43.4682 50.0606 42.7677 51.518 42.7898 51.6028C42.823 51.6877 43.3281 52.4883 43.9179 53.3591C44.5078 54.2446 45.8313 56.2554 46.849 57.8309C47.8702 59.4174 48.9246 61.0445 49.1901 61.4503C49.4593 61.8636 49.8464 62.535 50.0602 62.9409C50.4363 63.6641 50.4473 63.7157 50.4473 64.8557C50.4473 65.7929 50.4068 66.1324 50.2335 66.505C50.1266 66.7707 49.0832 68.5158 47.9256 70.3901C46.7642 72.2645 45.0019 75.1275 43.9917 76.7547C42.9926 78.3855 41.9861 79.9609 41.7391 80.2672C41.5031 80.5771 41.0718 80.983 40.7695 81.1711C40.4819 81.363 39.9768 81.6213 39.6524 81.7356C39.1805 81.9091 38.8708 81.9496 38.1297 81.9164C37.3002 81.8869 37.1527 81.8537 36.7434 81.5659C36.4853 81.3962 36.1425 81.0568 35.9692 80.8206C35.7664 80.5329 35.6484 80.2155 35.6042 79.8651C35.5636 79.4149 35.6042 79.2046 35.9176 78.5331C36.1203 78.0977 37.1932 75.8729 38.2992 73.5853C39.4053 71.2941 40.7288 68.6008 41.2229 67.6009C41.7169 66.59 42.1262 65.6307 42.1262 65.472C42.1151 65.2802 41.9086 64.8964 41.5437 64.4278C41.234 64.0257 40.021 62.3949 38.8596 60.8121C37.6982 59.2366 36.7102 57.9268 36.6696 57.9047C36.6254 57.8936 34.111 60.3841 31.073 63.4391C28.0314 66.5051 24.6912 69.87 23.6625 70.9216C22.6302 71.9768 20.8384 73.7958 19.6882 74.9691C18.5268 76.1387 16.617 78.0757 15.4336 79.2564C13.9293 80.7802 13.1256 81.5033 12.7495 81.6952C12.3956 81.876 11.9753 81.983 11.5144 82.0125C10.9651 82.0568 10.6775 82.0125 10.1724 81.8317C9.71894 81.662 9.365 81.4295 8.97791 81.0458C8.62398 80.6953 8.37696 80.3227 8.25898 79.9685C8.15207 79.6844 8.07833 79.3007 8.07833 79.1199C8.07833 78.9502 8.1963 78.5664 8.33641 78.2676C8.47282 77.9798 8.91523 77.3526 9.31345 76.884C9.71901 76.4155 10.6002 75.3418 11.3007 74.4895C11.9864 73.6372 13.6529 71.5821 14.9949 69.9107C16.348 68.2393 17.8927 66.3023 18.442 65.6012C18.9914 64.8965 19.902 63.6531 20.4809 62.834C21.0634 62.015 21.727 61.1074 21.974 60.8122C22.21 60.5244 23.1132 59.4913 23.9723 58.5209C24.8313 57.5543 26.1659 56.0526 26.9254 55.1708C27.6886 54.2964 29.0196 52.8611 31.438 50.378L32.7468 47.6109C33.4658 46.0907 34.6161 43.674 35.3055 42.2351C35.9912 40.7999 36.5295 39.6193 36.5185 39.5971C36.4963 39.586 34.1442 39.6487 31.2758 39.7336C27.6554 39.8406 25.8967 39.8627 25.5096 39.7889C25.1962 39.7336 24.6616 39.5528 24.3261 39.3941C23.8137 39.1506 22.9104 38.3315 18.9987 34.5202C14.7699 30.41 14.2538 29.8676 13.9514 29.2515C13.6823 28.7091 13.6085 28.4324 13.6085 27.9195C13.6196 27.5173 13.6933 27.1004 13.8334 26.8016C13.9514 26.5359 14.2648 26.0895 14.5339 25.8017C14.7883 25.525 15.1976 25.1855 15.4335 25.0675C15.6695 24.9494 15.9828 24.8129 16.134 24.7686C16.2815 24.728 16.6059 24.6837 16.864 24.6837L16.853 24.6836ZM72.885 27.5579C73.1763 27.5468 73.7109 27.6206 74.0648 27.7165C74.4187 27.8014 74.9054 27.9932 75.1413 28.1334C75.3773 28.2699 75.7644 28.5909 76.0114 28.8455C76.2474 29.1001 76.5792 29.5908 76.7414 29.9414C76.9331 30.3251 77.0732 30.8379 77.1064 31.218C77.1359 31.5722 77.0954 32.1256 77.0179 32.443C76.9442 32.7639 76.7635 33.262 76.6013 33.5498C76.4502 33.8376 76.052 34.3173 75.7312 34.6161C75.3662 34.9666 74.9054 35.2655 74.4961 35.4131C74.0021 35.6049 73.6371 35.6677 72.9367 35.6787C72.1219 35.6787 71.9486 35.6492 71.296 35.3393C70.8978 35.1474 70.3595 34.7858 70.0905 34.5202C69.825 34.2545 69.46 33.7196 69.2646 33.3285C68.9549 32.6791 68.9217 32.4983 68.9107 31.6461C68.9107 30.7827 68.9439 30.6241 69.2646 29.9747C69.4489 29.5689 69.825 29.0376 70.0905 28.772C70.3596 28.5063 70.7799 28.1853 71.0269 28.0599C71.285 27.9307 71.6832 27.7721 71.9191 27.6983C72.1551 27.6208 72.5827 27.5579 72.885 27.5579ZM12.115 31.0371C12.2108 31.0814 12.4689 31.3803 12.6938 31.6976C12.9113 32.0186 13.457 32.572 13.9105 32.9225C14.3492 33.273 14.7142 33.594 14.7253 33.6457C14.7253 33.69 14.1464 34.2102 13.4349 34.819C12.7159 35.413 11.9859 35.9553 11.7942 36.0217C11.5251 36.125 11.3739 36.1177 11.0716 35.9885C10.8688 35.9037 10.4301 35.627 10.1057 35.3798C9.78494 35.1252 9.40889 34.7857 9.26879 34.616C9.10657 34.402 9.03283 34.1696 9.03283 33.8818C9.03283 33.6457 9.12869 33.3173 9.2356 33.1365C9.35358 32.9668 9.71858 32.5941 10.0762 32.3285C10.4191 32.0591 10.9758 31.6348 11.3186 31.4024C11.7279 31.1146 11.997 30.9965 12.115 31.0371ZM64.4199 46.5038C66.1085 46.4927 67.137 46.537 67.3214 46.6108C67.491 46.6735 67.9334 47.0351 68.3205 47.4078C68.7076 47.7804 69.0505 48.0903 69.0947 48.0903C69.1463 48.0903 69.5445 47.7398 70.8128 46.5481L73.7217 46.5149C76.4057 46.4928 76.6748 46.5038 77.0177 46.6846C77.2241 46.8027 77.5043 47.0462 77.8878 47.6107L77.8767 80.1309H74.6581L74.7097 49.6887L71.0597 49.6776L70.9196 49.9543C70.8238 50.1683 70.7906 53.4226 70.7906 80.1312H67.5683V65.0706C67.5683 56.7875 67.5462 49.9326 67.513 49.8476C67.4724 49.7111 67.148 49.6889 63.6491 49.6889L63.7008 80.1312H60.4784L60.5337 47.3238L60.9282 46.9623C61.1458 46.7704 61.4333 46.5896 61.5734 46.5712C61.7025 46.549 62.9928 46.5158 64.4196 46.5048L64.4199 46.5038ZM42.1881 82.5877C83.4436 82.5767 83.5691 82.5767 83.7862 82.7907C83.9669 82.9715 84 83.1412 84 83.9419C84 84.451 83.9447 85.0488 83.8931 85.2701C83.8268 85.484 83.6793 85.7386 83.5392 85.8235C83.3327 85.9637 78.3297 85.9748 0.420294 85.9305L0.213833 85.6648C0.0331751 85.4398 0 85.2295 0 84.1743C0 83.2998 0.0442417 82.9198 0.140101 82.8239C0.213837 82.7575 0.398181 82.6837 0.549334 82.6505C0.696807 82.632 19.4409 82.5988 42.1881 82.5877Z" fill="#202020"/>
</svg>
