<svg width="78" height="88" viewBox="0 0 78 88" fill="none" xmlns="http://www.w3.org/2000/svg">
<mask id="path-1-inside-1_350_787" fill="white">
<path fill-rule="evenodd" clip-rule="evenodd" d="M42.5095 24.1689C46.4821 24.8614 50.0578 26.7032 52.8746 29.3413C51.186 30.0857 49.191 30.695 46.9801 31.1278C46.7607 30.5115 46.524 29.9264 46.2768 29.369C45.2497 27.0736 43.9684 25.2803 42.5095 24.1689ZM0.676829 21.9982C2.0695 19.5989 5.15423 18.7784 7.56362 20.1633C9.97639 21.5481 10.8016 24.6155 9.40889 27.0114C8.01622 29.4106 4.93149 30.2312 2.52211 28.8463C0.112809 27.4649 -0.715841 24.3975 0.676829 21.9982ZM3.91825 35.6872C2.73798 36.1615 0.415676 37.2106 1.43578 38.8551C3.37161 41.1089 8.92482 39.1597 11.1216 37.9411C18.4993 33.8523 21.9983 24.151 18.1721 16.5004C17.5941 15.344 17.0336 14.4958 15.7175 14.2534C13.7782 14.198 14.022 16.722 14.1995 17.9752C14.9481 23.1338 15.7419 27.0147 11.8947 31.2769C9.74643 33.6554 6.80805 34.5378 3.91825 35.6872ZM0.676829 66.0016C-0.715841 63.6024 0.109315 60.5383 2.52211 59.1535C4.9349 57.7686 8.01622 58.5892 9.40889 60.9884C10.8016 63.3877 9.97641 66.4517 7.56362 67.8366C5.15432 69.2214 2.0695 68.3974 0.676829 66.0016ZM14.2167 70.0558C14.0391 71.3126 13.7954 73.833 15.7347 73.7776C18.6663 73.2375 19.7421 67.4799 19.7804 64.9768C19.9058 56.5811 13.2105 48.7148 4.63175 48.1857C3.33658 48.1061 2.31639 48.1649 1.4495 49.1759C0.429402 50.8204 2.75162 51.8694 3.93198 52.3437C8.79585 54.2791 12.577 55.5324 14.3665 60.9818C15.3658 64.0181 14.6624 66.992 14.2167 70.0558ZM38.9995 88C36.2142 88 33.9581 85.7566 33.9581 82.9869C33.9581 80.2171 36.2142 77.9737 38.9995 77.9737C41.7849 77.9737 44.041 80.2171 44.041 82.9869C44.041 85.7566 41.7849 88 38.9995 88ZM49.3022 78.3685C50.3049 79.1475 52.38 80.6224 53.3027 78.9224C54.2984 76.1285 49.8245 72.3201 47.6624 71.0357C40.4135 66.7288 30.2159 68.5637 25.4634 75.6854C24.7462 76.7621 24.2866 77.6692 24.7357 78.9224C25.6584 80.6224 27.7335 79.1475 28.7362 78.3685C32.855 75.1452 35.8389 72.5174 41.4757 73.7015C44.6161 74.3628 46.8547 76.454 49.3022 78.3685ZM77.3232 66.0018C75.9305 68.4011 72.8458 69.2216 70.4364 67.8367C68.0236 66.4519 67.1984 63.3845 68.5911 60.9886C69.9838 58.5894 73.0685 57.7688 75.4779 59.1537C77.8872 60.5351 78.7158 63.6025 77.3232 66.0018ZM74.0817 52.3163C75.262 51.842 77.5843 50.7929 76.5642 49.1485C74.6284 46.8946 69.0752 48.8438 66.8784 50.0624C59.5007 54.1512 56.0017 63.8525 59.8279 71.5031C60.4059 72.6595 60.9664 73.5077 62.2825 73.7501C64.2218 73.8055 63.978 71.2816 63.8005 70.0283C63.0519 64.8697 62.2581 60.9889 66.1053 56.7266C68.2536 54.3446 71.1919 53.4623 74.0817 52.3163ZM77.3232 21.9984C78.7158 24.3976 77.8907 27.4617 75.4779 28.8465C73.0651 30.2314 69.9838 29.4108 68.5911 27.0116C67.1984 24.6123 68.0236 21.5483 70.4364 20.1634C72.8457 18.7786 75.9305 19.6026 77.3232 21.9984ZM63.7833 17.9442C63.9609 16.6874 64.2046 14.167 62.2653 14.2224C59.3337 14.7625 58.2579 20.5201 58.2196 23.0232C58.0942 31.4189 64.7895 39.2852 73.3682 39.8143C74.6634 39.8939 75.6836 39.8351 76.5505 38.8241C77.5706 37.1796 75.2484 36.1306 74.068 35.6563C69.2041 33.7209 65.423 32.4642 63.6335 27.0182C62.6342 23.9819 63.3376 21.008 63.7833 17.9442ZM39.0004 0C41.7858 0 44.0419 2.24342 44.0419 5.01314C44.0419 7.78285 41.7858 10.0263 39.0004 10.0263C36.2151 10.0263 33.959 7.78285 33.959 5.01314C33.959 2.24342 36.2151 0 39.0004 0ZM28.6978 9.63152C27.6951 8.85253 25.62 7.37763 24.6973 9.07757C23.7016 11.8715 28.1755 15.6799 30.3376 16.9608C37.5865 21.2678 47.7841 19.4328 52.5366 12.3112C53.2538 11.238 53.7134 10.3274 53.2642 9.07412C52.3416 7.37418 50.2665 8.84907 49.2638 9.62806C45.145 12.8513 42.1647 15.4757 36.5243 14.295C33.3839 13.6372 31.1453 11.546 28.6978 9.63152ZM45.0168 31.4533C44.8497 31.0032 44.6721 30.5739 44.4876 30.1585C43.0149 26.873 41.0686 24.8441 39.0005 24.8441C36.9324 24.8441 34.9861 26.8764 33.5134 30.1585C33.3289 30.5705 33.1513 31.0033 32.9842 31.4533C34.8747 31.7199 36.8976 31.8653 39.0005 31.8653C41.1035 31.8653 43.1262 31.7199 45.0168 31.4533ZM31.017 31.1244C28.8061 30.6917 26.8111 30.0823 25.1225 29.338C27.9392 26.7033 31.5149 24.858 35.4875 24.1656C34.0322 25.2769 32.7475 27.0703 31.7203 29.3623C31.4731 29.9231 31.2363 30.5116 31.017 31.1244ZM54.2846 30.799C54.2115 30.8648 54.1314 30.9202 54.0374 30.9617C52.206 31.8099 50.0161 32.5024 47.5789 32.994C48.411 35.9299 48.9228 39.354 48.9995 43.0199H59.2219C58.9991 38.353 57.1744 34.1049 54.2846 30.799ZM59.2217 44.9764C58.9988 49.6433 57.1744 53.8944 54.2846 57.2012C54.2115 57.1355 54.1314 57.0801 54.0374 57.0385C52.206 56.1903 50.0161 55.4978 47.5789 55.0062C48.411 52.0703 48.9228 48.6462 48.9995 44.9803H59.2219L59.2217 44.9764ZM45.6399 54.6637C43.5508 54.3487 41.3156 54.179 39.0004 54.179C36.6851 54.179 34.4533 54.3487 32.3608 54.6637C31.5461 51.8594 31.0447 48.5496 30.9681 44.9764H47.0322C46.9556 48.5493 46.4546 51.8591 45.6399 54.6637ZM30.9681 43.0238C31.0447 39.4544 31.546 36.1411 32.3607 33.3365C34.4498 33.6515 36.685 33.8212 39.0003 33.8212C41.3155 33.8212 43.5474 33.6515 45.6398 33.3365C46.4545 36.1409 46.9559 39.4506 47.0325 43.0238H30.9681ZM30.4214 55.0067C27.9842 55.4984 25.7943 56.1942 23.9629 57.039C23.8689 57.0806 23.7888 57.1394 23.7157 57.2018C20.8259 53.8954 19.0015 49.6439 18.7787 44.9769H29.0011C29.0777 48.6433 29.5893 52.0677 30.4214 55.0067ZM18.7792 43.0238C19.002 38.3569 20.8264 34.1058 23.7162 30.799C23.7893 30.8648 23.8729 30.9202 23.9634 30.9617C25.7948 31.8099 27.9847 32.5024 30.4219 32.994C29.5898 35.9299 29.078 39.354 29.0013 43.0199H18.7789L18.7792 43.0238ZM52.8753 58.6628C51.1867 57.9184 49.1917 57.3091 46.9808 56.8763C46.7615 57.4926 46.5247 58.0777 46.2775 58.6351C45.2504 60.927 43.9656 62.7205 42.5103 63.8318C46.4863 63.1394 50.062 61.2974 52.8753 58.6628ZM35.4912 63.8317C34.0359 62.7204 32.7511 60.927 31.724 58.635C31.4733 58.0776 31.24 57.4925 31.0207 56.8762C28.8098 57.309 26.8148 57.9183 25.1262 58.6627C27.9394 61.2974 31.5151 63.1393 35.4912 63.8317ZM32.9844 56.5473C34.8749 56.2807 36.8978 56.1388 39.0007 56.1388C41.1037 56.1388 43.1265 56.2842 45.0171 56.5473C44.8499 56.9974 44.6724 57.4267 44.4878 57.8421C43.0151 61.1277 41.0689 63.1565 39.0008 63.1565C36.9327 63.1565 34.9864 61.1242 33.5137 57.8421C33.3292 57.4267 33.1515 56.9939 32.9844 56.5473Z"/>
</mask>
<path fill-rule="evenodd" clip-rule="evenodd" d="M42.5095 24.1689C46.4821 24.8614 50.0578 26.7032 52.8746 29.3413C51.186 30.0857 49.191 30.695 46.9801 31.1278C46.7607 30.5115 46.524 29.9264 46.2768 29.369C45.2497 27.0736 43.9684 25.2803 42.5095 24.1689ZM0.676829 21.9982C2.0695 19.5989 5.15423 18.7784 7.56362 20.1633C9.97639 21.5481 10.8016 24.6155 9.40889 27.0114C8.01622 29.4106 4.93149 30.2312 2.52211 28.8463C0.112809 27.4649 -0.715841 24.3975 0.676829 21.9982ZM3.91825 35.6872C2.73798 36.1615 0.415676 37.2106 1.43578 38.8551C3.37161 41.1089 8.92482 39.1597 11.1216 37.9411C18.4993 33.8523 21.9983 24.151 18.1721 16.5004C17.5941 15.344 17.0336 14.4958 15.7175 14.2534C13.7782 14.198 14.022 16.722 14.1995 17.9752C14.9481 23.1338 15.7419 27.0147 11.8947 31.2769C9.74643 33.6554 6.80805 34.5378 3.91825 35.6872ZM0.676829 66.0016C-0.715841 63.6024 0.109315 60.5383 2.52211 59.1535C4.9349 57.7686 8.01622 58.5892 9.40889 60.9884C10.8016 63.3877 9.97641 66.4517 7.56362 67.8366C5.15432 69.2214 2.0695 68.3974 0.676829 66.0016ZM14.2167 70.0558C14.0391 71.3126 13.7954 73.833 15.7347 73.7776C18.6663 73.2375 19.7421 67.4799 19.7804 64.9768C19.9058 56.5811 13.2105 48.7148 4.63175 48.1857C3.33658 48.1061 2.31639 48.1649 1.4495 49.1759C0.429402 50.8204 2.75162 51.8694 3.93198 52.3437C8.79585 54.2791 12.577 55.5324 14.3665 60.9818C15.3658 64.0181 14.6624 66.992 14.2167 70.0558ZM38.9995 88C36.2142 88 33.9581 85.7566 33.9581 82.9869C33.9581 80.2171 36.2142 77.9737 38.9995 77.9737C41.7849 77.9737 44.041 80.2171 44.041 82.9869C44.041 85.7566 41.7849 88 38.9995 88ZM49.3022 78.3685C50.3049 79.1475 52.38 80.6224 53.3027 78.9224C54.2984 76.1285 49.8245 72.3201 47.6624 71.0357C40.4135 66.7288 30.2159 68.5637 25.4634 75.6854C24.7462 76.7621 24.2866 77.6692 24.7357 78.9224C25.6584 80.6224 27.7335 79.1475 28.7362 78.3685C32.855 75.1452 35.8389 72.5174 41.4757 73.7015C44.6161 74.3628 46.8547 76.454 49.3022 78.3685ZM77.3232 66.0018C75.9305 68.4011 72.8458 69.2216 70.4364 67.8367C68.0236 66.4519 67.1984 63.3845 68.5911 60.9886C69.9838 58.5894 73.0685 57.7688 75.4779 59.1537C77.8872 60.5351 78.7158 63.6025 77.3232 66.0018ZM74.0817 52.3163C75.262 51.842 77.5843 50.7929 76.5642 49.1485C74.6284 46.8946 69.0752 48.8438 66.8784 50.0624C59.5007 54.1512 56.0017 63.8525 59.8279 71.5031C60.4059 72.6595 60.9664 73.5077 62.2825 73.7501C64.2218 73.8055 63.978 71.2816 63.8005 70.0283C63.0519 64.8697 62.2581 60.9889 66.1053 56.7266C68.2536 54.3446 71.1919 53.4623 74.0817 52.3163ZM77.3232 21.9984C78.7158 24.3976 77.8907 27.4617 75.4779 28.8465C73.0651 30.2314 69.9838 29.4108 68.5911 27.0116C67.1984 24.6123 68.0236 21.5483 70.4364 20.1634C72.8457 18.7786 75.9305 19.6026 77.3232 21.9984ZM63.7833 17.9442C63.9609 16.6874 64.2046 14.167 62.2653 14.2224C59.3337 14.7625 58.2579 20.5201 58.2196 23.0232C58.0942 31.4189 64.7895 39.2852 73.3682 39.8143C74.6634 39.8939 75.6836 39.8351 76.5505 38.8241C77.5706 37.1796 75.2484 36.1306 74.068 35.6563C69.2041 33.7209 65.423 32.4642 63.6335 27.0182C62.6342 23.9819 63.3376 21.008 63.7833 17.9442ZM39.0004 0C41.7858 0 44.0419 2.24342 44.0419 5.01314C44.0419 7.78285 41.7858 10.0263 39.0004 10.0263C36.2151 10.0263 33.959 7.78285 33.959 5.01314C33.959 2.24342 36.2151 0 39.0004 0ZM28.6978 9.63152C27.6951 8.85253 25.62 7.37763 24.6973 9.07757C23.7016 11.8715 28.1755 15.6799 30.3376 16.9608C37.5865 21.2678 47.7841 19.4328 52.5366 12.3112C53.2538 11.238 53.7134 10.3274 53.2642 9.07412C52.3416 7.37418 50.2665 8.84907 49.2638 9.62806C45.145 12.8513 42.1647 15.4757 36.5243 14.295C33.3839 13.6372 31.1453 11.546 28.6978 9.63152ZM45.0168 31.4533C44.8497 31.0032 44.6721 30.5739 44.4876 30.1585C43.0149 26.873 41.0686 24.8441 39.0005 24.8441C36.9324 24.8441 34.9861 26.8764 33.5134 30.1585C33.3289 30.5705 33.1513 31.0033 32.9842 31.4533C34.8747 31.7199 36.8976 31.8653 39.0005 31.8653C41.1035 31.8653 43.1262 31.7199 45.0168 31.4533ZM31.017 31.1244C28.8061 30.6917 26.8111 30.0823 25.1225 29.338C27.9392 26.7033 31.5149 24.858 35.4875 24.1656C34.0322 25.2769 32.7475 27.0703 31.7203 29.3623C31.4731 29.9231 31.2363 30.5116 31.017 31.1244ZM54.2846 30.799C54.2115 30.8648 54.1314 30.9202 54.0374 30.9617C52.206 31.8099 50.0161 32.5024 47.5789 32.994C48.411 35.9299 48.9228 39.354 48.9995 43.0199H59.2219C58.9991 38.353 57.1744 34.1049 54.2846 30.799ZM59.2217 44.9764C58.9988 49.6433 57.1744 53.8944 54.2846 57.2012C54.2115 57.1355 54.1314 57.0801 54.0374 57.0385C52.206 56.1903 50.0161 55.4978 47.5789 55.0062C48.411 52.0703 48.9228 48.6462 48.9995 44.9803H59.2219L59.2217 44.9764ZM45.6399 54.6637C43.5508 54.3487 41.3156 54.179 39.0004 54.179C36.6851 54.179 34.4533 54.3487 32.3608 54.6637C31.5461 51.8594 31.0447 48.5496 30.9681 44.9764H47.0322C46.9556 48.5493 46.4546 51.8591 45.6399 54.6637ZM30.9681 43.0238C31.0447 39.4544 31.546 36.1411 32.3607 33.3365C34.4498 33.6515 36.685 33.8212 39.0003 33.8212C41.3155 33.8212 43.5474 33.6515 45.6398 33.3365C46.4545 36.1409 46.9559 39.4506 47.0325 43.0238H30.9681ZM30.4214 55.0067C27.9842 55.4984 25.7943 56.1942 23.9629 57.039C23.8689 57.0806 23.7888 57.1394 23.7157 57.2018C20.8259 53.8954 19.0015 49.6439 18.7787 44.9769H29.0011C29.0777 48.6433 29.5893 52.0677 30.4214 55.0067ZM18.7792 43.0238C19.002 38.3569 20.8264 34.1058 23.7162 30.799C23.7893 30.8648 23.8729 30.9202 23.9634 30.9617C25.7948 31.8099 27.9847 32.5024 30.4219 32.994C29.5898 35.9299 29.078 39.354 29.0013 43.0199H18.7789L18.7792 43.0238ZM52.8753 58.6628C51.1867 57.9184 49.1917 57.3091 46.9808 56.8763C46.7615 57.4926 46.5247 58.0777 46.2775 58.6351C45.2504 60.927 43.9656 62.7205 42.5103 63.8318C46.4863 63.1394 50.062 61.2974 52.8753 58.6628ZM35.4912 63.8317C34.0359 62.7204 32.7511 60.927 31.724 58.635C31.4733 58.0776 31.24 57.4925 31.0207 56.8762C28.8098 57.309 26.8148 57.9183 25.1262 58.6627C27.9394 61.2974 31.5151 63.1393 35.4912 63.8317ZM32.9844 56.5473C34.8749 56.2807 36.8978 56.1388 39.0007 56.1388C41.1037 56.1388 43.1265 56.2842 45.0171 56.5473C44.8499 56.9974 44.6724 57.4267 44.4878 57.8421C43.0151 61.1277 41.0689 63.1565 39.0008 63.1565C36.9327 63.1565 34.9864 61.1242 33.5137 57.8421C33.3292 57.4267 33.1515 56.9939 32.9844 56.5473Z" stroke="white" stroke-width="2" mask="url(#path-1-inside-1_350_787)"/>
</svg>
