<svg width="76" height="86" viewBox="0 0 76 86" fill="none" xmlns="http://www.w3.org/2000/svg">
<path fill-rule="evenodd" clip-rule="evenodd" d="M41.4196 23.5492C45.2903 24.2239 48.7744 26.0186 51.5189 28.589C49.8736 29.3143 47.9297 29.908 45.7755 30.3297C45.5618 29.7292 45.3311 29.1591 45.0902 28.616C44.0895 26.3795 42.8411 24.6321 41.4196 23.5492ZM0.659476 21.4342C2.01644 19.0964 5.02208 18.2969 7.36969 19.6463C9.7206 20.9956 10.5246 23.9844 9.16765 26.3188C7.81069 28.6566 4.80505 29.4561 2.45744 28.1067C0.109916 26.7607 -0.697487 23.772 0.659476 21.4342ZM3.81779 34.7722C2.66778 35.2344 0.405018 36.2565 1.39897 37.8588C3.28517 40.0549 8.69599 38.1557 10.8365 36.9683C18.0249 32.9843 21.4342 23.5318 17.7061 16.0773C17.143 14.9506 16.5969 14.1242 15.3145 13.888C13.4249 13.834 13.6624 16.2932 13.8354 17.5143C14.5648 22.5407 15.3383 26.322 11.5897 30.475C9.49654 32.7925 6.6335 33.6522 3.81779 34.7722ZM0.659476 64.3094C-0.697487 61.9717 0.106512 58.9862 2.45744 57.6368C4.80837 56.2875 7.81069 57.087 9.16765 59.4247C10.5246 61.7624 9.72062 64.7479 7.36969 66.0973C5.02216 67.4466 2.01644 66.6437 0.659476 64.3094ZM13.8522 68.2596C13.6792 69.4841 13.4417 71.9399 15.3313 71.8859C18.1877 71.3597 19.2359 65.7498 19.2733 63.3108C19.3954 55.1303 12.8718 47.4658 4.51299 46.9502C3.25104 46.8726 2.257 46.93 1.41234 47.915C0.418392 49.5174 2.68107 50.5395 3.83116 51.0016C8.57033 52.8874 12.2545 54.1086 13.9982 59.4182C14.9718 62.3767 14.2864 65.2744 13.8522 68.2596ZM37.9996 85.7437C35.2857 85.7437 33.0874 83.5578 33.0874 80.8591C33.0874 78.1604 35.2857 75.9745 37.9996 75.9745C40.7135 75.9745 42.9118 78.1604 42.9118 80.8591C42.9118 83.5578 40.7135 85.7437 37.9996 85.7437ZM48.0381 76.3591C49.0151 77.1182 51.037 78.5552 51.936 76.8989C52.9062 74.1766 48.547 70.4659 46.4403 69.2144C39.3773 65.0179 29.4412 66.8057 24.8105 73.7448C24.1117 74.7939 23.6639 75.6778 24.1015 76.8989C25.0006 78.5552 27.0224 77.1182 27.9994 76.3591C32.0126 73.2185 34.92 70.6581 40.4123 71.8118C43.4722 72.4562 45.6533 74.4937 48.0381 76.3591ZM75.3406 64.3096C73.9836 66.6473 70.978 67.4468 68.6304 66.0974C66.2795 64.7481 65.4755 61.7593 66.8324 59.4249C68.1894 57.0871 71.195 56.2876 73.5426 57.637C75.8902 58.983 76.6976 61.9717 75.3406 64.3096ZM72.1823 50.9749C73.3323 50.5128 75.5951 49.4906 74.6011 47.8883C72.7149 45.6922 67.3041 47.5915 65.1636 48.7789C57.9751 52.7628 54.5658 62.2154 58.2939 69.6698C58.8571 70.7965 59.4032 71.623 60.6856 71.8592C62.5752 71.9131 62.3377 69.4539 62.1647 68.2328C61.4353 63.2065 60.6618 59.4251 64.4104 55.2721C66.5035 52.9513 69.3666 52.0916 72.1823 50.9749ZM75.3406 21.4343C76.6976 23.772 75.8936 26.7575 73.5426 28.1069C71.1917 29.4562 68.1894 28.6568 66.8324 26.319C65.4755 23.9813 66.2795 20.9958 68.6304 19.6465C70.9779 18.2971 73.9836 19.1 75.3406 21.4343ZM62.1479 17.4841C62.3209 16.2596 62.5584 13.8038 60.6688 13.8578C57.8124 14.384 56.7642 19.994 56.7268 22.4329C56.6047 30.6134 63.1283 38.2779 71.4871 38.7935C72.7491 38.8711 73.7431 38.8137 74.5877 37.8287C75.5817 36.2263 73.319 35.2042 72.1689 34.7421C67.4298 32.8564 63.7456 31.6318 62.0019 26.3255C61.0283 23.367 61.7137 20.4694 62.1479 17.4841ZM38.0005 0C40.7144 0 42.9126 2.1859 42.9126 4.8846C42.9126 7.5833 40.7144 9.76921 38.0005 9.76921C35.2866 9.76921 33.0883 7.5833 33.0883 4.8846C33.0883 2.1859 35.2866 0 38.0005 0ZM27.962 9.38457C26.985 8.62556 24.9631 7.18847 24.0641 8.84483C23.0939 11.5671 27.4531 15.2778 29.5598 16.526C36.6228 20.7225 46.5589 18.9346 51.1895 11.9955C51.8884 10.9498 52.3362 10.0626 51.8986 8.84146C50.9995 7.18511 48.9777 8.62219 48.0007 9.3812C43.9874 12.5218 41.0836 15.0789 35.5878 13.9285C32.5279 13.2875 30.3468 11.25 27.962 9.38457ZM43.8626 30.6469C43.6997 30.2083 43.5267 29.79 43.3469 29.3853C41.912 26.184 40.0156 24.2071 38.0005 24.2071C35.9854 24.2071 34.0891 26.1873 32.6541 29.3853C32.4743 29.7867 32.3013 30.2084 32.1385 30.6469C33.9806 30.9066 35.9515 31.0483 38.0006 31.0483C40.0496 31.0483 42.0205 30.9066 43.8626 30.6469ZM30.2217 30.3264C28.0675 29.9047 26.1236 29.311 24.4784 28.5858C27.2229 26.0186 30.7068 24.2206 34.5776 23.546C33.1596 24.6288 31.9078 26.3762 30.907 28.6094C30.6662 29.1559 30.4354 29.7293 30.2217 30.3264ZM52.8928 30.0093C52.8215 30.0734 52.7435 30.1274 52.6519 30.1678C50.8675 30.9943 48.7337 31.669 46.359 32.148C47.1698 35.0087 47.6684 38.345 47.7431 41.9169H57.7035C57.4863 37.3696 55.7085 33.2305 52.8928 30.0093ZM57.7032 43.8232C57.4861 48.3705 55.7085 52.5126 52.8928 55.7346C52.8215 55.6705 52.7435 55.6165 52.6519 55.5761C50.8675 54.7496 48.7337 54.0749 46.359 53.5959C47.1698 50.7352 47.6684 47.399 47.7431 43.827H57.7035L57.7032 43.8232ZM44.4697 53.2622C42.4342 52.9552 40.2563 52.7899 38.0004 52.7899C35.7445 52.7899 33.5699 52.9552 31.5311 53.2622C30.7373 50.5297 30.2487 47.3048 30.1741 43.8232H45.8263C45.7517 47.3045 45.2635 50.5294 44.4697 53.2622ZM30.174 41.9207C30.2487 38.4428 30.7372 35.2145 31.531 32.4817C33.5665 32.7887 35.7444 32.954 38.0003 32.954C40.2562 32.954 42.4308 32.7887 44.4696 32.4817C45.2634 35.2142 45.752 38.4391 45.8266 41.9207H30.174ZM29.6414 53.5964C27.2667 54.0754 25.1329 54.7534 23.3485 55.5766C23.2569 55.617 23.1789 55.6744 23.1077 55.7351C20.2919 52.5135 18.5143 48.3711 18.2972 43.8237H28.2575C28.3321 47.3961 28.8306 50.7327 29.6414 53.5964ZM18.2977 41.9207C18.5148 37.3734 20.2924 33.2313 23.1081 30.0093C23.1794 30.0734 23.2608 30.1274 23.349 30.1678C25.1334 30.9943 27.2672 31.669 29.6419 32.148C28.8311 35.0087 28.3324 38.345 28.2578 41.9169H18.2974L18.2977 41.9207ZM51.5196 57.1587C49.8743 56.4334 47.9304 55.8397 45.7762 55.418C45.5625 56.0185 45.3318 56.5886 45.091 57.1317C44.0902 59.3649 42.8384 61.1123 41.4203 62.1952C45.2944 61.5205 48.7785 59.7257 51.5196 57.1587ZM34.5812 62.1951C33.1632 61.1122 31.9114 59.3649 30.9106 57.1316C30.6663 56.5885 30.439 56.0184 30.2253 55.4179C28.0711 55.8396 26.1273 56.4333 24.482 57.1586C27.223 59.7258 30.707 61.5205 34.5812 62.1951ZM32.1387 55.0975C33.9808 54.8377 35.9517 54.6994 38.0008 54.6994C40.0498 54.6994 42.0208 54.8411 43.8628 55.0975C43.7 55.536 43.527 55.9543 43.3472 56.3591C41.9122 59.5604 40.0159 61.5372 38.0008 61.5372C35.9857 61.5372 34.0894 59.557 32.6544 56.3591C32.4746 55.9543 32.3015 55.5326 32.1387 55.0975Z" fill="#202020"/>
</svg>
