<svg width="200" height="120" viewBox="0 0 200 120" fill="none" xmlns="http://www.w3.org/2000/svg">
<path d="M162.214 28.7821C161.806 27.7955 161.465 26.9534 161.438 26.9156C161.411 26.8528 163.023 26.834 177.375 26.834L178.211 28.8889C178.672 30.0138 179.054 30.9753 179.067 31.0256C179.08 31.0947 177.756 31.1073 163.163 31.1073L163.056 30.8433C162.996 30.6925 162.615 29.7687 162.214 28.7821Z" fill="#DB3242"/>
<path d="M174.512 58.7402C174.044 57.5964 173.662 56.6349 173.662 56.6098C173.662 56.5784 177.247 56.5595 181.621 56.5595C187.928 56.5595 189.586 56.5784 189.606 56.6412C189.62 56.6789 189.967 57.5399 190.382 58.5391C190.797 59.5446 191.171 60.4683 191.318 60.8328H175.368L174.512 58.7402Z" fill="#F3C628"/>
<path d="M180.658 73.7031C178.752 69.0589 177.174 65.2255 177.154 65.1878C177.127 65.125 178.739 65.1061 193.091 65.1124L196.535 73.502C198.428 78.1209 199.986 81.9544 200 82.0172C200.013 82.1303 199.799 82.1366 184.129 82.1366L180.658 73.7031Z" fill="#233F84"/>
<path d="M29.4131 0.540452C29.5402 0.402197 29.7877 0.226236 29.9749 0.144539C30.2224 0.0377059 30.4297 0 30.7775 0C31.1587 0 31.3125 0.0314216 31.6068 0.169677C31.8074 0.270226 32.0548 0.446187 32.1552 0.565589C32.2555 0.684991 32.4026 0.923795 32.4829 1.09976C32.6032 1.34484 32.63 1.49567 32.6032 1.79103C32.5899 1.99841 32.523 2.26864 32.4628 2.38804C32.4026 2.50744 32.2488 2.72111 32.1284 2.85937C31.9946 3.00391 31.7539 3.17358 31.5399 3.26156C31.2724 3.37468 31.065 3.41239 30.744 3.41239C30.5033 3.41239 30.2023 3.3684 30.0752 3.31812C29.9482 3.26785 29.7074 3.11702 29.5469 2.97877C29.3864 2.8468 29.1791 2.58914 29.0988 2.41946C28.9851 2.19323 28.9383 1.99213 28.9383 1.69677C28.9383 1.43911 28.9851 1.19402 29.0587 1.03691C29.1256 0.898658 29.2861 0.672422 29.4131 0.540452Z" fill="#202020"/>
<path d="M29.1724 5.12172C29.1523 4.87663 29.1724 4.57499 29.2058 4.4493L29.266 4.21678L29.5536 4.33618C29.7141 4.39902 30.0485 4.48701 30.3093 4.52471C30.5634 4.56242 30.9112 4.57499 31.0784 4.55613C31.2456 4.531 31.5733 4.45558 31.8141 4.38646C32.0548 4.31733 32.2622 4.28591 32.2822 4.30476C32.3023 4.3299 32.329 4.4493 32.3491 4.5687C32.3692 4.69439 32.3491 5.39195 32.309 6.12093C32.2622 6.84991 32.1886 8.32044 32.1418 9.39506C32.0749 11.0667 32.0749 11.3621 32.1552 11.4752C32.2087 11.5506 32.436 11.8711 32.6701 12.1979C32.9109 12.5309 33.1449 12.952 33.2185 13.1657C33.3389 13.5364 33.3456 13.5427 33.7335 13.681C33.9809 13.7752 34.2685 13.9512 34.5427 14.1837C34.7968 14.4037 35.0376 14.6739 35.1312 14.8624C35.2316 15.0447 35.2984 15.3086 35.3051 15.4909C35.3185 15.7234 35.2717 15.8993 35.1245 16.1821C35.0175 16.3895 34.7701 16.71 34.5761 16.8923C34.3822 17.0682 34.2351 17.2316 34.2551 17.2505C34.2752 17.2693 34.4758 17.2002 34.7032 17.0996C34.9373 17.0054 35.2717 16.798 35.4523 16.6472C35.6596 16.4712 35.8468 16.2261 35.9806 15.9622C36.1812 15.56 36.1812 15.5474 36.1077 15.1138C36.0542 14.8436 35.9137 14.4539 35.7331 14.1083C35.4924 13.6433 35.3519 13.461 34.4223 12.6315L34.6497 11.9905C34.7768 11.6323 34.944 11.0604 35.0242 10.7148C35.1446 10.2057 35.178 9.80354 35.2048 8.60952C35.2316 7.47206 35.2115 6.95046 35.1312 6.34716C35.071 5.91355 35.0376 5.54906 35.0577 5.5302C35.0777 5.51135 35.3586 5.59305 35.6796 5.71245C36.0007 5.82557 36.4554 6.02038 36.6962 6.13978C36.9369 6.25918 37.3382 6.50427 37.599 6.68023C37.8532 6.84991 38.2478 7.13899 38.4618 7.31495C38.6825 7.49091 39.0837 7.87425 39.3579 8.16962C39.6321 8.46498 40.0133 8.93002 40.2073 9.20653C40.4012 9.48304 40.6754 9.90409 40.8159 10.1492C40.9563 10.3943 41.1703 10.8027 41.498 11.5317L40.6621 12.443C40.2006 12.9457 39.5452 13.681 39.2108 14.0769C38.8697 14.4728 38.4417 14.9944 38.2545 15.2395C38.0605 15.4846 37.8599 15.8051 37.7997 15.9622C37.7194 16.1633 37.6994 16.3455 37.7328 16.5906C37.7529 16.7791 37.8331 17.0619 37.9067 17.219C37.9802 17.3761 38.114 17.5961 38.2076 17.7092C38.3414 17.8789 38.4283 17.9166 38.7159 17.948C39.0035 17.9794 39.1172 18.0297 39.3111 18.2182C39.485 18.3816 39.5653 18.5199 39.5987 18.7273C39.6255 18.8844 39.6255 19.0981 39.5987 19.1986C39.572 19.2991 39.4984 19.494 39.4315 19.6259C39.3245 19.8207 39.3178 19.8585 39.4048 19.8585C39.4583 19.8585 39.6255 19.7453 39.7726 19.6071C39.9398 19.45 40.0668 19.2552 40.1137 19.0918C40.1538 18.9409 40.1672 18.721 40.1404 18.6016C40.1137 18.4822 40.0535 18.3125 40.0067 18.2245C39.9598 18.1365 39.8662 18.0171 39.7993 17.9606C39.7258 17.8977 39.5251 17.816 39.3446 17.7721C39.0971 17.7092 38.9634 17.6275 38.8095 17.4516C38.6357 17.2505 38.5955 17.1373 38.5755 16.8231C38.5621 16.6095 38.5822 16.3329 38.629 16.2135C38.6691 16.0941 38.8296 15.8742 38.9834 15.7359C39.1439 15.5914 40.214 14.7493 41.3576 13.8632C42.5079 12.9771 43.4977 12.2419 43.5512 12.223C43.6047 12.2042 43.6515 12.1979 43.6515 12.2042C43.6515 12.2167 42.9025 14.1334 40.3143 20.7068L21.2139 20.7445L20.8193 19.7516C20.6096 19.2322 19.9172 17.4766 19.2407 15.7614L19.134 15.4909C18.425 13.6935 17.8766 12.2167 17.9101 12.2042C17.9435 12.1979 19.0002 12.9834 20.2575 13.9512C21.8893 15.2081 22.6116 15.7988 22.7521 16.0062C22.9193 16.2513 22.9527 16.3581 22.9527 16.6786C22.946 16.9739 22.9059 17.1311 22.7654 17.3573C22.6116 17.6087 22.5381 17.6715 22.304 17.7281C22.1435 17.7658 21.9428 17.8286 21.8492 17.8726C21.7556 17.9103 21.6084 18.0423 21.5282 18.1617C21.3944 18.3502 21.3744 18.4445 21.3944 18.8215C21.4078 19.1735 21.4479 19.3054 21.5683 19.45C21.6553 19.5568 21.8091 19.6888 21.9027 19.7453C22.003 19.8019 22.1033 19.8396 22.1368 19.8207C22.1635 19.8082 22.1234 19.6888 22.0498 19.5568C21.9562 19.3997 21.9161 19.2049 21.9161 18.9598C21.9161 18.765 21.9562 18.5262 22.0097 18.4256C22.0632 18.3314 22.1702 18.1994 22.2505 18.1303C22.3374 18.0611 22.5715 17.9732 22.7788 17.9417C23.1132 17.8789 23.1801 17.8412 23.374 17.5961C23.5011 17.439 23.6415 17.1688 23.6951 16.9991C23.7486 16.8231 23.7887 16.5592 23.7887 16.4021C23.7887 16.245 23.7352 16.0062 23.6683 15.8679C23.6014 15.7297 23.3673 15.3903 23.1533 15.1138C22.9393 14.8373 22.4444 14.2466 22.0565 13.7941C21.6686 13.3479 21.0534 12.6566 20.6922 12.2733C20.3378 11.8837 20.0435 11.5254 20.0435 11.4815C20.0435 11.4437 20.2241 11.0541 20.4515 10.6205C20.6722 10.1869 21.0467 9.56474 21.2807 9.23795C21.5148 8.91117 21.9295 8.40842 22.197 8.11934C22.4645 7.83655 22.8791 7.44064 23.1199 7.25211C23.3607 7.05729 23.8422 6.72422 24.19 6.50427C24.5511 6.27175 25.1463 5.97639 25.561 5.813C25.9622 5.66217 26.3434 5.5302 26.3969 5.5302C26.4772 5.5302 26.4906 5.58676 26.4437 5.85699C26.417 6.03923 26.3635 6.48542 26.3234 6.84991C26.2766 7.24582 26.2632 7.99366 26.2899 8.73521C26.3167 9.55845 26.3702 10.1555 26.4571 10.5577C26.524 10.8844 26.6511 11.3683 26.7313 11.626C26.8183 11.8837 26.9386 12.2167 27.1326 12.6315L26.952 12.7697C26.845 12.8452 26.5976 13.0651 26.3969 13.2599C26.1762 13.4736 25.9355 13.8004 25.7883 14.0832C25.6546 14.3408 25.5075 14.7053 25.4606 14.8938C25.4138 15.0824 25.3871 15.3777 25.4004 15.5537C25.4205 15.7736 25.5008 15.9685 25.6613 16.2073C25.7883 16.3958 26.0492 16.6597 26.2297 16.7917C26.4103 16.9174 26.7447 17.0996 26.9654 17.1813C27.1861 17.2693 27.3734 17.3259 27.38 17.307C27.3934 17.2945 27.2195 17.1185 26.9921 16.9174C26.7447 16.6974 26.5106 16.4146 26.3902 16.1821C26.2565 15.9308 26.1963 15.7108 26.1963 15.5223C26.1963 15.3589 26.2632 15.1012 26.3568 14.9253C26.4371 14.7493 26.5976 14.5168 26.7046 14.3974C26.8116 14.2843 27.0323 14.0957 27.1995 13.9826C27.3667 13.8695 27.6609 13.725 27.8549 13.6621C28.0421 13.593 28.2026 13.505 28.2026 13.461C28.2026 13.4233 28.2495 13.2536 28.3097 13.084C28.3698 12.9206 28.5103 12.6441 28.624 12.4744C28.7377 12.2984 28.9784 11.9779 29.4934 11.3432L29.3463 8.45241C29.266 6.86248 29.1858 5.36053 29.1724 5.12172Z" fill="#202020"/>
<path d="M22.304 23.3965C21.9763 22.5733 21.7155 21.882 21.7155 21.8569C21.7155 21.8317 25.795 21.8066 30.7775 21.8066C39.378 21.8066 39.8395 21.8129 39.806 21.9197C39.7926 21.9763 39.5251 22.6613 38.6557 24.8545L22.8858 24.8859L22.304 23.3965Z" fill="#202020"/>
<path d="M11.1019 53.8566C5.01595 39.0445 0.0201473 26.9095 8.38131e-05 26.8843C-0.0199797 26.8592 3.56469 26.8341 7.96528 26.8341C15.5292 26.8341 15.9706 26.8403 16.0041 26.9472C16.0241 27.0037 19.3212 35.0414 23.3339 44.8072C27.3466 54.573 30.6437 62.5856 30.6705 62.6107C30.6905 62.6358 34.0277 54.6045 45.4305 26.8655H68.1357C86.5004 26.8655 90.9612 26.8843 91.5029 26.9472C91.8708 26.9974 92.5529 27.1043 93.0077 27.1923C93.4691 27.2802 94.1847 27.4436 94.5994 27.563C95.014 27.6824 95.6561 27.8961 96.0373 28.0344C96.4118 28.1789 97.114 28.4743 97.5888 28.7005C98.0704 28.9267 98.7191 29.2661 99.0267 29.4609C99.341 29.6494 99.8694 29.9951 100.197 30.2276C100.531 30.4601 101.087 30.8874 101.434 31.1828C101.789 31.4782 102.344 32.0123 102.672 32.3643C103.006 32.7162 103.514 33.3195 103.809 33.7091C104.103 34.0924 104.531 34.7209 104.758 35.1042C104.986 35.4813 105.307 36.0846 105.467 36.4491C105.634 36.8135 105.888 37.4608 106.036 37.8945C106.189 38.3281 106.383 39.0319 106.477 39.4655C106.571 39.8992 106.678 40.5653 106.718 40.9424C106.758 41.3257 106.785 42.4129 106.785 43.3618C106.785 44.3107 106.758 45.4168 106.718 45.8127C106.684 46.2086 106.591 46.8622 106.517 47.2581C106.444 47.654 106.276 48.3641 106.143 48.8292C106.015 49.2942 105.755 50.0609 105.574 50.5259C105.387 50.991 104.999 51.8268 104.711 52.3798C104.424 52.9328 103.936 53.7435 103.628 54.1708C103.327 54.6045 102.819 55.2706 102.504 55.6477C102.197 56.0247 101.548 56.7097 101.067 57.1622C100.592 57.6147 99.9162 58.2117 99.5618 58.4819C99.214 58.7521 98.9264 59.0161 98.9331 59.0726C98.9331 59.1229 100.859 63.855 103.213 69.58C105.561 75.3113 107.514 79.9931 107.547 79.9805C107.58 79.9743 112.516 68.0215 129.436 26.8655L145.407 26.8341L156.743 54.4285C162.982 69.5989 168.085 82.0418 168.099 82.0732C168.105 82.1172 165.316 82.1298 152.168 82.1047L149.312 75.1605C147.741 71.3396 146.397 68.0843 146.209 67.6256L141.862 70.1707L140.795 70.797C138.912 71.9025 137.491 72.7367 137.468 72.7473C137.442 72.7599 137.415 69.8754 137.415 59.8896L141.963 57.2502L140.491 53.687L140.238 53.074C139.481 51.2389 138.621 49.1559 138.231 48.2133C137.803 47.1701 137.435 46.3154 137.415 46.3154C137.401 46.3154 134.071 54.3782 122.668 82.1361L92.4392 82.1424L89.2625 74.4064C86.8081 68.4363 86.0657 66.6766 85.9855 66.7018C85.932 66.7144 83.5712 68.0843 75.5859 72.7662L75.5525 82.1361H59.6354L59.6421 56.7663C59.6421 36.0029 59.6287 31.4028 59.5552 31.4656C59.5084 31.5033 54.7934 42.9219 38.6691 82.1361H22.7186L22.4444 81.4637C22.2973 81.0929 17.1945 68.6688 11.1019 53.8566Z" fill="#202020"/>
<path d="M168.52 44.1348C166.667 39.6164 165.089 35.7829 165.022 35.6195L164.902 35.3179L180.852 35.3242L184.196 43.4686C186.035 47.9494 187.607 51.7828 187.841 52.3484H171.891L168.52 44.1348Z" fill="#202020"/>
<path d="M29.0386 88.6718C29.48 88.5649 30.1421 88.4581 30.5099 88.4267C30.8778 88.4015 31.5265 88.389 31.9478 88.4015C32.3692 88.4204 33.0179 88.4895 33.3857 88.5586C33.7535 88.6278 34.2953 88.7597 34.5895 88.8477C34.8838 88.9357 35.3987 89.1305 35.7265 89.2876C36.0608 89.4447 36.4955 89.6773 36.6962 89.8092C36.8968 89.9349 37.2513 90.2051 37.472 90.4125C37.6927 90.6136 37.9334 90.8587 38.007 90.9593C38.1341 91.1289 38.1341 91.1352 38.0003 91.2169C37.9267 91.2609 37.579 91.4997 36.5959 92.1847L36.1277 91.7071C35.8736 91.4494 35.4924 91.1289 35.2917 91.0032C35.0911 90.8713 34.7567 90.689 34.5561 90.5948C34.3554 90.4942 33.9475 90.3371 33.6532 90.2428C33.359 90.1549 32.8774 90.0355 32.5832 89.9915C32.2287 89.9412 31.7405 89.9286 31.1453 89.9475C30.4966 89.9789 30.0485 90.0355 29.5402 90.1549C29.1523 90.2428 28.6106 90.4188 28.3364 90.5382C28.0622 90.6576 27.5941 90.909 27.2998 91.0975C27.0055 91.2798 26.6043 91.5688 26.4036 91.7385C26.203 91.9019 25.8218 92.3167 25.5543 92.6497C25.2801 92.9891 24.9256 93.5233 24.7651 93.8438C24.5979 94.1643 24.3772 94.7236 24.2702 95.0881C24.1632 95.4463 24.0361 96.0119 23.9893 96.3449C23.9358 96.7283 23.9157 97.275 23.9425 97.8846C23.9693 98.6513 24.0161 98.9592 24.1766 99.5499C24.2903 99.9458 24.4909 100.511 24.6247 100.807C24.7584 101.096 25.0661 101.624 25.3135 101.969C25.5543 102.315 25.9823 102.811 26.2632 103.069C26.5374 103.327 27.0055 103.691 27.2998 103.874C27.5941 104.062 28.0555 104.307 28.323 104.427C28.5905 104.54 29.0854 104.709 29.4265 104.797C29.7676 104.879 30.3896 104.98 30.8109 105.017C31.3526 105.068 31.794 105.068 32.2822 105.017C32.6701 104.986 33.2586 104.885 33.5863 104.797C33.9207 104.709 34.4624 104.508 34.7902 104.357C35.1245 104.2 35.5793 103.924 35.8067 103.742C36.0341 103.559 36.3618 103.258 36.5357 103.069L36.585 103.014C36.7425 102.838 36.8946 102.667 36.9369 102.61C37.0239 102.51 37.0841 102.535 37.7194 102.918C38.0939 103.145 38.415 103.346 38.435 103.358C38.4551 103.371 38.3815 103.496 38.2678 103.647C38.1608 103.792 37.8264 104.137 37.5322 104.42C37.2379 104.703 36.7564 105.086 36.4621 105.269C36.1678 105.451 35.6863 105.709 35.3921 105.841C35.0978 105.966 34.5561 106.155 34.1883 106.262C33.8204 106.362 33.252 106.482 32.9176 106.526C32.523 106.576 31.9077 106.588 31.1119 106.57C30.2424 106.544 29.7408 106.494 29.3061 106.4C28.9784 106.331 28.5103 106.211 28.2695 106.136C28.0288 106.06 27.5472 105.878 27.1995 105.727C26.8517 105.57 26.31 105.288 26.0024 105.093C25.688 104.892 25.1664 104.489 24.8387 104.2C24.511 103.905 24.0495 103.421 23.8154 103.132C23.5814 102.837 23.2269 102.296 23.0263 101.938C22.8256 101.573 22.5715 101.008 22.4578 100.681C22.3374 100.348 22.1769 99.8013 22.1033 99.4557C21.9763 98.9215 21.9562 98.6198 21.9562 97.5075C21.9562 96.3889 21.9763 96.0873 22.1033 95.5594C22.1836 95.2137 22.3575 94.6293 22.4912 94.2711C22.625 93.9066 22.8457 93.3976 22.9861 93.1399C23.1266 92.876 23.4142 92.4361 23.6349 92.1533C23.8489 91.8705 24.2167 91.4306 24.4575 91.1792C24.6982 90.9341 25.1664 90.5319 25.4941 90.2931C25.8285 90.0543 26.2899 89.7464 26.5307 89.6207C26.7715 89.4887 27.253 89.2625 27.6007 89.118C27.9485 88.9734 28.5972 88.7723 29.0386 88.6718Z" fill="#202020"/>
<path d="M79.2308 88.6655C79.6521 88.5649 80.3142 88.4581 80.7021 88.4267C81.09 88.3953 81.7053 88.3827 82.0731 88.4015C82.4409 88.4141 82.9693 88.4581 83.2435 88.4958C83.5177 88.5335 84.0594 88.6466 84.4473 88.7472C84.8352 88.854 85.3902 89.0425 85.6845 89.1682C85.9788 89.3002 86.4469 89.5453 86.7211 89.7087C86.9953 89.8784 87.4167 90.1863 87.6507 90.4C87.8848 90.6073 88.1323 90.8587 88.3262 91.1289L86.788 92.1973L86.6409 92.0213C86.5673 91.927 86.3132 91.6757 86.0925 91.4683C85.8718 91.2609 85.4438 90.953 85.1495 90.7896C84.8552 90.6325 84.3737 90.4188 84.0794 90.3183C83.7852 90.2177 83.2903 90.0857 82.9759 90.0229C82.5212 89.9349 82.2068 89.9224 81.4043 89.9475C80.6285 89.9789 80.254 90.0229 79.7323 90.1486C79.3645 90.2366 78.776 90.4439 78.4282 90.601C78.0805 90.7582 77.5989 91.0158 77.3582 91.1792C77.1174 91.3363 76.763 91.6065 76.569 91.7825C76.3684 91.9585 76.0607 92.2727 75.8868 92.4801C75.713 92.6874 75.4388 93.0519 75.2849 93.297C75.1244 93.5358 74.9104 93.9317 74.8034 94.1768C74.6964 94.4156 74.5225 94.9247 74.4155 95.308C74.3152 95.6851 74.1948 96.3386 74.1547 96.7534C74.1012 97.2876 74.0945 97.7023 74.148 98.1988C74.1881 98.5759 74.2751 99.1163 74.342 99.3928C74.4155 99.6693 74.5426 100.078 74.6228 100.304C74.7031 100.524 74.877 100.907 75.0041 101.152C75.1311 101.391 75.3786 101.787 75.5525 102.032C75.7263 102.271 76.0607 102.667 76.2948 102.899C76.5289 103.138 76.9368 103.484 77.191 103.666C77.4518 103.848 77.8865 104.112 78.1607 104.257C78.4349 104.395 78.8897 104.577 79.1639 104.665C79.4381 104.76 79.9196 104.873 80.2339 104.929C80.5884 104.992 81.1569 105.036 81.7387 105.036C82.2537 105.036 82.8689 104.998 83.1097 104.954C83.3505 104.91 83.832 104.785 84.1798 104.678C84.5275 104.565 85.0425 104.351 85.3167 104.2C85.6243 104.031 86.0457 103.71 86.3934 103.383C86.7077 103.088 87.0288 102.767 87.2227 102.497L87.9249 102.918C88.3128 103.151 88.6405 103.352 88.6606 103.358C88.6807 103.371 88.5603 103.54 88.3931 103.742C88.2326 103.943 87.8982 104.288 87.6574 104.515C87.4233 104.741 86.9686 105.08 86.6542 105.275C86.3399 105.47 85.9386 105.702 85.7514 105.784C85.5708 105.872 85.1027 106.042 84.7148 106.167C84.3269 106.287 83.725 106.431 83.3772 106.488C82.9893 106.544 82.3607 106.588 81.7588 106.588C81.217 106.588 80.5349 106.557 80.254 106.519C79.9664 106.482 79.4314 106.381 79.0636 106.293C78.6957 106.205 78.1406 106.029 77.8263 105.903C77.512 105.771 77.0639 105.57 76.8231 105.445C76.5824 105.319 76.141 105.042 75.84 104.835C75.5324 104.621 75.0843 104.257 74.8435 104.024C74.5961 103.792 74.2751 103.446 74.1146 103.258C73.9608 103.063 73.6866 102.686 73.5127 102.409C73.3388 102.133 73.1114 101.737 73.0111 101.529C72.9108 101.322 72.7369 100.882 72.6299 100.555C72.5162 100.222 72.369 99.7133 72.3022 99.4242C72.2018 98.9969 72.1751 98.6136 72.1751 97.5075C72.1751 96.4015 72.2019 96.0181 72.2955 95.5908C72.369 95.2954 72.5095 94.7864 72.6232 94.4596C72.7369 94.1266 72.9375 93.6364 73.078 93.3599C73.2184 93.0834 73.5127 92.5995 73.7267 92.2915C73.9474 91.9773 74.3955 91.4557 74.7232 91.1352C75.0509 90.8084 75.5458 90.3874 75.82 90.1926C76.0942 89.9978 76.5155 89.7338 76.7563 89.6018C76.997 89.4762 77.4786 89.2499 77.8263 89.1054C78.1741 88.9608 78.8094 88.766 79.2308 88.6655Z" fill="#202020"/>
<path d="M44.7216 106.148V97.4761V88.8037H47.584C49.1556 88.8037 50.8008 88.8289 51.2422 88.8666C51.6836 88.898 52.3524 88.9985 52.7336 89.0865C53.1081 89.1682 53.6632 89.3505 53.9708 89.4887C54.2718 89.627 54.6998 89.8721 54.9205 90.0355C55.1345 90.2051 55.4689 90.5508 55.6629 90.8147C55.8702 91.0975 56.0775 91.4934 56.1979 91.8202C56.3785 92.323 56.3918 92.4109 56.3918 93.3913C56.3918 94.4094 56.3851 94.4345 56.1711 94.9624C56.0508 95.2514 55.8568 95.6222 55.7431 95.7793C55.6294 95.9302 55.4154 96.1941 55.2616 96.3575C55.1145 96.5272 54.8202 96.7723 54.6196 96.9042C54.4189 97.0362 54.0243 97.2499 53.7501 97.3756C53.4759 97.495 53.0078 97.6521 52.7135 97.7275C52.4193 97.7966 52.1183 97.8532 52.0447 97.8532C51.9712 97.8532 51.8775 97.872 51.8307 97.8972C51.7772 97.9286 52.5998 99.242 57.0874 106.117L56.0039 106.13C55.4087 106.142 54.8938 106.136 54.8536 106.123C54.8202 106.111 53.6431 104.288 49.704 98.0354L46.5942 98.0417V106.148H44.7216Z" fill="#202020"/>
<path d="M63.3137 106.148V97.4761V88.8037H65.1863V106.148H63.3137Z" fill="#202020"/>
<path d="M94.8669 97.5138C94.8669 92.7629 94.887 88.8666 94.9137 88.8414C94.9471 88.8163 95.3819 88.8037 96.7863 88.8352L96.8532 96.5774L105.614 88.8037H106.872C107.56 88.8037 108.136 88.8226 108.156 88.8477C108.169 88.8729 106.129 90.6325 103.621 92.7566C101.113 94.8744 99.0535 96.634 99.0468 96.6654C99.0334 96.6968 100.705 98.3371 102.752 100.317C104.798 102.296 107.005 104.42 108.824 106.148L106.016 106.142L96.8532 96.9671L96.8197 106.148H94.8803L94.8669 97.5138Z" fill="#202020"/>
<path d="M114.275 106.148V97.4761V88.8037L125.745 88.8352L125.778 90.3748H116.148V96.3449H125.109V97.916H116.148L116.181 104.609L126.046 104.64V106.148H114.275Z" fill="#202020"/>
<path d="M130.593 90.3748V89.5893V88.8037H144.838V90.3748H138.686V106.148H136.813V90.3748H130.593Z" fill="#202020"/>
<path d="M67.9952 113.313C68.1423 113.243 68.4366 113.143 68.6506 113.093C68.8579 113.049 69.2458 113.005 69.5 113.005C69.7608 112.998 70.1554 113.042 70.3894 113.093C70.6168 113.143 70.9646 113.256 71.1586 113.35C71.3525 113.438 71.5933 113.57 71.6936 113.633C71.7939 113.696 71.8675 113.778 71.8608 113.809C71.8474 113.84 71.6066 114.092 70.8041 114.884L70.6235 114.733C70.5232 114.651 70.3493 114.538 70.2356 114.488C70.1286 114.431 69.9012 114.375 69.734 114.35C69.5669 114.324 69.3127 114.331 69.1656 114.368C69.0184 114.406 68.8379 114.5 68.7576 114.582C68.6774 114.657 68.5904 114.796 68.5704 114.884C68.5436 114.965 68.5503 115.11 68.5904 115.198C68.6305 115.28 68.7911 115.424 68.9516 115.506C69.1054 115.588 69.5334 115.751 69.9012 115.87C70.2691 115.983 70.6904 116.147 70.8375 116.229C70.9847 116.31 71.2321 116.505 71.3926 116.662C71.5799 116.857 71.707 117.071 71.7738 117.284C71.834 117.467 71.8741 117.693 71.8741 117.787C71.8741 117.881 71.8407 118.108 71.8006 118.29C71.7605 118.472 71.6735 118.717 71.6066 118.843C71.5465 118.962 71.3257 119.201 71.1251 119.377C70.871 119.597 70.6302 119.735 70.3025 119.848C69.9213 119.974 69.714 120.005 69.1656 119.999C68.7978 119.999 68.3296 119.961 68.129 119.917C67.9283 119.867 67.5337 119.723 67.2595 119.591C66.9853 119.459 66.6911 119.283 66.4637 119.063L67.5939 117.994L67.7812 118.158C67.8815 118.252 68.129 118.403 68.3296 118.497C68.6038 118.623 68.8044 118.673 69.0987 118.673C69.3863 118.679 69.5669 118.642 69.734 118.554C69.8611 118.485 70.0082 118.34 70.0617 118.239C70.1152 118.133 70.1353 117.969 70.1086 117.85C70.0885 117.724 69.9882 117.586 69.8544 117.492C69.734 117.404 69.306 117.228 68.8981 117.089C68.4968 116.957 68.0353 116.788 67.8815 116.712C67.721 116.637 67.5003 116.499 67.3799 116.398C67.2596 116.298 67.0857 116.065 66.992 115.883C66.865 115.613 66.8315 115.443 66.8315 115.072C66.8315 114.708 66.8717 114.519 66.9987 114.262C67.0857 114.073 67.2863 113.809 67.4468 113.677C67.6006 113.545 67.8481 113.382 67.9952 113.313Z" fill="#202020"/>
<path d="M47.1292 119.798C47.1292 119.773 47.7846 118.271 48.5804 116.467L50.0384 113.187L51.7104 113.181L53.1282 116.404C53.9106 118.177 54.5661 119.672 54.5861 119.735C54.6196 119.836 54.546 119.842 52.7403 119.817L52.2119 118.529L49.4566 118.56L48.9683 119.817L48.0521 119.829C47.5438 119.836 47.1292 119.823 47.1292 119.798Z" fill="#202020"/>
<path d="M56.3584 119.842V116.511V113.181H58.7994L59.602 115.317C60.0434 116.492 60.4179 117.454 60.438 117.454C60.4513 117.454 60.8125 116.492 62.0096 113.181H64.5175V119.842H62.8121L62.8322 117.536C62.8389 116.26 62.8255 115.248 62.7988 115.273C62.7653 115.305 62.3507 116.335 60.9931 119.811H59.7424L58.8998 117.598C58.4383 116.386 58.037 115.368 58.0103 115.336C57.9768 115.311 57.9568 116.31 57.9635 119.842H56.3584Z" fill="#202020"/>
<path d="M73.2786 114.563V113.872V113.181H79.0301V114.563H77.0238V119.842H75.2849V114.563H73.2786Z" fill="#202020"/>
<path d="M80.9027 119.905V116.543V113.181H85.6511V114.563H82.5747V115.82H85.5173V117.077H82.5747V118.522H85.8517V119.905H80.9027Z" fill="#202020"/>
<path d="M88.1256 119.842V116.505L88.1323 113.168L89.9513 113.193C91.6166 113.218 91.7972 113.231 92.1383 113.357C92.3389 113.426 92.6465 113.589 92.8204 113.715C93.0411 113.866 93.1949 114.042 93.322 114.299C93.4758 114.595 93.5026 114.745 93.5026 115.16C93.5026 115.537 93.4691 115.738 93.3688 115.946C93.2886 116.103 93.1281 116.335 93.001 116.467C92.8739 116.606 92.6131 116.782 92.4192 116.863C92.2252 116.945 92.0781 117.033 92.0914 117.064C92.1048 117.089 92.5128 117.718 92.9943 118.459C93.4758 119.201 93.8704 119.829 93.8704 119.861C93.8704 119.886 93.429 119.899 91.9042 119.873L90.366 117.203H89.7975V119.842H88.1256Z" fill="#202020"/>
<path d="M95.8768 119.842L95.8835 116.505L95.8901 113.174L97.7427 113.199C99.4547 113.218 99.6286 113.231 100.057 113.369C100.317 113.445 100.665 113.577 100.826 113.652C100.993 113.734 101.307 113.947 101.521 114.13C101.775 114.35 101.976 114.601 102.103 114.846C102.21 115.053 102.344 115.393 102.397 115.6C102.458 115.807 102.498 116.203 102.498 116.48C102.498 116.756 102.451 117.152 102.397 117.36C102.337 117.567 102.21 117.894 102.11 118.082C102.009 118.271 101.742 118.604 101.515 118.824C101.227 119.094 100.946 119.283 100.612 119.427C100.344 119.547 99.9095 119.691 99.642 119.741C99.2675 119.823 98.7726 119.842 95.8768 119.842Z" fill="#202020"/>
<path d="M104.845 117.102C105.507 115.619 106.169 114.13 106.316 113.79L106.591 113.174L108.283 113.181L109.62 116.235C110.356 117.913 111.011 119.415 111.192 119.836L109.293 119.804L109.052 119.232C108.925 118.912 108.791 118.623 108.751 118.585C108.711 118.541 108.243 118.522 106.016 118.547L105.761 119.176C105.621 119.521 105.501 119.817 105.487 119.823C105.48 119.829 105.066 119.829 103.648 119.804L104.845 117.102Z" fill="#202020"/>
<path d="M112.931 119.842V116.511V113.181H115.372L116.174 115.317C116.616 116.486 116.997 117.429 117.024 117.404C117.044 117.379 117.405 116.417 118.582 113.174L121.023 113.181V119.842H119.351L119.398 117.592C119.431 115.776 119.425 115.355 119.358 115.38C119.304 115.399 118.883 116.398 117.559 119.811L116.308 119.842L115.472 117.636C115.011 116.423 114.603 115.405 114.569 115.38C114.522 115.342 114.509 116.084 114.536 119.842H112.931Z" fill="#202020"/>
<path d="M75.6191 59.8272C75.5723 59.8272 75.5522 56.2326 75.5522 49.1753V38.5234H80.1133C82.8888 38.5234 84.9821 38.5485 85.4502 38.5925C85.8715 38.6302 86.4734 38.7308 86.7878 38.8125C87.1021 38.9004 87.597 39.0764 87.8913 39.2021C88.1855 39.3341 88.6202 39.5666 88.861 39.7174C89.1018 39.8682 89.4562 40.1385 89.6568 40.3081C89.8575 40.4841 90.1986 40.8423 90.4193 41.1C90.64 41.3576 90.9208 41.7661 91.0546 42.0112C91.1817 42.2563 91.3422 42.6082 91.4157 42.7967C91.4826 42.9853 91.5896 43.3372 91.6431 43.5823C91.7033 43.8525 91.7434 44.3552 91.7434 44.902C91.7434 45.3984 91.6966 46.0143 91.6431 46.3159C91.5896 46.6113 91.4626 47.1015 91.3689 47.4157C91.2686 47.7299 91.1014 48.195 90.9944 48.4526C90.8807 48.7103 90.64 49.1942 90.4594 49.521C90.2721 49.8477 89.9511 50.3442 89.7438 50.6144C89.5365 50.8909 89.0616 51.4062 88.6938 51.7707C88.326 52.1289 87.7575 52.6191 87.4231 52.8579C87.0887 53.0904 84.3133 54.7558 81.2569 56.5531C78.1939 58.3567 75.6525 59.8272 75.6191 59.8272Z" fill="white"/>
<path d="M46.5939 96.5277V93.4169V90.3062H48.1188C48.9547 90.3125 50.0248 90.3376 50.5063 90.369C50.9878 90.4005 51.6031 90.4696 51.8773 90.5261C52.1515 90.589 52.5929 90.7272 52.8471 90.8404C53.1012 90.9472 53.469 91.1671 53.6496 91.3243C53.8369 91.4814 54.0642 91.7453 54.1646 91.915C54.2649 92.0847 54.3919 92.3926 54.4454 92.6C54.5056 92.8074 54.5524 93.197 54.5524 93.4609C54.5524 93.8191 54.5056 94.0894 54.3719 94.4664C54.2114 94.9315 54.1445 95.032 53.7566 95.4028C53.4958 95.6479 53.1681 95.8804 52.9474 95.9747C52.7467 96.0689 52.3522 96.2009 52.078 96.27C51.8038 96.3391 51.3089 96.4271 50.9745 96.4648C50.6401 96.4963 49.5232 96.5277 46.5939 96.5277Z" fill="white"/>
<path d="M89.7973 116.009L89.804 115.249L89.8107 114.488L91.4024 114.532L91.6164 114.74C91.7969 114.909 91.8371 114.991 91.8304 115.211C91.8304 115.356 91.7903 115.538 91.7501 115.619C91.7033 115.695 91.5428 115.814 91.3823 115.883C91.1616 115.978 90.9543 116.009 89.7973 116.009Z" fill="white"/>
<path d="M97.5552 118.46V116.512V114.564H98.244C98.759 114.564 99.0399 114.595 99.3943 114.696C99.7688 114.809 99.9227 114.89 100.183 115.136C100.404 115.355 100.525 115.538 100.598 115.77C100.652 115.953 100.698 116.292 100.698 116.524C100.698 116.788 100.652 117.077 100.571 117.278C100.491 117.48 100.324 117.718 100.15 117.882C99.9762 118.045 99.7153 118.209 99.4946 118.284C99.2204 118.385 98.9329 118.422 97.5552 118.46Z" fill="white"/>
<path d="M50.3726 116.16C50.5732 115.645 50.7671 115.186 50.7939 115.136C50.8206 115.085 50.8608 115.073 50.8875 115.104C50.9143 115.136 51.0748 115.525 51.2487 115.978C51.4159 116.424 51.5964 116.901 51.7436 117.266H50.8741C50.1987 117.266 50.0047 117.247 50.0047 117.184C49.998 117.134 50.1652 116.675 50.3726 116.16Z" fill="white"/>
<path d="M106.544 117.184C106.557 117.147 106.744 116.65 106.958 116.091C107.179 115.525 107.38 115.073 107.406 115.085C107.44 115.092 107.64 115.563 107.861 116.135C108.082 116.707 108.256 117.191 108.256 117.216C108.256 117.247 107.868 117.266 107.386 117.266C106.724 117.266 106.524 117.247 106.544 117.184Z" fill="white"/>
<path d="M75.6191 59.8272C75.5723 59.8272 75.5522 56.2326 75.5522 49.1753V38.5234H80.1133C82.8888 38.5234 84.9821 38.5485 85.4502 38.5925C85.8715 38.6302 86.4734 38.7308 86.7878 38.8125C87.1021 38.9004 87.597 39.0764 87.8913 39.2021C88.1855 39.3341 88.6202 39.5666 88.861 39.7174C89.1018 39.8682 89.4562 40.1385 89.6568 40.3081C89.8575 40.4841 90.1986 40.8423 90.4193 41.1C90.64 41.3576 90.9208 41.7661 91.0546 42.0112C91.1817 42.2563 91.3422 42.6082 91.4157 42.7967C91.4826 42.9853 91.5896 43.3372 91.6431 43.5823C91.7033 43.8525 91.7434 44.3552 91.7434 44.902C91.7434 45.3984 91.6966 46.0143 91.6431 46.3159C91.5896 46.6113 91.4626 47.1015 91.3689 47.4157C91.2686 47.7299 91.1014 48.195 90.9944 48.4526C90.8807 48.7103 90.64 49.1942 90.4594 49.521C90.2721 49.8477 89.9511 50.3442 89.7438 50.6144C89.5365 50.8909 89.0616 51.4062 88.6938 51.7707C88.326 52.1289 87.7575 52.6191 87.4231 52.8579C87.0887 53.0904 84.3133 54.7558 81.2569 56.5531C78.1939 58.3567 75.6525 59.8272 75.6191 59.8272Z" stroke="white" stroke-width="0.5"/>
<path d="M46.5939 96.5277V93.4169V90.3062H48.1188C48.9547 90.3125 50.0248 90.3376 50.5063 90.369C50.9878 90.4005 51.6031 90.4696 51.8773 90.5261C52.1515 90.589 52.5929 90.7272 52.8471 90.8404C53.1012 90.9472 53.469 91.1671 53.6496 91.3243C53.8369 91.4814 54.0642 91.7453 54.1646 91.915C54.2649 92.0847 54.3919 92.3926 54.4454 92.6C54.5056 92.8074 54.5524 93.197 54.5524 93.4609C54.5524 93.8191 54.5056 94.0894 54.3719 94.4664C54.2114 94.9315 54.1445 95.032 53.7566 95.4028C53.4958 95.6479 53.1681 95.8804 52.9474 95.9747C52.7467 96.0689 52.3522 96.2009 52.078 96.27C51.8038 96.3391 51.3089 96.4271 50.9745 96.4648C50.6401 96.4963 49.5232 96.5277 46.5939 96.5277Z" stroke="white" stroke-width="0.5"/>
<path d="M89.7973 116.009L89.804 115.249L89.8107 114.488L91.4024 114.532L91.6164 114.74C91.7969 114.909 91.8371 114.991 91.8304 115.211C91.8304 115.356 91.7903 115.538 91.7501 115.619C91.7033 115.695 91.5428 115.814 91.3823 115.883C91.1616 115.978 90.9543 116.009 89.7973 116.009Z" stroke="white" stroke-width="0.5"/>
<path d="M97.5552 118.46V116.512V114.564H98.244C98.759 114.564 99.0399 114.595 99.3943 114.696C99.7688 114.809 99.9227 114.89 100.183 115.136C100.404 115.355 100.525 115.538 100.598 115.77C100.652 115.953 100.698 116.292 100.698 116.524C100.698 116.788 100.652 117.077 100.571 117.278C100.491 117.48 100.324 117.718 100.15 117.882C99.9762 118.045 99.7153 118.209 99.4946 118.284C99.2204 118.385 98.9329 118.422 97.5552 118.46Z" stroke="white" stroke-width="0.5"/>
<path d="M50.3726 116.16C50.5732 115.645 50.7671 115.186 50.7939 115.136C50.8206 115.085 50.8608 115.073 50.8875 115.104C50.9143 115.136 51.0748 115.525 51.2487 115.978C51.4159 116.424 51.5964 116.901 51.7436 117.266H50.8741C50.1987 117.266 50.0047 117.247 50.0047 117.184C49.998 117.134 50.1652 116.675 50.3726 116.16Z" stroke="white" stroke-width="0.5"/>
<path d="M106.544 117.184C106.557 117.147 106.744 116.65 106.958 116.091C107.179 115.525 107.38 115.073 107.406 115.085C107.44 115.092 107.64 115.563 107.861 116.135C108.082 116.707 108.256 117.191 108.256 117.216C108.256 117.247 107.868 117.266 107.386 117.266C106.724 117.266 106.524 117.247 106.544 117.184Z" stroke="white" stroke-width="0.5"/>
</svg>
