<svg width="209" height="546" viewBox="0 0 209 546" fill="none" xmlns="http://www.w3.org/2000/svg">
<path d="M21.1719 20.2812L14.375 40H10.2656L18.8281 17.25H21.4531L21.1719 20.2812ZM26.8594 40L20.0469 20.2812L19.75 17.25H22.3906L30.9844 40H26.8594ZM26.5312 31.5625V34.6719H14.1562V31.5625H26.5312ZM33.1719 16H36.9375V36.3906L36.5781 40H33.1719V16ZM47.9688 31.3906V31.7188C47.9688 32.9688 47.8281 34.1198 47.5469 35.1719C47.276 36.2135 46.8594 37.1198 46.2969 37.8906C45.7448 38.6615 45.0573 39.2604 44.2344 39.6875C43.4219 40.1042 42.4792 40.3125 41.4062 40.3125C40.3542 40.3125 39.4375 40.1146 38.6562 39.7188C37.875 39.3229 37.2188 38.7604 36.6875 38.0312C36.1667 37.3021 35.7448 36.4323 35.4219 35.4219C35.099 34.4115 34.8698 33.2969 34.7344 32.0781V31.0312C34.8698 29.8021 35.099 28.6875 35.4219 27.6875C35.7448 26.6771 36.1667 25.8073 36.6875 25.0781C37.2188 24.3385 37.8698 23.7708 38.6406 23.375C39.4219 22.9792 40.3333 22.7812 41.375 22.7812C42.4583 22.7812 43.4115 22.9896 44.2344 23.4062C45.0677 23.8229 45.7604 24.4167 46.3125 25.1875C46.8646 25.9479 47.276 26.8542 47.5469 27.9062C47.8281 28.9583 47.9688 30.1198 47.9688 31.3906ZM44.2031 31.7188V31.3906C44.2031 30.6302 44.1406 29.9167 44.0156 29.25C43.8906 28.5729 43.6823 27.9792 43.3906 27.4688C43.1094 26.9583 42.724 26.5573 42.2344 26.2656C41.7552 25.9635 41.1562 25.8125 40.4375 25.8125C39.7708 25.8125 39.1979 25.9271 38.7188 26.1562C38.2396 26.3854 37.8385 26.6979 37.5156 27.0938C37.1927 27.4896 36.9375 27.9479 36.75 28.4688C36.5729 28.9896 36.4531 29.5521 36.3906 30.1562V32.9844C36.4844 33.7656 36.6823 34.4844 36.9844 35.1406C37.2969 35.7865 37.7344 36.3073 38.2969 36.7031C38.8594 37.0885 39.5833 37.2812 40.4688 37.2812C41.1667 37.2812 41.7552 37.1406 42.2344 36.8594C42.7135 36.5781 43.0938 36.1875 43.375 35.6875C43.6667 35.1771 43.875 34.5833 44 33.9062C44.1354 33.2292 44.2031 32.5 44.2031 31.7188ZM50.4375 31.7344V31.375C50.4375 30.1562 50.6146 29.026 50.9688 27.9844C51.3229 26.9323 51.8333 26.0208 52.5 25.25C53.1771 24.4688 54 23.8646 54.9688 23.4375C55.9479 23 57.0521 22.7812 58.2812 22.7812C59.5208 22.7812 60.625 23 61.5938 23.4375C62.5729 23.8646 63.401 24.4688 64.0781 25.25C64.7552 26.0208 65.2708 26.9323 65.625 27.9844C65.9792 29.026 66.1562 30.1562 66.1562 31.375V31.7344C66.1562 32.9531 65.9792 34.0833 65.625 35.125C65.2708 36.1667 64.7552 37.0781 64.0781 37.8594C63.401 38.6302 62.5781 39.2344 61.6094 39.6719C60.6406 40.099 59.5417 40.3125 58.3125 40.3125C57.0729 40.3125 55.9635 40.099 54.9844 39.6719C54.0156 39.2344 53.1927 38.6302 52.5156 37.8594C51.8385 37.0781 51.3229 36.1667 50.9688 35.125C50.6146 34.0833 50.4375 32.9531 50.4375 31.7344ZM54.2031 31.375V31.7344C54.2031 32.4948 54.2812 33.2135 54.4375 33.8906C54.5938 34.5677 54.8385 35.1615 55.1719 35.6719C55.5052 36.1823 55.9323 36.5833 56.4531 36.875C56.974 37.1667 57.5938 37.3125 58.3125 37.3125C59.0104 37.3125 59.6146 37.1667 60.125 36.875C60.6458 36.5833 61.0729 36.1823 61.4062 35.6719C61.7396 35.1615 61.9844 34.5677 62.1406 33.8906C62.3073 33.2135 62.3906 32.4948 62.3906 31.7344V31.375C62.3906 30.625 62.3073 29.9167 62.1406 29.25C61.9844 28.5729 61.7344 27.974 61.3906 27.4531C61.0573 26.9323 60.6302 26.526 60.1094 26.2344C59.599 25.9323 58.9896 25.7812 58.2812 25.7812C57.5729 25.7812 56.9583 25.9323 56.4375 26.2344C55.9271 26.526 55.5052 26.9323 55.1719 27.4531C54.8385 27.974 54.5938 28.5729 54.4375 29.25C54.2812 29.9167 54.2031 30.625 54.2031 31.375ZM79.4844 36.0156V23.0938H83.2656V40H79.7031L79.4844 36.0156ZM80.0156 32.5L81.2812 32.4688C81.2812 33.6042 81.1562 34.651 80.9062 35.6094C80.6562 36.5573 80.2708 37.3854 79.75 38.0938C79.2292 38.7917 78.5625 39.3385 77.75 39.7344C76.9375 40.1198 75.9635 40.3125 74.8281 40.3125C74.0052 40.3125 73.25 40.1927 72.5625 39.9531C71.875 39.7135 71.2812 39.3438 70.7812 38.8438C70.2917 38.3438 69.9115 37.6927 69.6406 36.8906C69.3698 36.0885 69.2344 35.1302 69.2344 34.0156V23.0938H73V34.0469C73 34.6615 73.0729 35.1771 73.2188 35.5938C73.3646 36 73.5625 36.3281 73.8125 36.5781C74.0625 36.8281 74.3542 37.0052 74.6875 37.1094C75.0208 37.2135 75.375 37.2656 75.75 37.2656C76.8229 37.2656 77.6667 37.0573 78.2812 36.6406C78.9062 36.2135 79.349 35.6406 79.6094 34.9219C79.8802 34.2031 80.0156 33.3958 80.0156 32.5ZM94.875 23.0938V25.8438H85.3438V23.0938H94.875ZM88.0938 18.9531H91.8594V35.3281C91.8594 35.849 91.9323 36.25 92.0781 36.5312C92.2344 36.8021 92.4479 36.9844 92.7188 37.0781C92.9896 37.1719 93.3073 37.2188 93.6719 37.2188C93.9323 37.2188 94.1823 37.2031 94.4219 37.1719C94.6615 37.1406 94.8542 37.1094 95 37.0781L95.0156 39.9531C94.7031 40.0469 94.3385 40.1302 93.9219 40.2031C93.5156 40.276 93.0469 40.3125 92.5156 40.3125C91.651 40.3125 90.8854 40.1615 90.2188 39.8594C89.5521 39.5469 89.0312 39.0417 88.6562 38.3438C88.2812 37.6458 88.0938 36.7188 88.0938 35.5625V18.9531ZM118.891 17.25H122.797V32.4531C122.797 34.1823 122.422 35.6302 121.672 36.7969C120.922 37.9635 119.901 38.8438 118.609 39.4375C117.328 40.0208 115.896 40.3125 114.312 40.3125C112.677 40.3125 111.219 40.0208 109.938 39.4375C108.656 38.8438 107.646 37.9635 106.906 36.7969C106.177 35.6302 105.812 34.1823 105.812 32.4531V17.25H109.719V32.4531C109.719 33.5469 109.906 34.4479 110.281 35.1562C110.656 35.8542 111.188 36.3698 111.875 36.7031C112.562 37.0365 113.375 37.2031 114.312 37.2031C115.25 37.2031 116.057 37.0365 116.734 36.7031C117.422 36.3698 117.953 35.8542 118.328 35.1562C118.703 34.4479 118.891 33.5469 118.891 32.4531V17.25ZM136.172 35.4219C136.172 35.0469 136.078 34.7083 135.891 34.4062C135.703 34.0938 135.344 33.8125 134.812 33.5625C134.292 33.3125 133.521 33.0833 132.5 32.875C131.604 32.6771 130.781 32.4427 130.031 32.1719C129.292 31.8906 128.656 31.5521 128.125 31.1562C127.594 30.7604 127.182 30.2917 126.891 29.75C126.599 29.2083 126.453 28.5833 126.453 27.875C126.453 27.1875 126.604 26.5365 126.906 25.9219C127.208 25.3073 127.641 24.7656 128.203 24.2969C128.766 23.8281 129.448 23.4583 130.25 23.1875C131.062 22.9167 131.969 22.7812 132.969 22.7812C134.385 22.7812 135.599 23.0208 136.609 23.5C137.63 23.9688 138.411 24.6094 138.953 25.4219C139.495 26.224 139.766 27.1302 139.766 28.1406H136C136 27.6927 135.885 27.276 135.656 26.8906C135.438 26.4948 135.104 26.1771 134.656 25.9375C134.208 25.6875 133.646 25.5625 132.969 25.5625C132.323 25.5625 131.786 25.6667 131.359 25.875C130.943 26.0729 130.63 26.3333 130.422 26.6562C130.224 26.9792 130.125 27.3333 130.125 27.7188C130.125 28 130.177 28.2552 130.281 28.4844C130.396 28.7031 130.583 28.9062 130.844 29.0938C131.104 29.2708 131.458 29.4375 131.906 29.5938C132.365 29.75 132.938 29.901 133.625 30.0469C134.917 30.3177 136.026 30.6667 136.953 31.0938C137.891 31.5104 138.609 32.0521 139.109 32.7188C139.609 33.375 139.859 34.2083 139.859 35.2188C139.859 35.9688 139.698 36.6562 139.375 37.2812C139.062 37.8958 138.604 38.4323 138 38.8906C137.396 39.3385 136.672 39.6875 135.828 39.9375C134.995 40.1875 134.057 40.3125 133.016 40.3125C131.484 40.3125 130.188 40.0417 129.125 39.5C128.062 38.9479 127.255 38.2448 126.703 37.3906C126.161 36.526 125.891 35.6302 125.891 34.7031H129.531C129.573 35.401 129.766 35.9583 130.109 36.375C130.464 36.7812 130.901 37.0781 131.422 37.2656C131.953 37.4427 132.5 37.5312 133.062 37.5312C133.74 37.5312 134.307 37.4427 134.766 37.2656C135.224 37.0781 135.573 36.8281 135.812 36.5156C136.052 36.1927 136.172 35.8281 136.172 35.4219Z" fill="#202020"/>
<path d="M10 68H198.5" stroke="black"/>
<path d="M16.2344 95.25V118H12.3125V95.25H16.2344ZM25.5156 105.203V108.312H15.2344V105.203H25.5156ZM26.8125 95.25V98.375H15.2344V95.25H26.8125ZM38.5625 114.609V106.547C38.5625 105.943 38.4531 105.422 38.2344 104.984C38.0156 104.547 37.6823 104.208 37.2344 103.969C36.7969 103.729 36.2448 103.609 35.5781 103.609C34.9635 103.609 34.4323 103.714 33.9844 103.922C33.5365 104.13 33.1875 104.411 32.9375 104.766C32.6875 105.12 32.5625 105.521 32.5625 105.969H28.8125C28.8125 105.302 28.974 104.656 29.2969 104.031C29.6198 103.406 30.0885 102.849 30.7031 102.359C31.3177 101.87 32.0521 101.484 32.9062 101.203C33.7604 100.922 34.7188 100.781 35.7812 100.781C37.0521 100.781 38.1771 100.995 39.1562 101.422C40.1458 101.849 40.9219 102.495 41.4844 103.359C42.0573 104.214 42.3438 105.286 42.3438 106.578V114.094C42.3438 114.865 42.3958 115.557 42.5 116.172C42.6146 116.776 42.776 117.302 42.9844 117.75V118H39.125C38.9479 117.594 38.8073 117.078 38.7031 116.453C38.6094 115.818 38.5625 115.203 38.5625 114.609ZM39.1094 107.719L39.1406 110.047H36.4375C35.7396 110.047 35.125 110.115 34.5938 110.25C34.0625 110.375 33.6198 110.562 33.2656 110.812C32.9115 111.062 32.6458 111.365 32.4688 111.719C32.2917 112.073 32.2031 112.474 32.2031 112.922C32.2031 113.37 32.3073 113.781 32.5156 114.156C32.724 114.521 33.026 114.807 33.4219 115.016C33.8281 115.224 34.3177 115.328 34.8906 115.328C35.6615 115.328 36.3333 115.172 36.9062 114.859C37.4896 114.536 37.9479 114.146 38.2812 113.688C38.6146 113.219 38.7917 112.776 38.8125 112.359L40.0312 114.031C39.9062 114.458 39.6927 114.917 39.3906 115.406C39.0885 115.896 38.6927 116.365 38.2031 116.812C37.724 117.25 37.1458 117.609 36.4688 117.891C35.8021 118.172 35.0312 118.312 34.1562 118.312C33.0521 118.312 32.0677 118.094 31.2031 117.656C30.3385 117.208 29.6615 116.609 29.1719 115.859C28.6823 115.099 28.4375 114.24 28.4375 113.281C28.4375 112.385 28.6042 111.594 28.9375 110.906C29.2812 110.208 29.7812 109.625 30.4375 109.156C31.1042 108.688 31.9167 108.333 32.875 108.094C33.8333 107.844 34.9271 107.719 36.1562 107.719H39.1094ZM53.1875 115.312C53.8021 115.312 54.3542 115.193 54.8438 114.953C55.3438 114.703 55.7448 114.359 56.0469 113.922C56.3594 113.484 56.5312 112.979 56.5625 112.406H60.1094C60.0885 113.5 59.7656 114.495 59.1406 115.391C58.5156 116.286 57.6875 117 56.6562 117.531C55.625 118.052 54.4844 118.312 53.2344 118.312C51.9427 118.312 50.8177 118.094 49.8594 117.656C48.901 117.208 48.1042 116.594 47.4688 115.812C46.8333 115.031 46.3542 114.13 46.0312 113.109C45.7188 112.089 45.5625 110.995 45.5625 109.828V109.281C45.5625 108.115 45.7188 107.021 46.0312 106C46.3542 104.969 46.8333 104.062 47.4688 103.281C48.1042 102.5 48.901 101.891 49.8594 101.453C50.8177 101.005 51.9375 100.781 53.2188 100.781C54.5729 100.781 55.7604 101.052 56.7812 101.594C57.8021 102.125 58.6042 102.87 59.1875 103.828C59.7812 104.776 60.0885 105.88 60.1094 107.141H56.5625C56.5312 106.516 56.375 105.953 56.0938 105.453C55.8229 104.943 55.4375 104.536 54.9375 104.234C54.4479 103.932 53.8594 103.781 53.1719 103.781C52.4115 103.781 51.7812 103.938 51.2812 104.25C50.7812 104.552 50.3906 104.969 50.1094 105.5C49.8281 106.021 49.625 106.609 49.5 107.266C49.3854 107.911 49.3281 108.583 49.3281 109.281V109.828C49.3281 110.526 49.3854 111.203 49.5 111.859C49.6146 112.516 49.8125 113.104 50.0938 113.625C50.3854 114.135 50.7812 114.547 51.2812 114.859C51.7812 115.161 52.4167 115.312 53.1875 115.312ZM67.0312 101.094V118H63.25V101.094H67.0312ZM63 96.6562C63 96.0833 63.1875 95.6094 63.5625 95.2344C63.9479 94.849 64.4792 94.6562 65.1562 94.6562C65.8229 94.6562 66.349 94.849 66.7344 95.2344C67.1198 95.6094 67.3125 96.0833 67.3125 96.6562C67.3125 97.2188 67.1198 97.6875 66.7344 98.0625C66.349 98.4375 65.8229 98.625 65.1562 98.625C64.4792 98.625 63.9479 98.4375 63.5625 98.0625C63.1875 97.6875 63 97.2188 63 96.6562ZM75.1875 94V118H71.4062V94H75.1875ZM83.3438 101.094V118H79.5625V101.094H83.3438ZM79.3125 96.6562C79.3125 96.0833 79.5 95.6094 79.875 95.2344C80.2604 94.849 80.7917 94.6562 81.4688 94.6562C82.1354 94.6562 82.6615 94.849 83.0469 95.2344C83.4323 95.6094 83.625 96.0833 83.625 96.6562C83.625 97.2188 83.4323 97.6875 83.0469 98.0625C82.6615 98.4375 82.1354 98.625 81.4688 98.625C80.7917 98.625 80.2604 98.4375 79.875 98.0625C79.5 97.6875 79.3125 97.2188 79.3125 96.6562ZM95.2188 101.094V103.844H85.6875V101.094H95.2188ZM88.4375 96.9531H92.2031V113.328C92.2031 113.849 92.276 114.25 92.4219 114.531C92.5781 114.802 92.7917 114.984 93.0625 115.078C93.3333 115.172 93.651 115.219 94.0156 115.219C94.276 115.219 94.526 115.203 94.7656 115.172C95.0052 115.141 95.1979 115.109 95.3438 115.078L95.3594 117.953C95.0469 118.047 94.6823 118.13 94.2656 118.203C93.8594 118.276 93.3906 118.312 92.8594 118.312C91.9948 118.312 91.2292 118.161 90.5625 117.859C89.8958 117.547 89.375 117.042 89 116.344C88.625 115.646 88.4375 114.719 88.4375 113.562V96.9531ZM103.031 116.156L107.625 101.094H111.656L104.875 120.578C104.719 120.995 104.516 121.448 104.266 121.938C104.016 122.427 103.688 122.891 103.281 123.328C102.885 123.776 102.391 124.135 101.797 124.406C101.203 124.688 100.484 124.828 99.6406 124.828C99.3073 124.828 98.9844 124.797 98.6719 124.734C98.3698 124.682 98.0833 124.625 97.8125 124.562L97.7969 121.688C97.901 121.698 98.026 121.708 98.1719 121.719C98.3281 121.729 98.4531 121.734 98.5469 121.734C99.1719 121.734 99.6927 121.656 100.109 121.5C100.526 121.354 100.865 121.115 101.125 120.781C101.396 120.448 101.625 120 101.812 119.438L103.031 116.156ZM100.438 101.094L104.453 113.75L105.125 117.719L102.516 118.391L96.375 101.094H100.438Z" fill="#202020"/>
<path d="M10 146H198.5" stroke="black"/>
<path d="M20.1094 191.844L26.0938 173.25H30.4219L22.2656 196H19.3438L20.1094 191.844ZM14.5781 173.25L20.5156 191.844L21.3281 196H18.3906L10.2656 173.25H14.5781ZM32.9688 173.25H41.0156C42.7448 173.25 44.2188 173.51 45.4375 174.031C46.6562 174.552 47.5885 175.323 48.2344 176.344C48.8906 177.354 49.2188 178.604 49.2188 180.094C49.2188 181.229 49.0104 182.229 48.5938 183.094C48.1771 183.958 47.5885 184.688 46.8281 185.281C46.0677 185.865 45.1615 186.318 44.1094 186.641L42.9219 187.219H35.6875L35.6562 184.109H41.0781C42.0156 184.109 42.7969 183.943 43.4219 183.609C44.0469 183.276 44.5156 182.823 44.8281 182.25C45.151 181.667 45.3125 181.01 45.3125 180.281C45.3125 179.49 45.1562 178.802 44.8438 178.219C44.5417 177.625 44.0729 177.172 43.4375 176.859C42.8021 176.536 41.9948 176.375 41.0156 176.375H36.8906V196H32.9688V173.25ZM45.9531 196L40.6094 185.781L44.7188 185.766L50.1406 195.797V196H45.9531ZM61.9844 176.281L55.1875 196H51.0781L59.6406 173.25H62.2656L61.9844 176.281ZM67.6719 196L60.8594 176.281L60.5625 173.25H63.2031L71.7969 196H67.6719ZM67.3438 187.562V190.672H54.9688V187.562H67.3438ZM95.75 188.594H99.6562C99.5312 190.083 99.1146 191.411 98.4062 192.578C97.6979 193.734 96.7031 194.646 95.4219 195.312C94.1406 195.979 92.5833 196.312 90.75 196.312C89.3438 196.312 88.0781 196.062 86.9531 195.562C85.8281 195.052 84.8646 194.333 84.0625 193.406C83.2604 192.469 82.6458 191.339 82.2188 190.016C81.8021 188.693 81.5938 187.214 81.5938 185.578V183.688C81.5938 182.052 81.8073 180.573 82.2344 179.25C82.6719 177.927 83.2969 176.797 84.1094 175.859C84.9219 174.911 85.8958 174.188 87.0312 173.688C88.1771 173.188 89.4635 172.938 90.8906 172.938C92.7031 172.938 94.2344 173.271 95.4844 173.938C96.7344 174.604 97.7031 175.526 98.3906 176.703C99.0885 177.88 99.5156 179.229 99.6719 180.75H95.7656C95.6615 179.771 95.4323 178.932 95.0781 178.234C94.7344 177.536 94.224 177.005 93.5469 176.641C92.8698 176.266 91.9844 176.078 90.8906 176.078C89.9948 176.078 89.2135 176.245 88.5469 176.578C87.8802 176.911 87.3229 177.401 86.875 178.047C86.4271 178.693 86.0885 179.49 85.8594 180.438C85.6406 181.375 85.5312 182.448 85.5312 183.656V185.578C85.5312 186.724 85.6302 187.766 85.8281 188.703C86.0365 189.63 86.349 190.427 86.7656 191.094C87.1927 191.76 87.7344 192.276 88.3906 192.641C89.0469 193.005 89.8333 193.188 90.75 193.188C91.8646 193.188 92.7656 193.01 93.4531 192.656C94.151 192.302 94.6771 191.786 95.0312 191.109C95.3958 190.422 95.6354 189.583 95.75 188.594ZM106.625 182.312V196H102.859V179.094H106.453L106.625 182.312ZM111.797 178.984L111.766 182.484C111.536 182.443 111.286 182.411 111.016 182.391C110.755 182.37 110.495 182.359 110.234 182.359C109.589 182.359 109.021 182.453 108.531 182.641C108.042 182.818 107.63 183.078 107.297 183.422C106.974 183.755 106.724 184.161 106.547 184.641C106.37 185.12 106.266 185.656 106.234 186.25L105.375 186.312C105.375 185.25 105.479 184.266 105.688 183.359C105.896 182.453 106.208 181.656 106.625 180.969C107.052 180.281 107.583 179.745 108.219 179.359C108.865 178.974 109.609 178.781 110.453 178.781C110.682 178.781 110.927 178.802 111.188 178.844C111.458 178.885 111.661 178.932 111.797 178.984ZM118.188 179.094V196H114.406V179.094H118.188ZM114.156 174.656C114.156 174.083 114.344 173.609 114.719 173.234C115.104 172.849 115.635 172.656 116.312 172.656C116.979 172.656 117.505 172.849 117.891 173.234C118.276 173.609 118.469 174.083 118.469 174.656C118.469 175.219 118.276 175.688 117.891 176.062C117.505 176.438 116.979 176.625 116.312 176.625C115.635 176.625 115.104 176.438 114.719 176.062C114.344 175.688 114.156 175.219 114.156 174.656ZM129.219 193.312C129.833 193.312 130.385 193.193 130.875 192.953C131.375 192.703 131.776 192.359 132.078 191.922C132.391 191.484 132.562 190.979 132.594 190.406H136.141C136.12 191.5 135.797 192.495 135.172 193.391C134.547 194.286 133.719 195 132.688 195.531C131.656 196.052 130.516 196.312 129.266 196.312C127.974 196.312 126.849 196.094 125.891 195.656C124.932 195.208 124.135 194.594 123.5 193.812C122.865 193.031 122.385 192.13 122.062 191.109C121.75 190.089 121.594 188.995 121.594 187.828V187.281C121.594 186.115 121.75 185.021 122.062 184C122.385 182.969 122.865 182.062 123.5 181.281C124.135 180.5 124.932 179.891 125.891 179.453C126.849 179.005 127.969 178.781 129.25 178.781C130.604 178.781 131.792 179.052 132.812 179.594C133.833 180.125 134.635 180.87 135.219 181.828C135.812 182.776 136.12 183.88 136.141 185.141H132.594C132.562 184.516 132.406 183.953 132.125 183.453C131.854 182.943 131.469 182.536 130.969 182.234C130.479 181.932 129.891 181.781 129.203 181.781C128.443 181.781 127.812 181.938 127.312 182.25C126.812 182.552 126.422 182.969 126.141 183.5C125.859 184.021 125.656 184.609 125.531 185.266C125.417 185.911 125.359 186.583 125.359 187.281V187.828C125.359 188.526 125.417 189.203 125.531 189.859C125.646 190.516 125.844 191.104 126.125 191.625C126.417 192.135 126.812 192.547 127.312 192.859C127.812 193.161 128.448 193.312 129.219 193.312ZM142.828 172V196H139.047V172H142.828ZM153.328 179.094L145.969 187.25L141.938 191.375L140.953 188.188L144 184.422L148.781 179.094H153.328ZM149.594 196L144.109 188.062L146.484 185.422L153.953 196H149.594ZM162.859 196.312C161.609 196.312 160.479 196.109 159.469 195.703C158.469 195.286 157.615 194.708 156.906 193.969C156.208 193.229 155.672 192.359 155.297 191.359C154.922 190.359 154.734 189.281 154.734 188.125V187.5C154.734 186.177 154.927 184.979 155.312 183.906C155.698 182.833 156.234 181.917 156.922 181.156C157.609 180.385 158.422 179.797 159.359 179.391C160.297 178.984 161.312 178.781 162.406 178.781C163.615 178.781 164.672 178.984 165.578 179.391C166.484 179.797 167.234 180.37 167.828 181.109C168.432 181.839 168.88 182.708 169.172 183.719C169.474 184.729 169.625 185.844 169.625 187.062V188.672H156.562V185.969H165.906V185.672C165.885 184.995 165.75 184.359 165.5 183.766C165.26 183.172 164.891 182.693 164.391 182.328C163.891 181.964 163.224 181.781 162.391 181.781C161.766 181.781 161.208 181.917 160.719 182.188C160.24 182.448 159.839 182.828 159.516 183.328C159.193 183.828 158.943 184.432 158.766 185.141C158.599 185.839 158.516 186.625 158.516 187.5V188.125C158.516 188.865 158.615 189.552 158.812 190.188C159.021 190.812 159.323 191.359 159.719 191.828C160.115 192.297 160.594 192.667 161.156 192.938C161.719 193.198 162.359 193.328 163.078 193.328C163.984 193.328 164.792 193.146 165.5 192.781C166.208 192.417 166.823 191.901 167.344 191.234L169.328 193.156C168.964 193.688 168.49 194.198 167.906 194.688C167.323 195.167 166.609 195.557 165.766 195.859C164.932 196.161 163.964 196.312 162.859 196.312ZM180.312 179.094V181.844H170.781V179.094H180.312ZM173.531 174.953H177.297V191.328C177.297 191.849 177.37 192.25 177.516 192.531C177.672 192.802 177.885 192.984 178.156 193.078C178.427 193.172 178.745 193.219 179.109 193.219C179.37 193.219 179.62 193.203 179.859 193.172C180.099 193.141 180.292 193.109 180.438 193.078L180.453 195.953C180.141 196.047 179.776 196.13 179.359 196.203C178.953 196.276 178.484 196.312 177.953 196.312C177.089 196.312 176.323 196.161 175.656 195.859C174.99 195.547 174.469 195.042 174.094 194.344C173.719 193.646 173.531 192.719 173.531 191.562V174.953Z" fill="#202020"/>
<path d="M10 224H198.5" stroke="black"/>
<path d="M24.2812 268.141C24.2812 267.672 24.2083 267.255 24.0625 266.891C23.9271 266.526 23.6823 266.193 23.3281 265.891C22.974 265.589 22.474 265.297 21.8281 265.016C21.1927 264.724 20.3802 264.427 19.3906 264.125C18.3073 263.792 17.3073 263.422 16.3906 263.016C15.4844 262.599 14.6927 262.12 14.0156 261.578C13.3385 261.026 12.8125 260.396 12.4375 259.688C12.0625 258.969 11.875 258.141 11.875 257.203C11.875 256.276 12.0677 255.432 12.4531 254.672C12.849 253.911 13.4062 253.255 14.125 252.703C14.8542 252.141 15.7135 251.708 16.7031 251.406C17.6927 251.094 18.7865 250.938 19.9844 250.938C21.6719 250.938 23.125 251.25 24.3438 251.875C25.5729 252.5 26.5156 253.339 27.1719 254.391C27.8385 255.443 28.1719 256.604 28.1719 257.875H24.2812C24.2812 257.125 24.1198 256.464 23.7969 255.891C23.4844 255.307 23.0052 254.849 22.3594 254.516C21.724 254.182 20.9167 254.016 19.9375 254.016C19.0104 254.016 18.2396 254.156 17.625 254.438C17.0104 254.719 16.5521 255.099 16.25 255.578C15.9479 256.057 15.7969 256.599 15.7969 257.203C15.7969 257.63 15.8958 258.021 16.0938 258.375C16.2917 258.719 16.5938 259.042 17 259.344C17.4062 259.635 17.9167 259.911 18.5312 260.172C19.1458 260.432 19.8698 260.682 20.7031 260.922C21.9635 261.297 23.0625 261.714 24 262.172C24.9375 262.62 25.7188 263.13 26.3438 263.703C26.9688 264.276 27.4375 264.927 27.75 265.656C28.0625 266.375 28.2188 267.193 28.2188 268.109C28.2188 269.068 28.026 269.932 27.6406 270.703C27.2552 271.464 26.7031 272.115 25.9844 272.656C25.276 273.188 24.4219 273.599 23.4219 273.891C22.4323 274.172 21.3281 274.312 20.1094 274.312C19.0156 274.312 17.9375 274.167 16.875 273.875C15.8229 273.583 14.8646 273.141 14 272.547C13.1354 271.943 12.4479 271.193 11.9375 270.297C11.4271 269.391 11.1719 268.333 11.1719 267.125H15.0938C15.0938 267.865 15.2188 268.495 15.4688 269.016C15.7292 269.536 16.0885 269.964 16.5469 270.297C17.0052 270.62 17.5365 270.859 18.1406 271.016C18.7552 271.172 19.4115 271.25 20.1094 271.25C21.026 271.25 21.7917 271.12 22.4062 270.859C23.0312 270.599 23.5 270.234 23.8125 269.766C24.125 269.297 24.2812 268.755 24.2812 268.141ZM35.0938 260.344V280.5H31.3281V257.094H34.7969L35.0938 260.344ZM46.1094 265.391V265.719C46.1094 266.948 45.9635 268.089 45.6719 269.141C45.3906 270.182 44.9688 271.094 44.4062 271.875C43.8542 272.646 43.1719 273.245 42.3594 273.672C41.5469 274.099 40.6094 274.312 39.5469 274.312C38.4948 274.312 37.5729 274.12 36.7812 273.734C36 273.339 35.3385 272.781 34.7969 272.062C34.2552 271.344 33.8177 270.5 33.4844 269.531C33.1615 268.552 32.9323 267.479 32.7969 266.312V265.047C32.9323 263.807 33.1615 262.682 33.4844 261.672C33.8177 260.661 34.2552 259.792 34.7969 259.062C35.3385 258.333 36 257.771 36.7812 257.375C37.5625 256.979 38.474 256.781 39.5156 256.781C40.5781 256.781 41.5208 256.99 42.3438 257.406C43.1667 257.812 43.8594 258.396 44.4219 259.156C44.9844 259.906 45.4062 260.812 45.6875 261.875C45.9688 262.927 46.1094 264.099 46.1094 265.391ZM42.3438 265.719V265.391C42.3438 264.609 42.2708 263.885 42.125 263.219C41.9792 262.542 41.75 261.948 41.4375 261.438C41.125 260.927 40.724 260.531 40.2344 260.25C39.7552 259.958 39.1771 259.812 38.5 259.812C37.8333 259.812 37.2604 259.927 36.7812 260.156C36.3021 260.375 35.901 260.682 35.5781 261.078C35.2552 261.474 35.0052 261.938 34.8281 262.469C34.651 262.99 34.526 263.557 34.4531 264.172V267.203C34.5781 267.953 34.7917 268.641 35.0938 269.266C35.3958 269.891 35.8229 270.391 36.375 270.766C36.9375 271.13 37.6562 271.312 38.5312 271.312C39.2083 271.312 39.7865 271.167 40.2656 270.875C40.7448 270.583 41.1354 270.182 41.4375 269.672C41.75 269.151 41.9792 268.552 42.125 267.875C42.2708 267.198 42.3438 266.479 42.3438 265.719ZM48.5938 265.734V265.375C48.5938 264.156 48.7708 263.026 49.125 261.984C49.4792 260.932 49.9896 260.021 50.6562 259.25C51.3333 258.469 52.1562 257.865 53.125 257.438C54.1042 257 55.2083 256.781 56.4375 256.781C57.6771 256.781 58.7812 257 59.75 257.438C60.7292 257.865 61.5573 258.469 62.2344 259.25C62.9115 260.021 63.4271 260.932 63.7812 261.984C64.1354 263.026 64.3125 264.156 64.3125 265.375V265.734C64.3125 266.953 64.1354 268.083 63.7812 269.125C63.4271 270.167 62.9115 271.078 62.2344 271.859C61.5573 272.63 60.7344 273.234 59.7656 273.672C58.7969 274.099 57.6979 274.312 56.4688 274.312C55.2292 274.312 54.1198 274.099 53.1406 273.672C52.1719 273.234 51.349 272.63 50.6719 271.859C49.9948 271.078 49.4792 270.167 49.125 269.125C48.7708 268.083 48.5938 266.953 48.5938 265.734ZM52.3594 265.375V265.734C52.3594 266.495 52.4375 267.214 52.5938 267.891C52.75 268.568 52.9948 269.161 53.3281 269.672C53.6615 270.182 54.0885 270.583 54.6094 270.875C55.1302 271.167 55.75 271.312 56.4688 271.312C57.1667 271.312 57.7708 271.167 58.2812 270.875C58.8021 270.583 59.2292 270.182 59.5625 269.672C59.8958 269.161 60.1406 268.568 60.2969 267.891C60.4635 267.214 60.5469 266.495 60.5469 265.734V265.375C60.5469 264.625 60.4635 263.917 60.2969 263.25C60.1406 262.573 59.8906 261.974 59.5469 261.453C59.2135 260.932 58.7865 260.526 58.2656 260.234C57.7552 259.932 57.1458 259.781 56.4375 259.781C55.7292 259.781 55.1146 259.932 54.5938 260.234C54.0833 260.526 53.6615 260.932 53.3281 261.453C52.9948 261.974 52.75 262.573 52.5938 263.25C52.4375 263.917 52.3594 264.625 52.3594 265.375ZM71.2031 260.703V274H67.4375V257.094H70.9844L71.2031 260.703ZM70.5312 264.922L69.3125 264.906C69.3229 263.708 69.4896 262.609 69.8125 261.609C70.1458 260.609 70.6042 259.75 71.1875 259.031C71.7812 258.312 72.4896 257.76 73.3125 257.375C74.1354 256.979 75.0521 256.781 76.0625 256.781C76.875 256.781 77.6094 256.896 78.2656 257.125C78.9323 257.344 79.5 257.703 79.9688 258.203C80.4479 258.703 80.8125 259.354 81.0625 260.156C81.3125 260.948 81.4375 261.922 81.4375 263.078V274H77.6562V263.062C77.6562 262.25 77.5365 261.609 77.2969 261.141C77.0677 260.661 76.7292 260.323 76.2812 260.125C75.8438 259.917 75.2969 259.812 74.6406 259.812C73.9948 259.812 73.4167 259.948 72.9062 260.219C72.3958 260.49 71.9635 260.859 71.6094 261.328C71.2656 261.797 71 262.339 70.8125 262.953C70.625 263.568 70.5312 264.224 70.5312 264.922ZM94.7656 269.422C94.7656 269.047 94.6719 268.708 94.4844 268.406C94.2969 268.094 93.9375 267.812 93.4062 267.562C92.8854 267.312 92.1146 267.083 91.0938 266.875C90.1979 266.677 89.375 266.443 88.625 266.172C87.8854 265.891 87.25 265.552 86.7188 265.156C86.1875 264.76 85.776 264.292 85.4844 263.75C85.1927 263.208 85.0469 262.583 85.0469 261.875C85.0469 261.188 85.1979 260.536 85.5 259.922C85.8021 259.307 86.2344 258.766 86.7969 258.297C87.3594 257.828 88.0417 257.458 88.8438 257.188C89.6562 256.917 90.5625 256.781 91.5625 256.781C92.9792 256.781 94.1927 257.021 95.2031 257.5C96.224 257.969 97.0052 258.609 97.5469 259.422C98.0885 260.224 98.3594 261.13 98.3594 262.141H94.5938C94.5938 261.693 94.4792 261.276 94.25 260.891C94.0312 260.495 93.6979 260.177 93.25 259.938C92.8021 259.688 92.2396 259.562 91.5625 259.562C90.9167 259.562 90.3802 259.667 89.9531 259.875C89.5365 260.073 89.224 260.333 89.0156 260.656C88.8177 260.979 88.7188 261.333 88.7188 261.719C88.7188 262 88.7708 262.255 88.875 262.484C88.9896 262.703 89.1771 262.906 89.4375 263.094C89.6979 263.271 90.0521 263.438 90.5 263.594C90.9583 263.75 91.5312 263.901 92.2188 264.047C93.5104 264.318 94.6198 264.667 95.5469 265.094C96.4844 265.51 97.2031 266.052 97.7031 266.719C98.2031 267.375 98.4531 268.208 98.4531 269.219C98.4531 269.969 98.2917 270.656 97.9688 271.281C97.6562 271.896 97.1979 272.432 96.5938 272.891C95.9896 273.339 95.2656 273.688 94.4219 273.938C93.5885 274.188 92.651 274.312 91.6094 274.312C90.0781 274.312 88.7812 274.042 87.7188 273.5C86.6562 272.948 85.849 272.245 85.2969 271.391C84.7552 270.526 84.4844 269.63 84.4844 268.703H88.125C88.1667 269.401 88.3594 269.958 88.7031 270.375C89.0573 270.781 89.4948 271.078 90.0156 271.266C90.5469 271.443 91.0938 271.531 91.6562 271.531C92.3333 271.531 92.901 271.443 93.3594 271.266C93.8177 271.078 94.1667 270.828 94.4062 270.516C94.6458 270.193 94.7656 269.828 94.7656 269.422ZM101.031 265.734V265.375C101.031 264.156 101.208 263.026 101.562 261.984C101.917 260.932 102.427 260.021 103.094 259.25C103.771 258.469 104.594 257.865 105.562 257.438C106.542 257 107.646 256.781 108.875 256.781C110.115 256.781 111.219 257 112.188 257.438C113.167 257.865 113.995 258.469 114.672 259.25C115.349 260.021 115.865 260.932 116.219 261.984C116.573 263.026 116.75 264.156 116.75 265.375V265.734C116.75 266.953 116.573 268.083 116.219 269.125C115.865 270.167 115.349 271.078 114.672 271.859C113.995 272.63 113.172 273.234 112.203 273.672C111.234 274.099 110.135 274.312 108.906 274.312C107.667 274.312 106.557 274.099 105.578 273.672C104.609 273.234 103.786 272.63 103.109 271.859C102.432 271.078 101.917 270.167 101.562 269.125C101.208 268.083 101.031 266.953 101.031 265.734ZM104.797 265.375V265.734C104.797 266.495 104.875 267.214 105.031 267.891C105.188 268.568 105.432 269.161 105.766 269.672C106.099 270.182 106.526 270.583 107.047 270.875C107.568 271.167 108.188 271.312 108.906 271.312C109.604 271.312 110.208 271.167 110.719 270.875C111.24 270.583 111.667 270.182 112 269.672C112.333 269.161 112.578 268.568 112.734 267.891C112.901 267.214 112.984 266.495 112.984 265.734V265.375C112.984 264.625 112.901 263.917 112.734 263.25C112.578 262.573 112.328 261.974 111.984 261.453C111.651 260.932 111.224 260.526 110.703 260.234C110.193 259.932 109.583 259.781 108.875 259.781C108.167 259.781 107.552 259.932 107.031 260.234C106.521 260.526 106.099 260.932 105.766 261.453C105.432 261.974 105.188 262.573 105.031 263.25C104.875 263.917 104.797 264.625 104.797 265.375ZM123.688 260.312V274H119.922V257.094H123.516L123.688 260.312ZM128.859 256.984L128.828 260.484C128.599 260.443 128.349 260.411 128.078 260.391C127.818 260.37 127.557 260.359 127.297 260.359C126.651 260.359 126.083 260.453 125.594 260.641C125.104 260.818 124.693 261.078 124.359 261.422C124.036 261.755 123.786 262.161 123.609 262.641C123.432 263.12 123.328 263.656 123.297 264.25L122.438 264.312C122.438 263.25 122.542 262.266 122.75 261.359C122.958 260.453 123.271 259.656 123.688 258.969C124.115 258.281 124.646 257.745 125.281 257.359C125.927 256.974 126.672 256.781 127.516 256.781C127.745 256.781 127.99 256.802 128.25 256.844C128.521 256.885 128.724 256.932 128.859 256.984ZM140.703 269.422C140.703 269.047 140.609 268.708 140.422 268.406C140.234 268.094 139.875 267.812 139.344 267.562C138.823 267.312 138.052 267.083 137.031 266.875C136.135 266.677 135.312 266.443 134.562 266.172C133.823 265.891 133.188 265.552 132.656 265.156C132.125 264.76 131.714 264.292 131.422 263.75C131.13 263.208 130.984 262.583 130.984 261.875C130.984 261.188 131.135 260.536 131.438 259.922C131.74 259.307 132.172 258.766 132.734 258.297C133.297 257.828 133.979 257.458 134.781 257.188C135.594 256.917 136.5 256.781 137.5 256.781C138.917 256.781 140.13 257.021 141.141 257.5C142.161 257.969 142.943 258.609 143.484 259.422C144.026 260.224 144.297 261.13 144.297 262.141H140.531C140.531 261.693 140.417 261.276 140.188 260.891C139.969 260.495 139.635 260.177 139.188 259.938C138.74 259.688 138.177 259.562 137.5 259.562C136.854 259.562 136.318 259.667 135.891 259.875C135.474 260.073 135.161 260.333 134.953 260.656C134.755 260.979 134.656 261.333 134.656 261.719C134.656 262 134.708 262.255 134.812 262.484C134.927 262.703 135.115 262.906 135.375 263.094C135.635 263.271 135.99 263.438 136.438 263.594C136.896 263.75 137.469 263.901 138.156 264.047C139.448 264.318 140.557 264.667 141.484 265.094C142.422 265.51 143.141 266.052 143.641 266.719C144.141 267.375 144.391 268.208 144.391 269.219C144.391 269.969 144.229 270.656 143.906 271.281C143.594 271.896 143.135 272.432 142.531 272.891C141.927 273.339 141.203 273.688 140.359 273.938C139.526 274.188 138.589 274.312 137.547 274.312C136.016 274.312 134.719 274.042 133.656 273.5C132.594 272.948 131.786 272.245 131.234 271.391C130.693 270.526 130.422 269.63 130.422 268.703H134.062C134.104 269.401 134.297 269.958 134.641 270.375C134.995 270.781 135.432 271.078 135.953 271.266C136.484 271.443 137.031 271.531 137.594 271.531C138.271 271.531 138.839 271.443 139.297 271.266C139.755 271.078 140.104 270.828 140.344 270.516C140.583 270.193 140.703 269.828 140.703 269.422Z" fill="#202020"/>
<path d="M10 302H198.5" stroke="black"/>
<path d="M24.2812 346.141C24.2812 345.672 24.2083 345.255 24.0625 344.891C23.9271 344.526 23.6823 344.193 23.3281 343.891C22.974 343.589 22.474 343.297 21.8281 343.016C21.1927 342.724 20.3802 342.427 19.3906 342.125C18.3073 341.792 17.3073 341.422 16.3906 341.016C15.4844 340.599 14.6927 340.12 14.0156 339.578C13.3385 339.026 12.8125 338.396 12.4375 337.688C12.0625 336.969 11.875 336.141 11.875 335.203C11.875 334.276 12.0677 333.432 12.4531 332.672C12.849 331.911 13.4062 331.255 14.125 330.703C14.8542 330.141 15.7135 329.708 16.7031 329.406C17.6927 329.094 18.7865 328.938 19.9844 328.938C21.6719 328.938 23.125 329.25 24.3438 329.875C25.5729 330.5 26.5156 331.339 27.1719 332.391C27.8385 333.443 28.1719 334.604 28.1719 335.875H24.2812C24.2812 335.125 24.1198 334.464 23.7969 333.891C23.4844 333.307 23.0052 332.849 22.3594 332.516C21.724 332.182 20.9167 332.016 19.9375 332.016C19.0104 332.016 18.2396 332.156 17.625 332.438C17.0104 332.719 16.5521 333.099 16.25 333.578C15.9479 334.057 15.7969 334.599 15.7969 335.203C15.7969 335.63 15.8958 336.021 16.0938 336.375C16.2917 336.719 16.5938 337.042 17 337.344C17.4062 337.635 17.9167 337.911 18.5312 338.172C19.1458 338.432 19.8698 338.682 20.7031 338.922C21.9635 339.297 23.0625 339.714 24 340.172C24.9375 340.62 25.7188 341.13 26.3438 341.703C26.9688 342.276 27.4375 342.927 27.75 343.656C28.0625 344.375 28.2188 345.193 28.2188 346.109C28.2188 347.068 28.026 347.932 27.6406 348.703C27.2552 349.464 26.7031 350.115 25.9844 350.656C25.276 351.188 24.4219 351.599 23.4219 351.891C22.4323 352.172 21.3281 352.312 20.1094 352.312C19.0156 352.312 17.9375 352.167 16.875 351.875C15.8229 351.583 14.8646 351.141 14 350.547C13.1354 349.943 12.4479 349.193 11.9375 348.297C11.4271 347.391 11.1719 346.333 11.1719 345.125H15.0938C15.0938 345.865 15.2188 346.495 15.4688 347.016C15.7292 347.536 16.0885 347.964 16.5469 348.297C17.0052 348.62 17.5365 348.859 18.1406 349.016C18.7552 349.172 19.4115 349.25 20.1094 349.25C21.026 349.25 21.7917 349.12 22.4062 348.859C23.0312 348.599 23.5 348.234 23.8125 347.766C24.125 347.297 24.2812 346.755 24.2812 346.141ZM35.0312 328V352H31.2812V328H35.0312ZM34.375 342.922L33.1562 342.906C33.1667 341.74 33.3281 340.661 33.6406 339.672C33.9635 338.682 34.4115 337.823 34.9844 337.094C35.5677 336.354 36.2656 335.786 37.0781 335.391C37.8906 334.984 38.7917 334.781 39.7812 334.781C40.6146 334.781 41.3646 334.896 42.0312 335.125C42.7083 335.354 43.2917 335.724 43.7812 336.234C44.2708 336.734 44.6406 337.391 44.8906 338.203C45.151 339.005 45.2812 339.984 45.2812 341.141V352H41.5V341.109C41.5 340.297 41.3802 339.651 41.1406 339.172C40.9115 338.693 40.5729 338.349 40.125 338.141C39.6771 337.922 39.1302 337.812 38.4844 337.812C37.8073 337.812 37.2083 337.948 36.6875 338.219C36.1771 338.49 35.75 338.859 35.4062 339.328C35.0625 339.797 34.8021 340.339 34.625 340.953C34.4583 341.568 34.375 342.224 34.375 342.922ZM48.375 343.734V343.375C48.375 342.156 48.5521 341.026 48.9062 339.984C49.2604 338.932 49.7708 338.021 50.4375 337.25C51.1146 336.469 51.9375 335.865 52.9062 335.438C53.8854 335 54.9896 334.781 56.2188 334.781C57.4583 334.781 58.5625 335 59.5312 335.438C60.5104 335.865 61.3385 336.469 62.0156 337.25C62.6927 338.021 63.2083 338.932 63.5625 339.984C63.9167 341.026 64.0938 342.156 64.0938 343.375V343.734C64.0938 344.953 63.9167 346.083 63.5625 347.125C63.2083 348.167 62.6927 349.078 62.0156 349.859C61.3385 350.63 60.5156 351.234 59.5469 351.672C58.5781 352.099 57.4792 352.312 56.25 352.312C55.0104 352.312 53.901 352.099 52.9219 351.672C51.9531 351.234 51.1302 350.63 50.4531 349.859C49.776 349.078 49.2604 348.167 48.9062 347.125C48.5521 346.083 48.375 344.953 48.375 343.734ZM52.1406 343.375V343.734C52.1406 344.495 52.2188 345.214 52.375 345.891C52.5312 346.568 52.776 347.161 53.1094 347.672C53.4427 348.182 53.8698 348.583 54.3906 348.875C54.9115 349.167 55.5312 349.312 56.25 349.312C56.9479 349.312 57.5521 349.167 58.0625 348.875C58.5833 348.583 59.0104 348.182 59.3438 347.672C59.6771 347.161 59.9219 346.568 60.0781 345.891C60.2448 345.214 60.3281 344.495 60.3281 343.734V343.375C60.3281 342.625 60.2448 341.917 60.0781 341.25C59.9219 340.573 59.6719 339.974 59.3281 339.453C58.9948 338.932 58.5677 338.526 58.0469 338.234C57.5365 337.932 56.9271 337.781 56.2188 337.781C55.5104 337.781 54.8958 337.932 54.375 338.234C53.8646 338.526 53.4427 338.932 53.1094 339.453C52.776 339.974 52.5312 340.573 52.375 341.25C52.2188 341.917 52.1406 342.625 52.1406 343.375ZM71.0312 338.344V358.5H67.2656V335.094H70.7344L71.0312 338.344ZM82.0469 343.391V343.719C82.0469 344.948 81.901 346.089 81.6094 347.141C81.3281 348.182 80.9062 349.094 80.3438 349.875C79.7917 350.646 79.1094 351.245 78.2969 351.672C77.4844 352.099 76.5469 352.312 75.4844 352.312C74.4323 352.312 73.5104 352.12 72.7188 351.734C71.9375 351.339 71.276 350.781 70.7344 350.062C70.1927 349.344 69.7552 348.5 69.4219 347.531C69.099 346.552 68.8698 345.479 68.7344 344.312V343.047C68.8698 341.807 69.099 340.682 69.4219 339.672C69.7552 338.661 70.1927 337.792 70.7344 337.062C71.276 336.333 71.9375 335.771 72.7188 335.375C73.5 334.979 74.4115 334.781 75.4531 334.781C76.5156 334.781 77.4583 334.99 78.2812 335.406C79.1042 335.812 79.7969 336.396 80.3594 337.156C80.9219 337.906 81.3438 338.812 81.625 339.875C81.9062 340.927 82.0469 342.099 82.0469 343.391ZM78.2812 343.719V343.391C78.2812 342.609 78.2083 341.885 78.0625 341.219C77.9167 340.542 77.6875 339.948 77.375 339.438C77.0625 338.927 76.6615 338.531 76.1719 338.25C75.6927 337.958 75.1146 337.812 74.4375 337.812C73.7708 337.812 73.1979 337.927 72.7188 338.156C72.2396 338.375 71.8385 338.682 71.5156 339.078C71.1927 339.474 70.9427 339.938 70.7656 340.469C70.5885 340.99 70.4635 341.557 70.3906 342.172V345.203C70.5156 345.953 70.7292 346.641 71.0312 347.266C71.3333 347.891 71.7604 348.391 72.3125 348.766C72.875 349.13 73.5938 349.312 74.4688 349.312C75.1458 349.312 75.724 349.167 76.2031 348.875C76.6823 348.583 77.0729 348.182 77.375 347.672C77.6875 347.151 77.9167 346.552 78.0625 345.875C78.2083 345.198 78.2812 344.479 78.2812 343.719Z" fill="#202020"/>
<path d="M10 355.125H65.7031V356.688H10V355.125ZM72.5938 355.125H83.2969V356.688H72.5938V355.125Z" fill="#202020"/>
<a href="https://www.gray-nicolls.co.uk/collections/vra-cricket-netherlands">
<rect fill="black" fill-opacity="0" y="0.25" width="73.2969" height="37.5"/>
</a>
<path d="M10 380H198.5" stroke="black"/>
<path d="M18.9219 430H14.0625L14.0938 426.891H18.9219C20.3281 426.891 21.5052 426.583 22.4531 425.969C23.4115 425.354 24.1302 424.474 24.6094 423.328C25.099 422.182 25.3438 420.818 25.3438 419.234V418C25.3438 416.771 25.2031 415.682 24.9219 414.734C24.651 413.786 24.2448 412.99 23.7031 412.344C23.1719 411.698 22.5156 411.208 21.7344 410.875C20.9635 410.542 20.0729 410.375 19.0625 410.375H13.9688V407.25H19.0625C20.5729 407.25 21.9531 407.505 23.2031 408.016C24.4531 408.516 25.5312 409.24 26.4375 410.188C27.3542 411.135 28.0573 412.271 28.5469 413.594C29.0365 414.917 29.2812 416.396 29.2812 418.031V419.234C29.2812 420.87 29.0365 422.349 28.5469 423.672C28.0573 424.995 27.3542 426.13 26.4375 427.078C25.5208 428.016 24.4271 428.74 23.1562 429.25C21.8958 429.75 20.4844 430 18.9219 430ZM16.2344 407.25V430H12.3125V407.25H16.2344ZM32.125 421.734V421.375C32.125 420.156 32.3021 419.026 32.6562 417.984C33.0104 416.932 33.5208 416.021 34.1875 415.25C34.8646 414.469 35.6875 413.865 36.6562 413.438C37.6354 413 38.7396 412.781 39.9688 412.781C41.2083 412.781 42.3125 413 43.2812 413.438C44.2604 413.865 45.0885 414.469 45.7656 415.25C46.4427 416.021 46.9583 416.932 47.3125 417.984C47.6667 419.026 47.8438 420.156 47.8438 421.375V421.734C47.8438 422.953 47.6667 424.083 47.3125 425.125C46.9583 426.167 46.4427 427.078 45.7656 427.859C45.0885 428.63 44.2656 429.234 43.2969 429.672C42.3281 430.099 41.2292 430.312 40 430.312C38.7604 430.312 37.651 430.099 36.6719 429.672C35.7031 429.234 34.8802 428.63 34.2031 427.859C33.526 427.078 33.0104 426.167 32.6562 425.125C32.3021 424.083 32.125 422.953 32.125 421.734ZM35.8906 421.375V421.734C35.8906 422.495 35.9688 423.214 36.125 423.891C36.2812 424.568 36.526 425.161 36.8594 425.672C37.1927 426.182 37.6198 426.583 38.1406 426.875C38.6615 427.167 39.2812 427.312 40 427.312C40.6979 427.312 41.3021 427.167 41.8125 426.875C42.3333 426.583 42.7604 426.182 43.0938 425.672C43.4271 425.161 43.6719 424.568 43.8281 423.891C43.9948 423.214 44.0781 422.495 44.0781 421.734V421.375C44.0781 420.625 43.9948 419.917 43.8281 419.25C43.6719 418.573 43.4219 417.974 43.0781 417.453C42.7448 416.932 42.3177 416.526 41.7969 416.234C41.2865 415.932 40.6771 415.781 39.9688 415.781C39.2604 415.781 38.6458 415.932 38.125 416.234C37.6146 416.526 37.1927 416.932 36.8594 417.453C36.526 417.974 36.2812 418.573 36.125 419.25C35.9688 419.917 35.8906 420.625 35.8906 421.375ZM54.7344 416.703V430H50.9688V413.094H54.5156L54.7344 416.703ZM54.0625 420.922L52.8438 420.906C52.8542 419.708 53.0208 418.609 53.3438 417.609C53.6771 416.609 54.1354 415.75 54.7188 415.031C55.3125 414.312 56.0208 413.76 56.8438 413.375C57.6667 412.979 58.5833 412.781 59.5938 412.781C60.4062 412.781 61.1406 412.896 61.7969 413.125C62.4635 413.344 63.0312 413.703 63.5 414.203C63.9792 414.703 64.3438 415.354 64.5938 416.156C64.8438 416.948 64.9688 417.922 64.9688 419.078V430H61.1875V419.062C61.1875 418.25 61.0677 417.609 60.8281 417.141C60.599 416.661 60.2604 416.323 59.8125 416.125C59.375 415.917 58.8281 415.812 58.1719 415.812C57.526 415.812 56.9479 415.948 56.4375 416.219C55.9271 416.49 55.4948 416.859 55.1406 417.328C54.7969 417.797 54.5312 418.339 54.3438 418.953C54.1562 419.568 54.0625 420.224 54.0625 420.922ZM78.3438 426.609V418.547C78.3438 417.943 78.2344 417.422 78.0156 416.984C77.7969 416.547 77.4635 416.208 77.0156 415.969C76.5781 415.729 76.026 415.609 75.3594 415.609C74.7448 415.609 74.2135 415.714 73.7656 415.922C73.3177 416.13 72.9688 416.411 72.7188 416.766C72.4688 417.12 72.3438 417.521 72.3438 417.969H68.5938C68.5938 417.302 68.7552 416.656 69.0781 416.031C69.401 415.406 69.8698 414.849 70.4844 414.359C71.099 413.87 71.8333 413.484 72.6875 413.203C73.5417 412.922 74.5 412.781 75.5625 412.781C76.8333 412.781 77.9583 412.995 78.9375 413.422C79.9271 413.849 80.7031 414.495 81.2656 415.359C81.8385 416.214 82.125 417.286 82.125 418.578V426.094C82.125 426.865 82.1771 427.557 82.2812 428.172C82.3958 428.776 82.5573 429.302 82.7656 429.75V430H78.9062C78.7292 429.594 78.5885 429.078 78.4844 428.453C78.3906 427.818 78.3438 427.203 78.3438 426.609ZM78.8906 419.719L78.9219 422.047H76.2188C75.5208 422.047 74.9062 422.115 74.375 422.25C73.8438 422.375 73.401 422.562 73.0469 422.812C72.6927 423.062 72.4271 423.365 72.25 423.719C72.0729 424.073 71.9844 424.474 71.9844 424.922C71.9844 425.37 72.0885 425.781 72.2969 426.156C72.5052 426.521 72.8073 426.807 73.2031 427.016C73.6094 427.224 74.099 427.328 74.6719 427.328C75.4427 427.328 76.1146 427.172 76.6875 426.859C77.2708 426.536 77.7292 426.146 78.0625 425.688C78.3958 425.219 78.5729 424.776 78.5938 424.359L79.8125 426.031C79.6875 426.458 79.474 426.917 79.1719 427.406C78.8698 427.896 78.474 428.365 77.9844 428.812C77.5052 429.25 76.9271 429.609 76.25 429.891C75.5833 430.172 74.8125 430.312 73.9375 430.312C72.8333 430.312 71.849 430.094 70.9844 429.656C70.1198 429.208 69.4427 428.609 68.9531 427.859C68.4635 427.099 68.2188 426.24 68.2188 425.281C68.2188 424.385 68.3854 423.594 68.7188 422.906C69.0625 422.208 69.5625 421.625 70.2188 421.156C70.8854 420.688 71.6979 420.333 72.6562 420.094C73.6146 419.844 74.7083 419.719 75.9375 419.719H78.8906ZM93.8125 413.094V415.844H84.2812V413.094H93.8125ZM87.0312 408.953H90.7969V425.328C90.7969 425.849 90.8698 426.25 91.0156 426.531C91.1719 426.802 91.3854 426.984 91.6562 427.078C91.9271 427.172 92.2448 427.219 92.6094 427.219C92.8698 427.219 93.1198 427.203 93.3594 427.172C93.599 427.141 93.7917 427.109 93.9375 427.078L93.9531 429.953C93.6406 430.047 93.276 430.13 92.8594 430.203C92.4531 430.276 91.9844 430.312 91.4531 430.312C90.5885 430.312 89.8229 430.161 89.1562 429.859C88.4896 429.547 87.9688 429.042 87.5938 428.344C87.2188 427.646 87.0312 426.719 87.0312 425.562V408.953ZM100.75 413.094V430H96.9688V413.094H100.75ZM96.7188 408.656C96.7188 408.083 96.9062 407.609 97.2812 407.234C97.6667 406.849 98.1979 406.656 98.875 406.656C99.5417 406.656 100.068 406.849 100.453 407.234C100.839 407.609 101.031 408.083 101.031 408.656C101.031 409.219 100.839 409.688 100.453 410.062C100.068 410.438 99.5417 410.625 98.875 410.625C98.1979 410.625 97.6667 410.438 97.2812 410.062C96.9062 409.688 96.7188 409.219 96.7188 408.656ZM104.156 421.734V421.375C104.156 420.156 104.333 419.026 104.688 417.984C105.042 416.932 105.552 416.021 106.219 415.25C106.896 414.469 107.719 413.865 108.688 413.438C109.667 413 110.771 412.781 112 412.781C113.24 412.781 114.344 413 115.312 413.438C116.292 413.865 117.12 414.469 117.797 415.25C118.474 416.021 118.99 416.932 119.344 417.984C119.698 419.026 119.875 420.156 119.875 421.375V421.734C119.875 422.953 119.698 424.083 119.344 425.125C118.99 426.167 118.474 427.078 117.797 427.859C117.12 428.63 116.297 429.234 115.328 429.672C114.359 430.099 113.26 430.312 112.031 430.312C110.792 430.312 109.682 430.099 108.703 429.672C107.734 429.234 106.911 428.63 106.234 427.859C105.557 427.078 105.042 426.167 104.688 425.125C104.333 424.083 104.156 422.953 104.156 421.734ZM107.922 421.375V421.734C107.922 422.495 108 423.214 108.156 423.891C108.312 424.568 108.557 425.161 108.891 425.672C109.224 426.182 109.651 426.583 110.172 426.875C110.693 427.167 111.312 427.312 112.031 427.312C112.729 427.312 113.333 427.167 113.844 426.875C114.365 426.583 114.792 426.182 115.125 425.672C115.458 425.161 115.703 424.568 115.859 423.891C116.026 423.214 116.109 422.495 116.109 421.734V421.375C116.109 420.625 116.026 419.917 115.859 419.25C115.703 418.573 115.453 417.974 115.109 417.453C114.776 416.932 114.349 416.526 113.828 416.234C113.318 415.932 112.708 415.781 112 415.781C111.292 415.781 110.677 415.932 110.156 416.234C109.646 416.526 109.224 416.932 108.891 417.453C108.557 417.974 108.312 418.573 108.156 419.25C108 419.917 107.922 420.625 107.922 421.375ZM126.766 416.703V430H123V413.094H126.547L126.766 416.703ZM126.094 420.922L124.875 420.906C124.885 419.708 125.052 418.609 125.375 417.609C125.708 416.609 126.167 415.75 126.75 415.031C127.344 414.312 128.052 413.76 128.875 413.375C129.698 412.979 130.615 412.781 131.625 412.781C132.438 412.781 133.172 412.896 133.828 413.125C134.495 413.344 135.062 413.703 135.531 414.203C136.01 414.703 136.375 415.354 136.625 416.156C136.875 416.948 137 417.922 137 419.078V430H133.219V419.062C133.219 418.25 133.099 417.609 132.859 417.141C132.63 416.661 132.292 416.323 131.844 416.125C131.406 415.917 130.859 415.812 130.203 415.812C129.557 415.812 128.979 415.948 128.469 416.219C127.958 416.49 127.526 416.859 127.172 417.328C126.828 417.797 126.562 418.339 126.375 418.953C126.188 419.568 126.094 420.224 126.094 420.922ZM150.328 425.422C150.328 425.047 150.234 424.708 150.047 424.406C149.859 424.094 149.5 423.812 148.969 423.562C148.448 423.312 147.677 423.083 146.656 422.875C145.76 422.677 144.938 422.443 144.188 422.172C143.448 421.891 142.812 421.552 142.281 421.156C141.75 420.76 141.339 420.292 141.047 419.75C140.755 419.208 140.609 418.583 140.609 417.875C140.609 417.188 140.76 416.536 141.062 415.922C141.365 415.307 141.797 414.766 142.359 414.297C142.922 413.828 143.604 413.458 144.406 413.188C145.219 412.917 146.125 412.781 147.125 412.781C148.542 412.781 149.755 413.021 150.766 413.5C151.786 413.969 152.568 414.609 153.109 415.422C153.651 416.224 153.922 417.13 153.922 418.141H150.156C150.156 417.693 150.042 417.276 149.812 416.891C149.594 416.495 149.26 416.177 148.812 415.938C148.365 415.688 147.802 415.562 147.125 415.562C146.479 415.562 145.943 415.667 145.516 415.875C145.099 416.073 144.786 416.333 144.578 416.656C144.38 416.979 144.281 417.333 144.281 417.719C144.281 418 144.333 418.255 144.438 418.484C144.552 418.703 144.74 418.906 145 419.094C145.26 419.271 145.615 419.438 146.062 419.594C146.521 419.75 147.094 419.901 147.781 420.047C149.073 420.318 150.182 420.667 151.109 421.094C152.047 421.51 152.766 422.052 153.266 422.719C153.766 423.375 154.016 424.208 154.016 425.219C154.016 425.969 153.854 426.656 153.531 427.281C153.219 427.896 152.76 428.432 152.156 428.891C151.552 429.339 150.828 429.688 149.984 429.938C149.151 430.188 148.214 430.312 147.172 430.312C145.641 430.312 144.344 430.042 143.281 429.5C142.219 428.948 141.411 428.245 140.859 427.391C140.318 426.526 140.047 425.63 140.047 424.703H143.688C143.729 425.401 143.922 425.958 144.266 426.375C144.62 426.781 145.057 427.078 145.578 427.266C146.109 427.443 146.656 427.531 147.219 427.531C147.896 427.531 148.464 427.443 148.922 427.266C149.38 427.078 149.729 426.828 149.969 426.516C150.208 426.193 150.328 425.828 150.328 425.422Z" fill="#202020"/>
<path d="M10 458H198.5" stroke="black"/>
<path d="M25.75 500.594H29.6562C29.5312 502.083 29.1146 503.411 28.4062 504.578C27.6979 505.734 26.7031 506.646 25.4219 507.312C24.1406 507.979 22.5833 508.312 20.75 508.312C19.3438 508.312 18.0781 508.062 16.9531 507.562C15.8281 507.052 14.8646 506.333 14.0625 505.406C13.2604 504.469 12.6458 503.339 12.2188 502.016C11.8021 500.693 11.5938 499.214 11.5938 497.578V495.688C11.5938 494.052 11.8073 492.573 12.2344 491.25C12.6719 489.927 13.2969 488.797 14.1094 487.859C14.9219 486.911 15.8958 486.188 17.0312 485.688C18.1771 485.188 19.4635 484.938 20.8906 484.938C22.7031 484.938 24.2344 485.271 25.4844 485.938C26.7344 486.604 27.7031 487.526 28.3906 488.703C29.0885 489.88 29.5156 491.229 29.6719 492.75H25.7656C25.6615 491.771 25.4323 490.932 25.0781 490.234C24.7344 489.536 24.224 489.005 23.5469 488.641C22.8698 488.266 21.9844 488.078 20.8906 488.078C19.9948 488.078 19.2135 488.245 18.5469 488.578C17.8802 488.911 17.3229 489.401 16.875 490.047C16.4271 490.693 16.0885 491.49 15.8594 492.438C15.6406 493.375 15.5312 494.448 15.5312 495.656V497.578C15.5312 498.724 15.6302 499.766 15.8281 500.703C16.0365 501.63 16.349 502.427 16.7656 503.094C17.1927 503.76 17.7344 504.276 18.3906 504.641C19.0469 505.005 19.8333 505.188 20.75 505.188C21.8646 505.188 22.7656 505.01 23.4531 504.656C24.151 504.302 24.6771 503.786 25.0312 503.109C25.3958 502.422 25.6354 501.583 25.75 500.594ZM32.125 499.734V499.375C32.125 498.156 32.3021 497.026 32.6562 495.984C33.0104 494.932 33.5208 494.021 34.1875 493.25C34.8646 492.469 35.6875 491.865 36.6562 491.438C37.6354 491 38.7396 490.781 39.9688 490.781C41.2083 490.781 42.3125 491 43.2812 491.438C44.2604 491.865 45.0885 492.469 45.7656 493.25C46.4427 494.021 46.9583 494.932 47.3125 495.984C47.6667 497.026 47.8438 498.156 47.8438 499.375V499.734C47.8438 500.953 47.6667 502.083 47.3125 503.125C46.9583 504.167 46.4427 505.078 45.7656 505.859C45.0885 506.63 44.2656 507.234 43.2969 507.672C42.3281 508.099 41.2292 508.312 40 508.312C38.7604 508.312 37.651 508.099 36.6719 507.672C35.7031 507.234 34.8802 506.63 34.2031 505.859C33.526 505.078 33.0104 504.167 32.6562 503.125C32.3021 502.083 32.125 500.953 32.125 499.734ZM35.8906 499.375V499.734C35.8906 500.495 35.9688 501.214 36.125 501.891C36.2812 502.568 36.526 503.161 36.8594 503.672C37.1927 504.182 37.6198 504.583 38.1406 504.875C38.6615 505.167 39.2812 505.312 40 505.312C40.6979 505.312 41.3021 505.167 41.8125 504.875C42.3333 504.583 42.7604 504.182 43.0938 503.672C43.4271 503.161 43.6719 502.568 43.8281 501.891C43.9948 501.214 44.0781 500.495 44.0781 499.734V499.375C44.0781 498.625 43.9948 497.917 43.8281 497.25C43.6719 496.573 43.4219 495.974 43.0781 495.453C42.7448 494.932 42.3177 494.526 41.7969 494.234C41.2865 493.932 40.6771 493.781 39.9688 493.781C39.2604 493.781 38.6458 493.932 38.125 494.234C37.6146 494.526 37.1927 494.932 36.8594 495.453C36.526 495.974 36.2812 496.573 36.125 497.25C35.9688 497.917 35.8906 498.625 35.8906 499.375ZM54.7344 494.703V508H50.9688V491.094H54.5156L54.7344 494.703ZM54.0625 498.922L52.8438 498.906C52.8542 497.708 53.0208 496.609 53.3438 495.609C53.6771 494.609 54.1354 493.75 54.7188 493.031C55.3125 492.312 56.0208 491.76 56.8438 491.375C57.6667 490.979 58.5833 490.781 59.5938 490.781C60.4062 490.781 61.1406 490.896 61.7969 491.125C62.4635 491.344 63.0312 491.703 63.5 492.203C63.9792 492.703 64.3438 493.354 64.5938 494.156C64.8438 494.948 64.9688 495.922 64.9688 497.078V508H61.1875V497.062C61.1875 496.25 61.0677 495.609 60.8281 495.141C60.599 494.661 60.2604 494.323 59.8125 494.125C59.375 493.917 58.8281 493.812 58.1719 493.812C57.526 493.812 56.9479 493.948 56.4375 494.219C55.9271 494.49 55.4948 494.859 55.1406 495.328C54.7969 495.797 54.5312 496.339 54.3438 496.953C54.1562 497.568 54.0625 498.224 54.0625 498.922ZM76.5625 491.094V493.844H67.0312V491.094H76.5625ZM69.7812 486.953H73.5469V503.328C73.5469 503.849 73.6198 504.25 73.7656 504.531C73.9219 504.802 74.1354 504.984 74.4062 505.078C74.6771 505.172 74.9948 505.219 75.3594 505.219C75.6198 505.219 75.8698 505.203 76.1094 505.172C76.349 505.141 76.5417 505.109 76.6875 505.078L76.7031 507.953C76.3906 508.047 76.026 508.13 75.6094 508.203C75.2031 508.276 74.7344 508.312 74.2031 508.312C73.3385 508.312 72.5729 508.161 71.9062 507.859C71.2396 507.547 70.7188 507.042 70.3438 506.344C69.9688 505.646 69.7812 504.719 69.7812 503.562V486.953ZM89 504.609V496.547C89 495.943 88.8906 495.422 88.6719 494.984C88.4531 494.547 88.1198 494.208 87.6719 493.969C87.2344 493.729 86.6823 493.609 86.0156 493.609C85.401 493.609 84.8698 493.714 84.4219 493.922C83.974 494.13 83.625 494.411 83.375 494.766C83.125 495.12 83 495.521 83 495.969H79.25C79.25 495.302 79.4115 494.656 79.7344 494.031C80.0573 493.406 80.526 492.849 81.1406 492.359C81.7552 491.87 82.4896 491.484 83.3438 491.203C84.1979 490.922 85.1562 490.781 86.2188 490.781C87.4896 490.781 88.6146 490.995 89.5938 491.422C90.5833 491.849 91.3594 492.495 91.9219 493.359C92.4948 494.214 92.7812 495.286 92.7812 496.578V504.094C92.7812 504.865 92.8333 505.557 92.9375 506.172C93.0521 506.776 93.2135 507.302 93.4219 507.75V508H89.5625C89.3854 507.594 89.2448 507.078 89.1406 506.453C89.0469 505.818 89 505.203 89 504.609ZM89.5469 497.719L89.5781 500.047H86.875C86.1771 500.047 85.5625 500.115 85.0312 500.25C84.5 500.375 84.0573 500.562 83.7031 500.812C83.349 501.062 83.0833 501.365 82.9062 501.719C82.7292 502.073 82.6406 502.474 82.6406 502.922C82.6406 503.37 82.7448 503.781 82.9531 504.156C83.1615 504.521 83.4635 504.807 83.8594 505.016C84.2656 505.224 84.7552 505.328 85.3281 505.328C86.099 505.328 86.7708 505.172 87.3438 504.859C87.9271 504.536 88.3854 504.146 88.7188 503.688C89.0521 503.219 89.2292 502.776 89.25 502.359L90.4688 504.031C90.3438 504.458 90.1302 504.917 89.8281 505.406C89.526 505.896 89.1302 506.365 88.6406 506.812C88.1615 507.25 87.5833 507.609 86.9062 507.891C86.2396 508.172 85.4688 508.312 84.5938 508.312C83.4896 508.312 82.5052 508.094 81.6406 507.656C80.776 507.208 80.099 506.609 79.6094 505.859C79.1198 505.099 78.875 504.24 78.875 503.281C78.875 502.385 79.0417 501.594 79.375 500.906C79.7188 500.208 80.2188 499.625 80.875 499.156C81.5417 498.688 82.3542 498.333 83.3125 498.094C84.2708 497.844 85.3646 497.719 86.5938 497.719H89.5469ZM103.625 505.312C104.24 505.312 104.792 505.193 105.281 504.953C105.781 504.703 106.182 504.359 106.484 503.922C106.797 503.484 106.969 502.979 107 502.406H110.547C110.526 503.5 110.203 504.495 109.578 505.391C108.953 506.286 108.125 507 107.094 507.531C106.062 508.052 104.922 508.312 103.672 508.312C102.38 508.312 101.255 508.094 100.297 507.656C99.3385 507.208 98.5417 506.594 97.9062 505.812C97.2708 505.031 96.7917 504.13 96.4688 503.109C96.1562 502.089 96 500.995 96 499.828V499.281C96 498.115 96.1562 497.021 96.4688 496C96.7917 494.969 97.2708 494.062 97.9062 493.281C98.5417 492.5 99.3385 491.891 100.297 491.453C101.255 491.005 102.375 490.781 103.656 490.781C105.01 490.781 106.198 491.052 107.219 491.594C108.24 492.125 109.042 492.87 109.625 493.828C110.219 494.776 110.526 495.88 110.547 497.141H107C106.969 496.516 106.812 495.953 106.531 495.453C106.26 494.943 105.875 494.536 105.375 494.234C104.885 493.932 104.297 493.781 103.609 493.781C102.849 493.781 102.219 493.938 101.719 494.25C101.219 494.552 100.828 494.969 100.547 495.5C100.266 496.021 100.062 496.609 99.9375 497.266C99.8229 497.911 99.7656 498.583 99.7656 499.281V499.828C99.7656 500.526 99.8229 501.203 99.9375 501.859C100.052 502.516 100.25 503.104 100.531 503.625C100.823 504.135 101.219 504.547 101.719 504.859C102.219 505.161 102.854 505.312 103.625 505.312ZM121.188 491.094V493.844H111.656V491.094H121.188ZM114.406 486.953H118.172V503.328C118.172 503.849 118.245 504.25 118.391 504.531C118.547 504.802 118.76 504.984 119.031 505.078C119.302 505.172 119.62 505.219 119.984 505.219C120.245 505.219 120.495 505.203 120.734 505.172C120.974 505.141 121.167 505.109 121.312 505.078L121.328 507.953C121.016 508.047 120.651 508.13 120.234 508.203C119.828 508.276 119.359 508.312 118.828 508.312C117.964 508.312 117.198 508.161 116.531 507.859C115.865 507.547 115.344 507.042 114.969 506.344C114.594 505.646 114.406 504.719 114.406 503.562V486.953ZM145.203 485.25H149.109V500.453C149.109 502.182 148.734 503.63 147.984 504.797C147.234 505.964 146.214 506.844 144.922 507.438C143.641 508.021 142.208 508.312 140.625 508.312C138.99 508.312 137.531 508.021 136.25 507.438C134.969 506.844 133.958 505.964 133.219 504.797C132.49 503.63 132.125 502.182 132.125 500.453V485.25H136.031V500.453C136.031 501.547 136.219 502.448 136.594 503.156C136.969 503.854 137.5 504.37 138.188 504.703C138.875 505.036 139.688 505.203 140.625 505.203C141.562 505.203 142.37 505.036 143.047 504.703C143.734 504.37 144.266 503.854 144.641 503.156C145.016 502.448 145.203 501.547 145.203 500.453V485.25ZM162.484 503.422C162.484 503.047 162.391 502.708 162.203 502.406C162.016 502.094 161.656 501.812 161.125 501.562C160.604 501.312 159.833 501.083 158.812 500.875C157.917 500.677 157.094 500.443 156.344 500.172C155.604 499.891 154.969 499.552 154.438 499.156C153.906 498.76 153.495 498.292 153.203 497.75C152.911 497.208 152.766 496.583 152.766 495.875C152.766 495.188 152.917 494.536 153.219 493.922C153.521 493.307 153.953 492.766 154.516 492.297C155.078 491.828 155.76 491.458 156.562 491.188C157.375 490.917 158.281 490.781 159.281 490.781C160.698 490.781 161.911 491.021 162.922 491.5C163.943 491.969 164.724 492.609 165.266 493.422C165.807 494.224 166.078 495.13 166.078 496.141H162.312C162.312 495.693 162.198 495.276 161.969 494.891C161.75 494.495 161.417 494.177 160.969 493.938C160.521 493.688 159.958 493.562 159.281 493.562C158.635 493.562 158.099 493.667 157.672 493.875C157.255 494.073 156.943 494.333 156.734 494.656C156.536 494.979 156.438 495.333 156.438 495.719C156.438 496 156.49 496.255 156.594 496.484C156.708 496.703 156.896 496.906 157.156 497.094C157.417 497.271 157.771 497.438 158.219 497.594C158.677 497.75 159.25 497.901 159.938 498.047C161.229 498.318 162.339 498.667 163.266 499.094C164.203 499.51 164.922 500.052 165.422 500.719C165.922 501.375 166.172 502.208 166.172 503.219C166.172 503.969 166.01 504.656 165.688 505.281C165.375 505.896 164.917 506.432 164.312 506.891C163.708 507.339 162.984 507.688 162.141 507.938C161.307 508.188 160.37 508.312 159.328 508.312C157.797 508.312 156.5 508.042 155.438 507.5C154.375 506.948 153.568 506.245 153.016 505.391C152.474 504.526 152.203 503.63 152.203 502.703H155.844C155.885 503.401 156.078 503.958 156.422 504.375C156.776 504.781 157.214 505.078 157.734 505.266C158.266 505.443 158.812 505.531 159.375 505.531C160.052 505.531 160.62 505.443 161.078 505.266C161.536 505.078 161.885 504.828 162.125 504.516C162.365 504.193 162.484 503.828 162.484 503.422Z" fill="#202020"/>
<path d="M10 536H198.5" stroke="black"/>
</svg>
