<svg width="115" height="40" viewBox="0 0 115 40" fill="none" xmlns="http://www.w3.org/2000/svg">
<path d="M7.54465 19.5432C3.40876 8.83082 0.0136918 0.0545392 5.69581e-05 0.0363594C-0.0135779 0.0181796 2.42251 0 5.41308 0C10.5534 0 10.8534 0.00454379 10.8761 0.0818077C10.8897 0.122712 13.1304 5.93569 15.8573 12.9985C18.5843 20.0614 20.825 25.8562 20.8431 25.8743C20.8568 25.8925 23.1247 20.0841 30.8738 0.0227242H46.3039C58.7843 0.0227242 61.8158 0.0363584 62.1839 0.0818077C62.4339 0.118167 62.8975 0.195433 63.2065 0.259062C63.5201 0.322691 64.0064 0.440859 64.2882 0.527213C64.57 0.613567 65.0063 0.768094 65.2654 0.868083C65.5199 0.972617 65.9971 1.18623 66.3198 1.34985C66.647 1.51347 67.0879 1.75889 67.297 1.89978C67.5106 2.03613 67.8696 2.2861 68.0923 2.45427C68.3196 2.62243 68.6968 2.93149 68.9331 3.1451C69.174 3.35871 69.5512 3.74503 69.7739 3.99955C70.0012 4.25406 70.3466 4.69038 70.5466 4.97216C70.7466 5.24941 71.0374 5.7039 71.192 5.98114C71.3465 6.25383 71.5647 6.69015 71.6737 6.95376C71.7874 7.21736 71.9601 7.68549 72.0601 7.99909C72.1646 8.31269 72.2964 8.82172 72.36 9.13533C72.4236 9.44893 72.4964 9.93069 72.5236 10.2034C72.5509 10.4806 72.5691 11.2669 72.5691 11.9532C72.5691 12.6395 72.5509 13.4394 72.5236 13.7257C72.5009 14.012 72.4373 14.4847 72.3873 14.7711C72.3373 15.0574 72.2237 15.571 72.1328 15.9073C72.0464 16.2436 71.8692 16.7981 71.7465 17.1344C71.6192 17.4707 71.3556 18.0752 71.1602 18.4752C70.9647 18.8751 70.6329 19.4614 70.4239 19.7705C70.2194 20.0841 69.8739 20.5658 69.6603 20.8385C69.4513 21.1112 69.0104 21.6066 68.6832 21.9339C68.3605 22.2611 67.9014 22.6929 67.6606 22.8883C67.4242 23.0837 67.2288 23.2746 67.2333 23.3155C67.2333 23.3519 68.5423 26.7742 70.1421 30.9147C71.7374 35.0597 73.0645 38.4456 73.0872 38.4365C73.1099 38.432 76.4641 29.7875 87.9628 0.0227242L98.8161 0L106.52 19.9568C110.76 30.9283 114.228 39.9273 114.237 39.95C114.242 39.9818 112.346 39.9909 103.411 39.9727L101.47 34.9506C100.402 32.1873 99.4888 29.833 99.3615 29.5012L96.4073 31.3419L95.6772 31.798C94.3998 32.5959 93.4366 33.1976 93.4213 33.2053C93.4031 33.2144 93.3849 31.1283 93.3849 23.9064L96.4755 21.9975L95.4756 19.4205L95.3091 18.9912C94.7931 17.6606 94.2057 16.1459 93.9394 15.4619C93.6485 14.7074 93.3985 14.0893 93.3849 14.0893C93.3758 14.0893 91.1124 19.9205 83.3633 39.9955L62.8202 40L60.6614 34.4052C58.9934 30.0875 58.4889 28.8149 58.4343 28.8331C58.398 28.8422 56.7936 29.833 51.367 33.219L51.3442 39.9955H40.5273L40.5318 21.6475C40.5318 6.63106 40.5227 3.30417 40.4727 3.34962C40.4409 3.37689 37.2367 11.635 26.2789 39.9955H15.4392L15.2529 39.5092C15.1529 39.241 11.6851 30.2557 7.54465 19.5432Z" fill="white"/>
<path d="M51.3896 23.861C51.3578 23.861 51.3442 21.2612 51.3442 16.1573V8.45361H54.4438C56.33 8.45361 57.7525 8.47179 58.0707 8.50361C58.357 8.53088 58.7661 8.6036 58.9797 8.66268C59.1933 8.72631 59.5296 8.85357 59.7296 8.94447C59.9296 9.03991 60.225 9.20807 60.3886 9.31715C60.5522 9.42623 60.7931 9.62166 60.9295 9.74438C61.0658 9.87163 61.2976 10.1307 61.4476 10.317C61.5976 10.5034 61.7884 10.7988 61.8793 10.9761C61.9657 11.1533 62.0748 11.4078 62.1248 11.5442C62.1702 11.6805 62.2429 11.935 62.2793 12.1123C62.3202 12.3077 62.3475 12.6713 62.3475 13.0667C62.3475 13.4258 62.3157 13.8712 62.2793 14.0893C62.2429 14.3029 62.1566 14.6575 62.093 14.8847C62.0248 15.1119 61.9112 15.4483 61.8384 15.6346C61.7612 15.821 61.5976 16.1709 61.4748 16.4073C61.3476 16.6436 61.1294 17.0026 60.9885 17.1981C60.8476 17.3981 60.525 17.7707 60.275 18.0343C60.025 18.2934 59.6387 18.6479 59.4114 18.8206C59.1842 18.9888 57.298 20.1932 55.221 21.493C53.1394 22.7974 51.4124 23.861 51.3896 23.861Z" fill="#323232"/>
</svg>
