<svg width="24" height="23" viewBox="0 0 24 23" fill="none" xmlns="http://www.w3.org/2000/svg">
<path d="M15.4782 0.7517C15.5054 0.76053 15.5932 0.80383 15.7248 1.02423C15.8558 1.24364 15.9726 1.53906 16.1052 1.91169C16.228 2.25708 16.3697 2.68332 16.5374 3.05072C16.6814 3.3661 16.8833 3.73028 17.1923 4.00607L17.331 4.11888C17.7209 4.40236 18.1983 4.50226 18.5938 4.54913C18.9968 4.59686 19.4463 4.6014 19.8137 4.61203C20.2097 4.62348 20.5272 4.6426 20.7761 4.69887C20.9636 4.74134 21.0469 4.79048 21.0825 4.82066L21.1045 4.84362C21.116 4.85938 21.1624 4.93923 21.1384 5.19502C21.1147 5.44831 21.035 5.755 20.9238 6.13539C20.8205 6.4887 20.6857 6.9173 20.6074 7.31735C20.54 7.66158 20.4933 8.07624 20.5824 8.48233L20.6293 8.65603C20.7768 9.11187 21.1067 9.46913 21.396 9.73317C21.6916 10.003 22.0535 10.2684 22.3424 10.4909C22.6545 10.7313 22.8993 10.934 23.0671 11.1278C23.2348 11.3214 23.2528 11.4232 23.2528 11.4612C23.2528 11.4994 23.2349 11.6008 23.0681 11.7936C22.9006 11.9871 22.6555 12.1901 22.3434 12.4305C22.0547 12.6528 21.6937 12.9183 21.398 13.1882C21.1443 13.4198 20.8596 13.722 20.6932 14.0996L20.6293 14.2663C20.4804 14.7258 20.5304 15.2107 20.6074 15.604C20.6857 16.0041 20.8205 16.4326 20.9238 16.786C21.0351 17.1667 21.1147 17.4739 21.1384 17.7273C21.1564 17.919 21.1352 18.0118 21.1185 18.0528L21.1045 18.0787C21.0904 18.098 21.0259 18.1669 20.7761 18.2235C20.5272 18.2798 20.2097 18.2989 19.8137 18.3103C19.4463 18.321 18.9968 18.3245 18.5938 18.3722C18.2477 18.4132 17.8388 18.4949 17.4808 18.7047L17.331 18.8035C16.9421 19.0865 16.702 19.5103 16.5374 19.8706C16.3697 20.238 16.228 20.6643 16.1052 21.0097C15.9726 21.3825 15.8558 21.6786 15.7248 21.8981C15.5933 22.1185 15.5054 22.1608 15.4782 22.1697C15.4669 22.1734 15.3822 22.1948 15.1468 22.0918C14.9145 21.9901 14.6484 21.8191 14.3202 21.5947C14.0152 21.386 13.6488 21.1256 13.289 20.9268C12.9346 20.731 12.4863 20.5356 12.0002 20.5355C11.5142 20.5355 11.0659 20.731 10.7115 20.9268C10.3516 21.1256 9.9844 21.386 9.67926 21.5947C9.35107 21.8191 9.08501 21.9902 8.85269 22.0918C8.61728 22.1948 8.5326 22.1734 8.52127 22.1697L8.48932 22.1547C8.44696 22.1285 8.37309 22.063 8.27469 21.8981C8.1437 21.6787 8.02791 21.3825 7.89535 21.0097C7.77252 20.6642 7.63087 20.238 7.4631 19.8706C7.29851 19.5102 7.05754 19.0866 6.66847 18.8035C6.27849 18.5199 5.80129 18.4191 5.40565 18.3722C5.00281 18.3245 4.55406 18.321 4.18676 18.3103C3.79067 18.2989 3.4734 18.2798 3.22442 18.2235C2.97361 18.1668 2.90885 18.0978 2.89499 18.0787C2.88354 18.063 2.83812 17.9831 2.86205 17.7273C2.88576 17.4739 2.96538 17.1667 3.07668 16.786C3.17997 16.4327 3.31381 16.004 3.39213 15.604C3.45949 15.2599 3.50613 14.8459 3.41709 14.44L3.37017 14.2663C3.22208 13.8103 2.89236 13.452 2.6025 13.1872C2.30686 12.9171 1.9458 12.652 1.65713 12.4295C1.34505 12.189 1.10003 11.9861 0.932388 11.7926C0.764971 11.5993 0.74774 11.4982 0.747707 11.4612C0.747707 11.4242 0.764808 11.3232 0.932388 11.1298C1.10003 10.9362 1.34498 10.7334 1.65713 10.4929C1.9459 10.2703 2.30678 10.0044 2.6025 9.73417C2.85611 9.50245 3.14099 9.20022 3.30728 8.82274L3.37017 8.65603C3.51916 8.1964 3.46919 7.7108 3.39213 7.31735C3.31377 6.91732 3.17996 6.48868 3.07668 6.13539C2.96547 5.75495 2.88578 5.44834 2.86205 5.19502C2.83812 4.93923 2.88354 4.85938 2.89499 4.84362C2.90885 4.82455 2.97361 4.75558 3.22442 4.69887C3.4734 4.64259 3.79065 4.62348 4.18676 4.61203C4.55409 4.60141 5.00278 4.59684 5.40565 4.54913C5.80128 4.50228 6.2785 4.4024 6.66847 4.11888C7.05761 3.83572 7.29851 3.41116 7.4631 3.05072C7.6308 2.68337 7.77256 2.257 7.89535 1.91169C8.0278 1.53924 8.1438 1.24359 8.27469 1.02423C8.37301 0.859514 8.44695 0.793865 8.48932 0.767673L8.52127 0.7517C8.5326 0.748014 8.61727 0.727571 8.85269 0.830564C9.08501 0.932209 9.35106 1.10326 9.67926 1.3277C9.9844 1.53638 10.3516 1.79673 10.7115 1.99555C11.0659 2.19136 11.5142 2.38687 12.0002 2.38687C12.4863 2.38679 12.9346 2.19137 13.289 1.99555C13.6488 1.79675 14.0152 1.53634 14.3202 1.3277C14.6484 1.10327 14.9145 0.932254 15.1468 0.830564C15.3814 0.727949 15.4664 0.747901 15.4782 0.7517ZM15.6989 11.2136C15.6989 13.278 14.0257 14.9521 11.9613 14.9521C9.89694 14.9521 8.22378 13.278 8.22378 11.2136C8.22388 9.14931 9.89701 7.47611 11.9613 7.47607C14.0257 7.47607 15.6988 9.14929 15.6989 11.2136ZM17.1943 11.2136C17.1942 8.32353 14.8514 5.98066 11.9613 5.98066C9.07125 5.98069 6.72847 8.32355 6.72837 11.2136C6.72837 14.1038 9.07118 16.4465 11.9613 16.4466C14.8515 16.4466 17.1943 14.1038 17.1943 11.2136Z" stroke="#BA1CC2" stroke-width="1.46265"/>
</svg>
