<svg width="33" height="33" viewBox="0 0 33 33" fill="none" xmlns="http://www.w3.org/2000/svg">
<path d="M32.0975 12.8877C31.4325 9.98223 29.9537 7.3209 27.8219 5.18693C26.1594 3.52392 24.2095 2.27623 22.0312 1.47673C19.844 0.673782 17.5323 0.364031 15.1614 0.554391C8.70568 1.07355 3.10515 5.54842 1.22412 11.6921C0.55913 13.8621 0.351299 16.0893 0.604172 18.3097C0.846613 20.4486 1.50643 22.4767 2.56106 24.3457L0.573006 30.9425C0.444858 31.3682 0.552225 31.813 0.863938 32.1314C1.09599 32.3719 1.40426 32.5 1.72634 32.5C1.83198 32.5 1.93934 32.4862 2.04498 32.4585L8.97017 30.6034C11.2734 31.832 13.8711 32.4827 16.4996 32.4827C19.8297 32.4827 23.0285 31.498 25.7469 29.6343C28.516 27.7377 30.5335 25.0988 31.5776 22.0026C32.5958 18.9932 32.7742 15.8421 32.0971 12.8881L32.0975 12.8877ZM16.4947 31.7918C13.9421 31.7901 11.4102 31.1463 9.17982 29.9298C9.10189 29.8883 9.01011 29.8761 8.92352 29.8986L1.86666 31.7901C1.6831 31.8385 1.49434 31.7866 1.361 31.6499C1.22939 31.5132 1.18264 31.3246 1.23632 31.1411L3.26764 24.4025C3.29534 24.3108 3.28495 24.2122 3.23647 24.1291C1.08909 20.4137 0.609406 16.0686 1.88743 11.8946C3.68498 6.02115 9.04314 1.73992 15.2165 1.24508C15.6546 1.21047 16.0893 1.19316 16.5222 1.19316C20.6126 1.19316 24.412 2.75929 27.3318 5.67862C31.5572 9.90452 32.8995 15.9267 30.9234 21.786C28.9042 27.7701 23.1064 31.7918 16.4947 31.7918Z" fill="black"/>
<path d="M24.0068 19.5555C23.941 19.5243 23.8718 19.4897 23.7956 19.4516C23.5358 19.3201 21.4906 18.3095 21.0871 18.1642C20.765 18.0465 20.2264 17.8527 19.7987 18.493C19.5528 18.8633 18.8151 19.7303 18.5882 19.9881C18.4912 20.0989 18.4462 20.1508 18.157 20.0054C18.0843 19.9673 17.9908 19.9293 17.8765 19.8774C17.3223 19.6368 16.2937 19.1886 15.0866 18.1157C14.006 17.1535 13.2545 15.9612 12.9808 15.494C12.8908 15.3417 12.9012 15.3123 13.0986 15.1167C13.2267 14.9887 13.3687 14.8156 13.5073 14.6495C13.5731 14.5699 13.6389 14.4885 13.7047 14.4141C13.8987 14.1857 13.9852 14.0075 14.0874 13.8015C14.1047 13.7669 14.122 13.7323 14.1394 13.6942C14.3714 13.2322 14.1723 12.8325 14.1065 12.7009C14.0718 12.63 13.8935 12.1956 13.7237 11.7734C13.4501 11.1019 13.1107 10.2644 12.9063 9.81097C12.5531 9.03052 12.1097 8.94746 11.7253 8.93186C11.4898 8.92148 11.2231 8.92148 10.9616 8.92148C10.7364 8.92148 10.1598 8.98032 9.66275 9.52198C9.64197 9.5462 9.61773 9.57043 9.59002 9.59812C9.1744 10.0411 8.20117 11.0742 8.20117 13.0141C8.20117 14.8415 9.36317 16.5911 9.8671 17.2642C9.88095 17.2816 9.9052 17.3179 9.93983 17.3698C11.862 20.2199 14.2623 22.3191 16.6988 23.2795C18.9518 24.1673 20.0237 24.3473 20.7147 24.3473C20.9641 24.3473 21.1649 24.3231 21.352 24.3023C21.4195 24.2954 21.4836 24.2867 21.5494 24.2815C22.3235 24.2123 24.0968 23.2847 24.4847 22.1946C24.7912 21.3345 24.8813 20.3706 24.6856 20.0435C24.5574 19.8203 24.3255 19.7095 24.0068 19.5555ZM23.8354 21.9591C23.5583 22.7309 22.0742 23.5356 21.4889 23.5875C21.4161 23.5945 21.3469 23.6014 21.2724 23.6118C20.642 23.6862 19.861 23.7779 16.9534 22.6323C14.6468 21.7221 12.3593 19.7164 10.515 16.9804C10.47 16.9147 10.4388 16.8697 10.418 16.842C9.96089 16.2294 8.89412 14.6339 8.89412 13.0124C8.89412 11.3477 9.70456 10.4842 10.0959 10.0706C10.1236 10.0394 10.1496 10.0135 10.1739 9.9875C10.4856 9.64832 10.8285 9.61197 10.9618 9.61197C11.2146 9.61197 11.4761 9.61197 11.6978 9.62236C11.9298 9.63274 12.0701 9.6362 12.2762 10.0931C12.4753 10.5361 12.813 11.365 13.0832 12.0312C13.3187 12.6092 13.4434 12.9172 13.4884 13.0072C13.5681 13.1699 13.5785 13.2702 13.523 13.3827C13.5023 13.4208 13.4849 13.4589 13.4676 13.4935C13.3724 13.6856 13.3152 13.8015 13.1802 13.9642C13.1143 14.042 13.0451 14.1268 12.9758 14.2099C12.8494 14.3639 12.7178 14.5231 12.6139 14.627C12.4199 14.8173 12.0199 15.2153 12.3853 15.8452C12.6762 16.3419 13.4763 17.6069 14.6296 18.6348C15.918 19.7821 17.0575 20.277 17.6047 20.5141C17.7069 20.5591 17.7952 20.5972 17.8506 20.6249C18.1797 20.791 18.6715 20.9502 19.1131 20.4449C19.3573 20.168 20.1106 19.2803 20.3807 18.8771C20.4881 18.7144 20.5054 18.6884 20.8552 18.8148C21.1825 18.9324 23.0476 19.8479 23.4909 20.0711C23.5706 20.1092 23.6433 20.1455 23.7109 20.1784C23.8581 20.2493 24.0399 20.3376 24.0901 20.3861C24.1178 20.528 24.1281 21.1423 23.8354 21.9591Z" fill="black"/>
<path d="M32.0975 12.8877C31.4325 9.98223 29.9537 7.3209 27.8219 5.18693C26.1594 3.52392 24.2095 2.27623 22.0312 1.47673C19.844 0.673782 17.5323 0.364031 15.1614 0.554391C8.70568 1.07355 3.10515 5.54842 1.22412 11.6921C0.55913 13.8621 0.351299 16.0893 0.604172 18.3097C0.846613 20.4486 1.50643 22.4767 2.56106 24.3457L0.573006 30.9425C0.444858 31.3682 0.552225 31.813 0.863938 32.1314C1.09599 32.3719 1.40426 32.5 1.72634 32.5C1.83198 32.5 1.93934 32.4862 2.04498 32.4585L8.97017 30.6034C11.2734 31.832 13.8711 32.4827 16.4996 32.4827C19.8297 32.4827 23.0285 31.498 25.7469 29.6343C28.516 27.7377 30.5335 25.0988 31.5776 22.0026C32.5958 18.9932 32.7742 15.8421 32.0971 12.8881L32.0975 12.8877ZM16.4947 31.7918C13.9421 31.7901 11.4102 31.1463 9.17982 29.9298C9.10189 29.8883 9.01011 29.8761 8.92352 29.8986L1.86666 31.7901C1.6831 31.8385 1.49434 31.7866 1.361 31.6499C1.22939 31.5132 1.18264 31.3246 1.23632 31.1411L3.26764 24.4025C3.29534 24.3108 3.28495 24.2122 3.23647 24.1291C1.08909 20.4137 0.609406 16.0686 1.88743 11.8946C3.68498 6.02115 9.04314 1.73992 15.2165 1.24508C15.6546 1.21047 16.0893 1.19316 16.5222 1.19316C20.6126 1.19316 24.412 2.75929 27.3318 5.67862C31.5572 9.90452 32.8995 15.9267 30.9234 21.786C28.9042 27.7701 23.1064 31.7918 16.4947 31.7918Z" stroke="black"/>
<path d="M24.0068 19.5555C23.941 19.5243 23.8718 19.4897 23.7956 19.4516C23.5358 19.3201 21.4906 18.3095 21.0871 18.1642C20.765 18.0465 20.2264 17.8527 19.7987 18.493C19.5528 18.8633 18.8151 19.7303 18.5882 19.9881C18.4912 20.0989 18.4462 20.1508 18.157 20.0054C18.0843 19.9673 17.9908 19.9293 17.8765 19.8774C17.3223 19.6368 16.2937 19.1886 15.0866 18.1157C14.006 17.1535 13.2545 15.9612 12.9808 15.494C12.8908 15.3417 12.9012 15.3123 13.0986 15.1167C13.2267 14.9887 13.3687 14.8156 13.5073 14.6495C13.5731 14.5699 13.6389 14.4885 13.7047 14.4141C13.8987 14.1857 13.9852 14.0075 14.0874 13.8015C14.1047 13.7669 14.122 13.7323 14.1394 13.6942C14.3714 13.2322 14.1723 12.8325 14.1065 12.7009C14.0718 12.63 13.8935 12.1956 13.7237 11.7734C13.4501 11.1019 13.1107 10.2644 12.9063 9.81097C12.5531 9.03052 12.1097 8.94746 11.7253 8.93186C11.4898 8.92148 11.2231 8.92148 10.9616 8.92148C10.7364 8.92148 10.1598 8.98032 9.66275 9.52198C9.64197 9.5462 9.61773 9.57043 9.59002 9.59812C9.1744 10.0411 8.20117 11.0742 8.20117 13.0141C8.20117 14.8415 9.36317 16.5911 9.8671 17.2642C9.88095 17.2816 9.9052 17.3179 9.93983 17.3698C11.862 20.2199 14.2623 22.3191 16.6988 23.2795C18.9518 24.1673 20.0237 24.3473 20.7147 24.3473C20.9641 24.3473 21.1649 24.3231 21.352 24.3023C21.4195 24.2954 21.4836 24.2867 21.5494 24.2815C22.3235 24.2123 24.0968 23.2847 24.4847 22.1946C24.7912 21.3345 24.8813 20.3706 24.6856 20.0435C24.5574 19.8203 24.3255 19.7095 24.0068 19.5555ZM23.8354 21.9591C23.5583 22.7309 22.0742 23.5356 21.4889 23.5875C21.4161 23.5945 21.3469 23.6014 21.2724 23.6118C20.642 23.6862 19.861 23.7779 16.9534 22.6323C14.6468 21.7221 12.3593 19.7164 10.515 16.9804C10.47 16.9147 10.4388 16.8697 10.418 16.842C9.96089 16.2294 8.89412 14.6339 8.89412 13.0124C8.89412 11.3477 9.70456 10.4842 10.0959 10.0706C10.1236 10.0394 10.1496 10.0135 10.1739 9.9875C10.4856 9.64832 10.8285 9.61197 10.9618 9.61197C11.2146 9.61197 11.4761 9.61197 11.6978 9.62236C11.9298 9.63274 12.0701 9.6362 12.2762 10.0931C12.4753 10.5361 12.813 11.365 13.0832 12.0312C13.3187 12.6092 13.4434 12.9172 13.4884 13.0072C13.5681 13.1699 13.5785 13.2702 13.523 13.3827C13.5023 13.4208 13.4849 13.4589 13.4676 13.4935C13.3724 13.6856 13.3152 13.8015 13.1802 13.9642C13.1143 14.042 13.0451 14.1268 12.9758 14.2099C12.8494 14.3639 12.7178 14.5231 12.6139 14.627C12.4199 14.8173 12.0199 15.2153 12.3853 15.8452C12.6762 16.3419 13.4763 17.6069 14.6296 18.6348C15.918 19.7821 17.0575 20.277 17.6047 20.5141C17.7069 20.5591 17.7952 20.5972 17.8506 20.6249C18.1797 20.791 18.6715 20.9502 19.1131 20.4449C19.3573 20.168 20.1106 19.2803 20.3807 18.8771C20.4881 18.7144 20.5054 18.6884 20.8552 18.8148C21.1825 18.9324 23.0476 19.8479 23.4909 20.0711C23.5706 20.1092 23.6433 20.1455 23.7109 20.1784C23.8581 20.2493 24.0399 20.3376 24.0901 20.3861C24.1178 20.528 24.1281 21.1423 23.8354 21.9591Z" stroke="black"/>
</svg>
