<svg width="198" height="126" viewBox="0 0 198 126" fill="none" xmlns="http://www.w3.org/2000/svg">
<path d="M23.0023 42.5045C23.8041 42.5045 24.6059 42.2914 25.4078 41.8653C26.5103 42.5045 27.5126 42.824 28.6151 42.824C29.8178 42.824 31.1208 42.3979 32.2233 41.7588C33.0251 42.2914 33.9271 42.5045 34.8292 42.5045C37.5353 42.5045 39.7404 40.1609 39.7404 37.2846C39.7404 34.4084 37.4351 31.8517 34.6287 32.0648C33.5262 29.7212 31.1208 28.2298 28.6151 28.2298C26.6105 28.2298 24.7062 29.1885 23.303 30.893H23.1025C20.1959 30.893 17.6902 33.5562 17.6902 36.6455C17.6902 39.7348 19.9955 42.5045 23.0023 42.5045ZM34.8292 40.0543C34.1276 40.0543 33.426 39.7348 33.0251 39.3086C32.6242 38.8825 31.8224 38.8825 31.3212 39.3086C30.0183 40.4804 27.9135 40.8 26.1094 39.5217C25.8087 39.3086 25.6082 39.3086 25.4078 39.3086C25.3075 39.3086 25.0069 39.3086 24.7062 39.5217C24.1048 39.9478 23.6037 40.0543 22.9021 40.0543C21.1982 40.0543 19.8952 38.6695 19.8952 36.8585C19.8952 35.0475 21.1982 33.5562 22.9021 33.5562C23.1025 33.5562 23.2028 33.5562 23.303 33.6627C23.8041 33.8757 24.3053 33.6627 24.7062 33.2366L24.8064 33.13C25.6082 31.7452 27.0114 30.9995 28.5148 30.9995C30.3189 30.9995 32.0228 32.2778 32.6242 34.0888C32.8246 34.6214 33.3258 34.941 33.8269 34.941C34.0274 34.941 34.328 34.941 34.5285 34.8345C35.1299 34.728 35.7312 34.941 36.2324 35.4736C36.8337 36.0063 37.1344 36.752 37.1344 37.4977C37.2347 38.8825 36.1321 40.0543 34.8292 40.0543Z" fill="white"/>
<path d="M131.048 17.0444C131.85 17.0444 132.551 16.8313 133.253 16.5118C134.656 17.577 136.26 18.2162 138.064 18.2162C140.269 18.2162 142.273 17.364 143.777 15.7661C144.078 15.7661 144.378 15.7661 144.779 15.7661C147.586 15.7661 149.791 13.3159 149.791 10.4397C149.891 9.05484 149.39 7.66998 148.488 6.81776C147.786 5.96554 146.684 5.32637 145.381 5.21984C143.977 2.45013 141.071 0.745689 138.164 0.745689C134.656 0.745689 131.549 3.08929 130.346 6.6047C127.941 6.92428 126.037 9.16136 126.037 11.8245C126.137 14.8073 128.342 17.0444 131.048 17.0444ZM144.779 7.77651C145.481 7.77651 146.182 8.09609 146.684 8.62872C147.084 9.05483 147.285 9.694 147.285 10.4397C147.285 12.0376 146.182 13.2094 144.679 13.2094C144.378 13.2094 143.977 13.1029 143.576 12.9963C143.075 12.7833 142.574 12.9964 142.273 13.4225C141.271 14.7008 139.567 15.553 138.064 15.553C136.661 15.553 135.358 15.0204 134.155 13.9551C133.955 13.742 133.654 13.529 133.353 13.529C133.153 13.529 132.752 13.529 132.551 13.742C132.05 14.1682 131.449 14.3812 131.048 14.3812C129.645 14.3812 128.542 13.2094 128.542 11.718C128.542 10.3332 129.745 9.16136 131.148 9.16136H131.449C132.05 9.16136 132.451 8.73525 132.652 8.09609C133.353 5.21985 135.558 3.30235 138.264 3.30235C140.57 3.30235 142.674 4.79374 143.476 7.03081C143.677 7.3504 144.078 7.88303 144.579 7.88303L144.779 7.77651Z" fill="white"/>
<path d="M43.549 17.6836L57.2802 23.7556C57.3805 23.7556 57.3805 23.7556 57.4807 23.7556H57.6812C57.9818 23.7556 58.1823 23.6491 58.3827 23.436C58.3827 23.7556 58.5832 24.0752 58.7837 24.2883C58.8839 24.3948 58.8839 24.3948 58.9841 24.3948L60.1869 24.9274C60.2871 24.9274 60.3873 25.034 60.3873 25.034H60.5878C60.9887 25.034 61.3896 24.8209 61.59 24.5013C61.7905 24.3948 61.7905 24.1817 61.8907 23.9687C61.8907 23.5426 61.6903 23.223 61.2894 22.9034H61.1891L59.9864 22.3708C59.5855 22.2642 59.1846 22.2642 58.8839 22.5838C58.8839 22.1577 58.5832 21.7316 58.1823 21.5185L44.5513 15.553C44.1504 15.4465 43.549 15.4465 43.1481 16.1922L43.0479 16.2987C42.8474 16.6183 42.8474 17.1509 43.549 17.6836Z" fill="white"/>
<path d="M197.8 122.613L165.025 70.6277C165.025 70.6277 165.025 70.5212 164.925 70.5212C164.825 70.4147 164.624 70.2016 164.324 70.0951L133.654 56.6726C133.554 56.6726 133.453 56.6726 133.453 56.6726H133.053C132.952 56.6726 132.852 56.6726 132.752 56.7791L129.144 58.5901L112.907 48.3635C117.016 48.8961 121.125 49.1092 125.135 49.1092H126.738L143.176 48.5765C143.276 48.5765 143.376 48.5765 143.576 48.47L161.918 54.8617C162.018 54.8617 162.018 54.8617 162.119 54.8617H162.419L166.629 54.116C166.93 54.116 167.03 54.0094 167.23 53.7964L167.431 53.5833C167.531 53.4768 167.631 53.2637 167.631 53.1572V52.7311C167.631 52.4115 167.431 52.1985 167.23 52.0919C167.23 52.0919 167.23 52.0919 167.13 51.9854C167.03 51.8789 166.93 51.7724 166.829 51.7724L150.592 45.7003C150.993 45.2742 151.294 44.635 151.294 44.1024C151.394 42.9306 150.893 41.4392 148.889 40.6935L147.686 40.3739L163.622 24.9274C163.822 24.7144 163.923 24.6078 163.923 24.2883V23.8622C163.923 23.6491 163.822 23.5426 163.722 23.436C163.722 23.3295 163.622 23.3295 163.622 23.223L163.522 23.1165C163.522 23.1165 163.522 23.1165 163.422 23.1165C163.321 23.0099 163.321 23.0099 163.221 22.9034L158.009 20.5598C157.909 20.5598 157.809 20.5598 157.809 20.5598H157.709C157.007 20.4533 156.205 20.5598 155.103 20.9859L126.538 33.8757L83.9409 17.2574V6.71123L85.5445 3.51541C85.5445 3.40888 85.6447 3.30235 85.6447 3.19582V2.76971C85.6447 2.55666 85.5445 2.3436 85.344 2.13055C85.2438 2.02402 85.2438 2.02402 85.1436 1.91749L85.0434 1.81096C84.9431 1.70444 84.9431 1.70444 84.8429 1.70444L81.5354 0.106526C81.4352 0.106526 81.3349 0 81.3349 0H80.8338C80.7336 0 80.6333 -1.62707e-06 80.5331 0.106526L75.8224 2.66319C75.8224 2.66319 75.7222 2.66319 75.7222 2.76971C75.6219 2.76971 75.5217 2.87624 75.4215 2.98277L67.7039 11.0789L47.8588 3.51541C42.647 1.81097 36.8337 2.3436 29.918 5.11332C26.0091 7.03081 24.0046 9.26789 24.0046 11.6115C23.9044 14.4877 26.3098 17.2574 31.9226 20.5598C49.6629 28.7624 63.9955 34.6214 76.8247 39.3086L82.9386 42.5045C81.6356 43.1436 80.5331 44.5285 80.1322 46.446C79.7313 47.7243 79.8315 49.1092 80.1322 50.1744C80.6333 51.8789 81.6356 52.4115 82.3372 52.6246C82.4374 52.6246 82.5377 52.6246 82.6379 52.7311C82.7381 52.7311 82.8384 52.8376 82.9386 52.8376H83.2393L88.7518 53.7964C88.852 53.9029 89.0525 54.0094 89.2529 54.0094C89.3532 54.0094 89.5536 54.116 89.7541 54.116C90.2552 54.116 90.6561 54.0094 91.1573 53.7964L94.9659 54.0094H95.2666C95.6675 54.0094 96.1687 53.9029 96.5696 53.5833C97.1709 53.0507 97.6721 51.9854 97.8725 50.8136L111.704 58.0575C110.501 58.6966 109.399 60.0815 108.998 61.8925C108.597 63.1708 108.697 64.5557 108.998 65.6209C109.299 66.6862 109.8 67.2188 110.301 67.645L100.178 72.3322L65.1982 55.1812C65.098 55.1812 64.9978 55.0747 64.8976 55.0747H64.4966C64.3964 55.0747 64.3964 55.0747 64.2962 55.0747L49.3622 61.1468C48.7609 60.4011 47.5581 59.975 45.8543 59.975L44.2506 54.7551C44.5513 54.329 44.852 53.9029 44.9522 53.2637C45.1527 52.5181 44.852 51.8789 44.3508 51.3462C43.3486 50.3875 41.6447 50.3875 39.3394 51.3462C36.934 52.1985 35.8315 53.0507 35.4306 54.4355C35.2301 55.1812 35.5308 55.9269 35.9317 56.2465C36.3326 56.5661 36.934 56.8857 37.6356 56.8857L39.0388 62.2121C38.1367 63.0643 37.4351 64.023 37.3349 65.4079C37.3349 65.6209 37.3349 65.7275 37.3349 65.9405L30.9203 68.6037C30.6196 68.7102 30.4192 68.8168 30.3189 69.0298L30.2187 69.1363L0.150342 121.441C-0.0501139 121.867 -0.0501139 122.4 0.150342 122.826C0.150342 122.933 0.25057 122.933 0.25057 123.039C0.651481 123.465 1.15262 123.572 1.55353 123.465L49.8634 106.634L94.2643 123.039H90.9568C90.4557 123.039 89.9545 123.465 89.7541 123.998C89.5536 123.465 89.1527 123.039 88.5513 123.039H87.8497C87.2484 123.039 86.647 123.678 86.647 124.318C86.5468 123.678 86.0456 123.146 85.4443 123.146H80.8338C80.2324 123.146 79.6311 123.785 79.6311 124.424C79.6311 125.063 80.2324 125.702 80.8338 125.702H85.344C85.9454 125.702 86.5468 125.063 86.5468 124.424C86.647 125.063 87.1482 125.596 87.7495 125.596H88.4511C88.9523 125.596 89.4534 125.17 89.6539 124.637C89.8543 125.17 90.2552 125.596 90.8566 125.596L100.879 125.702C101.08 125.702 101.18 125.596 101.28 125.596H101.481C101.581 125.596 101.581 125.596 101.681 125.596L149.891 111.215L187.376 121.974H184.069C183.467 121.974 182.866 122.613 182.866 123.252C182.866 123.891 183.467 124.531 184.069 124.531H196.998C197.198 124.531 197.299 124.424 197.399 124.318L197.499 124.211C197.699 124.105 197.8 123.998 197.9 123.785C198 123.572 198 123.359 198 123.252C198 123.146 198 122.933 197.8 122.613ZM81.5354 7.13734V16.1922L70.5103 12.0376L76.8247 5.32637L81.5354 7.13734ZM79.6311 3.72846L81.3349 2.76971L82.8384 3.51541L82.237 4.79374L79.6311 3.72846ZM157.408 22.6903L160.615 24.1817L144.879 39.3086L130.246 34.6214L156.105 23.0099C156.706 22.7969 157.107 22.6903 157.408 22.6903ZM54.0729 95.129C54.2734 94.4899 53.8725 93.6377 53.2711 93.4246C52.6698 93.2116 51.8679 93.6377 51.6675 94.2768L48.8611 104.29L4.15946 119.417L32.4237 70.9473L39.3394 68.0711C40.1413 68.3906 40.9431 68.3906 41.8451 68.2841C41.9454 68.2841 42.0456 68.2841 42.0456 68.2841L43.6492 72.9713L43.2483 73.1844C42.9477 73.2909 42.647 73.6105 42.5467 74.0366C42.4465 74.3562 42.4465 74.7823 42.647 74.9954C42.8474 75.528 43.3486 75.8476 43.8497 75.8476H44.0502C44.1504 75.8476 44.1504 75.8476 44.2506 75.8476L47.7586 74.4627H47.959C48.2597 74.4627 48.4602 74.2497 48.5604 74.1431L49.4625 73.717C49.7631 73.6105 50.0638 73.2909 50.1641 72.8648C50.2643 72.5452 50.2643 72.2256 50.0638 71.9061C49.9636 71.5865 49.6629 71.2669 49.3622 71.1604C49.0616 71.0538 48.6606 71.0538 48.4602 71.2669H48.36L47.1572 66.7927C48.0593 66.2601 49.5627 65.3013 49.8634 63.9165V63.81C49.8634 63.81 49.8634 63.81 49.8634 63.7034L62.5923 58.2705L61.3896 62.3186C60.8884 62.3186 60.3873 62.3186 59.7859 62.3186C58.483 62.4251 56.5786 62.7447 55.2757 63.4904C53.8725 64.3426 53.0707 65.5144 53.0707 66.7927C53.0707 67.6449 53.4716 68.9233 55.4761 70.0951V78.7238C52.77 80.1087 51.2666 82.1327 51.3668 84.3698C51.3668 85.6481 51.9682 86.9264 53.1709 88.2048C53.2711 88.3113 53.4716 88.4178 53.5718 88.6309C53.3714 88.8439 53.1709 88.9504 53.0707 89.27L52.6698 90.7614C52.4693 91.4006 52.8702 92.2528 53.4716 92.4659C53.5718 92.4659 53.5718 92.4659 53.672 92.4659H53.8725C54.3736 92.4659 54.7745 92.1463 55.0752 91.6136L55.4761 90.0157C55.4761 89.9092 55.4761 89.8027 55.4761 89.6961C56.0775 89.9092 56.6789 90.2288 57.3805 90.3353L57.8816 97.0465C57.4807 97.1531 57.18 97.4727 56.9796 97.8988C56.8793 98.2183 56.8793 98.6445 57.0798 98.964C57.2802 99.2836 57.4807 99.4967 57.7814 99.6032L65.1982 102.266C65.2985 102.266 65.2985 102.266 65.3987 102.266H65.5992C66.0001 102.266 66.6014 101.947 66.8019 101.414C66.9021 101.095 66.9021 100.668 66.7017 100.349C66.5012 100.029 66.3008 99.8163 66.0001 99.7097L64.3964 99.0706V90.0157C68.2051 88.8439 70.5103 86.1807 70.4101 83.0914C70.3099 80.5348 68.3053 78.5108 65.098 77.552L64.7973 69.1363C66.1003 68.2841 66.8019 67.1123 66.8019 65.9405C66.8019 65.0883 66.401 63.7034 64.2962 62.6382C64.196 62.6382 63.9955 62.5316 63.7951 62.4251L65.098 57.8444L98.5741 74.2497L99.7769 122.187L51.467 104.184L54.0729 95.129ZM65.2985 80.4283C67.0023 81.0674 68.0046 82.1327 68.1049 83.3045C68.3053 85.1155 66.5012 86.9264 63.5946 87.7787C63.3941 87.7787 63.1937 87.7786 62.9932 87.8852H62.893C62.3919 87.9917 61.9909 88.0982 61.3896 88.0982C58.8839 88.2048 56.3782 87.4591 55.0752 86.0742C54.4739 85.5416 54.1732 84.7959 54.1732 84.0502C54.073 83.0914 54.6743 82.2392 55.7768 81.4935V82.1327C55.7768 82.3457 55.8771 82.4523 55.9773 82.5588C55.9773 82.6653 56.0775 82.6653 56.0775 82.7719C57.18 83.9437 59.2848 84.0502 60.1869 84.0502C61.4898 84.0502 62.5923 83.8371 63.3941 83.5176C64.3964 83.198 64.9978 82.6653 65.2985 81.9196C65.2985 81.8131 65.3987 81.7066 65.3987 81.6001L65.2985 80.4283ZM60.8884 90.8679H61.4898C61.7905 90.8679 61.991 90.868 62.2916 90.7614C62.2916 90.7614 62.2916 90.7614 62.3919 90.7614V98.3249L60.7882 97.6857L60.2871 90.7614C60.3873 90.7614 60.5878 90.8679 60.8884 90.8679ZM58.1823 81.1739V70.6277C58.6834 70.7342 59.2848 70.7343 59.7859 70.7343H60.2871C61.0889 70.7343 61.7905 70.6277 62.6925 70.4147L63.0935 81.0674C62.893 81.1739 62.2916 81.387 61.3896 81.387C60.0866 81.6001 58.7837 81.387 58.1823 81.1739ZM64.6971 66.2601C64.6971 66.3666 64.4966 66.8993 63.7951 67.2188C62.9932 67.645 61.6903 68.0711 60.3873 68.1776C59.0843 68.2841 57.7814 68.0711 56.8793 67.5384C55.9773 67.0058 55.877 66.7927 55.877 66.6862C55.877 66.3666 56.1777 66.047 56.8793 65.7275C57.6811 65.3013 58.9841 64.8752 60.2871 64.7687C60.4875 64.7687 60.688 64.7687 60.8884 64.7687C61.9909 64.7687 62.9932 64.9818 63.6948 65.4079C64.5969 65.834 64.6971 66.1536 64.6971 66.2601ZM42.1458 56.0335L43.8497 61.5729C43.6492 61.7859 43.2483 61.8925 42.7472 62.1055C42.3463 62.212 42.0456 62.3186 41.7449 62.3186L40.3417 56.7791C40.6424 56.6726 40.9431 56.6726 41.1436 56.5661C41.5445 56.353 41.8451 56.2465 42.1458 56.0335ZM40.5422 64.7687C40.8429 64.8752 41.2438 64.9818 41.6447 64.9818C42.9477 64.9818 44.5513 64.2361 45.3531 63.7034C45.754 63.3839 46.1549 62.9577 46.3554 62.5316C47.3577 62.6382 47.5581 62.8512 47.5581 62.8512L47.6584 62.9577C47.4579 63.4904 46.1549 64.4491 44.1504 65.1948C42.1458 65.9405 40.442 65.9405 40.041 65.7275C40.041 65.3013 40.1413 64.9818 40.5422 64.7687C40.442 64.7687 40.442 64.7687 40.5422 64.7687ZM44.4511 67.7515L44.852 67.645L46.0547 72.0126H45.9545L44.4511 67.7515ZM40.2415 53.7964C41.0433 53.4768 41.5445 53.3703 41.9454 53.2637C41.5445 53.5833 41.0433 53.9029 40.3417 54.116C39.6401 54.329 39.0388 54.4355 38.6379 54.4355C39.139 54.2225 39.6401 54.0094 40.2415 53.7964ZM93.1618 51.0267C93.3623 50.7071 93.4625 50.281 93.5627 49.8549C93.663 49.3222 93.7632 48.7896 93.7632 48.1504L95.0662 48.7896C95.1664 48.7896 95.1664 48.8961 95.2666 48.8961L95.4671 49.0026C95.5673 49.0026 95.6675 49.3222 95.6675 50.0679C95.5673 50.7071 95.3668 51.0267 95.2666 51.1332L93.1618 51.0267ZM90.0548 51.3462L86.4466 50.7071C86.8475 50.0679 87.1481 49.3222 87.4488 48.3635C87.6493 47.2982 87.7495 46.1264 87.5491 45.1677L89.0525 45.4872L91.4579 46.7656C91.4579 46.8721 91.4579 46.8721 91.5582 46.9786C91.8589 47.4047 91.8589 48.3635 91.6584 49.2157C91.1573 50.6006 90.4557 51.2397 90.0548 51.3462ZM82.5377 47.0851C82.9386 45.7003 83.7404 44.5285 84.442 44.5285H84.7427C85.2438 44.8481 85.6447 46.1264 85.2438 47.7243C85.0434 48.47 84.7427 49.1092 84.1413 49.7483C84.0411 49.8549 83.9409 49.8549 83.9409 49.9614C83.8406 50.0679 83.7404 50.1744 83.6402 50.1744L82.9386 50.0679H82.8384C82.7381 50.0679 82.5377 49.8549 82.5377 49.5353C82.3372 48.7896 82.3372 47.8308 82.5377 47.0851ZM36.934 10.5462C35.7312 9.80053 33.6265 8.30914 32.2233 7.03081C32.7244 6.81776 33.2255 6.71123 33.7267 6.49817C34.1276 6.92429 34.5285 7.24387 35.0296 7.66998C35.4306 7.98956 35.8315 8.41567 36.2324 8.84178C36.6333 9.16136 37.0342 9.58747 37.3349 9.90706L36.934 10.5462ZM29.918 8.09609C31.1208 9.37442 33.1253 10.9723 36.5331 13.1029C36.5331 13.1029 36.5331 13.1029 36.6333 13.1029C36.934 13.3159 37.4351 13.3159 37.6356 13.1029C37.836 12.9964 38.0365 12.8898 38.0365 12.6768L39.7404 10.5462C39.8406 10.4397 39.8406 10.3332 39.8406 10.1201V9.48094C39.8406 9.26789 39.7404 9.05484 39.5399 8.84178C39.4397 8.73525 39.3394 8.62872 39.2392 8.62872C38.9385 8.30914 38.6379 8.09609 38.3372 7.77651C37.9363 7.45692 37.6356 7.13734 37.3349 6.81776L37.0342 6.49817C36.6333 6.17859 36.2324 5.75248 35.9317 5.4329C39.9408 4.36763 43.549 4.47415 46.9568 5.53943L125.936 35.6867L147.786 42.611C148.387 42.7175 148.488 43.0371 148.488 43.1436C148.387 43.3567 148.087 43.7828 147.285 43.7828C147.185 43.7828 147.084 43.7828 146.884 43.7828L144.278 42.824C141.572 41.6522 136.46 41.0131 134.055 42.3979C133.754 42.3979 133.554 42.611 133.453 42.824C133.353 42.9306 133.253 43.1436 133.253 43.2502V43.6763C133.253 43.8893 133.353 43.9959 133.453 44.1024L133.554 44.2089C133.554 44.2089 133.554 44.2089 133.654 44.3154C133.754 44.422 133.854 44.5285 133.955 44.5285L139.467 46.3395L126.437 46.7656C120.825 46.8721 116.515 47.0851 109.299 46.0199L96.8703 38.4564L75.3213 29.082C72.8156 27.3776 68.2051 29.1885 66.8019 31.106C66.401 31.6387 66.2005 32.1713 66.2005 32.7039C57.6812 29.6146 46.7563 24.8209 32.7244 18.4293C27.2119 15.2334 26.41 12.5702 26.41 11.2919C26.5103 10.5462 27.713 9.37442 29.918 8.09609ZM131.649 60.0815L132.551 59.6554L132.952 60.8272L131.649 60.0815ZM123.932 63.9165C124.032 64.023 124.232 64.3426 124.232 65.1948C124.232 65.7275 124.032 66.047 123.832 66.1536L121.727 66.047C121.927 65.7275 122.027 65.3014 122.128 64.8752C122.228 64.3426 122.328 63.7034 122.328 63.0643L123.531 63.7034C123.631 63.7034 123.631 63.7034 123.731 63.81C123.731 63.81 123.832 63.9165 123.932 63.9165ZM115.914 63.4904C116.214 62.4251 116.214 61.2533 116.014 60.188L117.417 60.5076L119.822 61.7859C119.822 61.8925 119.822 61.8925 119.923 61.999C120.223 62.4251 120.223 63.2773 120.023 64.2361C119.622 65.6209 118.82 66.4731 118.319 66.3666H118.018L114.911 65.834C115.312 65.1948 115.713 64.4491 115.914 63.4904ZM133.854 68.7102C133.854 68.6037 133.955 68.4972 133.955 68.4972C134.255 68.2841 134.756 68.1776 135.258 68.1776C135.959 68.1776 136.661 68.2841 137.362 68.4972C139.267 69.0298 140.269 70.2016 140.369 70.7343C140.369 70.7343 140.269 70.8408 140.169 70.9473C139.768 71.3734 138.465 71.4799 136.861 70.9473C135.157 70.4147 134.155 69.4559 133.955 68.9233C133.854 68.8168 133.854 68.7102 133.854 68.7102ZM150.492 74.3562C150.592 74.2497 150.592 74.2497 150.693 74.1431L152.597 72.8648L155.504 73.8235L154.401 75.4215L150.492 74.3562ZM142.775 70.2016L147.485 73.1844L147.385 73.2909L142.875 70.9473C142.875 70.6277 142.775 70.4147 142.775 70.2016ZM131.349 88.9504C131.549 89.057 131.85 89.057 132.05 89.1635L130.246 94.8095L129.344 95.129L130.948 88.9504H131.349ZM132.05 86.2873C131.549 86.1807 131.148 85.9677 130.847 85.7546C130.747 85.6481 130.647 85.5416 130.447 85.5416C129.244 84.9024 128.342 84.0502 127.841 83.0914C127.64 82.5588 127.44 82.0262 127.54 81.4935C127.841 80.4283 128.843 80.1087 129.745 80.0021L129.645 80.3217C129.645 80.4283 129.645 80.4282 129.645 80.5348V80.9609C129.745 81.7066 130.346 82.4523 131.248 82.9849C132.351 83.6241 134.055 84.2632 135.458 84.2632C135.959 84.2632 136.36 84.1567 136.861 84.0502H136.961C137.162 84.0502 137.262 83.9437 137.362 83.8371L137.463 83.7306C137.563 83.6241 137.563 83.6241 137.563 83.5176C137.663 83.411 137.663 83.3045 137.663 83.198C138.164 83.8371 138.365 84.4763 138.164 85.0089C137.964 85.5416 137.563 85.9677 136.961 86.2873C135.759 87.0329 133.754 87.0329 132.05 86.2873ZM133.253 81.2805C132.952 81.1739 132.451 80.9609 132.15 80.6413L134.456 72.8648C134.957 73.1844 135.458 73.3974 136.059 73.504C136.56 73.6105 137.062 73.717 137.563 73.8235L135.658 81.7066C135.057 81.8131 134.255 81.7066 133.253 81.2805ZM138.465 80.3217L138.766 79.2565L139.367 81.1739C139.066 80.8544 138.766 80.5348 138.465 80.3217ZM114.41 68.3906C114.51 68.3906 114.611 68.2841 114.711 68.2841L118.119 68.8168H118.319C118.319 68.8168 118.319 68.8168 118.419 68.8168C118.62 68.8168 118.72 68.8168 118.82 68.7102C119.121 68.7102 119.522 68.6037 119.822 68.3906L123.531 68.6037H123.832C124.232 68.6037 124.734 68.4972 125.135 68.1776C125.736 67.645 126.237 66.5797 126.437 65.4079L131.449 67.9645C131.148 68.8168 131.349 69.5625 131.549 70.2016C131.75 70.6277 131.95 70.9473 132.251 71.1604L130.447 77.4455C127.64 77.552 125.736 78.7238 125.135 80.7478C124.734 81.9196 124.934 83.198 125.535 84.4763C126.137 85.6481 127.239 86.8199 128.542 87.6721L126.538 95.7682L125.435 96.0878C124.834 96.3009 124.433 97.0465 124.633 97.6857C124.734 98.0053 125.034 98.5379 125.836 98.5379H126.037C126.137 98.5379 126.137 98.5379 126.237 98.5379L132.852 96.6204C133.153 96.5139 133.353 96.3009 133.554 96.0878C133.754 95.7682 133.754 95.4486 133.654 95.129C133.554 94.8095 133.353 94.5964 133.153 94.3834L134.656 89.4831H134.756C136.16 89.4831 137.362 89.1635 138.264 88.6309C139.467 87.9917 140.269 87.0329 140.67 85.7546C140.67 85.6481 140.77 85.435 140.77 85.3285L148.087 108.765L102.683 122.613L101.481 74.5692L114.41 68.3906ZM151.294 108.658L139.968 74.5692L140.169 73.8235C140.67 73.717 141.171 73.6105 141.572 73.3974C141.572 73.3974 141.672 73.3974 141.672 73.2909L146.884 76.0606C146.984 76.0606 147.084 76.1672 147.185 76.1672L154.902 78.4042C155.002 78.4042 155.002 78.4042 155.103 78.4042H155.303C155.504 78.4042 155.704 78.2977 155.804 78.2977C156.005 78.2977 156.105 78.0846 156.205 77.8716C156.205 77.8716 156.205 77.7651 156.305 77.7651L158.51 74.4627C158.611 74.2497 158.711 74.1431 158.711 73.9301V73.8235C158.811 73.717 158.811 73.717 158.811 73.6105C158.911 73.2909 158.911 72.8648 158.711 72.5452C158.51 72.2256 158.31 72.0126 158.009 71.9061L152.998 70.2016C152.898 70.2016 152.898 70.2016 152.797 70.2016H152.296C152.196 70.2016 152.096 70.2016 151.996 70.3081L149.991 71.4799L136.26 62.8512L135.358 60.188L163.221 72.3322L193.891 121.122L151.294 108.658ZM143.777 45.4872L159.212 51.3462L139.467 44.422C140.971 44.635 142.574 44.9546 143.777 45.4872ZM74.6197 31.3191C74.7199 31.4256 74.8201 31.4256 75.0206 31.4256L96.5696 40.6935L134.456 64.7687C134.556 64.8752 134.756 64.9818 134.957 65.0883L135.859 65.6209C135.057 65.6209 133.854 65.9405 133.153 66.1536L69.1071 33.0235C70.4101 32.0648 73.6174 30.4669 74.6197 31.3191ZM113.007 59.5489C113.107 59.6554 113.207 59.6554 113.408 59.6554C113.608 59.7619 113.709 59.975 113.809 60.4011C114.009 61.0402 114.009 61.999 113.809 62.7447C113.608 63.4904 113.308 64.1295 112.706 64.7687C112.406 65.0883 112.105 65.1948 111.904 65.1948H111.704C111.504 65.0883 111.303 64.8752 111.103 64.4491C110.902 63.81 110.902 62.8512 111.103 62.1055C111.403 60.7207 112.205 59.6554 113.007 59.5489Z" fill="white"/>
<path d="M179.358 122.081H177.654C177.053 122.081 176.451 122.72 176.451 123.359C176.451 123.998 177.053 124.637 177.654 124.637H179.358C179.959 124.637 180.561 123.998 180.561 123.359C180.561 122.72 179.959 122.081 179.358 122.081Z" fill="white"/>
<path d="M173.945 122.081H173.244C172.643 122.081 172.041 122.72 172.041 123.359C172.041 123.998 172.643 124.637 173.244 124.637H173.945C174.547 124.637 175.148 123.998 175.148 123.359C175.148 122.72 174.647 122.081 173.945 122.081Z" fill="white"/>
<path d="M75.9226 123.146H75.221C74.6197 123.146 74.0183 123.785 74.0183 124.424C74.0183 125.063 74.6197 125.702 75.221 125.702H75.9226C76.524 125.702 77.1254 125.063 77.1254 124.424C77.1254 123.785 76.524 123.146 75.9226 123.146Z" fill="white"/>
<path d="M70.4101 101.201L69.508 100.882C68.9067 100.668 68.1048 101.095 67.9044 101.734C67.7039 102.373 68.1049 103.225 68.7062 103.438L69.6083 103.758C69.7085 103.758 69.7085 103.758 69.8087 103.758H70.0092C70.5103 103.758 70.9112 103.438 71.2119 102.906C71.3121 102.586 71.3121 102.266 71.1117 101.84C71.0115 101.627 70.7108 101.308 70.4101 101.201Z" fill="white"/>
<path d="M120.925 98.964C121.125 99.4967 121.627 99.8163 122.128 99.8163H122.328C122.428 99.8163 122.428 99.8163 122.529 99.8163L123.431 99.4967C124.032 99.2836 124.433 98.5379 124.232 97.7922C124.032 97.1531 123.33 96.7269 122.629 96.94L121.727 97.2596C121.125 97.4726 120.724 98.2183 120.925 98.964Z" fill="white"/>
<path d="M135.258 95.8747H135.458L136.46 95.6617C137.062 95.4486 137.362 94.916 137.362 94.2768C137.362 94.1703 137.362 94.1703 137.362 94.0638C137.162 93.4246 136.661 93.105 136.059 93.105H135.959L134.957 93.3181C134.355 93.5311 134.055 94.0638 134.055 94.7029C134.055 94.8095 134.055 94.8095 134.055 94.916C134.255 95.4486 134.656 95.8747 135.258 95.8747Z" fill="white"/>
<path d="M41.7449 74.1431C41.4442 73.9301 41.0433 73.9301 40.7426 74.0366L39.139 74.5692C38.5376 74.7823 38.1367 75.528 38.3372 76.2737C38.4374 76.6998 38.7381 77.1259 39.5399 77.1259H39.7404C39.8406 77.1259 39.8406 77.1259 39.9408 77.1259L41.5445 76.5933C42.1458 76.3802 42.5467 75.6345 42.3463 74.8888C42.3463 74.5692 42.1458 74.2497 41.7449 74.1431Z" fill="white"/>
</svg>
