<svg width="30" height="28" viewBox="0 0 30 28" fill="none" xmlns="http://www.w3.org/2000/svg">
<path d="M16.728 2C16.728 0.89543 15.8326 -4.82823e-08 14.728 0C13.6235 4.82823e-08 12.728 0.895431 12.728 2L14.728 2L16.728 2ZM13.3138 27.4142C14.0949 28.1953 15.3612 28.1953 16.1422 27.4142L28.8702 14.6863C29.6512 13.9052 29.6512 12.6389 28.8702 11.8579C28.0891 11.0768 26.8228 11.0768 26.0417 11.8579L14.728 23.1716L3.41432 11.8579C2.63327 11.0768 1.36694 11.0768 0.585892 11.8579C-0.195157 12.6389 -0.195157 13.9052 0.585892 14.6863L13.3138 27.4142ZM14.728 2L12.728 2L12.728 26L14.728 26L16.728 26L16.728 2L14.728 2Z" fill="#E34B4B"/>
</svg>
