<svg width="16" height="16" viewBox="0 0 16 16" fill="none" xmlns="http://www.w3.org/2000/svg">
<g clip-path="url(#clip0_542_25702)">
<path d="M10.6657 6.66634C10.6657 7.37354 10.3848 8.05178 9.88469 8.55184C9.38462 9.05191 8.70639 9.33285 7.99919 9.33285C7.29199 9.33285 6.61375 9.05191 6.11368 8.55184C5.61362 8.05178 5.33268 7.37354 5.33268 6.66634" stroke="white" stroke-width="1.33333" stroke-linecap="round" stroke-linejoin="round"/>
<path d="M2.06823 4.02246H13.9302" stroke="white" stroke-width="1.33333" stroke-linecap="round" stroke-linejoin="round"/>
<path d="M2.26653 3.64436C2.09344 3.87514 1.99988 4.15584 1.99988 4.44431V13.3324C1.99988 13.686 2.14035 14.0252 2.39038 14.2752C2.64041 14.5252 2.97953 14.6657 3.33313 14.6657H12.6659C13.0195 14.6657 13.3586 14.5252 13.6086 14.2752C13.8587 14.0252 13.9991 13.686 13.9991 13.3324V4.44431C13.9991 4.15584 13.9056 3.87514 13.7325 3.64436L12.3992 1.86647C12.2751 1.70089 12.114 1.56649 11.9289 1.47393C11.7438 1.38136 11.5396 1.33317 11.3326 1.33317H4.66638C4.4594 1.33317 4.25526 1.38136 4.07013 1.47393C3.885 1.56649 3.72397 1.70089 3.59978 1.86647L2.26653 3.64436Z" stroke="white" stroke-width="1.33333" stroke-linecap="round" stroke-linejoin="round"/>
</g>
<defs>
<clipPath id="clip0_542_25702">
<rect width="16" height="16" fill="white"/>
</clipPath>
</defs>
</svg>
