<svg width="19" height="16" viewBox="0 0 19 16" fill="none" xmlns="http://www.w3.org/2000/svg">
<path d="M0.842053 5.48283C0.842071 4.54653 1.1261 3.63225 1.65664 2.86076C2.18717 2.08926 2.93925 1.49685 3.81353 1.16176C4.68782 0.826662 5.64319 0.764655 6.55346 0.983922C7.46373 1.20319 8.28607 1.69342 8.91188 2.38986C8.95596 2.43699 9.00925 2.47456 9.06845 2.50025C9.12764 2.52594 9.19148 2.53919 9.25601 2.53919C9.32054 2.53919 9.38439 2.52594 9.44358 2.50025C9.50278 2.47456 9.55607 2.43699 9.60015 2.38986C10.224 1.68889 11.0465 1.19454 11.9583 0.972612C12.87 0.75068 13.8277 0.811691 14.7039 1.14752C15.5802 1.48336 16.3333 2.07808 16.8632 2.85254C17.393 3.62701 17.6744 4.54447 17.67 5.48283C17.67 7.40963 16.4079 8.84841 15.1458 10.1105L10.5248 14.5808C10.3681 14.7609 10.1748 14.9056 9.95778 15.0052C9.7408 15.1048 9.5051 15.1571 9.26635 15.1586C9.02761 15.1601 8.79127 15.1108 8.57304 15.0139C8.35482 14.9171 8.1597 14.7749 8.00065 14.5968L3.36624 10.1105C2.10415 8.84841 0.842053 7.41804 0.842053 5.48283Z" stroke="#FF6467" stroke-width="1.66667" stroke-linecap="round" stroke-linejoin="round"/>
</svg>
