<svg width="19" height="19" viewBox="0 0 19 19" fill="none" xmlns="http://www.w3.org/2000/svg">
<path d="M11.8294 4.57942C11.6712 4.74083 11.5826 4.95783 11.5826 5.18384C11.5826 5.40985 11.6712 5.62685 11.8294 5.78826L13.2109 7.16979C13.3724 7.328 13.5894 7.41662 13.8154 7.41662C14.0414 7.41662 14.2584 7.328 14.4198 7.16979L17.1017 4.48876C17.378 4.21073 17.8468 4.2988 17.9505 4.67699C18.2113 5.62582 18.1966 6.62933 17.908 7.57008C17.6193 8.51084 17.0687 9.34993 16.3206 9.98918C15.5725 10.6284 14.6577 11.0414 13.6835 11.1797C12.7092 11.3181 11.7157 11.1761 10.8192 10.7704L3.98923 17.6003C3.64573 17.9437 3.17988 18.1366 2.69418 18.1365C2.20847 18.1364 1.74269 17.9434 1.3993 17.5999C1.05591 17.2564 0.863038 16.7906 0.863119 16.3049C0.8632 15.8191 1.05622 15.3534 1.39973 15.01L8.22967 8.18003C7.82397 7.28352 7.68198 6.29 7.82033 5.31573C7.95868 4.34147 8.37164 3.42675 9.01089 2.67862C9.65014 1.93049 10.4892 1.37989 11.43 1.09125C12.3707 0.802613 13.3742 0.787869 14.3231 1.04875C14.7013 1.15236 14.7893 1.62036 14.5122 1.89839L11.8294 4.57942Z" stroke="#99A1AF" stroke-width="1.66667" stroke-linecap="round" stroke-linejoin="round"/>
</svg>
