<svg width="14" height="14" viewBox="0 0 14 14" fill="none" xmlns="http://www.w3.org/2000/svg">
<path d="M8.16585 9.90696C8.29728 9.96732 8.44534 9.98111 8.58566 9.94606C8.72597 9.91101 8.85016 9.82921 8.93777 9.71414L9.16368 9.41823C9.28223 9.26016 9.43596 9.13186 9.61269 9.0435C9.78941 8.95513 9.98429 8.90913 10.1819 8.90913H12.091C12.4285 8.90913 12.7523 9.04322 12.991 9.28191C13.2296 9.52059 13.3637 9.84432 13.3637 10.1819V12.091C13.3637 12.4285 13.2296 12.7523 12.991 12.991C12.7523 13.2296 12.4285 13.3637 12.091 13.3637C9.05302 13.3637 6.13947 12.1569 3.9913 10.0087C1.84313 7.86056 0.636305 4.94702 0.636305 1.90905C0.636305 1.57149 0.770397 1.24777 1.00908 1.00908C1.24777 0.770397 1.57149 0.636305 1.90905 0.636305H3.81816C4.15571 0.636305 4.47944 0.770397 4.71813 1.00908C4.95681 1.24777 5.0909 1.57149 5.0909 1.90905V3.81816C5.0909 4.01575 5.0449 4.21062 4.95654 4.38735C4.86817 4.56408 4.73988 4.7178 4.58181 4.83636L4.28398 5.05972C4.16716 5.14893 4.08481 5.27582 4.05094 5.41886C4.01707 5.56189 4.03375 5.71224 4.09816 5.84437C4.96788 7.61085 6.39828 9.03946 8.16585 9.90696Z" stroke="white" stroke-width="1.19934" stroke-linecap="round" stroke-linejoin="round"/>
</svg>
