<svg width="18" height="18" viewBox="0 0 18 18" fill="none" xmlns="http://www.w3.org/2000/svg">
<g clip-path="url(#clip0_542_24849)">
<path d="M9.00078 16.5C13.1429 16.5 16.5008 13.1422 16.5008 9.00005C16.5008 4.85793 13.1429 1.50008 9.00078 1.50008C4.85866 1.50008 1.50081 4.85793 1.50081 9.00005C1.50081 13.1422 4.85866 16.5 9.00078 16.5Z" stroke="#155DFC" stroke-width="1.49918" stroke-linecap="round" stroke-linejoin="round"/>
<path d="M9.00047 13.5C11.4857 13.5 13.5005 11.4853 13.5005 8.99998C13.5005 6.51471 11.4857 4.5 9.00047 4.5C6.5152 4.5 4.50049 6.51471 4.50049 8.99998C4.50049 11.4853 6.5152 13.5 9.00047 13.5Z" stroke="#155DFC" stroke-width="1.49918" stroke-linecap="round" stroke-linejoin="round"/>
<path d="M9.00016 10.4999C9.82858 10.4999 10.5002 9.82834 10.5002 8.99991C10.5002 8.17149 9.82858 7.49992 9.00016 7.49992C8.17173 7.49992 7.50016 8.17149 7.50016 8.99991C7.50016 9.82834 8.17173 10.4999 9.00016 10.4999Z" stroke="#155DFC" stroke-width="1.49918" stroke-linecap="round" stroke-linejoin="round"/>
</g>
<defs>
<clipPath id="clip0_542_24849">
<rect width="17.9902" height="17.9902" fill="white" transform="scale(1.00054)"/>
</clipPath>
</defs>
</svg>
