<svg width="17" height="16" viewBox="0 0 17 16" fill="none" xmlns="http://www.w3.org/2000/svg">
<path d="M7.9934 0.983132C8.02668 0.915905 8.07808 0.859315 8.14181 0.81975C8.20554 0.780185 8.27906 0.75922 8.35407 0.75922C8.42908 0.75922 8.5026 0.780185 8.56633 0.81975C8.63006 0.859315 8.68146 0.915905 8.71474 0.983132L10.4687 4.53589C10.5843 4.76973 10.7548 4.97204 10.9658 5.12545C11.1767 5.27887 11.4217 5.3788 11.6798 5.41668L15.6023 5.99071C15.6767 6.00148 15.7465 6.03283 15.8039 6.08122C15.8614 6.12961 15.9041 6.1931 15.9273 6.26452C15.9506 6.33594 15.9533 6.41243 15.9354 6.48534C15.9174 6.55826 15.8793 6.62469 15.8256 6.67712L12.9888 9.43945C12.8018 9.62176 12.6618 9.8468 12.581 10.0952C12.5001 10.3436 12.4809 10.6079 12.5249 10.8654L13.1946 14.7682C13.2077 14.8425 13.1997 14.919 13.1714 14.9889C13.1432 15.0589 13.0958 15.1195 13.0348 15.1638C12.9738 15.2081 12.9015 15.2344 12.8262 15.2397C12.751 15.2449 12.6758 15.2289 12.6092 15.1934L9.10274 13.3498C8.8717 13.2285 8.61465 13.1651 8.35369 13.1651C8.09274 13.1651 7.83569 13.2285 7.60464 13.3498L4.09896 15.1934C4.03239 15.2287 3.95727 15.2445 3.88214 15.2392C3.80701 15.2338 3.73489 15.2075 3.67398 15.1632C3.61306 15.1189 3.56581 15.0584 3.53758 14.9886C3.50935 14.9187 3.50128 14.8424 3.5143 14.7682L4.18324 10.8662C4.22743 10.6086 4.20829 10.3441 4.12746 10.0955C4.04664 9.84696 3.90656 9.6218 3.71931 9.43945L0.882569 6.67788C0.82835 6.62551 0.789929 6.55897 0.771683 6.48583C0.753436 6.41269 0.756098 6.3359 0.779364 6.2642C0.80263 6.1925 0.845566 6.12878 0.90328 6.08029C0.960994 6.03181 1.03117 6.0005 1.1058 5.98995L5.02758 5.41668C5.28594 5.37909 5.53129 5.27929 5.74253 5.12586C5.95376 4.97243 6.12455 4.76996 6.24018 4.53589L7.9934 0.983132Z" fill="#FFDF20" stroke="#FFDF20" stroke-width="1.49918" stroke-linecap="round" stroke-linejoin="round"/>
</svg>
