<svg width="27" height="27" viewBox="0 0 27 27" fill="none" xmlns="http://www.w3.org/2000/svg">
<path d="M25.7724 13.5H22.7288C22.1925 13.4989 21.6705 13.6735 21.2427 13.997C20.815 14.3206 20.505 14.7754 20.3602 15.2918L17.4761 25.5518C17.4575 25.6155 17.4188 25.6715 17.3657 25.7113C17.3126 25.7511 17.248 25.7727 17.1816 25.7727C17.1152 25.7727 17.0506 25.7511 16.9975 25.7113C16.9444 25.6715 16.9056 25.6155 16.887 25.5518L10.1125 1.44829C10.0939 1.38456 10.0552 1.32858 10.0021 1.28875C9.94897 1.24892 9.88437 1.22739 9.81799 1.22739C9.7516 1.22739 9.68701 1.24892 9.6339 1.28875C9.58079 1.32858 9.54203 1.38456 9.52345 1.44829L6.63937 11.7082C6.49513 12.2226 6.18698 12.6759 5.76171 12.9993C5.33644 13.3227 4.81728 13.4985 4.28303 13.5H1.22714" stroke="white" stroke-width="2.39869" stroke-linecap="round" stroke-linejoin="round"/>
</svg>
