<svg width="18" height="18" viewBox="0 0 18 18" fill="none" xmlns="http://www.w3.org/2000/svg">
<g clip-path="url(#clip0_542_23121)">
<path d="M5.40728 11.25L1.99477 5.35499C1.84762 5.10065 1.77841 4.80868 1.79575 4.51535C1.81308 4.22202 1.91619 3.94023 2.09227 3.70499L3.29977 2.09998C3.43949 1.91369 3.62067 1.76248 3.82895 1.65834C4.03724 1.5542 4.26691 1.49998 4.49978 1.49998H13.4998C13.7327 1.49998 13.9623 1.5542 14.1706 1.65834C14.3789 1.76248 14.5601 1.91369 14.6998 2.09998L15.8998 3.70499C16.0771 3.93948 16.1815 4.22087 16.2002 4.51422C16.2188 4.80756 16.1509 5.09993 16.0048 5.35499L12.5923 11.25" stroke="#F54900" stroke-width="1.49905" stroke-linecap="round" stroke-linejoin="round"/>
<path d="M8.25035 9L3.84034 1.64998" stroke="#F54900" stroke-width="1.49905" stroke-linecap="round" stroke-linejoin="round"/>
<path d="M9.75036 9L14.1604 1.64998" stroke="#F54900" stroke-width="1.49905" stroke-linecap="round" stroke-linejoin="round"/>
<path d="M5.99992 5.24993H11.9999" stroke="#F54900" stroke-width="1.49905" stroke-linecap="round" stroke-linejoin="round"/>
<path d="M9.00043 16.4999C11.0715 16.4999 12.7504 14.821 12.7504 12.7499C12.7504 10.6788 11.0715 8.99988 9.00043 8.99988C6.92936 8.99988 5.25042 10.6788 5.25042 12.7499C5.25042 14.821 6.92936 16.4999 9.00043 16.4999Z" stroke="#F54900" stroke-width="1.49905" stroke-linecap="round" stroke-linejoin="round"/>
<path d="M8.99964 13.5001V12.0001H8.62464" stroke="#F54900" stroke-width="1.49905" stroke-linecap="round" stroke-linejoin="round"/>
</g>
<defs>
<clipPath id="clip0_542_23121">
<rect width="17.9886" height="17.9886" fill="white" transform="scale(1.00064)"/>
</clipPath>
</defs>
</svg>
