<svg width="14" height="14" viewBox="0 0 14 14" fill="none" xmlns="http://www.w3.org/2000/svg">
<path d="M13.3637 7.00002H11.7855C11.5074 6.99942 11.2368 7.08994 11.015 7.25773C10.7932 7.42551 10.6324 7.66133 10.5573 7.92912L9.06186 13.2492C9.05222 13.2822 9.03212 13.3113 9.00459 13.3319C8.97705 13.3526 8.94355 13.3637 8.90913 13.3637C8.87471 13.3637 8.84121 13.3526 8.81368 13.3319C8.78614 13.3113 8.76604 13.2822 8.7564 13.2492L5.24363 0.750852C5.23399 0.717806 5.2139 0.688777 5.18636 0.668123C5.15882 0.64747 5.12533 0.636305 5.0909 0.636305C5.05648 0.636305 5.02299 0.64747 4.99545 0.668123C4.96791 0.688777 4.94781 0.717806 4.93817 0.750852L3.4427 6.07092C3.36791 6.33765 3.20812 6.5727 2.98761 6.74039C2.7671 6.90807 2.49789 6.99922 2.22087 7.00002H0.636305" stroke="white" stroke-width="1.19934" stroke-linecap="round" stroke-linejoin="round"/>
</svg>
