<svg width="11" height="11" viewBox="0 0 11 11" fill="none" xmlns="http://www.w3.org/2000/svg">
<g clip-path="url(#clip0_542_26147)">
<path d="M7.33326 9.62505V8.70838C7.33326 8.22215 7.1401 7.75584 6.79629 7.41202C6.45247 7.0682 5.98615 6.87505 5.49992 6.87505H2.74991C2.26368 6.87505 1.79736 7.0682 1.45355 7.41202C1.10973 7.75584 0.916573 8.22215 0.916573 8.70838V9.62505" stroke="white" stroke-width="0.899508" stroke-linecap="round" stroke-linejoin="round"/>
<path d="M7.33358 1.4337C7.72672 1.53562 8.07489 1.7652 8.32344 2.0864C8.57199 2.4076 8.70684 2.80224 8.70684 3.20837C8.70684 3.61451 8.57199 4.00915 8.32344 4.33035C8.07489 4.65155 7.72672 4.88112 7.33358 4.98304" stroke="white" stroke-width="0.899508" stroke-linecap="round" stroke-linejoin="round"/>
<path d="M10.0829 9.62506V8.70839C10.0826 8.30218 9.94744 7.90757 9.69857 7.58653C9.4497 7.26549 9.10126 7.03619 8.70794 6.93463" stroke="white" stroke-width="0.899508" stroke-linecap="round" stroke-linejoin="round"/>
<path d="M4.12527 5.04166C5.13779 5.04166 5.95861 4.22085 5.95861 3.20832C5.95861 2.1958 5.13779 1.37498 4.12527 1.37498C3.11274 1.37498 2.29193 2.1958 2.29193 3.20832C2.29193 4.22085 3.11274 5.04166 4.12527 5.04166Z" stroke="white" stroke-width="0.899508" stroke-linecap="round" stroke-linejoin="round"/>
</g>
<defs>
<clipPath id="clip0_542_26147">
<rect width="10.7941" height="10.7941" fill="white" transform="scale(1.01908)"/>
</clipPath>
</defs>
</svg>
