<svg width="14" height="14" viewBox="0 0 14 14" fill="none" xmlns="http://www.w3.org/2000/svg">
<g clip-path="url(#clip0_542_19962)">
<path d="M11.0833 6.41663H2.91677C2.27245 6.41663 1.75012 6.93895 1.75012 7.58328V11.6666C1.75012 12.3109 2.27245 12.8332 2.91677 12.8332H11.0833C11.7276 12.8332 12.25 12.3109 12.25 11.6666V7.58328C12.25 6.93895 11.7276 6.41663 11.0833 6.41663Z" stroke="#99A1AF" stroke-width="1.16006" stroke-linecap="round" stroke-linejoin="round"/>
<path d="M4.08362 6.41668V4.08337C4.08362 3.30984 4.39091 2.56798 4.93788 2.02101C5.48485 1.47404 6.22671 1.16675 7.00025 1.16675C7.77378 1.16675 8.51564 1.47404 9.06261 2.02101C9.60959 2.56798 9.91687 3.30984 9.91687 4.08337V6.41668" stroke="#99A1AF" stroke-width="1.16006" stroke-linecap="round" stroke-linejoin="round"/>
</g>
<defs>
<clipPath id="clip0_542_19962">
<rect width="13.9207" height="13.9207" fill="white" transform="scale(1.00568)"/>
</clipPath>
</defs>
</svg>
