<svg width="16" height="16" viewBox="0 0 16 16" fill="none" xmlns="http://www.w3.org/2000/svg">
<path d="M8 2H3.33333C2.97971 2 2.64057 2.14048 2.39052 2.39052C2.14048 2.64057 2 2.97971 2 3.33333V12.6667C2 13.0203 2.14048 13.3594 2.39052 13.6095C2.64057 13.8595 2.97971 14 3.33333 14H12.6667C13.0203 14 13.3594 13.8595 13.6095 13.6095C13.8595 13.3594 14 13.0203 14 12.6667V8" stroke="white" stroke-width="1.33333" stroke-linecap="round" stroke-linejoin="round"/>
<path d="M12.2494 1.75015C12.5146 1.48493 12.8743 1.33594 13.2494 1.33594C13.6245 1.33594 13.9842 1.48493 14.2494 1.75015C14.5146 2.01537 14.6636 2.37508 14.6636 2.75015C14.6636 3.12522 14.5146 3.48493 14.2494 3.75015L8.24075 9.75948C8.08244 9.91765 7.88688 10.0334 7.67208 10.0962L5.75674 10.6562C5.69938 10.6729 5.63857 10.6739 5.58068 10.6591C5.5228 10.6442 5.46996 10.6141 5.42771 10.5719C5.38546 10.5296 5.35534 10.4768 5.34051 10.4189C5.32568 10.361 5.32668 10.3002 5.34341 10.2428L5.90341 8.32748C5.96643 8.11285 6.08243 7.91752 6.24075 7.75948L12.2494 1.75015Z" stroke="white" stroke-width="1.33333" stroke-linecap="round" stroke-linejoin="round"/>
</svg>
