<svg width="15" height="15" viewBox="0 0 15 15" fill="none" xmlns="http://www.w3.org/2000/svg">
<g clip-path="url(#clip0_542_25648)">
<path d="M9.37445 1.25008H3.74962C3.41811 1.25008 3.10018 1.38178 2.86577 1.61619C2.63135 1.8506 2.49966 2.16854 2.49966 2.50005V12.4997C2.49966 12.8312 2.63135 13.1492 2.86577 13.3836C3.10018 13.618 3.41811 13.7497 3.74962 13.7497H11.2494C11.5809 13.7497 11.8988 13.618 12.1332 13.3836C12.3677 13.1492 12.4993 12.8312 12.4993 12.4997V4.37499L9.37445 1.25008Z" stroke="white" stroke-width="1.19934" stroke-linecap="round" stroke-linejoin="round"/>
<path d="M8.74881 1.25008V3.75001C8.74881 4.08152 8.8805 4.39945 9.11492 4.63386C9.34933 4.86828 9.66726 4.99997 9.99877 4.99997H12.4987" stroke="white" stroke-width="1.19934" stroke-linecap="round" stroke-linejoin="round"/>
<path d="M6.24928 5.62475H4.99932" stroke="white" stroke-width="1.19934" stroke-linecap="round" stroke-linejoin="round"/>
<path d="M9.99917 8.12466H4.99932" stroke="white" stroke-width="1.19934" stroke-linecap="round" stroke-linejoin="round"/>
<path d="M9.99917 10.6246H4.99932" stroke="white" stroke-width="1.19934" stroke-linecap="round" stroke-linejoin="round"/>
</g>
<defs>
<clipPath id="clip0_542_25648">
<rect width="14.3921" height="14.3921" fill="white" transform="scale(1.0422)"/>
</clipPath>
</defs>
</svg>
