<svg width="15" height="15" viewBox="0 0 15 15" fill="none" xmlns="http://www.w3.org/2000/svg">
<g clip-path="url(#clip0_542_23770)">
<path d="M7.49998 13.75C10.9518 13.75 13.75 10.9518 13.75 7.49998C13.75 4.0482 10.9518 1.24998 7.49998 1.24998C4.0482 1.24998 1.24998 4.0482 1.24998 7.49998C1.24998 10.9518 4.0482 13.75 7.49998 13.75Z" stroke="white" stroke-width="1.19924" stroke-linecap="round" stroke-linejoin="round"/>
<path d="M7.49994 11.2499C9.571 11.2499 11.2499 9.571 11.2499 7.49994C11.2499 5.42887 9.571 3.74994 7.49994 3.74994C5.42887 3.74994 3.74994 5.42887 3.74994 7.49994C3.74994 9.571 5.42887 11.2499 7.49994 11.2499Z" stroke="white" stroke-width="1.19924" stroke-linecap="round" stroke-linejoin="round"/>
<path d="M7.49989 8.74989C8.19025 8.74989 8.74989 8.19025 8.74989 7.49989C8.74989 6.80954 8.19025 6.24989 7.49989 6.24989C6.80954 6.24989 6.24989 6.80954 6.24989 7.49989C6.24989 8.19025 6.80954 8.74989 7.49989 8.74989Z" stroke="white" stroke-width="1.19924" stroke-linecap="round" stroke-linejoin="round"/>
</g>
<defs>
<clipPath id="clip0_542_23770">
<rect width="14.3909" height="14.3909" fill="white" transform="scale(1.04233)"/>
</clipPath>
</defs>
</svg>
