<svg width="165" height="40" viewBox="0 0 165 40" fill="none" xmlns="http://www.w3.org/2000/svg">
<path d="M4.51578 19.6229C2.04028 13.16 0.00819508 7.86511 3.40917e-05 7.85414C-0.0081269 7.84317 1.44997 7.8322 3.23995 7.8322C6.31664 7.8322 6.49618 7.83494 6.50979 7.88156C6.51795 7.90624 7.85907 11.4133 9.49127 15.6744C11.1235 19.9355 12.4646 23.4316 12.4755 23.4425C12.4836 23.4535 13.8411 19.9492 18.4792 7.84591H27.7148C35.1848 7.84591 36.9993 7.85414 37.2196 7.88156C37.3692 7.90349 37.6467 7.95011 37.8317 7.9885C38.0194 8.02689 38.3105 8.09818 38.4791 8.15028C38.6478 8.20238 38.9089 8.2956 39.064 8.35593C39.2163 8.419 39.502 8.54787 39.6951 8.64658C39.891 8.7453 40.1548 8.89336 40.28 8.97837C40.4078 9.06063 40.6227 9.21144 40.756 9.3129C40.892 9.41435 41.1178 9.60081 41.2593 9.72968C41.4035 9.85856 41.6293 10.0916 41.7626 10.2452C41.8986 10.3987 42.1053 10.662 42.225 10.832C42.3447 10.9992 42.5188 11.2734 42.6113 11.4407C42.7038 11.6052 42.8344 11.8685 42.8996 12.0275C42.9677 12.1865 43.071 12.469 43.1309 12.6582C43.1934 12.8474 43.2723 13.1545 43.3104 13.3437C43.3485 13.5329 43.392 13.8235 43.4084 13.988C43.4247 14.1553 43.4356 14.6297 43.4356 15.0437C43.4356 15.4578 43.4247 15.9404 43.4084 16.1131C43.3947 16.2859 43.3567 16.571 43.3267 16.7438C43.2968 16.9165 43.2288 17.2264 43.1744 17.4293C43.1227 17.6322 43.0166 17.9667 42.9432 18.1696C42.867 18.3725 42.7092 18.7372 42.5923 18.9785C42.4753 19.2198 42.2767 19.5735 42.1516 19.76C42.0291 19.9492 41.8224 20.2399 41.6945 20.4044C41.5694 20.5689 41.3055 20.8678 41.1097 21.0652C40.9165 21.2626 40.6418 21.5231 40.4976 21.641C40.3561 21.7589 40.2392 21.8741 40.2419 21.8988C40.2419 21.9207 41.0253 23.9855 41.9829 26.4834C42.9377 28.9842 43.7321 31.027 43.7457 31.0215C43.7593 31.0188 45.7669 25.8034 52.6493 7.84591L59.1455 7.8322L63.7564 19.8724C66.2945 26.4917 68.3701 31.9209 68.3755 31.9346C68.3783 31.9538 67.2439 31.9593 61.8957 31.9483L60.7341 28.9184C60.0949 27.2512 59.5481 25.8308 59.4719 25.6307L57.7037 26.7412L57.2673 27.016C56.5024 27.4976 55.9256 27.8608 55.9164 27.8654C55.9056 27.8709 55.8947 26.6123 55.8947 22.2552L57.7445 21.1036L57.146 19.5489L57.0442 19.2842C56.7359 18.4828 56.3855 17.5723 56.2266 17.1606C56.0525 16.7054 55.9028 16.3325 55.8947 16.3325C55.8892 16.3325 54.5345 19.8505 49.8963 31.962L37.6004 31.9647L36.3083 28.5893C35.3099 25.9844 35.008 25.2166 34.9753 25.2276C34.9536 25.2331 33.9933 25.8308 30.7452 27.8737L30.7316 31.962H24.2572L24.2599 20.8925C24.2599 11.8328 24.2545 9.82565 24.2246 9.85307C24.2055 9.86953 22.2877 14.8518 15.729 31.962H9.241L9.12946 31.6686C9.06962 31.5068 6.994 26.0859 4.51578 19.6229Z" fill="white"/>
<path d="M86.5722 9.95913H85.1384C85.0536 9.54672 84.9052 9.18441 84.6933 8.87221C84.4851 8.56002 84.2307 8.29792 83.9301 8.08594C83.6333 7.8701 83.3038 7.70821 82.9415 7.60029C82.5792 7.49237 82.2015 7.43841 81.8083 7.43841C81.0914 7.43841 80.442 7.61957 79.86 7.98187C79.2818 8.34417 78.8212 8.87799 78.4782 9.58333C78.139 10.2887 77.9694 11.154 77.9694 12.1792C77.9694 13.2044 78.139 14.0697 78.4782 14.7751C78.8212 15.4804 79.2818 16.0142 79.86 16.3765C80.442 16.7388 81.0914 16.92 81.8083 16.92C82.2015 16.92 82.5792 16.866 82.9415 16.7581C83.3038 16.6502 83.6333 16.4902 83.9301 16.2783C84.2307 16.0624 84.4851 15.7984 84.6933 15.4862C84.9052 15.1701 85.0536 14.8078 85.1384 14.3993H86.5722C86.4643 15.0044 86.2677 15.5459 85.9825 16.0239C85.6973 16.5018 85.3427 16.9084 84.9187 17.2438C84.4948 17.5752 84.0188 17.8277 83.4907 18.0011C82.9665 18.1746 82.4057 18.2613 81.8083 18.2613C80.7985 18.2613 79.9004 18.0146 79.1142 17.5213C78.3279 17.0279 77.7093 16.3264 77.2583 15.4168C76.8074 14.5072 76.5819 13.428 76.5819 12.1792C76.5819 10.9304 76.8074 9.85121 77.2583 8.94159C77.7093 8.03198 78.3279 7.33049 79.1142 6.83714C79.9004 6.34379 80.7985 6.09712 81.8083 6.09712C82.4057 6.09712 82.9665 6.18384 83.4907 6.35728C84.0188 6.53073 84.4948 6.78511 84.9187 7.12043C85.3427 7.4519 85.6973 7.8566 85.9825 8.33454C86.2677 8.80862 86.4643 9.35015 86.5722 9.95913ZM88.3067 18.0994V9.2191H89.6248V10.5604H89.7173C89.8792 10.121 90.1721 9.76448 90.5961 9.49083C91.0201 9.21717 91.498 9.08035 92.0299 9.08035C92.1301 9.08035 92.2554 9.08227 92.4057 9.08613C92.556 9.08998 92.6697 9.09576 92.7468 9.10347V10.491C92.7006 10.4795 92.5946 10.4621 92.4288 10.439C92.267 10.412 92.0954 10.3985 91.9143 10.3985C91.4826 10.3985 91.0972 10.4891 90.758 10.6702C90.4227 10.8475 90.1567 11.0942 89.9602 11.4103C89.7674 11.7225 89.6711 12.079 89.6711 12.4798V18.0994H88.3067ZM93.9667 18.0994V9.2191H95.3311V18.0994H93.9667ZM94.6605 7.73905C94.3945 7.73905 94.1652 7.64847 93.9725 7.46732C93.7836 7.28617 93.6892 7.0684 93.6892 6.81402C93.6892 6.55963 93.7836 6.34186 93.9725 6.16071C94.1652 5.97956 94.3945 5.88898 94.6605 5.88898C94.9264 5.88898 95.1538 5.97956 95.3427 6.16071C95.5354 6.34186 95.6318 6.55963 95.6318 6.81402C95.6318 7.0684 95.5354 7.28617 95.3427 7.46732C95.1538 7.64847 94.9264 7.73905 94.6605 7.73905ZM101.04 18.2844C100.208 18.2844 99.4909 18.0878 98.8896 17.6947C98.2883 17.3016 97.8258 16.76 97.5021 16.0701C97.1783 15.3802 97.0164 14.592 97.0164 13.7055C97.0164 12.8036 97.1822 12.0077 97.5136 11.3178C97.8489 10.624 98.3153 10.0825 98.9127 9.69318C99.514 9.30004 100.215 9.10347 101.017 9.10347C101.642 9.10347 102.204 9.2191 102.705 9.45036C103.206 9.68162 103.617 10.0054 103.937 10.4216C104.257 10.8379 104.455 11.3235 104.532 11.8786H103.168C103.064 11.4739 102.833 11.1154 102.474 10.8032C102.12 10.4872 101.642 10.3291 101.04 10.3291C100.508 10.3291 100.042 10.4679 99.6412 10.7454C99.2442 11.0191 98.9339 11.4064 98.7104 11.9075C98.4907 12.4047 98.3808 12.9886 98.3808 13.6593C98.3808 14.3453 98.4888 14.9427 98.7046 15.4515C98.9243 15.9603 99.2326 16.3553 99.6296 16.6367C100.03 16.9181 100.501 17.0587 101.04 17.0587C101.395 17.0587 101.717 16.9971 102.006 16.8737C102.295 16.7504 102.54 16.5731 102.74 16.3418C102.94 16.1106 103.083 15.8331 103.168 15.5093H104.532C104.455 16.0335 104.264 16.5057 103.96 16.9258C103.659 17.342 103.26 17.6735 102.763 17.9202C102.27 18.163 101.696 18.2844 101.04 18.2844ZM107.401 14.8618L107.378 13.1736H107.656L111.541 9.2191H113.229L109.09 13.4049H108.974L107.401 14.8618ZM106.129 18.0994V6.259H107.494V18.0994H106.129ZM111.772 18.0994L108.303 13.7055L109.275 12.7573L113.507 18.0994H111.772ZM117.945 18.2844C117.09 18.2844 116.352 18.0956 115.731 17.7178C115.114 17.3363 114.638 16.8044 114.303 16.1222C113.971 15.4361 113.806 14.6382 113.806 13.7286C113.806 12.819 113.971 12.0173 114.303 11.3235C114.638 10.6259 115.105 10.0825 115.702 9.69318C116.303 9.30004 117.005 9.10347 117.807 9.10347C118.269 9.10347 118.726 9.18056 119.177 9.33473C119.628 9.4889 120.038 9.73943 120.408 10.0863C120.778 10.4294 121.073 10.8842 121.293 11.4507C121.512 12.0173 121.622 12.715 121.622 13.5436V14.1218H114.777V12.9424H120.235C120.235 12.4413 120.135 11.9942 119.934 11.6011C119.738 11.2079 119.456 10.8976 119.09 10.6702C118.728 10.4428 118.3 10.3291 117.807 10.3291C117.263 10.3291 116.793 10.464 116.396 10.7338C116.003 10.9998 115.7 11.3467 115.488 11.7745C115.276 12.2023 115.17 12.661 115.17 13.1505V13.9368C115.17 14.6074 115.286 15.1759 115.517 15.6423C115.752 16.1048 116.078 16.4575 116.494 16.7003C116.91 16.9393 117.394 17.0587 117.945 17.0587C118.304 17.0587 118.627 17.0086 118.917 16.9084C119.209 16.8044 119.462 16.6502 119.674 16.4459C119.886 16.2378 120.05 15.9795 120.165 15.6712L121.484 16.0412C121.345 16.4883 121.112 16.8815 120.784 17.2206C120.456 17.556 120.052 17.818 119.57 18.0069C119.088 18.1919 118.547 18.2844 117.945 18.2844ZM127.162 9.2191V10.3754H122.56V9.2191H127.162ZM123.902 7.09153H125.266V15.5556C125.266 15.941 125.322 16.2301 125.434 16.4228C125.549 16.6116 125.696 16.7388 125.873 16.8044C126.054 16.866 126.245 16.8969 126.445 16.8969C126.596 16.8969 126.719 16.8892 126.815 16.8737C126.912 16.8545 126.989 16.8391 127.047 16.8275L127.324 18.0532C127.232 18.0878 127.103 18.1225 126.937 18.1572C126.771 18.1958 126.561 18.215 126.307 18.215C125.921 18.215 125.544 18.1322 125.174 17.9664C124.807 17.8007 124.503 17.5482 124.26 17.2091C124.021 16.8699 123.902 16.4421 123.902 15.9256V7.09153ZM142.712 9.95913H141.278C141.193 9.54672 141.045 9.18441 140.833 8.87221C140.624 8.56002 140.37 8.29792 140.069 8.08594C139.773 7.8701 139.443 7.70821 139.081 7.60029C138.719 7.49237 138.341 7.43841 137.948 7.43841C137.231 7.43841 136.581 7.61957 135.999 7.98187C135.421 8.34417 134.961 8.87799 134.618 9.58333C134.278 10.2887 134.109 11.154 134.109 12.1792C134.109 13.2044 134.278 14.0697 134.618 14.7751C134.961 15.4804 135.421 16.0142 135.999 16.3765C136.581 16.7388 137.231 16.92 137.948 16.92C138.341 16.92 138.719 16.866 139.081 16.7581C139.443 16.6502 139.773 16.4902 140.069 16.2783C140.37 16.0624 140.624 15.7984 140.833 15.4862C141.045 15.1701 141.193 14.8078 141.278 14.3993H142.712C142.604 15.0044 142.407 15.5459 142.122 16.0239C141.837 16.5018 141.482 16.9084 141.058 17.2438C140.634 17.5752 140.158 17.8277 139.63 18.0011C139.106 18.1746 138.545 18.2613 137.948 18.2613C136.938 18.2613 136.04 18.0146 135.253 17.5213C134.467 17.0279 133.849 16.3264 133.398 15.4168C132.947 14.5072 132.721 13.428 132.721 12.1792C132.721 10.9304 132.947 9.85121 133.398 8.94159C133.849 8.03198 134.467 7.33049 135.253 6.83714C136.04 6.34379 136.938 6.09712 137.948 6.09712C138.545 6.09712 139.106 6.18384 139.63 6.35728C140.158 6.53073 140.634 6.78511 141.058 7.12043C141.482 7.4519 141.837 7.8566 142.122 8.33454C142.407 8.80862 142.604 9.35015 142.712 9.95913ZM145.81 6.259V18.0994H144.446V6.259H145.81ZM153.508 14.4687V9.2191H154.873V18.0994H153.508V16.5962H153.416C153.208 17.0472 152.884 17.4307 152.445 17.7467C152.005 18.0589 151.45 18.215 150.78 18.215C150.225 18.215 149.731 18.0936 149.3 17.8508C148.868 17.6041 148.529 17.2341 148.282 16.7408C148.035 16.2436 147.912 15.6172 147.912 14.8618V9.2191H149.276V14.7693C149.276 15.4168 149.458 15.9333 149.82 16.3187C150.186 16.7042 150.652 16.8969 151.219 16.8969C151.558 16.8969 151.903 16.8101 152.254 16.6367C152.608 16.4633 152.905 16.1973 153.144 15.8389C153.387 15.4804 153.508 15.0237 153.508 14.4687ZM157.159 18.0994V6.259H158.524V10.6298H158.639C158.74 10.4756 158.878 10.279 159.056 10.0401C159.237 9.79725 159.495 9.5814 159.83 9.39254C160.17 9.19983 160.628 9.10347 161.206 9.10347C161.954 9.10347 162.613 9.29041 163.184 9.66427C163.754 10.0381 164.199 10.5681 164.519 11.2542C164.839 11.9402 164.999 12.7496 164.999 13.6824C164.999 14.6228 164.839 15.438 164.519 16.1279C164.199 16.814 163.756 17.3459 163.189 17.7236C162.623 18.0975 161.97 18.2844 161.23 18.2844C160.659 18.2844 160.202 18.19 159.859 18.0011C159.516 17.8084 159.252 17.5906 159.067 17.3478C158.882 17.1011 158.74 16.8969 158.639 16.735H158.478V18.0994H157.159ZM158.501 13.6593C158.501 14.3299 158.599 14.9215 158.796 15.4342C158.992 15.9429 159.279 16.3418 159.657 16.6309C160.035 16.9161 160.497 17.0587 161.045 17.0587C161.615 17.0587 162.091 16.9084 162.473 16.6078C162.858 16.3033 163.147 15.8947 163.34 15.3821C163.536 14.8657 163.635 14.2914 163.635 13.6593C163.635 13.0349 163.538 12.4721 163.346 11.9711C163.157 11.4662 162.87 11.0672 162.484 10.7743C162.103 10.4775 161.623 10.3291 161.045 10.3291C160.49 10.3291 160.023 10.4698 159.645 10.7512C159.268 11.0287 158.982 11.418 158.79 11.919C158.597 12.4162 158.501 12.9963 158.501 13.6593Z" fill="white"/>
<path d="M77.572 24.3694H78.7129L81.3955 30.9217H81.488L84.1706 24.3694H85.3114V32.263H84.4172V26.2657H84.3401L81.8734 32.263H81.01L78.5433 26.2657H78.4662V32.263H77.572V24.3694ZM89.5868 32.3864C89.0164 32.3864 88.5243 32.2604 88.1106 32.0086C87.6995 31.7542 87.3821 31.3997 87.1586 30.9448C86.9376 30.4875 86.8271 29.9556 86.8271 29.3492C86.8271 28.7428 86.9376 28.2083 87.1586 27.7458C87.3821 27.2807 87.6931 26.9184 88.0913 26.6589C88.4922 26.3968 88.9598 26.2657 89.4943 26.2657C89.8026 26.2657 90.1071 26.3171 90.4078 26.4199C90.7084 26.5227 90.9821 26.6897 91.2287 26.921C91.4754 27.1496 91.672 27.4529 91.8184 27.8306C91.9649 28.2083 92.0381 28.6734 92.0381 29.2258V29.6113H87.4746V28.825H91.1131C91.1131 28.4909 91.0463 28.1929 90.9127 27.9308C90.7816 27.6687 90.5941 27.4618 90.35 27.3102C90.1084 27.1586 89.8232 27.0828 89.4943 27.0828C89.132 27.0828 88.8185 27.1728 88.5539 27.3526C88.2918 27.5299 88.0901 27.7612 87.9487 28.0464C87.8074 28.3316 87.7367 28.6374 87.7367 28.9637V29.4879C87.7367 29.935 87.8138 30.314 87.968 30.6249C88.1247 30.9333 88.3419 31.1684 88.6194 31.3303C88.8969 31.4896 89.2194 31.5692 89.5868 31.5692C89.8258 31.5692 90.0416 31.5358 90.2343 31.469C90.4296 31.3997 90.5979 31.2969 90.7392 31.1607C90.8806 31.0219 90.9898 30.8498 91.0669 30.6442L91.9456 30.8909C91.8531 31.189 91.6977 31.451 91.4793 31.6772C91.2609 31.9007 90.9911 32.0754 90.6699 32.2013C90.3487 32.3247 89.9877 32.3864 89.5868 32.3864ZM93.4218 32.263V26.3428H94.3006V27.2678H94.3777C94.501 26.9518 94.7002 26.7064 94.9751 26.5317C95.2501 26.3544 95.5802 26.2657 95.9657 26.2657C96.3562 26.2657 96.6813 26.3544 96.9408 26.5317C97.2029 26.7064 97.4072 26.9518 97.5536 27.2678H97.6153C97.7669 26.9621 97.9943 26.7192 98.2975 26.5394C98.6007 26.3569 98.9643 26.2657 99.3883 26.2657C99.9176 26.2657 100.351 26.4315 100.687 26.7629C101.024 27.0918 101.192 27.6045 101.192 28.3008V32.263H100.282V28.3008C100.282 27.864 100.163 27.5518 99.924 27.3642C99.6851 27.1766 99.4037 27.0828 99.0799 27.0828C98.6637 27.0828 98.3412 27.2087 98.1125 27.4606C97.8838 27.7098 97.7695 28.0259 97.7695 28.4087V32.263H96.8445V28.2083C96.8445 27.8717 96.7352 27.6006 96.5168 27.395C96.2984 27.1869 96.0171 27.0828 95.6727 27.0828C95.4364 27.0828 95.2154 27.1458 95.0098 27.2717C94.8068 27.3976 94.6424 27.5723 94.5165 27.7959C94.3931 28.0169 94.3315 28.2725 94.3315 28.5629V32.263H93.4218ZM102.979 32.263V24.3694H103.888V27.2833H103.965C104.032 27.1805 104.125 27.0494 104.243 26.8901C104.364 26.7282 104.536 26.5843 104.759 26.4584C104.985 26.33 105.291 26.2657 105.677 26.2657C106.175 26.2657 106.614 26.3903 106.995 26.6396C107.375 26.8888 107.672 27.2421 107.885 27.6995C108.098 28.1569 108.205 28.6965 108.205 29.3183C108.205 29.9453 108.098 30.4888 107.885 30.9487C107.672 31.4061 107.376 31.7607 106.999 32.0125C106.621 32.2617 106.185 32.3864 105.692 32.3864C105.312 32.3864 105.007 32.3234 104.779 32.1975C104.55 32.069 104.374 31.9238 104.25 31.762C104.127 31.5975 104.032 31.4613 103.965 31.3534H103.857V32.263H102.979ZM103.873 29.3029C103.873 29.75 103.938 30.1444 104.069 30.4862C104.2 30.8254 104.392 31.0913 104.644 31.284C104.895 31.4742 105.204 31.5692 105.569 31.5692C105.949 31.5692 106.266 31.469 106.521 31.2686C106.778 31.0656 106.97 30.7932 107.099 30.4515C107.23 30.1072 107.295 29.7243 107.295 29.3029C107.295 28.8867 107.231 28.5115 107.103 28.1775C106.977 27.8408 106.785 27.5749 106.528 27.3796C106.274 27.1818 105.954 27.0828 105.569 27.0828C105.199 27.0828 104.888 27.1766 104.636 27.3642C104.384 27.5492 104.194 27.8087 104.065 28.1428C103.937 28.4742 103.873 28.861 103.873 29.3029ZM112.079 32.3864C111.508 32.3864 111.016 32.2604 110.602 32.0086C110.191 31.7542 109.874 31.3997 109.65 30.9448C109.429 30.4875 109.319 29.9556 109.319 29.3492C109.319 28.7428 109.429 28.2083 109.65 27.7458C109.874 27.2807 110.185 26.9184 110.583 26.6589C110.984 26.3968 111.452 26.2657 111.986 26.2657C112.294 26.2657 112.599 26.3171 112.9 26.4199C113.2 26.5227 113.474 26.6897 113.721 26.921C113.967 27.1496 114.164 27.4529 114.31 27.8306C114.457 28.2083 114.53 28.6734 114.53 29.2258V29.6113H109.966V28.825H113.605C113.605 28.4909 113.538 28.1929 113.404 27.9308C113.273 27.6687 113.086 27.4618 112.842 27.3102C112.6 27.1586 112.315 27.0828 111.986 27.0828C111.624 27.0828 111.31 27.1728 111.046 27.3526C110.784 27.5299 110.582 27.7612 110.441 28.0464C110.299 28.3316 110.229 28.6374 110.229 28.9637V29.4879C110.229 29.935 110.306 30.314 110.46 30.6249C110.617 30.9333 110.834 31.1684 111.111 31.3303C111.389 31.4896 111.711 31.5692 112.079 31.5692C112.318 31.5692 112.533 31.5358 112.726 31.469C112.921 31.3997 113.09 31.2969 113.231 31.1607C113.372 31.0219 113.482 30.8498 113.559 30.6442L114.437 30.8909C114.345 31.189 114.189 31.451 113.971 31.6772C113.753 31.9007 113.483 32.0754 113.162 32.2013C112.84 32.3247 112.479 32.3864 112.079 32.3864ZM115.914 32.263V26.3428H116.792V27.237H116.854C116.962 26.9441 117.157 26.7064 117.44 26.524C117.723 26.3415 118.041 26.2503 118.396 26.2503C118.463 26.2503 118.546 26.2516 118.646 26.2542C118.747 26.2567 118.822 26.2606 118.874 26.2657V27.1908C118.843 27.183 118.772 27.1715 118.662 27.1561C118.554 27.1381 118.439 27.1291 118.319 27.1291C118.031 27.1291 117.774 27.1895 117.548 27.3102C117.324 27.4284 117.147 27.5929 117.016 27.8036C116.887 28.0117 116.823 28.2494 116.823 28.5166V32.263H115.914ZM123.128 32.263V24.3694H125.795C126.414 24.3694 126.921 24.4812 127.314 24.7047C127.709 24.9257 128.002 25.2251 128.192 25.6028C128.383 25.9805 128.478 26.4019 128.478 26.867C128.478 27.3321 128.383 27.7548 128.192 28.1351C128.005 28.5154 127.715 28.8186 127.321 29.0447C126.928 29.2682 126.425 29.38 125.81 29.38H123.899V28.5321H125.78C126.204 28.5321 126.544 28.4588 126.801 28.3124C127.058 28.1659 127.244 27.968 127.36 27.7188C127.478 27.467 127.537 27.183 127.537 26.867C127.537 26.5509 127.478 26.2683 127.36 26.019C127.244 25.7698 127.057 25.5745 126.797 25.4332C126.538 25.2893 126.193 25.2174 125.764 25.2174H124.084V32.263H123.128ZM132.236 32.3864C131.701 32.3864 131.232 32.2592 130.829 32.0048C130.428 31.7504 130.114 31.3945 129.888 30.9371C129.665 30.4798 129.553 29.9453 129.553 29.3337C129.553 28.7171 129.665 28.1787 129.888 27.7188C130.114 27.2589 130.428 26.9017 130.829 26.6473C131.232 26.3929 131.701 26.2657 132.236 26.2657C132.77 26.2657 133.238 26.3929 133.639 26.6473C134.042 26.9017 134.355 27.2589 134.579 27.7188C134.805 28.1787 134.918 28.7171 134.918 29.3337C134.918 29.9453 134.805 30.4798 134.579 30.9371C134.355 31.3945 134.042 31.7504 133.639 32.0048C133.238 32.2592 132.77 32.3864 132.236 32.3864ZM132.236 31.5692C132.642 31.5692 132.976 31.4652 133.238 31.257C133.5 31.0489 133.694 30.7753 133.82 30.4361C133.946 30.0969 134.009 29.7295 134.009 29.3337C134.009 28.938 133.946 28.5693 133.82 28.2276C133.694 27.8858 133.5 27.6096 133.238 27.3989C132.976 27.1882 132.642 27.0828 132.236 27.0828C131.83 27.0828 131.496 27.1882 131.233 27.3989C130.971 27.6096 130.777 27.8858 130.651 28.2276C130.526 28.5693 130.463 28.938 130.463 29.3337C130.463 29.7295 130.526 30.0969 130.651 30.4361C130.777 30.7753 130.971 31.0489 131.233 31.257C131.496 31.4652 131.83 31.5692 132.236 31.5692ZM136.307 32.263V26.3428H137.185V27.237H137.247C137.355 26.9441 137.55 26.7064 137.833 26.524C138.116 26.3415 138.434 26.2503 138.789 26.2503C138.856 26.2503 138.939 26.2516 139.039 26.2542C139.14 26.2567 139.215 26.2606 139.267 26.2657V27.1908C139.236 27.183 139.165 27.1715 139.055 27.1561C138.947 27.1381 138.833 27.1291 138.712 27.1291C138.424 27.1291 138.167 27.1895 137.941 27.3102C137.717 27.4284 137.54 27.5929 137.409 27.8036C137.281 28.0117 137.216 28.2494 137.216 28.5166V32.263H136.307ZM143.291 26.3428V27.1137H140.223V26.3428H143.291ZM141.117 24.9244H142.026V30.5671C142.026 30.8241 142.064 31.0168 142.138 31.1453C142.215 31.2712 142.313 31.356 142.431 31.3997C142.552 31.4408 142.679 31.4613 142.813 31.4613C142.913 31.4613 142.995 31.4562 143.059 31.4459C143.124 31.4331 143.175 31.4228 143.214 31.4151L143.399 32.2322C143.337 32.2553 143.251 32.2784 143.14 32.3016C143.03 32.3273 142.89 32.3401 142.72 32.3401C142.463 32.3401 142.212 32.2849 141.965 32.1744C141.721 32.0639 141.518 31.8956 141.356 31.6695C141.197 31.4433 141.117 31.1581 141.117 30.8138V24.9244ZM146.401 32.4018C146.026 32.4018 145.686 32.3311 145.38 32.1898C145.074 32.0459 144.831 31.839 144.651 31.5692C144.471 31.2969 144.381 30.968 144.381 30.5825C144.381 30.2434 144.448 29.9684 144.582 29.7577C144.716 29.5445 144.894 29.3774 145.118 29.2567C145.341 29.1359 145.588 29.046 145.858 28.9869C146.13 28.9252 146.404 28.8764 146.679 28.8404C147.038 28.7941 147.33 28.7595 147.554 28.7363C147.78 28.7106 147.944 28.6682 148.047 28.6091C148.152 28.55 148.205 28.4473 148.205 28.3008V28.27C148.205 27.8897 148.101 27.5942 147.893 27.3835C147.687 27.1728 147.375 27.0674 146.956 27.0674C146.522 27.0674 146.181 27.1625 145.935 27.3526C145.688 27.5428 145.515 27.7458 145.414 27.9616L144.551 27.6533C144.705 27.2935 144.911 27.0135 145.168 26.813C145.427 26.61 145.71 26.4687 146.016 26.3891C146.324 26.3068 146.627 26.2657 146.925 26.2657C147.115 26.2657 147.334 26.2889 147.581 26.3351C147.83 26.3788 148.07 26.47 148.301 26.6088C148.535 26.7475 148.729 26.9569 148.883 27.237C149.037 27.5171 149.115 27.8922 149.115 28.3625V32.263H148.205V31.4613H148.159C148.097 31.5898 147.994 31.7273 147.85 31.8737C147.706 32.0202 147.515 32.1448 147.276 32.2476C147.037 32.3504 146.745 32.4018 146.401 32.4018ZM146.54 31.5847C146.9 31.5847 147.203 31.514 147.449 31.3727C147.699 31.2313 147.886 31.0489 148.012 30.8254C148.141 30.6018 148.205 30.3667 148.205 30.12V29.2875C148.166 29.3337 148.082 29.3761 147.951 29.4147C147.822 29.4507 147.673 29.4828 147.503 29.511C147.336 29.5367 147.173 29.5599 147.014 29.5804C146.857 29.5984 146.73 29.6138 146.632 29.6267C146.396 29.6575 146.175 29.7076 145.969 29.777C145.766 29.8438 145.602 29.9453 145.476 30.0815C145.353 30.2151 145.291 30.3975 145.291 30.6288C145.291 30.9448 145.408 31.1838 145.642 31.3457C145.878 31.505 146.178 31.5847 146.54 31.5847ZM151.684 24.3694V32.263H150.775V24.3694H151.684Z" fill="white"/>
<path d="M30.291 23.1319C30.2706 23.1319 30.2619 21.4353 30.2619 18.1043V13.0767H32.2447C33.4513 13.0767 34.3613 13.0886 34.5648 13.1093C34.7479 13.1271 35.0096 13.1746 35.1462 13.2131C35.2829 13.2547 35.498 13.3377 35.6259 13.397C35.7539 13.4593 35.9428 13.5691 36.0475 13.6403C36.1522 13.7115 36.3063 13.839 36.3935 13.9191C36.4807 14.0021 36.629 14.1712 36.7249 14.2928C36.8209 14.4144 36.943 14.6072 37.0011 14.7229C37.0564 14.8386 37.1261 15.0047 37.1581 15.0937C37.1872 15.1827 37.2337 15.3488 37.257 15.4645C37.2831 15.592 37.3006 15.8293 37.3006 16.0873C37.3006 16.3217 37.2802 16.6123 37.257 16.7547C37.2337 16.8941 37.1785 17.1255 37.1378 17.2738C37.0942 17.4221 37.0215 17.6416 36.975 17.7632C36.9255 17.8848 36.8209 18.1132 36.7424 18.2675C36.661 18.4217 36.5214 18.656 36.4313 18.7836C36.3412 18.9141 36.1347 19.1573 35.9748 19.3293C35.8149 19.4984 35.5678 19.7298 35.4224 19.8425C35.2771 19.9522 34.0705 20.7383 32.7419 21.5866C31.4103 22.4379 30.3055 23.1319 30.291 23.1319Z" fill="#181818"/>
</svg>
