<svg width="15" height="15" viewBox="0 0 15 15" fill="none" xmlns="http://www.w3.org/2000/svg">
<g clip-path="url(#clip0_542_25513)">
<path d="M9.37445 1.24996H3.74962C3.41811 1.24996 3.10018 1.38165 2.86577 1.61606C2.63135 1.85048 2.49966 2.16841 2.49966 2.49992V12.4996C2.49966 12.8311 2.63135 13.149 2.86577 13.3835C3.10018 13.6179 3.41811 13.7496 3.74962 13.7496H11.2494C11.5809 13.7496 11.8988 13.6179 12.1332 13.3835C12.3677 13.149 12.4993 12.8311 12.4993 12.4996V4.37486L9.37445 1.24996Z" stroke="white" stroke-width="1.19934" stroke-linecap="round" stroke-linejoin="round"/>
<path d="M8.74983 1.24996V3.74988C8.74983 4.08139 8.88152 4.39932 9.11594 4.63374C9.35035 4.86815 9.66828 4.99984 9.99979 4.99984H12.4997" stroke="white" stroke-width="1.19934" stroke-linecap="round" stroke-linejoin="round"/>
<path d="M6.2503 5.62487H5.00034" stroke="white" stroke-width="1.19934" stroke-linecap="round" stroke-linejoin="round"/>
<path d="M10.0002 8.12479H5.00034" stroke="white" stroke-width="1.19934" stroke-linecap="round" stroke-linejoin="round"/>
<path d="M10.0002 10.6247H5.00034" stroke="white" stroke-width="1.19934" stroke-linecap="round" stroke-linejoin="round"/>
</g>
<defs>
<clipPath id="clip0_542_25513">
<rect width="14.3921" height="14.3921" fill="white" transform="scale(1.0422)"/>
</clipPath>
</defs>
</svg>
