<svg width="15" height="15" viewBox="0 0 15 15" fill="none" xmlns="http://www.w3.org/2000/svg">
<path d="M12.4993 6.24967C12.4993 9.3702 9.03758 12.6201 7.87512 13.6238C7.76682 13.7053 7.635 13.7493 7.49951 13.7493C7.36401 13.7493 7.23219 13.7053 7.12389 13.6238C5.96143 12.6201 2.49966 9.3702 2.49966 6.24967C2.49966 4.92363 3.02643 3.6519 3.96408 2.71425C4.90173 1.7766 6.17346 1.24983 7.49951 1.24983C8.82555 1.24983 10.0973 1.7766 11.0349 2.71425C11.9726 3.6519 12.4993 4.92363 12.4993 6.24967Z" stroke="white" stroke-width="1.19934" stroke-linecap="round" stroke-linejoin="round"/>
<path d="M7.5002 8.1248C8.5357 8.1248 9.37514 7.28536 9.37514 6.24986C9.37514 5.21436 8.5357 4.37492 7.5002 4.37492C6.46469 4.37492 5.62525 5.21436 5.62525 6.24986C5.62525 7.28536 6.46469 8.1248 7.5002 8.1248Z" stroke="white" stroke-width="1.19934" stroke-linecap="round" stroke-linejoin="round"/>
</svg>
