<svg width="18" height="18" viewBox="0 0 18 18" fill="none" xmlns="http://www.w3.org/2000/svg">
<g clip-path="url(#clip0_542_25151)">
<path d="M16.2974 13.5L10.2974 2.99999C10.1666 2.76914 9.97688 2.57713 9.74762 2.44354C9.51836 2.30995 9.25776 2.23956 8.99242 2.23956C8.72708 2.23956 8.46649 2.30995 8.23723 2.44354C8.00797 2.57713 7.81825 2.76914 7.68742 2.99999L1.68742 13.5C1.55518 13.729 1.48584 13.9889 1.48643 14.2534C1.48701 14.5178 1.55751 14.7774 1.69076 15.0059C1.82401 15.2343 2.01528 15.4234 2.24519 15.5541C2.4751 15.6848 2.73548 15.7524 2.99992 15.75H14.9999C15.2631 15.7497 15.5216 15.6802 15.7494 15.5484C15.9772 15.4167 16.1663 15.2273 16.2978 14.9993C16.4293 14.7713 16.4985 14.5128 16.4984 14.2496C16.4983 13.9864 16.429 13.7279 16.2974 13.5Z" stroke="#FB2C36" stroke-width="1.4388" stroke-linecap="round" stroke-linejoin="round"/>
<path d="M9 6.75V9.75" stroke="#FB2C36" stroke-width="1.4388" stroke-linecap="round" stroke-linejoin="round"/>
<path d="M9 12.7499H9.0075" stroke="#FB2C36" stroke-width="1.4388" stroke-linecap="round" stroke-linejoin="round"/>
</g>
<defs>
<clipPath id="clip0_542_25151">
<rect width="17.2656" height="17.2656" fill="white" transform="scale(1.04253)"/>
</clipPath>
</defs>
</svg>
