<svg width="18" height="18" viewBox="0 0 18 18" fill="none" xmlns="http://www.w3.org/2000/svg">
<g clip-path="url(#clip0_542_24723)">
<path d="M8.99981 16.5C13.1419 16.5 16.4998 13.1422 16.4998 9.00005C16.4998 4.85793 13.1419 1.50008 8.99981 1.50008C4.85769 1.50008 1.49984 4.85793 1.49984 9.00005C1.49984 13.1422 4.85769 16.5 8.99981 16.5Z" stroke="#155DFC" stroke-width="1.49918" stroke-linecap="round" stroke-linejoin="round"/>
<path d="M8.99949 13.5C11.4848 13.5 13.4995 11.4853 13.4995 8.99998C13.4995 6.51471 11.4848 4.5 8.99949 4.5C6.51422 4.5 4.49951 6.51471 4.49951 8.99998C4.49951 11.4853 6.51422 13.5 8.99949 13.5Z" stroke="#155DFC" stroke-width="1.49918" stroke-linecap="round" stroke-linejoin="round"/>
<path d="M9.00016 10.4999C9.82858 10.4999 10.5002 9.82834 10.5002 8.99991C10.5002 8.17149 9.82858 7.49992 9.00016 7.49992C8.17173 7.49992 7.50016 8.17149 7.50016 8.99991C7.50016 9.82834 8.17173 10.4999 9.00016 10.4999Z" stroke="#155DFC" stroke-width="1.49918" stroke-linecap="round" stroke-linejoin="round"/>
</g>
<defs>
<clipPath id="clip0_542_24723">
<rect width="17.9902" height="17.9902" fill="white" transform="scale(1.00054)"/>
</clipPath>
</defs>
</svg>
