<svg width="16" height="16" viewBox="0 0 16 16" fill="none" xmlns="http://www.w3.org/2000/svg">
<g clip-path="url(#clip0_542_25793)">
<path d="M10.6663 6.66675C10.6663 7.37399 10.3854 8.05227 9.88529 8.55237C9.3852 9.05246 8.70692 9.33341 7.99967 9.33341C7.29243 9.33341 6.61415 9.05246 6.11406 8.55237C5.61396 8.05227 5.33301 7.37399 5.33301 6.66675" stroke="white" stroke-width="1.33333" stroke-linecap="round" stroke-linejoin="round"/>
<path d="M2.06836 4.02271H13.931" stroke="white" stroke-width="1.33333" stroke-linecap="round" stroke-linejoin="round"/>
<path d="M2.26667 3.64459C2.09357 3.87538 2 4.15609 2 4.44458V13.3333C2 13.6869 2.14048 14.026 2.39052 14.2761C2.64057 14.5261 2.97971 14.6666 3.33333 14.6666H12.6667C13.0203 14.6666 13.3594 14.5261 13.6095 14.2761C13.8595 14.026 14 13.6869 14 13.3333V4.44458C14 4.15609 13.9064 3.87538 13.7333 3.64459L12.4 1.86659C12.2758 1.70099 12.1148 1.56659 11.9296 1.47402C11.7445 1.38145 11.5403 1.33325 11.3333 1.33325H4.66667C4.45967 1.33325 4.25552 1.38145 4.07038 1.47402C3.88524 1.56659 3.7242 1.70099 3.6 1.86659L2.26667 3.64459Z" stroke="white" stroke-width="1.33333" stroke-linecap="round" stroke-linejoin="round"/>
</g>
<defs>
<clipPath id="clip0_542_25793">
<rect width="16" height="16" fill="white"/>
</clipPath>
</defs>
</svg>
