<svg width="69" height="69" viewBox="0 0 69 69" fill="none" xmlns="http://www.w3.org/2000/svg">
<path d="M45.999 60.3755V54.6255C45.999 51.5755 44.7874 48.6504 42.6308 46.4938C40.4741 44.3371 37.549 43.1255 34.499 43.1255H17.249C14.199 43.1255 11.274 44.3371 9.1173 46.4938C6.96063 48.6504 5.74902 51.5755 5.74902 54.6255V60.3755" stroke="#2B7FFF" stroke-width="2.39869" stroke-linecap="round" stroke-linejoin="round"/>
<path d="M46 8.99316C48.466 9.63248 50.65 11.0725 52.2091 13.0873C53.7682 15.1021 54.6141 17.5776 54.6141 20.1252C54.6141 22.6727 53.7682 25.1482 52.2091 27.163C50.65 29.1778 48.466 30.6178 46 31.2572" stroke="#2B7FFF" stroke-width="2.39869" stroke-linecap="round" stroke-linejoin="round"/>
<path d="M63.25 60.3748V54.6248C63.2481 52.0768 62.4 49.6015 60.8389 47.5877C59.2778 45.5739 57.0921 44.1355 54.625 43.4985" stroke="#2B7FFF" stroke-width="2.39869" stroke-linecap="round" stroke-linejoin="round"/>
<path d="M25.874 31.6255C32.2253 31.6255 37.374 26.4768 37.374 20.1255C37.374 13.7742 32.2253 8.62549 25.874 8.62549C19.5227 8.62549 14.374 13.7742 14.374 20.1255C14.374 26.4768 19.5227 31.6255 25.874 31.6255Z" stroke="#2B7FFF" stroke-width="2.39869" stroke-linecap="round" stroke-linejoin="round"/>
</svg>
