<svg width="12" height="16" viewBox="0 0 12 16" fill="none" xmlns="http://www.w3.org/2000/svg">
<path d="M3.37521 9.3745C3.87247 9.3745 4.34935 9.17696 4.70096 8.82535C5.05257 8.47374 5.2501 7.99686 5.2501 7.49961C5.2501 6.46467 4.87513 5.99969 4.50015 5.24974C3.69619 3.64258 4.33216 2.20941 6.00006 0.75C6.37504 2.62489 7.49997 4.42479 8.99988 5.62472C10.4998 6.82465 11.2498 8.24956 11.2498 9.74947C11.2498 10.4389 11.114 11.1215 10.8501 11.7584C10.5863 12.3954 10.1996 12.9741 9.71215 13.4616C9.22467 13.949 8.64595 14.3357 8.00903 14.5996C7.37211 14.8634 6.68946 14.9992 6.00006 14.9992C5.31066 14.9992 4.62801 14.8634 3.99109 14.5996C3.35417 14.3357 2.77545 13.949 2.28797 13.4616C1.80049 12.9741 1.4138 12.3954 1.14998 11.7584C0.886154 11.1215 0.750366 10.4389 0.750366 9.74947C0.750366 8.88478 1.0751 8.02908 1.50032 7.49961C1.50032 7.99686 1.69786 8.47374 2.04947 8.82535C2.40108 9.17696 2.87796 9.3745 3.37521 9.3745Z" stroke="#FF8904" stroke-width="1.49918" stroke-linecap="round" stroke-linejoin="round"/>
</svg>
