<svg width="169" height="24" viewBox="0 0 169 24" fill="none" xmlns="http://www.w3.org/2000/svg">
<path d="M18.0342 8.07227C20.4286 8.07233 21.7351 8.85001 22.4824 10.0371C23.2632 11.2774 23.5 13.0607 23.5 15.208V23.5H19.5283V16.2041C19.5283 15.2967 19.5265 14.1331 19.1582 13.1982C18.9683 12.7163 18.6726 12.2693 18.2109 11.9463C17.7483 11.6227 17.1621 11.4532 16.4443 11.4531C15.7322 11.4531 15.1343 11.5928 14.6436 11.8652C14.1499 12.1393 13.7944 12.5318 13.5439 12.9873C13.056 13.8748 12.9609 15.0161 12.9609 16.0703V23.5H8.98926V8.46875H12.7598V10.6611H13.6299L13.7705 10.3936C14.3523 9.28917 15.8097 8.07227 18.0342 8.07227ZM4.87012 8.46875V23.5H0.894531V8.46875H4.87012ZM2.88281 0.5C4.19548 0.500224 5.26465 1.57013 5.26465 2.89062C5.26442 4.20914 4.19552 5.2781 2.88281 5.27832C1.56661 5.27832 0.500226 4.20971 0.5 2.89062C0.5 1.56957 1.56665 0.5 2.88281 0.5Z" fill="#202020" stroke="black"/>
<path fill-rule="evenodd" clip-rule="evenodd" d="M55.6781 0H69.6558C72.4138 0 74.667 2.2533 74.667 5.01115V18.9888C74.667 21.7468 72.4127 24 69.6558 24H55.6781C52.9202 24 50.667 21.7467 50.667 18.9888V5.01115C50.667 2.25322 52.9203 0 55.6781 0ZM70.1361 3.40588C68.6549 3.40588 68.6549 5.65613 70.1361 5.65613C71.6173 5.65613 71.6173 3.40588 70.1361 3.40588ZM62.667 4.56254C58.5593 4.56254 55.2294 7.89315 55.2294 12.0001C55.2294 18.6043 63.2519 21.9341 67.9263 17.2594C72.6008 12.585 69.2712 4.56254 62.667 4.56254ZM66.8654 7.80174C63.135 4.07137 56.729 6.72646 56.729 12.0001C56.729 17.2737 63.135 19.9288 66.8654 16.1985C69.1848 13.8801 69.1848 10.1201 66.8654 7.80174ZM69.6558 1.49965H55.6781C53.7483 1.49965 52.1665 3.08154 52.1665 5.01126V18.9889C52.1665 20.9188 53.7484 22.5006 55.6781 22.5006H69.6558C71.5857 22.5006 73.1674 20.9187 73.1674 18.9889V5.01126C73.1674 3.08144 71.5856 1.49965 69.6558 1.49965Z" fill="#202020"/>
<path d="M115.062 5.71429H117.676C118.037 5.71429 118.33 5.45759 118.33 5.14286V0.571429C118.33 0.256686 118.037 0 117.676 0H113.754C109.789 0 106.563 2.82031 106.563 6.28571V9.18857H101.987C101.627 9.18857 101.333 9.44527 101.333 9.76V14.2857C101.333 14.6005 101.627 14.8571 101.987 14.8571H106.108V23.4286C106.108 23.7433 106.402 24 106.762 24H112.22C112.58 24 112.874 23.7433 112.874 23.4286V14.8571H116.313C116.61 14.8571 116.872 14.683 116.947 14.4286L118.311 9.85714C118.363 9.68527 118.321 9.50334 118.196 9.36271C118.072 9.22321 117.882 9.1395 117.68 9.1395H113.104V7.42521C113.104 6.4799 113.984 5.71093 115.065 5.71093L115.062 5.71429ZM112.447 10.2857H116.83L115.807 13.7143H112.218C111.858 13.7143 111.564 13.971 111.564 14.2857V22.8571H107.413V14.2857C107.413 13.971 107.12 13.7143 106.76 13.7143H102.638V10.3314H107.214C107.574 10.3314 107.868 10.0747 107.868 9.76V6.28571C107.868 3.45089 110.506 1.14286 113.752 1.14286H117.02V4.57143H115.059C113.258 4.57143 111.791 5.8538 111.791 7.42857V9.71429C111.791 10.029 112.084 10.2857 112.444 10.2857H112.447Z" fill="#202020"/>
<path d="M159.286 10.1635L168.222 0H166.105L158.342 8.82305L152.147 0H145L154.37 13.3433L145 24H147.117L155.309 14.6806L161.853 24H169M147.881 1.5619H151.133L166.103 22.5148H162.85" fill="#202020"/>
</svg>
