<svg width="14" height="14" viewBox="0 0 14 14" fill="none" xmlns="http://www.w3.org/2000/svg">
<g clip-path="url(#clip0_542_24145)">
<path d="M6.99951 12.8334C10.2212 12.8334 12.8329 10.2217 12.8329 7C12.8329 3.77832 10.2212 1.16663 6.99951 1.16663C3.77782 1.16663 1.16613 3.77832 1.16613 7C1.16613 10.2217 3.77782 12.8334 6.99951 12.8334Z" stroke="#99A1AF" stroke-width="1.15093" stroke-linecap="round" stroke-linejoin="round"/>
<path d="M5.30203 5.25C5.43918 4.86014 5.70987 4.53139 6.06618 4.32199C6.42248 4.11258 6.8414 4.03604 7.24873 4.10591C7.65607 4.17578 8.02553 4.38755 8.29168 4.70372C8.55784 5.01989 8.70351 5.42006 8.70289 5.83334C8.70289 7.00001 6.95288 7.58335 6.95288 7.58335" stroke="#99A1AF" stroke-width="1.15093" stroke-linecap="round" stroke-linejoin="round"/>
<path d="M7.00074 9.91656H7.00627" stroke="#99A1AF" stroke-width="1.15093" stroke-linecap="round" stroke-linejoin="round"/>
</g>
<defs>
<clipPath id="clip0_542_24145">
<rect width="13.8111" height="13.8111" fill="white" transform="scale(1.01368)"/>
</clipPath>
</defs>
</svg>
