<svg width="14" height="14" viewBox="0 0 14 14" fill="none" xmlns="http://www.w3.org/2000/svg">
<path d="M13.3636 6.99998H11.7854C11.5073 6.99938 11.2367 7.0899 11.0149 7.25768C10.7931 7.42547 10.6323 7.66129 10.5572 7.92907L9.06179 13.2491C9.05215 13.2821 9.03206 13.3111 9.00452 13.3318C8.97698 13.3524 8.94349 13.3636 8.90907 13.3636C8.87464 13.3636 8.84115 13.3524 8.81361 13.3318C8.78607 13.3111 8.76598 13.2821 8.75634 13.2491L5.24362 0.750897C5.23398 0.717852 5.21388 0.688823 5.18634 0.66817C5.15881 0.647516 5.12531 0.636352 5.09089 0.636352C5.05647 0.636352 5.02297 0.647516 4.99544 0.66817C4.9679 0.688823 4.9478 0.717852 4.93816 0.750897L3.44271 6.07089C3.36792 6.33762 3.20814 6.57267 2.98763 6.74035C2.76711 6.90803 2.49792 6.99919 2.22089 6.99998H0.636352" stroke="white" stroke-width="1.19924" stroke-linecap="round" stroke-linejoin="round"/>
</svg>
