<svg width="15" height="15" viewBox="0 0 15 15" fill="none" xmlns="http://www.w3.org/2000/svg">
<path d="M8.74838 10.6146C8.88919 10.6792 9.04783 10.694 9.19816 10.6565C9.3485 10.6189 9.48155 10.5313 9.57542 10.408L9.81746 10.0909C9.94448 9.92158 10.1092 9.78412 10.2985 9.68945C10.4879 9.59477 10.6967 9.54548 10.9084 9.54548H12.9538C13.3155 9.54548 13.6623 9.68915 13.918 9.94488C14.1738 10.2006 14.3174 10.5475 14.3174 10.9091V12.9546C14.3174 13.3162 14.1738 13.6631 13.918 13.9188C13.6623 14.1745 13.3155 14.3182 12.9538 14.3182C9.6989 14.3182 6.5773 13.0252 4.27573 10.7236C1.97416 8.42204 0.681149 5.30044 0.681149 2.04553C0.681149 1.68387 0.824816 1.33703 1.08055 1.0813C1.33628 0.825565 1.68312 0.681898 2.04478 0.681898H4.09022C4.45188 0.681898 4.79872 0.825565 5.05445 1.0813C5.31018 1.33703 5.45385 1.68387 5.45385 2.04553V4.09097C5.45385 4.30267 5.40456 4.51146 5.30989 4.7008C5.21521 4.89015 5.07775 5.05485 4.9084 5.18187L4.58931 5.42119C4.46414 5.51676 4.37591 5.65272 4.33962 5.80597C4.30333 5.95922 4.32121 6.12031 4.39022 6.26187C5.32204 8.15449 6.85459 9.68512 8.74838 10.6146Z" stroke="#99A1AF" stroke-width="1.33333" stroke-linecap="round" stroke-linejoin="round"/>
</svg>
