<svg width="15" height="15" viewBox="0 0 15 15" fill="none" xmlns="http://www.w3.org/2000/svg">
<g clip-path="url(#clip0_542_20983)">
<path d="M7.49964 13.7494C10.9513 13.7494 13.7494 10.9513 13.7494 7.49964C13.7494 4.04796 10.9513 1.24983 7.49964 1.24983C4.04796 1.24983 1.24983 4.04796 1.24983 7.49964C1.24983 10.9513 4.04796 13.7494 7.49964 13.7494Z" stroke="white" stroke-width="1.19934" stroke-linecap="round" stroke-linejoin="round"/>
<path d="M7.49937 11.2495C9.57038 11.2495 11.2493 9.57063 11.2493 7.49963C11.2493 5.42863 9.57038 3.74975 7.49937 3.74975C5.42837 3.74975 3.74949 5.42863 3.74949 7.49963C3.74949 9.57063 5.42837 11.2495 7.49937 11.2495Z" stroke="white" stroke-width="1.19934" stroke-linecap="round" stroke-linejoin="round"/>
<path d="M7.50013 8.74984C8.19047 8.74984 8.75009 8.19021 8.75009 7.49988C8.75009 6.80954 8.19047 6.24992 7.50013 6.24992C6.8098 6.24992 6.25017 6.80954 6.25017 7.49988C6.25017 8.19021 6.8098 8.74984 7.50013 8.74984Z" stroke="white" stroke-width="1.19934" stroke-linecap="round" stroke-linejoin="round"/>
</g>
<defs>
<clipPath id="clip0_542_20983">
<rect width="14.3921" height="14.3921" fill="white" transform="scale(1.0422)"/>
</clipPath>
</defs>
</svg>
