<svg width="16" height="16" viewBox="0 0 16 16" fill="none" xmlns="http://www.w3.org/2000/svg">
<path d="M8 2H3.33333C2.97971 2 2.64057 2.14048 2.39052 2.39052C2.14048 2.64057 2 2.97971 2 3.33333V12.6667C2 13.0203 2.14048 13.3594 2.39052 13.6095C2.64057 13.8595 2.97971 14 3.33333 14H12.6667C13.0203 14 13.3594 13.8595 13.6095 13.6095C13.8595 13.3594 14 13.0203 14 12.6667V8" stroke="white" stroke-width="1.33333" stroke-linecap="round" stroke-linejoin="round"/>
<path d="M12.2494 1.74991C12.5146 1.48469 12.8743 1.33569 13.2494 1.33569C13.6245 1.33569 13.9842 1.48469 14.2494 1.74991C14.5146 2.01512 14.6636 2.37483 14.6636 2.74991C14.6636 3.12498 14.5146 3.48469 14.2494 3.74991L8.24075 9.75924C8.08244 9.9174 7.88688 10.0332 7.67208 10.0959L5.75674 10.6559C5.69938 10.6726 5.63857 10.6736 5.58068 10.6588C5.5228 10.644 5.46996 10.6139 5.42771 10.5716C5.38546 10.5294 5.35534 10.4765 5.34051 10.4186C5.32568 10.3607 5.32668 10.2999 5.34341 10.2426L5.90341 8.32724C5.96643 8.11261 6.08243 7.91728 6.24075 7.75924L12.2494 1.74991Z" stroke="white" stroke-width="1.33333" stroke-linecap="round" stroke-linejoin="round"/>
</svg>
