<svg width="200" height="120" viewBox="0 0 200 120" fill="none" xmlns="http://www.w3.org/2000/svg">
<path d="M162.214 28.7821C161.806 27.7955 161.465 26.9534 161.438 26.9157C161.411 26.8528 163.023 26.834 177.375 26.834L178.211 28.889C178.672 30.0139 179.054 30.9754 179.067 31.0256C179.08 31.0948 177.756 31.1073 163.163 31.1073L163.056 30.8434C162.996 30.6926 162.615 29.7688 162.214 28.7821Z" fill="#DB3242"/>
<path d="M174.511 58.7402C174.043 57.5965 173.662 56.635 173.662 56.6098C173.662 56.5784 177.247 56.5596 181.621 56.5596C187.927 56.5596 189.586 56.5784 189.606 56.6413C189.619 56.679 189.967 57.5399 190.382 58.5391C190.796 59.5446 191.171 60.4684 191.318 60.8329H175.368L174.511 58.7402Z" fill="#F3C628"/>
<path d="M180.659 73.7031C178.753 69.059 177.175 65.2256 177.155 65.1879C177.128 65.125 178.74 65.1062 193.092 65.1125L196.536 73.5021C198.429 78.121 199.987 81.9545 200 82.0173C200.014 82.1304 199.8 82.1367 184.13 82.1367L180.659 73.7031Z" fill="#233F84"/>
<path d="M29.4132 0.540452C29.5402 0.402197 29.7877 0.226236 29.975 0.14454C30.2224 0.037706 30.4297 0 30.7775 0C31.1587 0 31.3125 0.0314216 31.6068 0.169677C31.8074 0.270226 32.0549 0.446187 32.1552 0.56559C32.2555 0.684992 32.4026 0.923796 32.4829 1.09976C32.6033 1.34485 32.63 1.49567 32.6033 1.79103C32.5899 1.99842 32.523 2.26864 32.4628 2.38804C32.4026 2.50745 32.2488 2.72111 32.1284 2.85937C31.9947 3.00391 31.7539 3.17359 31.5399 3.26157C31.2724 3.37468 31.0651 3.41239 30.7441 3.41239C30.5033 3.41239 30.2023 3.3684 30.0753 3.31813C29.9482 3.26785 29.7074 3.11703 29.5469 2.97877C29.3864 2.8468 29.1791 2.58914 29.0989 2.41947C28.9852 2.19323 28.9383 1.99213 28.9383 1.69677C28.9383 1.43911 28.9852 1.19402 29.0587 1.03691C29.1256 0.898659 29.2861 0.672423 29.4132 0.540452Z" fill="#202020"/>
<path d="M29.1724 5.12173C29.1524 4.87664 29.1724 4.57499 29.2059 4.4493L29.266 4.21678L29.5536 4.33619C29.7141 4.39903 30.0485 4.48701 30.3093 4.52472C30.5635 4.56242 30.9113 4.57499 31.0784 4.55614C31.2456 4.531 31.5733 4.45559 31.8141 4.38646C32.0549 4.31733 32.2622 4.28591 32.2823 4.30477C32.3023 4.3299 32.3291 4.4493 32.3491 4.56871C32.3692 4.69439 32.3491 5.39195 32.309 6.12094C32.2622 6.84992 32.1886 8.32045 32.1418 9.39507C32.0749 11.0667 32.0749 11.3621 32.1552 11.4752C32.2087 11.5506 32.4361 11.8711 32.6702 12.1979C32.9109 12.531 33.145 12.952 33.2186 13.1657C33.3389 13.5364 33.3456 13.5427 33.7335 13.681C33.981 13.7752 34.2685 13.9512 34.5427 14.1837C34.7969 14.4037 35.0376 14.6739 35.1313 14.8624C35.2316 15.0447 35.2985 15.3086 35.3052 15.4909C35.3185 15.7234 35.2717 15.8994 35.1246 16.1821C35.0176 16.3895 34.7701 16.71 34.5762 16.8923C34.3822 17.0682 34.2351 17.2316 34.2552 17.2505C34.2752 17.2693 34.4759 17.2002 34.7033 17.0997C34.9373 17.0054 35.2717 16.798 35.4523 16.6472C35.6596 16.4712 35.8469 16.2261 35.9806 15.9622C36.1813 15.56 36.1813 15.5474 36.1077 15.1138C36.0542 14.8436 35.9138 14.454 35.7332 14.1083C35.4924 13.6433 35.352 13.461 34.4224 12.6315L34.6498 11.9905C34.7768 11.6323 34.944 11.0604 35.0243 10.7148C35.1446 10.2057 35.1781 9.80355 35.2048 8.60953C35.2316 7.47207 35.2115 6.95047 35.1313 6.34717C35.0711 5.91355 35.0376 5.54906 35.0577 5.53021C35.0778 5.51136 35.3587 5.59305 35.6797 5.71245C36.0007 5.82557 36.4555 6.02039 36.6962 6.13979C36.937 6.25919 37.3383 6.50428 37.5991 6.68024C37.8532 6.84992 38.2478 7.139 38.4618 7.31496C38.6825 7.49092 39.0838 7.87426 39.358 8.16963C39.6322 8.46499 40.0134 8.93003 40.2073 9.20654C40.4013 9.48305 40.6755 9.9041 40.8159 10.1492C40.9564 10.3943 41.1704 10.8028 41.4981 11.5317L40.6621 12.443C40.2007 12.9457 39.5452 13.681 39.2109 14.0769C38.8698 14.4728 38.4418 14.9944 38.2545 15.2395C38.0606 15.4846 37.8599 15.8051 37.7997 15.9622C37.7195 16.1633 37.6994 16.3455 37.7328 16.5906C37.7529 16.7792 37.8332 17.062 37.9067 17.2191C37.9803 17.3762 38.1141 17.5961 38.2077 17.7092C38.3414 17.8789 38.4284 17.9166 38.716 17.948C39.0035 17.9795 39.1172 18.0297 39.3112 18.2183C39.4851 18.3817 39.5653 18.5199 39.5988 18.7273C39.6255 18.8844 39.6255 19.0981 39.5988 19.1986C39.572 19.2992 39.4984 19.494 39.4316 19.626C39.3245 19.8208 39.3179 19.8585 39.4048 19.8585C39.4583 19.8585 39.6255 19.7454 39.7726 19.6071C39.9398 19.45 40.0669 19.2552 40.1137 19.0918C40.1538 18.941 40.1672 18.721 40.1405 18.6016C40.1137 18.4822 40.0535 18.3125 40.0067 18.2246C39.9599 18.1366 39.8663 18.0172 39.7994 17.9606C39.7258 17.8978 39.5252 17.8161 39.3446 17.7721C39.0972 17.7092 38.9634 17.6275 38.8096 17.4516C38.6357 17.2505 38.5956 17.1374 38.5755 16.8231C38.5621 16.6095 38.5822 16.333 38.629 16.2136C38.6691 16.0942 38.8296 15.8742 38.9835 15.736C39.144 15.5914 40.214 14.7493 41.3577 13.8632C42.508 12.9771 43.4978 12.2419 43.5513 12.223C43.6048 12.2042 43.6516 12.1979 43.6516 12.2042C43.6516 12.2167 42.9025 14.1335 40.3144 20.7069L21.2139 20.7446L20.8193 19.7516C20.6097 19.2323 19.9172 17.4766 19.2407 15.7615L19.134 15.4909C18.4251 13.6936 17.8767 12.2167 17.9101 12.2042C17.9435 12.1979 19.0002 12.9834 20.2575 13.9512C21.8894 15.2081 22.6117 15.7988 22.7521 16.0062C22.9193 16.2513 22.9527 16.3581 22.9527 16.6786C22.946 16.974 22.9059 17.1311 22.7655 17.3573C22.6117 17.6087 22.5381 17.6715 22.304 17.7281C22.1435 17.7658 21.9429 17.8286 21.8492 17.8726C21.7556 17.9103 21.6085 18.0423 21.5282 18.1617C21.3945 18.3502 21.3744 18.4445 21.3945 18.8216C21.4078 19.1735 21.448 19.3055 21.5683 19.45C21.6553 19.5568 21.8091 19.6888 21.9027 19.7454C22.0031 19.8019 22.1034 19.8396 22.1368 19.8208C22.1636 19.8082 22.1234 19.6888 22.0499 19.5568C21.9562 19.3997 21.9161 19.2049 21.9161 18.9598C21.9161 18.765 21.9562 18.5262 22.0097 18.4257C22.0632 18.3314 22.1703 18.1994 22.2505 18.1303C22.3375 18.0612 22.5715 17.9732 22.7788 17.9418C23.1132 17.8789 23.1801 17.8412 23.3741 17.5961C23.5011 17.439 23.6416 17.1688 23.6951 16.9991C23.7486 16.8231 23.7887 16.5592 23.7887 16.4021C23.7887 16.245 23.7352 16.0062 23.6683 15.8679C23.6014 15.7297 23.3674 15.3903 23.1534 15.1138C22.9394 14.8373 22.4445 14.2466 22.0566 13.7941C21.6687 13.3479 21.0534 12.6566 20.6922 12.2733C20.3378 11.8837 20.0435 11.5255 20.0435 11.4815C20.0435 11.4438 20.2241 11.0541 20.4515 10.6205C20.6722 10.1869 21.0467 9.56475 21.2808 9.23796C21.5148 8.91118 21.9295 8.40843 22.197 8.11935C22.4645 7.83656 22.8792 7.44065 23.1199 7.25212C23.3607 7.0573 23.8422 6.72423 24.19 6.50428C24.5511 6.27176 25.1463 5.9764 25.561 5.813C25.9623 5.66218 26.3435 5.53021 26.397 5.53021C26.4772 5.53021 26.4906 5.58677 26.4438 5.85699C26.417 6.03924 26.3635 6.48543 26.3234 6.84992C26.2766 7.24583 26.2632 7.99367 26.29 8.73522C26.3167 9.55846 26.3702 10.1555 26.4572 10.5577C26.524 10.8845 26.6511 11.3684 26.7314 11.626C26.8183 11.8837 26.9387 12.2167 27.1326 12.6315L26.9521 12.7698C26.845 12.8452 26.5976 13.0651 26.397 13.2599C26.1763 13.4736 25.9355 13.8004 25.7884 14.0832C25.6546 14.3408 25.5075 14.7053 25.4607 14.8939C25.4139 15.0824 25.3871 15.3778 25.4005 15.5537C25.4205 15.7737 25.5008 15.9685 25.6613 16.2073C25.7884 16.3958 26.0492 16.6598 26.2298 16.7917C26.4103 16.9174 26.7447 17.0997 26.9654 17.1814C27.1861 17.2693 27.3734 17.3259 27.3801 17.307C27.3935 17.2945 27.2196 17.1185 26.9922 16.9174C26.7447 16.6975 26.5107 16.4147 26.3903 16.1821C26.2565 15.9308 26.1963 15.7108 26.1963 15.5223C26.1963 15.3589 26.2632 15.1012 26.3568 14.9253C26.4371 14.7493 26.5976 14.5168 26.7046 14.3974C26.8116 14.2843 27.0323 14.0957 27.1995 13.9826C27.3667 13.8695 27.661 13.725 27.8549 13.6621C28.0422 13.593 28.2027 13.505 28.2027 13.461C28.2027 13.4233 28.2495 13.2536 28.3097 13.084C28.3699 12.9206 28.5103 12.6441 28.624 12.4744C28.7377 12.2984 28.9785 11.9779 29.4934 11.3432L29.3463 8.45242C29.266 6.86249 29.1858 5.36053 29.1724 5.12173Z" fill="#202020"/>
<path d="M22.304 23.3966C21.9763 22.5733 21.7155 21.882 21.7155 21.8569C21.7155 21.8318 25.7951 21.8066 30.7775 21.8066C39.3781 21.8066 39.8395 21.8129 39.8061 21.9197C39.7927 21.9763 39.5252 22.6613 38.6558 24.8545L22.8859 24.8859L22.304 23.3966Z" fill="#202020"/>
<path d="M11.1019 53.8567C5.01596 39.0445 0.0201473 26.9095 8.38132e-05 26.8844C-0.0199797 26.8592 3.5647 26.8341 7.96529 26.8341C15.5292 26.8341 15.9706 26.8404 16.0041 26.9472C16.0241 27.0038 19.3212 35.0414 23.3339 44.8073C27.3466 54.5731 30.6437 62.5856 30.6705 62.6108C30.6906 62.6359 34.0278 54.6045 45.4305 26.8655H68.1357C86.5005 26.8655 90.9613 26.8844 91.503 26.9472C91.8709 26.9975 92.553 27.1043 93.0078 27.1923C93.4693 27.2803 94.1849 27.4437 94.5995 27.5631C95.0141 27.6825 95.6562 27.8961 96.0374 28.0344C96.4119 28.1789 97.1141 28.4743 97.589 28.7005C98.0705 28.9268 98.7192 29.2661 99.0268 29.4609C99.3412 29.6495 99.8695 29.9951 100.197 30.2276C100.532 30.4601 101.087 30.8875 101.434 31.1828C101.789 31.4782 102.344 32.0124 102.672 32.3643C103.006 32.7162 103.514 33.3195 103.809 33.7091C104.103 34.0925 104.531 34.7209 104.758 35.1043C104.986 35.4813 105.307 36.0846 105.467 36.4491C105.634 36.8136 105.889 37.4609 106.036 37.8945C106.19 38.3281 106.383 39.032 106.477 39.4656C106.571 39.8992 106.678 40.5653 106.718 40.9424C106.758 41.3257 106.785 42.4129 106.785 43.3619C106.785 44.3108 106.758 45.4168 106.718 45.8128C106.684 46.2087 106.591 46.8622 106.517 47.2582C106.444 47.6541 106.276 48.3642 106.143 48.8292C106.016 49.2943 105.755 50.061 105.574 50.526C105.387 50.991 104.999 51.8269 104.712 52.3799C104.424 52.9329 103.936 53.7436 103.628 54.1709C103.327 54.6045 102.819 55.2707 102.505 55.6477C102.197 56.0248 101.548 56.7098 101.067 57.1623C100.592 57.6147 99.9163 58.2117 99.5619 58.482C99.2141 58.7522 98.9265 59.0161 98.9332 59.0727C98.9332 59.123 100.859 63.8551 103.213 69.5801C105.561 75.3114 107.514 79.9932 107.547 79.9806C107.581 79.9744 112.516 68.0216 129.436 26.8655L145.407 26.8341L156.743 54.4286C162.983 69.5989 168.085 82.0419 168.099 82.0733C168.105 82.1173 165.317 82.1299 152.168 82.1048L149.313 75.1606C147.741 71.3397 146.397 68.0844 146.21 67.6257L141.862 70.1708L140.796 70.7971C138.912 71.9026 137.491 72.7367 137.469 72.7474C137.442 72.76 137.415 69.8755 137.415 59.8897L141.963 57.2502L140.491 53.687L140.238 53.0741C139.481 51.239 138.621 49.1559 138.231 48.2134C137.803 47.1702 137.435 46.3155 137.415 46.3155C137.402 46.3155 134.071 54.3783 122.668 82.1362L92.4393 82.1425L89.2626 74.4064C86.8082 68.4363 86.0658 66.6767 85.9856 66.7019C85.9321 66.7144 83.5713 68.0844 75.586 72.7662L75.5526 82.1362H59.6355L59.6422 56.7663C59.6422 36.0029 59.6288 31.4028 59.5552 31.4656C59.5084 31.5033 54.7935 42.922 38.6691 82.1362H22.7187L22.4445 81.4638C22.2973 81.093 17.1945 68.6689 11.1019 53.8567Z" fill="#202020"/>
<path d="M168.52 44.1348C166.668 39.6164 165.089 35.783 165.022 35.6196L164.902 35.3179L180.852 35.3242L184.196 43.4687C186.036 47.9494 187.607 51.7829 187.841 52.3485H171.891L168.52 44.1348Z" fill="#202020"/>
<path d="M29.0387 88.6719C29.4801 88.565 30.1422 88.4582 30.51 88.4268C30.8778 88.4016 31.5265 88.3891 31.9479 88.4016C32.3692 88.4205 33.0179 88.4896 33.3858 88.5588C33.7536 88.6279 34.2953 88.7599 34.5896 88.8478C34.8838 88.9358 35.3988 89.1306 35.7265 89.2877C36.0609 89.4449 36.4956 89.6774 36.6962 89.8093C36.8969 89.935 37.2513 90.2052 37.472 90.4126C37.6927 90.6137 37.9335 90.8588 38.007 90.9594C38.1341 91.1291 38.1341 91.1353 38.0004 91.217C37.9268 91.261 37.579 91.4998 36.5959 92.1848L36.1278 91.7072C35.8736 91.4496 35.4924 91.129 35.2918 91.0034C35.0911 90.8714 34.7568 90.6891 34.5561 90.5949C34.3555 90.4943 33.9475 90.3372 33.6533 90.243C33.359 90.155 32.8775 90.0356 32.5832 89.9916C32.2288 89.9413 31.7405 89.9287 31.1453 89.9476C30.4966 89.979 30.0485 90.0356 29.5402 90.155C29.1524 90.243 28.6106 90.4189 28.3364 90.5383C28.0622 90.6577 27.5941 90.9091 27.2998 91.0976C27.0056 91.2799 26.6043 91.569 26.4037 91.7386C26.203 91.902 25.8218 92.3168 25.5543 92.6499C25.2801 92.9892 24.9256 93.5234 24.7651 93.8439C24.5979 94.1644 24.3772 94.7237 24.2702 95.0882C24.1632 95.4464 24.0362 96.012 23.9893 96.345C23.9358 96.7284 23.9158 97.2751 23.9425 97.8847C23.9693 98.6514 24.0161 98.9593 24.1766 99.55C24.2903 99.946 24.4909 100.512 24.6247 100.807C24.7584 101.096 25.0661 101.624 25.3135 101.97C25.5543 102.315 25.9823 102.812 26.2632 103.069C26.5374 103.327 27.0056 103.691 27.2998 103.874C27.5941 104.062 28.0555 104.307 28.3231 104.427C28.5906 104.54 29.0855 104.709 29.4266 104.797C29.7676 104.879 30.3896 104.98 30.8109 105.017C31.3527 105.068 31.794 105.068 32.2823 105.017C32.6702 104.986 33.2587 104.885 33.5864 104.797C33.9208 104.709 34.4625 104.508 34.7902 104.358C35.1246 104.2 35.5794 103.924 35.8067 103.742C36.0341 103.559 36.3618 103.258 36.5357 103.069L36.585 103.014C36.7425 102.838 36.8946 102.667 36.937 102.611C37.0239 102.51 37.0841 102.535 37.7195 102.918C38.094 103.145 38.415 103.346 38.4351 103.358C38.4551 103.371 38.3816 103.497 38.2679 103.647C38.1609 103.792 37.8265 104.138 37.5322 104.42C37.2379 104.703 36.7564 105.087 36.4622 105.269C36.1679 105.451 35.6864 105.709 35.3921 105.841C35.0978 105.966 34.5561 106.155 34.1883 106.262C33.8205 106.362 33.252 106.482 32.9176 106.526C32.523 106.576 31.9077 106.589 31.1119 106.57C30.2425 106.545 29.7409 106.494 29.3062 106.4C28.9785 106.331 28.5103 106.211 28.2696 106.136C28.0288 106.061 27.5473 105.878 27.1995 105.728C26.8517 105.57 26.31 105.288 26.0024 105.093C25.6881 104.892 25.1664 104.49 24.8387 104.2C24.511 103.905 24.0495 103.421 23.8155 103.132C23.5814 102.837 23.2269 102.296 23.0263 101.938C22.8257 101.574 22.5715 101.008 22.4578 100.681C22.3374 100.348 22.1769 99.8014 22.1034 99.4558C21.9763 98.9216 21.9562 98.62 21.9562 97.5076C21.9562 96.389 21.9763 96.0874 22.1034 95.5595C22.1836 95.2139 22.3575 94.6294 22.4913 94.2712C22.625 93.9067 22.8457 93.3977 22.9862 93.14C23.1266 92.8761 23.4142 92.4362 23.6349 92.1534C23.8489 91.8706 24.2167 91.4307 24.4575 91.1793C24.6983 90.9342 25.1664 90.532 25.4941 90.2932C25.8285 90.0544 26.29 89.7465 26.5307 89.6208C26.7715 89.4888 27.253 89.2626 27.6008 89.1181C27.9485 88.9735 28.5973 88.7724 29.0387 88.6719Z" fill="#202020"/>
<path d="M79.2309 88.6656C79.6522 88.565 80.3143 88.4582 80.7022 88.4268C81.0901 88.3954 81.7054 88.3828 82.0732 88.4016C82.441 88.4142 82.9694 88.4582 83.2436 88.4959C83.5178 88.5336 84.0595 88.6467 84.4474 88.7473C84.8353 88.8541 85.3904 89.0427 85.6846 89.1683C85.9789 89.3003 86.447 89.5454 86.7212 89.7088C86.9954 89.8785 87.4168 90.1864 87.6508 90.4001C87.8849 90.6075 88.1324 90.8588 88.3263 91.129L86.7881 92.1974L86.641 92.0214C86.5674 91.9272 86.3133 91.6758 86.0926 91.4684C85.8719 91.261 85.4439 90.9531 85.1496 90.7897C84.8553 90.6326 84.3738 90.4189 84.0795 90.3184C83.7853 90.2178 83.2904 90.0859 82.976 90.023C82.5213 89.935 82.2069 89.9225 81.4044 89.9476C80.6286 89.979 80.2541 90.023 79.7324 90.1487C79.3646 90.2367 78.7761 90.4441 78.4283 90.6012C78.0806 90.7583 77.599 91.0159 77.3583 91.1793C77.1175 91.3364 76.763 91.6067 76.5691 91.7826C76.3685 91.9586 76.0608 92.2728 75.8869 92.4802C75.7131 92.6876 75.4389 93.052 75.285 93.2971C75.1245 93.5359 74.9105 93.9319 74.8035 94.1769C74.6965 94.4157 74.5226 94.9248 74.4156 95.3081C74.3153 95.6852 74.1949 96.3388 74.1548 96.7535C74.1013 97.2877 74.0946 97.7025 74.1481 98.1989C74.1882 98.576 74.2752 99.1164 74.342 99.3929C74.4156 99.6694 74.5427 100.078 74.6229 100.304C74.7032 100.524 74.8771 100.907 75.0041 101.153C75.1312 101.391 75.3787 101.787 75.5526 102.032C75.7264 102.271 76.0608 102.667 76.2949 102.9C76.529 103.138 76.9369 103.484 77.1911 103.666C77.4519 103.849 77.8866 104.112 78.1608 104.257C78.435 104.395 78.8898 104.578 79.164 104.665C79.4382 104.76 79.9197 104.873 80.234 104.929C80.5885 104.992 81.157 105.036 81.7388 105.036C82.2538 105.036 82.869 104.999 83.1098 104.955C83.3506 104.911 83.8321 104.785 84.1799 104.678C84.5276 104.565 85.0426 104.351 85.3168 104.2C85.6244 104.031 86.0458 103.71 86.3935 103.383C86.7079 103.088 87.0289 102.768 87.2228 102.497L87.925 102.918C88.3129 103.151 88.6406 103.352 88.6607 103.358C88.6808 103.371 88.5604 103.541 88.3932 103.742C88.2327 103.943 87.8983 104.288 87.6575 104.515C87.4235 104.741 86.9687 105.08 86.6544 105.275C86.34 105.47 85.9388 105.702 85.7515 105.784C85.5709 105.872 85.1028 106.042 84.7149 106.167C84.327 106.287 83.7251 106.431 83.3773 106.488C82.9894 106.545 82.3608 106.588 81.7589 106.588C81.2171 106.588 80.535 106.557 80.2541 106.519C79.9665 106.482 79.4315 106.381 79.0637 106.293C78.6958 106.205 78.1407 106.029 77.8264 105.904C77.5121 105.772 77.064 105.57 76.8232 105.445C76.5825 105.319 76.1411 105.043 75.8401 104.835C75.5325 104.621 75.0844 104.257 74.8436 104.024C74.5962 103.792 74.2752 103.446 74.1147 103.258C73.9608 103.063 73.6866 102.686 73.5128 102.409C73.3389 102.133 73.1115 101.737 73.0112 101.53C72.9109 101.322 72.737 100.882 72.63 100.556C72.5163 100.222 72.3691 99.7134 72.3023 99.4244C72.2019 98.997 72.1752 98.6137 72.1752 97.5076C72.1752 96.4016 72.2019 96.0183 72.2956 95.5909C72.3691 95.2956 72.5096 94.7865 72.6233 94.4597C72.737 94.1267 72.9376 93.6365 73.078 93.36C73.2185 93.0835 73.5128 92.5996 73.7268 92.2916C73.9475 91.9774 74.3956 91.4558 74.7233 91.1353C75.051 90.8085 75.5459 90.3875 75.8201 90.1927C76.0943 89.9979 76.5156 89.7339 76.7564 89.602C76.9971 89.4763 77.4786 89.25 77.8264 89.1055C78.1742 88.961 78.8095 88.7661 79.2309 88.6656Z" fill="#202020"/>
<path d="M44.7216 106.149V97.4762V88.8038H47.584C49.1557 88.8038 50.8009 88.829 51.2423 88.8667C51.6837 88.8981 52.3525 88.9987 52.7337 89.0866C53.1082 89.1683 53.6633 89.3506 53.9709 89.4888C54.2719 89.6271 54.6999 89.8722 54.9206 90.0356C55.1346 90.2052 55.469 90.5509 55.6629 90.8148C55.8703 91.0976 56.0776 91.4935 56.198 91.8203C56.3785 92.3231 56.3919 92.411 56.3919 93.3914C56.3919 94.4095 56.3852 94.4346 56.1712 94.9625C56.0508 95.2516 55.8569 95.6223 55.7432 95.7794C55.6295 95.9303 55.4155 96.1942 55.2617 96.3576C55.1145 96.5273 54.8203 96.7724 54.6196 96.9043C54.419 97.0363 54.0244 97.25 53.7502 97.3757C53.476 97.4951 53.0079 97.6522 52.7136 97.7276C52.4193 97.7967 52.1184 97.8533 52.0448 97.8533C51.9712 97.8533 51.8776 97.8721 51.8308 97.8973C51.7773 97.9287 52.5999 99.2421 57.0874 106.117L56.004 106.13C55.4088 106.142 54.8938 106.136 54.8537 106.123C54.8203 106.111 53.6432 104.288 49.7041 98.0355L46.5942 98.0418V106.149H44.7216Z" fill="#202020"/>
<path d="M63.3138 106.149V97.4762V88.8038H65.1864V106.149H63.3138Z" fill="#202020"/>
<path d="M94.867 97.5139C94.867 92.763 94.8871 88.8667 94.9138 88.8416C94.9473 88.8164 95.382 88.8038 96.7864 88.8353L96.8533 96.5776L105.614 88.8038H106.872C107.561 88.8038 108.136 88.8227 108.156 88.8478C108.169 88.873 106.129 90.6326 103.621 92.7567C101.113 94.8745 99.0536 96.6341 99.0469 96.6655C99.0335 96.697 100.705 98.3372 102.752 100.317C104.798 102.296 107.005 104.42 108.825 106.149L106.016 106.142L96.8533 96.9672L96.8199 106.149H94.8804L94.867 97.5139Z" fill="#202020"/>
<path d="M114.275 106.149V97.4762V88.8038L125.745 88.8353L125.778 90.3749H116.148V96.345H125.109V97.9161H116.148L116.181 104.609L126.046 104.64V106.149H114.275Z" fill="#202020"/>
<path d="M130.593 90.3749V89.5894V88.8038H144.839V90.3749H138.686V106.149H136.813V90.3749H130.593Z" fill="#202020"/>
<path d="M67.9953 113.313C68.1424 113.244 68.4367 113.143 68.6507 113.093C68.858 113.049 69.2459 113.005 69.5001 113.005C69.7609 112.999 70.1555 113.043 70.3895 113.093C70.6169 113.143 70.9647 113.256 71.1586 113.35C71.3526 113.438 71.5933 113.57 71.6937 113.633C71.794 113.696 71.8675 113.778 71.8609 113.809C71.8475 113.841 71.6067 114.092 70.8042 114.884L70.6236 114.733C70.5233 114.651 70.3494 114.538 70.2357 114.488C70.1287 114.431 69.9013 114.375 69.7341 114.35C69.5669 114.325 69.3128 114.331 69.1657 114.368C69.0185 114.406 68.838 114.5 68.7577 114.582C68.6775 114.658 68.5905 114.796 68.5704 114.884C68.5437 114.966 68.5504 115.11 68.5905 115.198C68.6306 115.28 68.7911 115.424 68.9517 115.506C69.1055 115.588 69.5335 115.751 69.9013 115.87C70.2692 115.984 70.6905 116.147 70.8376 116.229C70.9848 116.31 71.2322 116.505 71.3927 116.662C71.58 116.857 71.707 117.071 71.7739 117.284C71.8341 117.467 71.8742 117.693 71.8742 117.787C71.8742 117.881 71.8408 118.108 71.8007 118.29C71.7605 118.472 71.6736 118.717 71.6067 118.843C71.5465 118.962 71.3258 119.201 71.1252 119.377C70.8711 119.597 70.6303 119.735 70.3026 119.848C69.9214 119.974 69.7141 120.006 69.1657 119.999C68.7978 119.999 68.3297 119.962 68.1291 119.918C67.9284 119.867 67.5338 119.723 67.2596 119.591C66.9854 119.459 66.6912 119.283 66.4638 119.063L67.594 117.995L67.7813 118.158C67.8816 118.252 68.1291 118.403 68.3297 118.497C68.6039 118.623 68.8045 118.673 69.0988 118.673C69.3864 118.68 69.5669 118.642 69.7341 118.554C69.8612 118.485 70.0083 118.34 70.0618 118.24C70.1153 118.133 70.1354 117.969 70.1087 117.85C70.0886 117.724 69.9883 117.586 69.8545 117.492C69.7341 117.404 69.3061 117.228 68.8982 117.09C68.4969 116.958 68.0354 116.788 67.8816 116.713C67.7211 116.637 67.5004 116.499 67.38 116.398C67.2596 116.298 67.0857 116.065 66.9921 115.883C66.8651 115.613 66.8316 115.443 66.8316 115.072C66.8316 114.708 66.8717 114.519 66.9988 114.262C67.0857 114.073 67.2864 113.809 67.4469 113.677C67.6007 113.545 67.8482 113.382 67.9953 113.313Z" fill="#202020"/>
<path d="M47.1292 119.798C47.1292 119.773 47.7847 118.271 48.5805 116.467L50.0385 113.187L51.7104 113.181L53.1282 116.405C53.9107 118.177 54.5661 119.672 54.5862 119.735C54.6196 119.836 54.5461 119.842 52.7403 119.817L52.212 118.529L49.4566 118.56L48.9684 119.817L48.0522 119.83C47.5439 119.836 47.1292 119.823 47.1292 119.798Z" fill="#202020"/>
<path d="M56.3585 119.842V116.511V113.181H58.7995L59.6021 115.317C60.0435 116.493 60.418 117.454 60.438 117.454C60.4514 117.454 60.8126 116.493 62.0097 113.181H64.5176V119.842H62.8122L62.8323 117.536C62.839 116.26 62.8256 115.248 62.7988 115.273C62.7654 115.305 62.3508 116.335 60.9931 119.811H59.7425L58.8998 117.599C58.4384 116.386 58.0371 115.368 58.0104 115.336C57.9769 115.311 57.9569 116.31 57.9635 119.842H56.3585Z" fill="#202020"/>
<path d="M73.2787 114.563V113.872V113.181H79.0302V114.563H77.0239V119.842H75.285V114.563H73.2787Z" fill="#202020"/>
<path d="M80.9028 119.905V116.543V113.181H85.6512V114.563H82.5748V115.82H85.5174V117.077H82.5748V118.522H85.8518V119.905H80.9028Z" fill="#202020"/>
<path d="M88.1257 119.842V116.505L88.1324 113.168L89.9515 113.193C91.6167 113.218 91.7973 113.231 92.1384 113.357C92.339 113.426 92.6467 113.589 92.8205 113.715C93.0412 113.866 93.1951 114.042 93.3221 114.299C93.4759 114.595 93.5027 114.746 93.5027 115.16C93.5027 115.537 93.4692 115.738 93.3689 115.946C93.2887 116.103 93.1282 116.335 93.0011 116.467C92.874 116.606 92.6132 116.782 92.4193 116.863C92.2253 116.945 92.0782 117.033 92.0916 117.064C92.1049 117.09 92.5129 117.718 92.9944 118.46C93.4759 119.201 93.8705 119.83 93.8705 119.861C93.8705 119.886 93.4291 119.899 91.9043 119.874L90.3661 117.203H89.7976V119.842H88.1257Z" fill="#202020"/>
<path d="M95.8769 119.842L95.8836 116.505L95.8903 113.174L97.7428 113.2C99.4549 113.218 99.6287 113.231 100.057 113.369C100.318 113.445 100.665 113.577 100.826 113.652C100.993 113.734 101.307 113.947 101.521 114.13C101.776 114.35 101.976 114.601 102.103 114.846C102.21 115.053 102.344 115.393 102.398 115.6C102.458 115.808 102.498 116.204 102.498 116.48C102.498 116.757 102.451 117.152 102.398 117.36C102.337 117.567 102.21 117.894 102.11 118.083C102.01 118.271 101.742 118.604 101.515 118.824C101.227 119.094 100.946 119.283 100.612 119.427C100.344 119.547 99.9096 119.691 99.6421 119.742C99.2676 119.823 98.7727 119.842 95.8769 119.842Z" fill="#202020"/>
<path d="M104.845 117.102C105.507 115.619 106.169 114.13 106.317 113.79L106.591 113.174L108.283 113.181L109.62 116.235C110.356 117.913 111.011 119.415 111.192 119.836L109.293 119.804L109.052 119.233C108.925 118.912 108.791 118.623 108.751 118.585C108.711 118.541 108.243 118.522 106.016 118.548L105.761 119.176C105.621 119.522 105.501 119.817 105.487 119.823C105.481 119.83 105.066 119.83 103.648 119.804L104.845 117.102Z" fill="#202020"/>
<path d="M112.931 119.842V116.511V113.181H115.372L116.174 115.317C116.616 116.486 116.997 117.429 117.024 117.404C117.044 117.379 117.405 116.417 118.582 113.174L121.023 113.181V119.842H119.351L119.398 117.592C119.431 115.776 119.425 115.355 119.358 115.38C119.304 115.399 118.883 116.398 117.559 119.811L116.308 119.842L115.472 117.636C115.011 116.423 114.603 115.405 114.569 115.38C114.523 115.343 114.509 116.084 114.536 119.842H112.931Z" fill="#202020"/>
<path d="M75.6189 59.8273C75.5721 59.8273 75.5521 56.2327 75.5521 49.1754V38.5234H80.1132C82.8886 38.5234 84.9819 38.5486 85.4501 38.5926C85.8714 38.6303 86.4733 38.7308 86.7876 38.8125C87.102 38.9005 87.5969 39.0765 87.8911 39.2021C88.1854 39.3341 88.6201 39.5666 88.8609 39.7175C89.1016 39.8683 89.4561 40.1385 89.6567 40.3082C89.8573 40.4841 90.1984 40.8424 90.4191 41.1C90.6398 41.3577 90.9207 41.7662 91.0545 42.0112C91.1815 42.2563 91.342 42.6083 91.4156 42.7968C91.4825 42.9853 91.5895 43.3372 91.643 43.5823C91.7032 43.8525 91.7433 44.3553 91.7433 44.902C91.7433 45.3985 91.6965 46.0144 91.643 46.316C91.5895 46.6114 91.4624 47.1015 91.3688 47.4158C91.2685 47.73 91.1013 48.195 90.9943 48.4527C90.8806 48.7103 90.6398 49.1942 90.4593 49.521C90.272 49.8478 89.951 50.3443 89.7437 50.6145C89.5363 50.891 89.0615 51.4063 88.6937 51.7708C88.3258 52.129 87.7574 52.6192 87.423 52.858C87.0886 53.0905 84.3131 54.7559 81.2568 56.5532C78.1938 58.3568 75.6524 59.8273 75.6189 59.8273Z" fill="white"/>
<path d="M46.5938 96.5278V93.417V90.3063H48.1186C48.9546 90.3126 50.0246 90.3377 50.5061 90.3691C50.9877 90.4006 51.6029 90.4697 51.8771 90.5263C52.1513 90.5891 52.5927 90.7274 52.8469 90.8405C53.101 90.9473 53.4688 91.1673 53.6494 91.3244C53.8367 91.4815 54.0641 91.7454 54.1644 91.9151C54.2647 92.0848 54.3918 92.3927 54.4453 92.6001C54.5055 92.8075 54.5523 93.1971 54.5523 93.461C54.5523 93.8192 54.5055 94.0895 54.3717 94.4665C54.2112 94.9316 54.1443 95.0321 53.7564 95.4029C53.4956 95.648 53.1679 95.8805 52.9472 95.9748C52.7466 96.069 52.352 96.201 52.0778 96.2701C51.8036 96.3393 51.3087 96.4272 50.9743 96.4649C50.6399 96.4964 49.523 96.5278 46.5938 96.5278Z" fill="white"/>
<path d="M89.7972 116.009L89.8038 115.249L89.8105 114.488L91.4022 114.532L91.6162 114.74C91.7968 114.909 91.8369 114.991 91.8303 115.211C91.8303 115.356 91.7901 115.538 91.75 115.62C91.7032 115.695 91.5427 115.814 91.3822 115.884C91.1615 115.978 90.9541 116.009 89.7972 116.009Z" fill="white"/>
<path d="M97.555 118.46V116.512V114.564H98.2439C98.7589 114.564 99.0397 114.595 99.3942 114.696C99.7687 114.809 99.9225 114.891 100.183 115.136C100.404 115.356 100.524 115.538 100.598 115.77C100.652 115.953 100.698 116.292 100.698 116.525C100.698 116.788 100.652 117.078 100.571 117.279C100.491 117.48 100.324 117.719 100.15 117.882C99.976 118.045 99.7152 118.209 99.4945 118.284C99.2203 118.385 98.9327 118.422 97.555 118.46Z" fill="white"/>
<path d="M50.3724 116.16C50.573 115.645 50.767 115.186 50.7937 115.136C50.8205 115.085 50.8606 115.073 50.8873 115.104C50.9141 115.136 51.0746 115.525 51.2485 115.978C51.4157 116.424 51.5962 116.902 51.7434 117.266H50.874C50.1985 117.266 50.0045 117.247 50.0045 117.184C49.9979 117.134 50.1651 116.675 50.3724 116.16Z" fill="white"/>
<path d="M106.543 117.184C106.557 117.147 106.744 116.65 106.958 116.091C107.179 115.525 107.379 115.073 107.406 115.085C107.44 115.092 107.64 115.563 107.861 116.135C108.082 116.707 108.256 117.191 108.256 117.216C108.256 117.247 107.868 117.266 107.386 117.266C106.724 117.266 106.523 117.247 106.543 117.184Z" fill="white"/>
<path d="M75.6189 59.8273C75.5721 59.8273 75.5521 56.2327 75.5521 49.1754V38.5234H80.1132C82.8886 38.5234 84.9819 38.5486 85.4501 38.5926C85.8714 38.6303 86.4733 38.7308 86.7876 38.8125C87.102 38.9005 87.5969 39.0765 87.8911 39.2021C88.1854 39.3341 88.6201 39.5666 88.8609 39.7175C89.1016 39.8683 89.4561 40.1385 89.6567 40.3082C89.8573 40.4841 90.1984 40.8424 90.4191 41.1C90.6398 41.3577 90.9207 41.7662 91.0545 42.0112C91.1815 42.2563 91.342 42.6083 91.4156 42.7968C91.4825 42.9853 91.5895 43.3372 91.643 43.5823C91.7032 43.8525 91.7433 44.3553 91.7433 44.902C91.7433 45.3985 91.6965 46.0144 91.643 46.316C91.5895 46.6114 91.4624 47.1015 91.3688 47.4158C91.2685 47.73 91.1013 48.195 90.9943 48.4527C90.8806 48.7103 90.6398 49.1942 90.4593 49.521C90.272 49.8478 89.951 50.3443 89.7437 50.6145C89.5363 50.891 89.0615 51.4063 88.6937 51.7708C88.3258 52.129 87.7574 52.6192 87.423 52.858C87.0886 53.0905 84.3131 54.7559 81.2568 56.5532C78.1938 58.3568 75.6524 59.8273 75.6189 59.8273Z" stroke="white" stroke-width="0.5"/>
<path d="M46.5938 96.5278V93.417V90.3063H48.1186C48.9546 90.3126 50.0246 90.3377 50.5061 90.3691C50.9877 90.4006 51.6029 90.4697 51.8771 90.5263C52.1513 90.5891 52.5927 90.7274 52.8469 90.8405C53.101 90.9473 53.4688 91.1673 53.6494 91.3244C53.8367 91.4815 54.0641 91.7454 54.1644 91.9151C54.2647 92.0848 54.3918 92.3927 54.4453 92.6001C54.5055 92.8075 54.5523 93.1971 54.5523 93.461C54.5523 93.8192 54.5055 94.0895 54.3717 94.4665C54.2112 94.9316 54.1443 95.0321 53.7564 95.4029C53.4956 95.648 53.1679 95.8805 52.9472 95.9748C52.7466 96.069 52.352 96.201 52.0778 96.2701C51.8036 96.3393 51.3087 96.4272 50.9743 96.4649C50.6399 96.4964 49.523 96.5278 46.5938 96.5278Z" stroke="white" stroke-width="0.5"/>
<path d="M89.7972 116.009L89.8038 115.249L89.8105 114.488L91.4022 114.532L91.6162 114.74C91.7968 114.909 91.8369 114.991 91.8303 115.211C91.8303 115.356 91.7901 115.538 91.75 115.62C91.7032 115.695 91.5427 115.814 91.3822 115.884C91.1615 115.978 90.9541 116.009 89.7972 116.009Z" stroke="white" stroke-width="0.5"/>
<path d="M97.555 118.46V116.512V114.564H98.2439C98.7589 114.564 99.0397 114.595 99.3942 114.696C99.7687 114.809 99.9225 114.891 100.183 115.136C100.404 115.356 100.524 115.538 100.598 115.77C100.652 115.953 100.698 116.292 100.698 116.525C100.698 116.788 100.652 117.078 100.571 117.279C100.491 117.48 100.324 117.719 100.15 117.882C99.976 118.045 99.7152 118.209 99.4945 118.284C99.2203 118.385 98.9327 118.422 97.555 118.46Z" stroke="white" stroke-width="0.5"/>
<path d="M50.3724 116.16C50.573 115.645 50.767 115.186 50.7937 115.136C50.8205 115.085 50.8606 115.073 50.8873 115.104C50.9141 115.136 51.0746 115.525 51.2485 115.978C51.4157 116.424 51.5962 116.902 51.7434 117.266H50.874C50.1985 117.266 50.0045 117.247 50.0045 117.184C49.9979 117.134 50.1651 116.675 50.3724 116.16Z" stroke="white" stroke-width="0.5"/>
<path d="M106.543 117.184C106.557 117.147 106.744 116.65 106.958 116.091C107.179 115.525 107.379 115.073 107.406 115.085C107.44 115.092 107.64 115.563 107.861 116.135C108.082 116.707 108.256 117.191 108.256 117.216C108.256 117.247 107.868 117.266 107.386 117.266C106.724 117.266 106.523 117.247 106.543 117.184Z" stroke="white" stroke-width="0.5"/>
</svg>
