<svg width="15" height="15" viewBox="0 0 15 15" fill="none" xmlns="http://www.w3.org/2000/svg">
<g clip-path="url(#clip0_542_26126)">
<path d="M13.2332 4.25735C13.5636 3.927 13.7493 3.47891 13.7493 3.01167C13.7494 2.54443 13.5638 2.0963 13.2335 1.76586C12.9031 1.43543 12.455 1.24976 11.9878 1.2497C11.5206 1.24964 11.0724 1.4352 10.742 1.76555L2.401 10.1084C2.2559 10.2531 2.14858 10.4312 2.08851 10.6271L1.26291 13.3471C1.24676 13.4011 1.24554 13.4585 1.25938 13.5132C1.27323 13.5679 1.30161 13.6178 1.34153 13.6577C1.38146 13.6975 1.43142 13.7258 1.48613 13.7396C1.54084 13.7534 1.59825 13.752 1.65228 13.7358L4.37282 12.9108C4.56854 12.8513 4.74666 12.7446 4.89155 12.6002L13.2332 4.25735Z" stroke="white" stroke-width="1.19934" stroke-linecap="round" stroke-linejoin="round"/>
<path d="M9.37475 3.12483L11.8747 5.62475" stroke="white" stroke-width="1.19934" stroke-linecap="round" stroke-linejoin="round"/>
</g>
<defs>
<clipPath id="clip0_542_26126">
<rect width="14.3921" height="14.3921" fill="white" transform="scale(1.0422)"/>
</clipPath>
</defs>
</svg>
