<svg width="15" height="13" viewBox="0 0 15 13" fill="none" xmlns="http://www.w3.org/2000/svg">
<path d="M0.682136 4.44282C0.68215 3.68411 0.912308 2.94325 1.34221 2.31809C1.77212 1.69293 2.38154 1.21288 3.09 0.941348C3.79845 0.669814 4.57261 0.619568 5.31022 0.797246C6.04784 0.974923 6.7142 1.37217 7.22131 1.93651C7.25703 1.9747 7.30021 2.00515 7.34818 2.02596C7.39614 2.04678 7.44788 2.05752 7.50017 2.05752C7.55246 2.05752 7.60419 2.04678 7.65216 2.02596C7.70012 2.00515 7.74331 1.9747 7.77902 1.93651C8.28454 1.3685 8.95106 0.967917 9.68987 0.78808C10.4287 0.608244 11.2047 0.657682 11.9148 0.929815C12.6248 1.20195 13.2351 1.68387 13.6644 2.31143C14.0938 2.939 14.3218 3.68244 14.3182 4.44282C14.3182 6.00414 13.2955 7.17003 12.2728 8.19273L8.52833 11.8152C8.40128 11.9611 8.24465 12.0783 8.06882 12.159C7.893 12.2397 7.70201 12.2821 7.50854 12.2833C7.31508 12.2845 7.12357 12.2446 6.94674 12.1661C6.7699 12.0876 6.6118 11.9724 6.48292 11.8281L2.72754 8.19273C1.70484 7.17003 0.682136 6.01096 0.682136 4.44282Z" stroke="white" stroke-width="1.33333" stroke-linecap="round" stroke-linejoin="round"/>
</svg>
