<svg width="165" height="40" viewBox="0 0 165 40" fill="none" xmlns="http://www.w3.org/2000/svg">
<path d="M4.51578 19.6228C2.04028 13.1598 0.00819508 7.86498 3.40917e-05 7.85402C-0.0081269 7.84305 1.44997 7.83208 3.23995 7.83208C6.31664 7.83208 6.49618 7.83482 6.50979 7.88144C6.51795 7.90611 7.85907 11.4132 9.49127 15.6743C11.1235 19.9354 12.4646 23.4315 12.4755 23.4424C12.4836 23.4534 13.8411 19.9491 18.4792 7.84579H27.7148C35.1848 7.84579 36.9993 7.85402 37.2196 7.88144C37.3692 7.90337 37.6467 7.94999 37.8317 7.98838C38.0194 8.02676 38.3105 8.09806 38.4791 8.15015C38.6478 8.20225 38.9089 8.29548 39.064 8.35581C39.2163 8.41887 39.502 8.54775 39.6951 8.64646C39.891 8.74517 40.1548 8.89324 40.28 8.97824C40.4078 9.06051 40.6227 9.21132 40.756 9.31277C40.892 9.41423 41.1178 9.60068 41.2593 9.72956C41.4035 9.85843 41.6293 10.0915 41.7626 10.2451C41.8986 10.3986 42.1053 10.6618 42.225 10.8319C42.3447 10.9991 42.5188 11.2733 42.6113 11.4406C42.7038 11.6051 42.8344 11.8683 42.8996 12.0274C42.9677 12.1864 43.071 12.4688 43.1309 12.658C43.1934 12.8472 43.2723 13.1543 43.3104 13.3435C43.3485 13.5327 43.392 13.8234 43.4084 13.9879C43.4247 14.1552 43.4356 14.6296 43.4356 15.0436C43.4356 15.4576 43.4247 15.9402 43.4084 16.113C43.3947 16.2857 43.3567 16.5709 43.3267 16.7437C43.2968 16.9164 43.2288 17.2263 43.1744 17.4292C43.1227 17.6321 43.0166 17.9666 42.9432 18.1695C42.867 18.3724 42.7092 18.7371 42.5923 18.9784C42.4753 19.2197 42.2767 19.5734 42.1516 19.7599C42.0291 19.9491 41.8224 20.2397 41.6945 20.4043C41.5694 20.5688 41.3055 20.8677 41.1097 21.0651C40.9165 21.2625 40.6418 21.523 40.4976 21.6409C40.3561 21.7588 40.2392 21.874 40.2419 21.8987C40.2419 21.9206 41.0253 23.9853 41.9829 26.4833C42.9377 28.984 43.7321 31.0269 43.7457 31.0214C43.7593 31.0186 45.7669 25.8033 52.6493 7.84579L59.1455 7.83208L63.7564 19.8723C66.2945 26.4915 68.3701 31.9208 68.3755 31.9345C68.3783 31.9537 67.2439 31.9591 61.8957 31.9482L60.7341 28.9182C60.0949 27.2511 59.5481 25.8307 59.4719 25.6306L57.7037 26.7411L57.2673 27.0159C56.5024 27.4975 55.9256 27.8607 55.9164 27.8653C55.9056 27.8708 55.8947 26.6122 55.8947 22.2551L57.7445 21.1035L57.146 19.5487L57.0442 19.2841C56.7359 18.4827 56.3855 17.5722 56.2266 17.1604C56.0525 16.7053 55.9028 16.3324 55.8947 16.3324C55.8892 16.3324 54.5345 19.8504 49.8963 31.9619L37.6004 31.9646L36.3083 28.5892C35.3099 25.9843 35.008 25.2165 34.9753 25.2275C34.9536 25.233 33.9933 25.8307 30.7452 27.8735L30.7316 31.9619H24.2572L24.2599 20.8923C24.2599 11.8327 24.2545 9.82553 24.2246 9.85295C24.2055 9.8694 22.2877 14.8517 15.729 31.9619H9.241L9.12946 31.6685C9.06962 31.5067 6.994 26.0857 4.51578 19.6228Z" fill="white"/>
<path d="M86.5722 9.95913H85.1384C85.0536 9.54672 84.9052 9.18441 84.6933 8.87221C84.4851 8.56002 84.2307 8.29792 83.9301 8.08594C83.6333 7.8701 83.3038 7.70821 82.9415 7.60029C82.5792 7.49237 82.2015 7.43841 81.8083 7.43841C81.0914 7.43841 80.442 7.61957 79.86 7.98187C79.2818 8.34417 78.8212 8.87799 78.4782 9.58333C78.139 10.2887 77.9694 11.154 77.9694 12.1792C77.9694 13.2044 78.139 14.0697 78.4782 14.7751C78.8212 15.4804 79.2818 16.0142 79.86 16.3765C80.442 16.7388 81.0914 16.92 81.8083 16.92C82.2015 16.92 82.5792 16.866 82.9415 16.7581C83.3038 16.6502 83.6333 16.4902 83.9301 16.2783C84.2307 16.0624 84.4851 15.7984 84.6933 15.4862C84.9052 15.1701 85.0536 14.8078 85.1384 14.3993H86.5722C86.4643 15.0044 86.2677 15.5459 85.9825 16.0239C85.6973 16.5018 85.3427 16.9084 84.9187 17.2438C84.4948 17.5752 84.0188 17.8277 83.4907 18.0011C82.9665 18.1746 82.4057 18.2613 81.8083 18.2613C80.7985 18.2613 79.9004 18.0146 79.1142 17.5213C78.3279 17.0279 77.7093 16.3264 77.2583 15.4168C76.8074 14.5072 76.5819 13.428 76.5819 12.1792C76.5819 10.9304 76.8074 9.85121 77.2583 8.94159C77.7093 8.03198 78.3279 7.33049 79.1142 6.83714C79.9004 6.34379 80.7985 6.09712 81.8083 6.09712C82.4057 6.09712 82.9665 6.18384 83.4907 6.35728C84.0188 6.53073 84.4948 6.78511 84.9187 7.12043C85.3427 7.4519 85.6973 7.8566 85.9825 8.33454C86.2677 8.80862 86.4643 9.35015 86.5722 9.95913ZM88.3067 18.0994V9.2191H89.6248V10.5604H89.7173C89.8792 10.121 90.1721 9.76448 90.5961 9.49083C91.0201 9.21717 91.498 9.08035 92.0299 9.08035C92.1301 9.08035 92.2554 9.08227 92.4057 9.08613C92.556 9.08998 92.6697 9.09576 92.7468 9.10347V10.491C92.7006 10.4795 92.5946 10.4621 92.4288 10.439C92.267 10.412 92.0954 10.3985 91.9143 10.3985C91.4826 10.3985 91.0972 10.4891 90.758 10.6702C90.4227 10.8475 90.1567 11.0942 89.9602 11.4103C89.7674 11.7225 89.6711 12.079 89.6711 12.4798V18.0994H88.3067ZM93.9667 18.0994V9.2191H95.3311V18.0994H93.9667ZM94.6605 7.73905C94.3945 7.73905 94.1652 7.64847 93.9725 7.46732C93.7836 7.28617 93.6892 7.0684 93.6892 6.81402C93.6892 6.55963 93.7836 6.34186 93.9725 6.16071C94.1652 5.97956 94.3945 5.88898 94.6605 5.88898C94.9264 5.88898 95.1538 5.97956 95.3427 6.16071C95.5354 6.34186 95.6318 6.55963 95.6318 6.81402C95.6318 7.0684 95.5354 7.28617 95.3427 7.46732C95.1538 7.64847 94.9264 7.73905 94.6605 7.73905ZM101.04 18.2844C100.208 18.2844 99.4909 18.0878 98.8896 17.6947C98.2883 17.3016 97.8258 16.76 97.5021 16.0701C97.1783 15.3802 97.0164 14.592 97.0164 13.7055C97.0164 12.8036 97.1822 12.0077 97.5136 11.3178C97.8489 10.624 98.3153 10.0825 98.9127 9.69318C99.514 9.30004 100.215 9.10347 101.017 9.10347C101.642 9.10347 102.204 9.2191 102.705 9.45036C103.206 9.68162 103.617 10.0054 103.937 10.4216C104.257 10.8379 104.455 11.3235 104.532 11.8786H103.168C103.064 11.4739 102.833 11.1154 102.474 10.8032C102.12 10.4872 101.642 10.3291 101.04 10.3291C100.508 10.3291 100.042 10.4679 99.6412 10.7454C99.2442 11.0191 98.9339 11.4064 98.7104 11.9075C98.4907 12.4047 98.3808 12.9886 98.3808 13.6593C98.3808 14.3453 98.4888 14.9427 98.7046 15.4515C98.9243 15.9603 99.2326 16.3553 99.6296 16.6367C100.03 16.9181 100.501 17.0587 101.04 17.0587C101.395 17.0587 101.717 16.9971 102.006 16.8737C102.295 16.7504 102.54 16.5731 102.74 16.3418C102.94 16.1106 103.083 15.8331 103.168 15.5093H104.532C104.455 16.0335 104.264 16.5057 103.96 16.9258C103.659 17.342 103.26 17.6735 102.763 17.9202C102.27 18.163 101.696 18.2844 101.04 18.2844ZM107.401 14.8618L107.378 13.1736H107.656L111.541 9.2191H113.229L109.09 13.4049H108.974L107.401 14.8618ZM106.129 18.0994V6.259H107.494V18.0994H106.129ZM111.772 18.0994L108.303 13.7055L109.275 12.7573L113.507 18.0994H111.772ZM117.945 18.2844C117.09 18.2844 116.352 18.0956 115.731 17.7178C115.114 17.3363 114.638 16.8044 114.303 16.1222C113.971 15.4361 113.806 14.6382 113.806 13.7286C113.806 12.819 113.971 12.0173 114.303 11.3235C114.638 10.6259 115.105 10.0825 115.702 9.69318C116.303 9.30004 117.005 9.10347 117.807 9.10347C118.269 9.10347 118.726 9.18056 119.177 9.33473C119.628 9.4889 120.038 9.73943 120.408 10.0863C120.778 10.4294 121.073 10.8842 121.293 11.4507C121.512 12.0173 121.622 12.715 121.622 13.5436V14.1218H114.777V12.9424H120.235C120.235 12.4413 120.135 11.9942 119.934 11.6011C119.738 11.2079 119.456 10.8976 119.09 10.6702C118.728 10.4428 118.3 10.3291 117.807 10.3291C117.263 10.3291 116.793 10.464 116.396 10.7338C116.003 10.9998 115.7 11.3467 115.488 11.7745C115.276 12.2023 115.17 12.661 115.17 13.1505V13.9368C115.17 14.6074 115.286 15.1759 115.517 15.6423C115.752 16.1048 116.078 16.4575 116.494 16.7003C116.91 16.9393 117.394 17.0587 117.945 17.0587C118.304 17.0587 118.627 17.0086 118.917 16.9084C119.209 16.8044 119.462 16.6502 119.674 16.4459C119.886 16.2378 120.05 15.9795 120.165 15.6712L121.484 16.0412C121.345 16.4883 121.112 16.8815 120.784 17.2206C120.456 17.556 120.052 17.818 119.57 18.0069C119.088 18.1919 118.547 18.2844 117.945 18.2844ZM127.162 9.2191V10.3754H122.56V9.2191H127.162ZM123.902 7.09153H125.266V15.5556C125.266 15.941 125.322 16.2301 125.434 16.4228C125.549 16.6116 125.696 16.7388 125.873 16.8044C126.054 16.866 126.245 16.8969 126.445 16.8969C126.596 16.8969 126.719 16.8892 126.815 16.8737C126.912 16.8545 126.989 16.8391 127.047 16.8275L127.324 18.0532C127.232 18.0878 127.103 18.1225 126.937 18.1572C126.771 18.1958 126.561 18.215 126.307 18.215C125.921 18.215 125.544 18.1322 125.174 17.9664C124.807 17.8007 124.503 17.5482 124.26 17.2091C124.021 16.8699 123.902 16.4421 123.902 15.9256V7.09153ZM142.712 9.95913H141.278C141.193 9.54672 141.045 9.18441 140.833 8.87221C140.624 8.56002 140.37 8.29792 140.069 8.08594C139.773 7.8701 139.443 7.70821 139.081 7.60029C138.719 7.49237 138.341 7.43841 137.948 7.43841C137.231 7.43841 136.581 7.61957 135.999 7.98187C135.421 8.34417 134.961 8.87799 134.618 9.58333C134.278 10.2887 134.109 11.154 134.109 12.1792C134.109 13.2044 134.278 14.0697 134.618 14.7751C134.961 15.4804 135.421 16.0142 135.999 16.3765C136.581 16.7388 137.231 16.92 137.948 16.92C138.341 16.92 138.719 16.866 139.081 16.7581C139.443 16.6502 139.773 16.4902 140.069 16.2783C140.37 16.0624 140.624 15.7984 140.833 15.4862C141.045 15.1701 141.193 14.8078 141.278 14.3993H142.712C142.604 15.0044 142.407 15.5459 142.122 16.0239C141.837 16.5018 141.482 16.9084 141.058 17.2438C140.634 17.5752 140.158 17.8277 139.63 18.0011C139.106 18.1746 138.545 18.2613 137.948 18.2613C136.938 18.2613 136.04 18.0146 135.253 17.5213C134.467 17.0279 133.849 16.3264 133.398 15.4168C132.947 14.5072 132.721 13.428 132.721 12.1792C132.721 10.9304 132.947 9.85121 133.398 8.94159C133.849 8.03198 134.467 7.33049 135.253 6.83714C136.04 6.34379 136.938 6.09712 137.948 6.09712C138.545 6.09712 139.106 6.18384 139.63 6.35728C140.158 6.53073 140.634 6.78511 141.058 7.12043C141.482 7.4519 141.837 7.8566 142.122 8.33454C142.407 8.80862 142.604 9.35015 142.712 9.95913ZM145.81 6.259V18.0994H144.446V6.259H145.81ZM153.508 14.4687V9.2191H154.873V18.0994H153.508V16.5962H153.416C153.208 17.0472 152.884 17.4307 152.445 17.7467C152.005 18.0589 151.45 18.215 150.78 18.215C150.225 18.215 149.731 18.0936 149.3 17.8508C148.868 17.6041 148.529 17.2341 148.282 16.7408C148.035 16.2436 147.912 15.6172 147.912 14.8618V9.2191H149.276V14.7693C149.276 15.4168 149.458 15.9333 149.82 16.3187C150.186 16.7042 150.652 16.8969 151.219 16.8969C151.558 16.8969 151.903 16.8101 152.254 16.6367C152.608 16.4633 152.905 16.1973 153.144 15.8389C153.387 15.4804 153.508 15.0237 153.508 14.4687ZM157.159 18.0994V6.259H158.524V10.6298H158.639C158.74 10.4756 158.878 10.279 159.056 10.0401C159.237 9.79725 159.495 9.5814 159.83 9.39254C160.17 9.19983 160.628 9.10347 161.206 9.10347C161.954 9.10347 162.613 9.29041 163.184 9.66427C163.754 10.0381 164.199 10.5681 164.519 11.2542C164.839 11.9402 164.999 12.7496 164.999 13.6824C164.999 14.6228 164.839 15.438 164.519 16.1279C164.199 16.814 163.756 17.3459 163.189 17.7236C162.623 18.0975 161.97 18.2844 161.23 18.2844C160.659 18.2844 160.202 18.19 159.859 18.0011C159.516 17.8084 159.252 17.5906 159.067 17.3478C158.882 17.1011 158.74 16.8969 158.639 16.735H158.478V18.0994H157.159ZM158.501 13.6593C158.501 14.3299 158.599 14.9215 158.796 15.4342C158.992 15.9429 159.279 16.3418 159.657 16.6309C160.035 16.9161 160.497 17.0587 161.045 17.0587C161.615 17.0587 162.091 16.9084 162.473 16.6078C162.858 16.3033 163.147 15.8947 163.34 15.3821C163.536 14.8657 163.635 14.2914 163.635 13.6593C163.635 13.0349 163.538 12.4721 163.346 11.9711C163.157 11.4662 162.87 11.0672 162.484 10.7743C162.103 10.4775 161.623 10.3291 161.045 10.3291C160.49 10.3291 160.023 10.4698 159.645 10.7512C159.268 11.0287 158.982 11.418 158.79 11.919C158.597 12.4162 158.501 12.9963 158.501 13.6593Z" fill="white"/>
<path d="M77.572 24.3693H78.7129L81.3955 30.9216H81.488L84.1706 24.3693H85.3114V32.2629H84.4172V26.2656H84.3401L81.8734 32.2629H81.01L78.5433 26.2656H78.4662V32.2629H77.572V24.3693ZM89.5868 32.3862C89.0164 32.3862 88.5243 32.2603 88.1106 32.0085C87.6995 31.7541 87.3821 31.3995 87.1586 30.9447C86.9376 30.4873 86.8271 29.9555 86.8271 29.349C86.8271 28.7426 86.9376 28.2082 87.1586 27.7457C87.3821 27.2806 87.6931 26.9183 88.0913 26.6587C88.4922 26.3966 88.9598 26.2656 89.4943 26.2656C89.8026 26.2656 90.1071 26.317 90.4078 26.4198C90.7084 26.5226 90.9821 26.6896 91.2287 26.9208C91.4754 27.1495 91.672 27.4527 91.8184 27.8304C91.9649 28.2082 92.0381 28.6733 92.0381 29.2257V29.6111H87.4746V28.8249H91.1131C91.1131 28.4908 91.0463 28.1928 90.9127 27.9307C90.7816 27.6686 90.5941 27.4617 90.35 27.3101C90.1084 27.1585 89.8232 27.0827 89.4943 27.0827C89.132 27.0827 88.8185 27.1726 88.5539 27.3525C88.2918 27.5298 88.0901 27.7611 87.9487 28.0463C87.8074 28.3315 87.7367 28.6373 87.7367 28.9636V29.4878C87.7367 29.9349 87.8138 30.3139 87.968 30.6248C88.1247 30.9332 88.3419 31.1683 88.6194 31.3302C88.8969 31.4895 89.2194 31.5691 89.5868 31.5691C89.8258 31.5691 90.0416 31.5357 90.2343 31.4689C90.4296 31.3995 90.5979 31.2968 90.7392 31.1606C90.8806 31.0218 90.9898 30.8497 91.0669 30.6441L91.9456 30.8908C91.8531 31.1888 91.6977 31.4509 91.4793 31.677C91.2609 31.9006 90.9911 32.0753 90.6699 32.2012C90.3487 32.3246 89.9877 32.3862 89.5868 32.3862ZM93.4218 32.2629V26.3427H94.3006V27.2677H94.3777C94.501 26.9517 94.7002 26.7063 94.9751 26.5315C95.2501 26.3543 95.5802 26.2656 95.9657 26.2656C96.3562 26.2656 96.6813 26.3543 96.9408 26.5315C97.2029 26.7063 97.4072 26.9517 97.5536 27.2677H97.6153C97.7669 26.9619 97.9943 26.7191 98.2975 26.5393C98.6007 26.3568 98.9643 26.2656 99.3883 26.2656C99.9176 26.2656 100.351 26.4313 100.687 26.7628C101.024 27.0917 101.192 27.6043 101.192 28.3007V32.2629H100.282V28.3007C100.282 27.8639 100.163 27.5517 99.924 27.3641C99.6851 27.1765 99.4037 27.0827 99.0799 27.0827C98.6637 27.0827 98.3412 27.2086 98.1125 27.4604C97.8838 27.7097 97.7695 28.0257 97.7695 28.4086V32.2629H96.8445V28.2082C96.8445 27.8716 96.7352 27.6005 96.5168 27.3949C96.2984 27.1868 96.0171 27.0827 95.6727 27.0827C95.4364 27.0827 95.2154 27.1457 95.0098 27.2716C94.8068 27.3975 94.6424 27.5722 94.5165 27.7958C94.3931 28.0167 94.3315 28.2724 94.3315 28.5628V32.2629H93.4218ZM102.979 32.2629V24.3693H103.888V27.2831H103.965C104.032 27.1804 104.125 27.0493 104.243 26.89C104.364 26.7281 104.536 26.5842 104.759 26.4583C104.985 26.3298 105.291 26.2656 105.677 26.2656C106.175 26.2656 106.614 26.3902 106.995 26.6395C107.375 26.8887 107.672 27.242 107.885 27.6994C108.098 28.1568 108.205 28.6964 108.205 29.3182C108.205 29.9452 108.098 30.4886 107.885 30.9486C107.672 31.406 107.376 31.7606 106.999 32.0124C106.621 32.2616 106.185 32.3862 105.692 32.3862C105.312 32.3862 105.007 32.3233 104.779 32.1974C104.55 32.0689 104.374 31.9237 104.25 31.7618C104.127 31.5974 104.032 31.4612 103.965 31.3533H103.857V32.2629H102.979ZM103.873 29.3028C103.873 29.7499 103.938 30.1443 104.069 30.4861C104.2 30.8252 104.392 31.0912 104.644 31.2839C104.895 31.474 105.204 31.5691 105.569 31.5691C105.949 31.5691 106.266 31.4689 106.521 31.2685C106.778 31.0655 106.97 30.7931 107.099 30.4514C107.23 30.1071 107.295 29.7242 107.295 29.3028C107.295 28.8865 107.231 28.5114 107.103 28.1773C106.977 27.8407 106.785 27.5748 106.528 27.3795C106.274 27.1816 105.954 27.0827 105.569 27.0827C105.199 27.0827 104.888 27.1765 104.636 27.3641C104.384 27.5491 104.194 27.8086 104.065 28.1426C103.937 28.4741 103.873 28.8608 103.873 29.3028ZM112.079 32.3862C111.508 32.3862 111.016 32.2603 110.602 32.0085C110.191 31.7541 109.874 31.3995 109.65 30.9447C109.429 30.4873 109.319 29.9555 109.319 29.349C109.319 28.7426 109.429 28.2082 109.65 27.7457C109.874 27.2806 110.185 26.9183 110.583 26.6587C110.984 26.3966 111.452 26.2656 111.986 26.2656C112.294 26.2656 112.599 26.317 112.9 26.4198C113.2 26.5226 113.474 26.6896 113.721 26.9208C113.967 27.1495 114.164 27.4527 114.31 27.8304C114.457 28.2082 114.53 28.6733 114.53 29.2257V29.6111H109.966V28.8249H113.605C113.605 28.4908 113.538 28.1928 113.404 27.9307C113.273 27.6686 113.086 27.4617 112.842 27.3101C112.6 27.1585 112.315 27.0827 111.986 27.0827C111.624 27.0827 111.31 27.1726 111.046 27.3525C110.784 27.5298 110.582 27.7611 110.441 28.0463C110.299 28.3315 110.229 28.6373 110.229 28.9636V29.4878C110.229 29.9349 110.306 30.3139 110.46 30.6248C110.617 30.9332 110.834 31.1683 111.111 31.3302C111.389 31.4895 111.711 31.5691 112.079 31.5691C112.318 31.5691 112.533 31.5357 112.726 31.4689C112.921 31.3995 113.09 31.2968 113.231 31.1606C113.372 31.0218 113.482 30.8497 113.559 30.6441L114.437 30.8908C114.345 31.1888 114.189 31.4509 113.971 31.677C113.753 31.9006 113.483 32.0753 113.162 32.2012C112.84 32.3246 112.479 32.3862 112.079 32.3862ZM115.914 32.2629V26.3427H116.792V27.2369H116.854C116.962 26.944 117.157 26.7063 117.44 26.5238C117.723 26.3414 118.041 26.2502 118.396 26.2502C118.463 26.2502 118.546 26.2515 118.646 26.254C118.747 26.2566 118.822 26.2605 118.874 26.2656V27.1906C118.843 27.1829 118.772 27.1714 118.662 27.1559C118.554 27.138 118.439 27.129 118.319 27.129C118.031 27.129 117.774 27.1894 117.548 27.3101C117.324 27.4283 117.147 27.5928 117.016 27.8035C116.887 28.0116 116.823 28.2493 116.823 28.5165V32.2629H115.914ZM123.128 32.2629V24.3693H125.795C126.414 24.3693 126.921 24.4811 127.314 24.7046C127.709 24.9256 128.002 25.2249 128.192 25.6027C128.383 25.9804 128.478 26.4018 128.478 26.8669C128.478 27.332 128.383 27.7546 128.192 28.1349C128.005 28.5152 127.715 28.8184 127.321 29.0446C126.928 29.2681 126.425 29.3799 125.81 29.3799H123.899V28.5319H125.78C126.204 28.5319 126.544 28.4587 126.801 28.3122C127.058 28.1658 127.244 27.9679 127.36 27.7187C127.478 27.4669 127.537 27.1829 127.537 26.8669C127.537 26.5508 127.478 26.2682 127.36 26.0189C127.244 25.7697 127.057 25.5744 126.797 25.4331C126.538 25.2892 126.193 25.2172 125.764 25.2172H124.084V32.2629H123.128ZM132.236 32.3862C131.701 32.3862 131.232 32.259 130.829 32.0047C130.428 31.7503 130.114 31.3944 129.888 30.937C129.665 30.4796 129.553 29.9452 129.553 29.3336C129.553 28.7169 129.665 28.1786 129.888 27.7187C130.114 27.2587 130.428 26.9016 130.829 26.6472C131.232 26.3928 131.701 26.2656 132.236 26.2656C132.77 26.2656 133.238 26.3928 133.639 26.6472C134.042 26.9016 134.355 27.2587 134.579 27.7187C134.805 28.1786 134.918 28.7169 134.918 29.3336C134.918 29.9452 134.805 30.4796 134.579 30.937C134.355 31.3944 134.042 31.7503 133.639 32.0047C133.238 32.259 132.77 32.3862 132.236 32.3862ZM132.236 31.5691C132.642 31.5691 132.976 31.4651 133.238 31.2569C133.5 31.0488 133.694 30.7751 133.82 30.436C133.946 30.0968 134.009 29.7293 134.009 29.3336C134.009 28.9379 133.946 28.5692 133.82 28.2274C133.694 27.8857 133.5 27.6095 133.238 27.3988C132.976 27.1881 132.642 27.0827 132.236 27.0827C131.83 27.0827 131.496 27.1881 131.233 27.3988C130.971 27.6095 130.777 27.8857 130.651 28.2274C130.526 28.5692 130.463 28.9379 130.463 29.3336C130.463 29.7293 130.526 30.0968 130.651 30.436C130.777 30.7751 130.971 31.0488 131.233 31.2569C131.496 31.4651 131.83 31.5691 132.236 31.5691ZM136.307 32.2629V26.3427H137.185V27.2369H137.247C137.355 26.944 137.55 26.7063 137.833 26.5238C138.116 26.3414 138.434 26.2502 138.789 26.2502C138.856 26.2502 138.939 26.2515 139.039 26.254C139.14 26.2566 139.215 26.2605 139.267 26.2656V27.1906C139.236 27.1829 139.165 27.1714 139.055 27.1559C138.947 27.138 138.833 27.129 138.712 27.129C138.424 27.129 138.167 27.1894 137.941 27.3101C137.717 27.4283 137.54 27.5928 137.409 27.8035C137.281 28.0116 137.216 28.2493 137.216 28.5165V32.2629H136.307ZM143.291 26.3427V27.1135H140.223V26.3427H143.291ZM141.117 24.9243H142.026V30.567C142.026 30.824 142.064 31.0167 142.138 31.1451C142.215 31.2711 142.313 31.3558 142.431 31.3995C142.552 31.4406 142.679 31.4612 142.813 31.4612C142.913 31.4612 142.995 31.4561 143.059 31.4458C143.124 31.4329 143.175 31.4227 143.214 31.4149L143.399 32.2321C143.337 32.2552 143.251 32.2783 143.14 32.3014C143.03 32.3271 142.89 32.34 142.72 32.34C142.463 32.34 142.212 32.2847 141.965 32.1742C141.721 32.0638 141.518 31.8955 141.356 31.6693C141.197 31.4432 141.117 31.158 141.117 30.8137V24.9243ZM146.401 32.4016C146.026 32.4016 145.686 32.331 145.38 32.1897C145.074 32.0458 144.831 31.8389 144.651 31.5691C144.471 31.2968 144.381 30.9678 144.381 30.5824C144.381 30.2432 144.448 29.9683 144.582 29.7576C144.716 29.5443 144.894 29.3773 145.118 29.2565C145.341 29.1358 145.588 29.0458 145.858 28.9867C146.13 28.9251 146.404 28.8762 146.679 28.8403C147.038 28.794 147.33 28.7593 147.554 28.7362C147.78 28.7105 147.944 28.6681 148.047 28.609C148.152 28.5499 148.205 28.4471 148.205 28.3007V28.2698C148.205 27.8895 148.101 27.5941 147.893 27.3833C147.687 27.1726 147.375 27.0673 146.956 27.0673C146.522 27.0673 146.181 27.1624 145.935 27.3525C145.688 27.5427 145.515 27.7457 145.414 27.9615L144.551 27.6532C144.705 27.2934 144.911 27.0133 145.168 26.8129C145.427 26.6099 145.71 26.4686 146.016 26.3889C146.324 26.3067 146.627 26.2656 146.925 26.2656C147.115 26.2656 147.334 26.2887 147.581 26.335C147.83 26.3787 148.07 26.4699 148.301 26.6086C148.535 26.7474 148.729 26.9568 148.883 27.2369C149.037 27.517 149.115 27.8921 149.115 28.3623V32.2629H148.205V31.4612H148.159C148.097 31.5897 147.994 31.7271 147.85 31.8736C147.706 32.0201 147.515 32.1447 147.276 32.2475C147.037 32.3503 146.745 32.4016 146.401 32.4016ZM146.54 31.5845C146.9 31.5845 147.203 31.5139 147.449 31.3726C147.699 31.2312 147.886 31.0488 148.012 30.8252C148.141 30.6017 148.205 30.3666 148.205 30.1199V29.2874C148.166 29.3336 148.082 29.376 147.951 29.4146C147.822 29.4505 147.673 29.4827 147.503 29.5109C147.336 29.5366 147.173 29.5597 147.014 29.5803C146.857 29.5983 146.73 29.6137 146.632 29.6266C146.396 29.6574 146.175 29.7075 145.969 29.7769C145.766 29.8437 145.602 29.9452 145.476 30.0814C145.353 30.215 145.291 30.3974 145.291 30.6287C145.291 30.9447 145.408 31.1837 145.642 31.3456C145.878 31.5049 146.178 31.5845 146.54 31.5845ZM151.684 24.3693V32.2629H150.775V24.3693H151.684Z" fill="white"/>
<path d="M30.291 23.1319C30.2706 23.1319 30.2619 21.4353 30.2619 18.1043V13.0767H32.2447C33.4513 13.0767 34.3613 13.0886 34.5648 13.1093C34.7479 13.1271 35.0096 13.1746 35.1462 13.2131C35.2829 13.2547 35.498 13.3377 35.6259 13.397C35.7539 13.4593 35.9428 13.5691 36.0475 13.6403C36.1522 13.7115 36.3063 13.839 36.3935 13.9191C36.4807 14.0021 36.629 14.1712 36.7249 14.2928C36.8209 14.4144 36.943 14.6072 37.0011 14.7229C37.0564 14.8386 37.1261 15.0047 37.1581 15.0937C37.1872 15.1827 37.2337 15.3488 37.257 15.4645C37.2831 15.592 37.3006 15.8293 37.3006 16.0873C37.3006 16.3217 37.2802 16.6123 37.257 16.7547C37.2337 16.8941 37.1785 17.1255 37.1378 17.2738C37.0942 17.4221 37.0215 17.6416 36.975 17.7632C36.9255 17.8848 36.8209 18.1132 36.7424 18.2675C36.661 18.4217 36.5214 18.656 36.4313 18.7836C36.3412 18.9141 36.1347 19.1573 35.9748 19.3293C35.8149 19.4984 35.5678 19.7298 35.4224 19.8425C35.2771 19.9522 34.0705 20.7383 32.7419 21.5866C31.4103 22.4379 30.3055 23.1319 30.291 23.1319Z" fill="#181818"/>
</svg>
