<svg width="20" height="20" viewBox="0 0 20 20" fill="none" xmlns="http://www.w3.org/2000/svg">
<path d="M8.33301 12.2166V13.5716C8.32986 13.8571 8.25341 14.137 8.11099 14.3845C7.96857 14.632 7.76496 14.8387 7.51967 14.9849C6.99896 15.3706 6.57537 15.8724 6.28258 16.4504C5.98978 17.0285 5.83585 17.6669 5.83301 18.3149" stroke="#155DFC" stroke-width="1.66667" stroke-linecap="round" stroke-linejoin="round"/>
<path d="M11.667 12.2166V13.5716C11.6701 13.8571 11.7466 14.137 11.889 14.3845C12.0314 14.632 12.235 14.8387 12.4803 14.9849C13.001 15.3706 13.4246 15.8724 13.7174 16.4504C14.0102 17.0285 14.1642 17.6669 14.167 18.3149" stroke="#155DFC" stroke-width="1.66667" stroke-linecap="round" stroke-linejoin="round"/>
<path d="M15 7.49992H16.25C16.8025 7.49992 17.3324 7.28043 17.7231 6.88972C18.1138 6.49902 18.3333 5.96912 18.3333 5.41659C18.3333 4.86405 18.1138 4.33415 17.7231 3.94345C17.3324 3.55275 16.8025 3.33325 16.25 3.33325H15" stroke="#155DFC" stroke-width="1.66667" stroke-linecap="round" stroke-linejoin="round"/>
<path d="M3.33301 18.3333H16.6663" stroke="#155DFC" stroke-width="1.66667" stroke-linecap="round" stroke-linejoin="round"/>
<path d="M5 7.50008C5 8.82616 5.52678 10.0979 6.46447 11.0356C7.40215 11.9733 8.67392 12.5001 10 12.5001C11.3261 12.5001 12.5979 11.9733 13.5355 11.0356C14.4732 10.0979 15 8.82616 15 7.50008V2.50008C15 2.27907 14.9122 2.06711 14.7559 1.91083C14.5996 1.75455 14.3877 1.66675 14.1667 1.66675H5.83333C5.61232 1.66675 5.40036 1.75455 5.24408 1.91083C5.0878 2.06711 5 2.27907 5 2.50008V7.50008Z" stroke="#155DFC" stroke-width="1.66667" stroke-linecap="round" stroke-linejoin="round"/>
<path d="M5.00033 7.49992H3.75033C3.19779 7.49992 2.66789 7.28043 2.27719 6.88972C1.88649 6.49902 1.66699 5.96912 1.66699 5.41659C1.66699 4.86405 1.88649 4.33415 2.27719 3.94345C2.66789 3.55275 3.19779 3.33325 3.75033 3.33325H5.00033" stroke="#155DFC" stroke-width="1.66667" stroke-linecap="round" stroke-linejoin="round"/>
</svg>
