<svg width="29" height="29" viewBox="0 0 29 29" fill="none" xmlns="http://www.w3.org/2000/svg">
<g opacity="0.8">
<path d="M14.4998 26.5834C21.1732 26.5834 26.5832 21.1735 26.5832 14.5C26.5832 7.82657 21.1732 2.41667 14.4998 2.41667C7.82633 2.41667 2.41642 7.82657 2.41642 14.5C2.41642 21.1735 7.82633 26.5834 14.4998 26.5834Z" stroke="white" stroke-width="2.39869" stroke-linecap="round" stroke-linejoin="round"/>
<path d="M14.5003 21.75C18.5043 21.75 21.7503 18.5041 21.7503 14.5C21.7503 10.4959 18.5043 7.25 14.5003 7.25C10.4962 7.25 7.25025 10.4959 7.25025 14.5C7.25025 18.5041 10.4962 21.75 14.5003 21.75Z" stroke="white" stroke-width="2.39869" stroke-linecap="round" stroke-linejoin="round"/>
<path d="M14.4998 16.9167C15.8345 16.9167 16.9164 15.8347 16.9164 14.5C16.9164 13.1653 15.8345 12.0833 14.4998 12.0833C13.1651 12.0833 12.0831 13.1653 12.0831 14.5C12.0831 15.8347 13.1651 16.9167 14.4998 16.9167Z" stroke="white" stroke-width="2.39869" stroke-linecap="round" stroke-linejoin="round"/>
</g>
</svg>
