<svg width="14" height="14" viewBox="0 0 14 14" fill="none" xmlns="http://www.w3.org/2000/svg">
<path d="M13.1594 7.14573C13.1594 6.69074 13.1186 6.25325 13.0428 5.83325H6.99951V8.31822H10.4528C10.3011 9.11737 9.84614 9.79403 9.16365 10.249V11.8648H11.2461C12.4594 10.7448 13.1594 9.09987 13.1594 7.14573Z" fill="#0A0A0A"/>
<path d="M7.00009 13.4165C8.73256 13.4165 10.185 12.8449 11.2467 11.8649L9.16422 10.2491C8.59257 10.6341 7.86341 10.8674 7.00009 10.8674C5.33178 10.8674 3.9143 9.74158 3.4068 8.22494H1.27183V9.88158C2.32765 11.9757 4.49179 13.4165 7.00009 13.4165Z" fill="#0A0A0A"/>
<path d="M3.40667 8.21907C3.27834 7.83408 3.2025 7.42575 3.2025 6.99993C3.2025 6.5741 3.27834 6.16577 3.40667 5.78078V4.12413H1.2717C0.834204 4.98745 0.583374 5.96161 0.583374 6.99993C0.583374 8.03824 0.834204 9.0124 1.2717 9.87572L2.93417 8.58074L3.40667 8.21907Z" fill="#0A0A0A"/>
<path d="M7.00009 3.13834C7.94507 3.13834 8.78506 3.465 9.45589 4.09499L11.2934 2.25752C10.1792 1.2192 8.73256 0.583374 7.00009 0.583374C4.49179 0.583374 2.32765 2.02419 1.27183 4.12416L3.4068 5.7808C3.9143 4.26416 5.33178 3.13834 7.00009 3.13834Z" fill="#0A0A0A"/>
</svg>
