<svg width="10" height="10" viewBox="0 0 10 10" fill="none" xmlns="http://www.w3.org/2000/svg">
<path d="M4.78491 0.588486C4.80483 0.548245 4.8356 0.514371 4.87374 0.490688C4.91189 0.467005 4.9559 0.454456 5.0008 0.454456C5.0457 0.454456 5.08971 0.467005 5.12786 0.490688C5.166 0.514371 5.19677 0.548245 5.21669 0.588486L6.26659 2.71511C6.33576 2.85508 6.43785 2.97618 6.56412 3.06801C6.69039 3.15984 6.83705 3.21966 6.99152 3.24233L9.33949 3.58593C9.38398 3.59238 9.42577 3.61115 9.46015 3.64011C9.49453 3.66908 9.52012 3.70708 9.53402 3.74983C9.54793 3.79258 9.54959 3.83837 9.53883 3.88201C9.52806 3.92566 9.5053 3.96542 9.47311 3.99681L7.77509 5.65029C7.66311 5.75942 7.57932 5.89412 7.53094 6.04281C7.48257 6.1915 7.47105 6.34972 7.49739 6.50385L7.89826 8.83999C7.90611 8.88446 7.90131 8.93024 7.88439 8.97211C7.86748 9.01398 7.83914 9.05025 7.80261 9.07679C7.76607 9.10332 7.72281 9.11906 7.67776 9.12219C7.63272 9.12533 7.58769 9.11574 7.54784 9.09451L5.44894 7.99098C5.31064 7.91836 5.15678 7.88042 5.00057 7.88042C4.84437 7.88042 4.6905 7.91836 4.5522 7.99098L2.45376 9.09451C2.41392 9.11561 2.36895 9.1251 2.32398 9.1219C2.27901 9.1187 2.23584 9.10295 2.19938 9.07643C2.16291 9.04992 2.13463 9.0137 2.11773 8.9719C2.10083 8.9301 2.096 8.8844 2.1038 8.83999L2.50421 6.5043C2.53066 6.3501 2.5192 6.19178 2.47082 6.043C2.42244 5.89422 2.3386 5.75944 2.22651 5.65029L0.528488 3.99726C0.496033 3.96591 0.473035 3.92608 0.462113 3.8823C0.451191 3.83853 0.452784 3.79256 0.466711 3.74964C0.480638 3.70673 0.506338 3.66858 0.540885 3.63956C0.575432 3.61053 0.617436 3.5918 0.662112 3.58548L3.00962 3.24233C3.16427 3.21983 3.31113 3.16009 3.43757 3.06825C3.56401 2.97641 3.66624 2.85522 3.73546 2.71511L4.78491 0.588486Z" fill="#F0B100" stroke="#F0B100" stroke-width="0.899508" stroke-linecap="round" stroke-linejoin="round"/>
</svg>
