<svg width="200" height="120" viewBox="0 0 200 120" fill="none" xmlns="http://www.w3.org/2000/svg">
<path d="M162.213 28.782C161.805 27.7954 161.464 26.9533 161.437 26.9155C161.41 26.8527 163.022 26.8339 177.374 26.8339L178.21 28.8888C178.672 30.0137 179.053 30.9752 179.066 31.0255C179.079 31.0946 177.755 31.1072 163.162 31.1072L163.055 30.8432C162.995 30.6924 162.614 29.7686 162.213 28.782Z" fill="#DB3242"/>
<path d="M174.512 58.7399C174.043 57.5962 173.662 56.6347 173.662 56.6096C173.662 56.5781 177.247 56.5593 181.621 56.5593C187.927 56.5593 189.586 56.5781 189.606 56.641C189.619 56.6787 189.967 57.5396 190.382 58.5388C190.796 59.5443 191.171 60.4681 191.318 60.8326H175.368L174.512 58.7399Z" fill="#F3C628"/>
<path d="M180.658 73.7028C178.752 69.0587 177.174 65.2253 177.154 65.1876C177.127 65.1247 178.739 65.1059 193.091 65.1122L196.535 73.5017C198.428 78.1207 199.986 81.9541 199.999 82.0169C200.013 82.13 199.799 82.1363 184.129 82.1363L180.658 73.7028Z" fill="#233F84"/>
<path d="M29.413 0.54045C29.5401 0.402195 29.7876 0.226235 29.9748 0.144539C30.2223 0.0377058 30.4296 0 30.7773 0C31.1586 0 31.3124 0.0314215 31.6066 0.169676C31.8073 0.270225 32.0547 0.446185 32.155 0.565587C32.2554 0.684988 32.4025 0.923792 32.4827 1.09975C32.6031 1.34484 32.6299 1.49566 32.6031 1.79102C32.5897 1.99841 32.5229 2.26863 32.4627 2.38803C32.4025 2.50743 32.2487 2.7211 32.1283 2.85936C31.9945 3.00389 31.7538 3.17357 31.5398 3.26155C31.2722 3.37467 31.0649 3.41237 30.7439 3.41237C30.5031 3.41237 30.2022 3.36838 30.0751 3.31811C29.9481 3.26783 29.7073 3.11701 29.5468 2.97876C29.3863 2.84679 29.179 2.58913 29.0987 2.41945C28.985 2.19322 28.9382 1.99212 28.9382 1.69676C28.9382 1.4391 28.985 1.19402 29.0586 1.03691C29.1255 0.898655 29.286 0.67242 29.413 0.54045Z" fill="#202020"/>
<path d="M29.1723 5.1217C29.1522 4.87662 29.1723 4.57497 29.2057 4.44928L29.2659 4.21676L29.5535 4.33617C29.714 4.39901 30.0484 4.48699 30.3092 4.52469C30.5633 4.5624 30.9111 4.57497 31.0783 4.55612C31.2455 4.53098 31.5732 4.45557 31.814 4.38644C32.0547 4.31731 32.262 4.28589 32.2821 4.30474C32.3022 4.32988 32.3289 4.44928 32.349 4.56868C32.369 4.69437 32.349 5.39193 32.3089 6.12091C32.262 6.84988 32.1885 8.32041 32.1417 9.39503C32.0748 11.0666 32.0748 11.362 32.155 11.4751C32.2085 11.5505 32.4359 11.871 32.67 12.1978C32.9108 12.5309 33.1448 12.9519 33.2184 13.1656C33.3388 13.5364 33.3455 13.5427 33.7334 13.6809C33.9808 13.7752 34.2684 13.9511 34.5426 14.1837C34.7967 14.4036 35.0375 14.6738 35.1311 14.8624C35.2314 15.0446 35.2983 15.3085 35.305 15.4908C35.3184 15.7233 35.2715 15.8993 35.1244 16.1821C35.0174 16.3894 34.77 16.7099 34.576 16.8922C34.3821 17.0682 34.2349 17.2315 34.255 17.2504C34.2751 17.2693 34.4757 17.2001 34.7031 17.0996C34.9372 17.0053 35.2715 16.7979 35.4521 16.6471C35.6594 16.4711 35.8467 16.2261 35.9805 15.9621C36.1811 15.5599 36.1811 15.5474 36.1075 15.1137C36.054 14.8435 35.9136 14.4539 35.733 14.1082C35.4922 13.6432 35.3518 13.461 34.4222 12.6314L34.6496 11.9904C34.7767 11.6322 34.9438 11.0604 35.0241 10.7147C35.1445 10.2057 35.1779 9.8035 35.2047 8.60949C35.2314 7.47203 35.2114 6.95043 35.1311 6.34714C35.0709 5.91352 35.0375 5.54904 35.0575 5.53018C35.0776 5.51133 35.3585 5.59303 35.6795 5.71243C36.0005 5.82554 36.4553 6.02036 36.696 6.13976C36.9368 6.25916 37.3381 6.50425 37.5989 6.68021C37.853 6.84988 38.2476 7.13896 38.4616 7.31492C38.6823 7.49088 39.0836 7.87423 39.3578 8.16959C39.632 8.46495 40.0132 8.92999 40.2071 9.2065C40.4011 9.48301 40.6753 9.90405 40.8157 10.1491C40.9562 10.3942 41.1702 10.8027 41.4979 11.5317L40.6619 12.4429C40.2005 12.9457 39.5451 13.6809 39.2107 14.0768C38.8696 14.4727 38.4416 14.9943 38.2543 15.2394C38.0604 15.4845 37.8597 15.805 37.7995 15.9621C37.7193 16.1632 37.6992 16.3455 37.7327 16.5905C37.7527 16.7791 37.833 17.0619 37.9065 17.219C37.9801 17.3761 38.1139 17.596 38.2075 17.7091C38.3413 17.8788 38.4282 17.9165 38.7158 17.948C39.0033 17.9794 39.117 18.0296 39.311 18.2182C39.4849 18.3816 39.5651 18.5198 39.5986 18.7272C39.6253 18.8843 39.6253 19.098 39.5986 19.1985C39.5718 19.2991 39.4982 19.4939 39.4314 19.6259C39.3244 19.8207 39.3177 19.8584 39.4046 19.8584C39.4581 19.8584 39.6253 19.7453 39.7724 19.607C39.9396 19.4499 40.0667 19.2551 40.1135 19.0917C40.1536 18.9409 40.167 18.7209 40.1403 18.6015C40.1135 18.4821 40.0533 18.3124 40.0065 18.2245C39.9597 18.1365 39.8661 18.0171 39.7992 17.9605C39.7256 17.8977 39.525 17.816 39.3444 17.772C39.097 17.7091 38.9632 17.6275 38.8094 17.4515C38.6355 17.2504 38.5954 17.1373 38.5753 16.8231C38.5619 16.6094 38.582 16.3329 38.6288 16.2135C38.669 16.0941 38.8295 15.8741 38.9833 15.7359C39.1438 15.5913 40.2138 14.7492 41.3574 13.8632C42.5077 12.9771 43.4975 12.2418 43.551 12.223C43.6045 12.2041 43.6514 12.1978 43.6514 12.2041C43.6514 12.2167 42.9023 14.1334 40.3142 20.7068L21.2138 20.7445L20.8192 19.7515C20.6096 19.2322 19.9171 17.4765 19.2406 15.7614L19.1339 15.4908C18.425 13.6935 17.8766 12.2167 17.91 12.2041C17.9435 12.1978 19.0001 12.9834 20.2574 13.9511C21.8893 15.208 22.6115 15.7987 22.752 16.0061C22.9192 16.2512 22.9526 16.358 22.9526 16.6785C22.9459 16.9739 22.9058 17.131 22.7654 17.3572C22.6115 17.6086 22.538 17.6714 22.3039 17.728C22.1434 17.7657 21.9428 17.8286 21.8491 17.8725C21.7555 17.9102 21.6084 18.0422 21.5281 18.1616C21.3944 18.3501 21.3743 18.4444 21.3944 18.8215C21.4077 19.1734 21.4479 19.3054 21.5682 19.4499C21.6552 19.5567 21.809 19.6887 21.9026 19.7453C22.003 19.8018 22.1033 19.8395 22.1367 19.8207C22.1635 19.8081 22.1233 19.6887 22.0498 19.5567C21.9561 19.3996 21.916 19.2048 21.916 18.9597C21.916 18.7649 21.9561 18.5261 22.0096 18.4256C22.0631 18.3313 22.1701 18.1993 22.2504 18.1302C22.3373 18.0611 22.5714 17.9731 22.7787 17.9417C23.1131 17.8788 23.18 17.8411 23.3739 17.596C23.501 17.4389 23.6415 17.1687 23.695 16.999C23.7485 16.8231 23.7886 16.5591 23.7886 16.402C23.7886 16.2449 23.7351 16.0061 23.6682 15.8679C23.6013 15.7296 23.3673 15.3902 23.1533 15.1137C22.9392 14.8372 22.4443 14.2465 22.0565 13.794C21.6686 13.3478 21.0533 12.6566 20.6921 12.2732C20.3377 11.8836 20.0434 11.5254 20.0434 11.4814C20.0434 11.4437 20.224 11.0541 20.4514 10.6205C20.6721 10.1868 21.0466 9.5647 21.2807 9.23792C21.5147 8.91113 21.9294 8.40839 22.1969 8.11931C22.4644 7.83652 22.8791 7.44061 23.1198 7.25208C23.3606 7.05727 23.8421 6.7242 24.1899 6.50425C24.551 6.27173 25.1462 5.97637 25.5609 5.81298C25.9621 5.66215 26.3433 5.53018 26.3968 5.53018C26.4771 5.53018 26.4905 5.58674 26.4436 5.85697C26.4169 6.03921 26.3634 6.4854 26.3233 6.84988C26.2765 7.2458 26.2631 7.99363 26.2898 8.73517C26.3166 9.55842 26.3701 10.1554 26.457 10.5576C26.5239 10.8844 26.651 11.3683 26.7312 11.626C26.8182 11.8836 26.9385 12.2167 27.1325 12.6314L26.9519 12.7697C26.8449 12.8451 26.5975 13.0651 26.3968 13.2599C26.1761 13.4735 25.9354 13.8003 25.7882 14.0831C25.6545 14.3408 25.5074 14.7053 25.4605 14.8938C25.4137 15.0823 25.387 15.3777 25.4004 15.5536C25.4204 15.7736 25.5007 15.9684 25.6612 16.2072C25.7882 16.3957 26.0491 16.6597 26.2296 16.7916C26.4102 16.9173 26.7446 17.0996 26.9653 17.1813C27.186 17.2693 27.3733 17.3258 27.3799 17.307C27.3933 17.2944 27.2194 17.1184 26.992 16.9173C26.7446 16.6974 26.5105 16.4146 26.3901 16.1821C26.2564 15.9307 26.1962 15.7107 26.1962 15.5222C26.1962 15.3588 26.2631 15.1012 26.3567 14.9252C26.437 14.7492 26.5975 14.5167 26.7045 14.3973C26.8115 14.2842 27.0322 14.0957 27.1994 13.9826C27.3666 13.8694 27.6608 13.7249 27.8548 13.6621C28.042 13.5929 28.2025 13.505 28.2025 13.461C28.2025 13.4233 28.2494 13.2536 28.3095 13.0839C28.3697 12.9205 28.5102 12.644 28.6239 12.4743C28.7376 12.2984 28.9783 11.9779 29.4933 11.3432L29.3462 8.45238C29.2659 6.86245 29.1857 5.36051 29.1723 5.1217Z" fill="#202020"/>
<path d="M22.3039 23.3964C21.9762 22.5732 21.7154 21.8819 21.7154 21.8568C21.7154 21.8316 25.7949 21.8065 30.7773 21.8065C39.3779 21.8065 39.8393 21.8128 39.8059 21.9196C39.7925 21.9762 39.525 22.6612 38.6556 24.8544L22.8857 24.8858L22.3039 23.3964Z" fill="#202020"/>
<path d="M11.1018 53.8564C5.01593 39.0443 0.0201472 26.9094 8.38128e-05 26.8842C-0.0199796 26.8591 3.56468 26.834 7.96525 26.834C15.5292 26.834 15.9706 26.8402 16.004 26.9471C16.0241 27.0036 19.3211 35.0412 23.3338 44.807C27.3465 54.5728 30.6436 62.5853 30.6703 62.6105C30.6904 62.6356 34.0276 54.6043 45.4303 26.8654H68.1354C86.5001 26.8654 90.9609 26.8842 91.5026 26.9471C91.8704 26.9973 92.5526 27.1042 93.0073 27.1922C93.4688 27.2801 94.1844 27.4435 94.599 27.5629C95.0137 27.6823 95.6557 27.896 96.0369 28.0343C96.4114 28.1788 97.1137 28.4742 97.5885 28.7004C98.07 28.9266 98.7187 29.266 99.0264 29.4608C99.3407 29.6493 99.869 29.995 100.197 30.2275C100.531 30.46 101.086 30.8873 101.434 31.1827C101.788 31.478 102.344 32.0122 102.671 32.3641C103.006 32.7161 103.514 33.3193 103.808 33.709C104.102 34.0923 104.53 34.7207 104.758 35.1041C104.985 35.4811 105.306 36.0844 105.467 36.4489C105.634 36.8134 105.888 37.4607 106.035 37.8943C106.189 38.3279 106.383 39.0318 106.477 39.4654C106.57 39.899 106.677 40.5651 106.717 40.9422C106.757 41.3255 106.784 42.4127 106.784 43.3617C106.784 44.3106 106.757 45.4166 106.717 45.8125C106.684 46.2084 106.59 46.862 106.517 47.2579C106.443 47.6538 106.276 48.364 106.142 48.829C106.015 49.294 105.754 50.0607 105.574 50.5258C105.386 50.9908 104.999 51.8266 104.711 52.3796C104.423 52.9326 103.935 53.7433 103.628 54.1706C103.327 54.6043 102.818 55.2704 102.504 55.6475C102.196 56.0245 101.548 56.7095 101.066 57.162C100.591 57.6144 99.9158 58.2115 99.5614 58.4817C99.2136 58.7519 98.926 59.0158 98.9327 59.0724C98.9327 59.1227 100.859 63.8547 103.213 69.5797C105.56 75.311 107.513 79.9928 107.547 79.9803C107.58 79.974 112.516 68.0212 129.436 26.8654L145.406 26.834L156.742 54.4283C162.982 69.5986 168.085 82.0415 168.098 82.0729C168.105 82.1169 165.316 82.1295 152.168 82.1044L149.312 75.1602C147.74 71.3394 146.396 68.0841 146.209 67.6253L141.862 70.1705L140.795 70.7967C138.912 71.9022 137.49 72.7364 137.468 72.747C137.441 72.7596 137.414 69.8751 137.414 59.8894L141.962 57.25L140.491 53.6868L140.238 53.0738C139.48 51.2387 138.621 49.1557 138.23 48.2131C137.802 47.1699 137.434 46.3153 137.414 46.3153C137.401 46.3153 134.07 54.378 122.668 82.1358L92.4389 82.1421L89.2622 74.4061C86.8078 68.436 86.0654 66.6764 85.9852 66.7015C85.9316 66.7141 83.5709 68.0841 75.5856 72.7659L75.5522 82.1358H59.6352L59.6419 56.7661C59.6419 36.0027 59.6285 31.4026 59.555 31.4655C59.5081 31.5032 54.7932 42.9218 38.669 82.1358H22.7185L22.4443 81.4634C22.2972 81.0926 17.1944 68.6685 11.1018 53.8564Z" fill="#202020"/>
<path d="M168.519 44.1346C166.667 39.6162 165.088 35.7828 165.022 35.6194L164.901 35.3178L180.852 35.324L184.196 43.4685C186.035 47.9492 187.606 51.7826 187.84 52.3482H171.89L168.519 44.1346Z" fill="#202020"/>
<path d="M29.0385 88.6714C29.4799 88.5646 30.142 88.4578 30.5098 88.4264C30.8777 88.4012 31.5264 88.3886 31.9477 88.4012C32.369 88.4201 33.0178 88.4892 33.3856 88.5583C33.7534 88.6275 34.2951 88.7594 34.5894 88.8474C34.8837 88.9354 35.3986 89.1302 35.7263 89.2873C36.0607 89.4444 36.4954 89.6769 36.696 89.8089C36.8967 89.9346 37.2511 90.2048 37.4718 90.4122C37.6925 90.6133 37.9333 90.8584 38.0069 90.9589C38.1339 91.1286 38.1339 91.1349 38.0002 91.2166C37.9266 91.2606 37.5788 91.4994 36.5957 92.1844L36.1276 91.7068C35.8734 91.4491 35.4922 91.1286 35.2916 91.0029C35.091 90.8709 34.7566 90.6887 34.556 90.5944C34.3553 90.4939 33.9474 90.3368 33.6531 90.2425C33.3588 90.1545 32.8773 90.0351 32.5831 89.9911C32.2286 89.9409 31.7404 89.9283 31.1452 89.9472C30.4965 89.9786 30.0484 90.0351 29.5401 90.1545C29.1522 90.2425 28.6105 90.4185 28.3363 90.5379C28.0621 90.6573 27.594 90.9087 27.2997 91.0972C27.0054 91.2794 26.6042 91.5685 26.4035 91.7382C26.2029 91.9016 25.8217 92.3163 25.5542 92.6494C25.28 92.9888 24.9255 93.5229 24.765 93.8434C24.5978 94.1639 24.3771 94.7232 24.2701 95.0877C24.1631 95.4459 24.036 96.0115 23.9892 96.3446C23.9357 96.7279 23.9157 97.2746 23.9424 97.8842C23.9692 98.6509 24.016 98.9588 24.1765 99.5496C24.2902 99.9455 24.4908 100.511 24.6246 100.806C24.7583 101.095 25.066 101.623 25.3134 101.969C25.5542 102.315 25.9822 102.811 26.2631 103.069C26.5373 103.326 27.0054 103.691 27.2997 103.873C27.594 104.062 28.0554 104.307 28.3229 104.426C28.5904 104.539 29.0853 104.709 29.4264 104.797C29.7675 104.879 30.3895 104.979 30.8108 105.017C31.3525 105.067 31.7939 105.067 32.2821 105.017C32.67 104.985 33.2585 104.885 33.5862 104.797C33.9206 104.709 34.4623 104.508 34.79 104.357C35.1244 104.2 35.5792 103.923 35.8066 103.741C36.034 103.559 36.3617 103.257 36.5355 103.069L36.5849 103.014C36.7423 102.837 36.8944 102.667 36.9368 102.61C37.0238 102.509 37.0839 102.535 37.7193 102.918C38.0938 103.144 38.4148 103.345 38.4349 103.358C38.4549 103.37 38.3814 103.496 38.2677 103.647C38.1607 103.791 37.8263 104.137 37.532 104.42C37.2378 104.703 36.7562 105.086 36.462 105.268C36.1677 105.451 35.6862 105.708 35.3919 105.84C35.0977 105.966 34.556 106.154 34.1881 106.261C33.8203 106.362 33.2518 106.481 32.9174 106.525C32.5229 106.575 31.9076 106.588 31.1117 106.569C30.2423 106.544 29.7407 106.494 29.306 106.399C28.9783 106.33 28.5102 106.211 28.2694 106.136C28.0287 106.06 27.5471 105.878 27.1994 105.727C26.8516 105.57 26.3099 105.287 26.0023 105.092C25.6879 104.891 25.1663 104.489 24.8386 104.2C24.5109 103.905 24.0494 103.421 23.8153 103.132C23.5813 102.836 23.2268 102.296 23.0262 101.938C22.8255 101.573 22.5714 101.008 22.4577 100.681C22.3373 100.348 22.1768 99.8009 22.1033 99.4553C21.9762 98.9211 21.9561 98.6195 21.9561 97.5072C21.9561 96.3886 21.9762 96.0869 22.1033 95.559C22.1835 95.2134 22.3574 94.629 22.4912 94.2707C22.6249 93.9063 22.8456 93.3972 22.9861 93.1396C23.1265 92.8756 23.4141 92.4357 23.6348 92.1529C23.8488 91.8701 24.2166 91.4302 24.4574 91.1789C24.6981 90.9338 25.1663 90.5316 25.494 90.2928C25.8284 90.054 26.2898 89.7461 26.5306 89.6204C26.7714 89.4884 27.2529 89.2622 27.6006 89.1176C27.9484 88.9731 28.5971 88.772 29.0385 88.6714Z" fill="#202020"/>
<path d="M79.2305 88.6652C79.6518 88.5646 80.3139 88.4578 80.7018 88.4264C81.0897 88.3949 81.705 88.3824 82.0728 88.4012C82.4406 88.4138 82.969 88.4578 83.2432 88.4955C83.5174 88.5332 84.0591 88.6463 84.447 88.7469C84.8348 88.8537 85.3899 89.0422 85.6842 89.1679C85.9785 89.2999 86.4466 89.545 86.7208 89.7084C86.995 89.878 87.4163 90.186 87.6504 90.3996C87.8845 90.607 88.1319 90.8584 88.3259 91.1286L86.7877 92.1969L86.6406 92.021C86.567 91.9267 86.3128 91.6753 86.0922 91.468C85.8715 91.2606 85.4434 90.9526 85.1492 90.7892C84.8549 90.6321 84.3734 90.4185 84.0791 90.3179C83.7849 90.2174 83.29 90.0854 82.9756 90.0226C82.5209 89.9346 82.2065 89.922 81.404 89.9472C80.6282 89.9786 80.2537 90.0226 79.7321 90.1482C79.3642 90.2362 78.7757 90.4436 78.4279 90.6007C78.0802 90.7578 77.5987 91.0155 77.3579 91.1789C77.1171 91.336 76.7627 91.6062 76.5687 91.7822C76.3681 91.9581 76.0605 92.2723 75.8866 92.4797C75.7127 92.6871 75.4385 93.0516 75.2847 93.2967C75.1242 93.5355 74.9101 93.9314 74.8031 94.1765C74.6961 94.4153 74.5223 94.9243 74.4153 95.3077C74.3149 95.6847 74.1946 96.3383 74.1544 96.753C74.1009 97.2872 74.0942 97.702 74.1477 98.1984C74.1879 98.5755 74.2748 99.1159 74.3417 99.3925C74.4152 99.669 74.5423 100.077 74.6226 100.304C74.7028 100.524 74.8767 100.907 75.0038 101.152C75.1308 101.391 75.3783 101.787 75.5522 102.032C75.7261 102.271 76.0605 102.667 76.2945 102.899C76.5286 103.138 76.9366 103.484 77.1907 103.666C77.4515 103.848 77.8862 104.112 78.1604 104.257C78.4346 104.395 78.8894 104.577 79.1636 104.665C79.4378 104.759 79.9193 104.872 80.2336 104.929C80.5881 104.992 81.1566 105.036 81.7384 105.036C82.2534 105.036 82.8686 104.998 83.1094 104.954C83.3502 104.91 83.8317 104.784 84.1794 104.678C84.5272 104.564 85.0422 104.351 85.3164 104.2C85.624 104.03 86.0453 103.71 86.3931 103.383C86.7074 103.088 87.0284 102.767 87.2224 102.497L87.9246 102.918C88.3125 103.15 88.6402 103.352 88.6603 103.358C88.6803 103.37 88.56 103.54 88.3928 103.741C88.2323 103.942 87.8979 104.288 87.6571 104.514C87.423 104.74 86.9683 105.08 86.6539 105.275C86.3396 105.469 85.9383 105.702 85.7511 105.784C85.5705 105.872 85.1024 106.041 84.7145 106.167C84.3266 106.286 83.7247 106.431 83.3769 106.487C82.989 106.544 82.3604 106.588 81.7585 106.588C81.2167 106.588 80.5346 106.557 80.2537 106.519C79.9661 106.481 79.4311 106.381 79.0633 106.293C78.6954 106.205 78.1404 106.029 77.826 105.903C77.5117 105.771 77.0636 105.57 76.8229 105.444C76.5821 105.319 76.1407 105.042 75.8397 104.835C75.5321 104.621 75.084 104.257 74.8433 104.024C74.5958 103.791 74.2748 103.446 74.1143 103.257C73.9605 103.062 73.6863 102.685 73.5124 102.409C73.3385 102.132 73.1111 101.736 73.0108 101.529C72.9105 101.322 72.7366 100.882 72.6296 100.555C72.5159 100.222 72.3688 99.713 72.3019 99.4239C72.2016 98.9965 72.1748 98.6132 72.1748 97.5072C72.1748 96.4011 72.2016 96.0178 72.2952 95.5905C72.3688 95.2951 72.5092 94.7861 72.6229 94.4593C72.7366 94.1262 72.9373 93.636 73.0777 93.3595C73.2181 93.083 73.5124 92.5991 73.7264 92.2912C73.9471 91.977 74.3952 91.4554 74.7229 91.1349C75.0506 90.8081 75.5455 90.3871 75.8197 90.1922C76.0939 89.9974 76.5152 89.7335 76.756 89.6015C76.9967 89.4758 77.4783 89.2496 77.826 89.1051C78.1738 88.9605 78.8091 88.7657 79.2305 88.6652Z" fill="#202020"/>
<path d="M44.7214 106.148V97.4757V88.8034H47.5838C49.1554 88.8034 50.8006 88.8285 51.242 88.8663C51.6834 88.8977 52.3522 88.9982 52.7334 89.0862C53.1079 89.1679 53.663 89.3501 53.9706 89.4884C54.2716 89.6267 54.6996 89.8717 54.9203 90.0351C55.1343 90.2048 55.4687 90.5504 55.6627 90.8144C55.87 91.0972 56.0773 91.4931 56.1977 91.8199C56.3782 92.3226 56.3916 92.4106 56.3916 93.3909C56.3916 94.409 56.3849 94.4341 56.1709 94.962C56.0505 95.2511 55.8566 95.6219 55.7429 95.779C55.6292 95.9298 55.4152 96.1938 55.2614 96.3571C55.1143 96.5268 54.82 96.7719 54.6194 96.9039C54.4187 97.0358 54.0241 97.2495 53.7499 97.3752C53.4757 97.4946 53.0076 97.6517 52.7133 97.7271C52.4191 97.7962 52.1181 97.8528 52.0446 97.8528C51.971 97.8528 51.8774 97.8717 51.8305 97.8968C51.777 97.9282 52.5996 99.2416 57.0872 106.117L56.0037 106.129C55.4085 106.142 54.8936 106.136 54.8534 106.123C54.82 106.11 53.6429 104.288 49.7038 98.035L46.594 98.0413V106.148H44.7214Z" fill="#202020"/>
<path d="M63.3135 106.148V97.4757V88.8034H65.1861V106.148H63.3135Z" fill="#202020"/>
<path d="M94.8665 97.5134C94.8665 92.7625 94.8866 88.8663 94.9134 88.8411C94.9468 88.816 95.3815 88.8034 96.786 88.8348L96.8528 96.5771L105.614 88.8034H106.871C107.56 88.8034 108.135 88.8223 108.155 88.8474C108.169 88.8725 106.129 90.6321 103.621 92.7562C101.113 94.874 99.0531 96.6336 99.0464 96.6651C99.033 96.6965 100.705 98.3367 102.751 100.316C104.798 102.296 107.005 104.42 108.824 106.148L106.015 106.142L96.8528 96.9667L96.8194 106.148H94.8799L94.8665 97.5134Z" fill="#202020"/>
<path d="M114.275 106.148V97.4757V88.8034L125.744 88.8348L125.778 90.3745H116.147V96.3446H125.109V97.9156H116.147L116.181 104.608L126.045 104.64V106.148H114.275Z" fill="#202020"/>
<path d="M130.593 90.3745V89.5889V88.8034H144.838V90.3745H138.685V106.148H136.812V90.3745H130.593Z" fill="#202020"/>
<path d="M67.995 113.312C68.1421 113.243 68.4364 113.142 68.6504 113.092C68.8577 113.048 69.2456 113.004 69.4997 113.004C69.7605 112.998 70.1551 113.042 70.3892 113.092C70.6166 113.142 70.9643 113.256 71.1583 113.35C71.3522 113.438 71.593 113.57 71.6933 113.633C71.7936 113.696 71.8672 113.777 71.8605 113.809C71.8471 113.84 71.6064 114.091 70.8038 114.883L70.6233 114.732C70.5229 114.651 70.3491 114.538 70.2354 114.487C70.1284 114.431 69.901 114.374 69.7338 114.349C69.5666 114.324 69.3125 114.33 69.1653 114.368C69.0182 114.406 68.8376 114.5 68.7574 114.582C68.6771 114.657 68.5902 114.795 68.5701 114.883C68.5434 114.965 68.55 115.109 68.5902 115.197C68.6303 115.279 68.7908 115.424 68.9513 115.505C69.1051 115.587 69.5332 115.75 69.901 115.87C70.2688 115.983 70.6901 116.146 70.8373 116.228C70.9844 116.31 71.2319 116.505 71.3924 116.662C71.5796 116.857 71.7067 117.07 71.7736 117.284C71.8338 117.466 71.8739 117.692 71.8739 117.787C71.8739 117.881 71.8404 118.107 71.8003 118.289C71.7602 118.472 71.6733 118.717 71.6064 118.842C71.5462 118.962 71.3255 119.201 71.1249 119.377C70.8707 119.596 70.63 119.735 70.3023 119.848C69.9211 119.974 69.7137 120.005 69.1653 119.999C68.7975 119.999 68.3293 119.961 68.1287 119.917C67.9281 119.867 67.5335 119.722 67.2593 119.59C66.9851 119.458 66.6908 119.282 66.4635 119.062L67.5937 117.994L67.781 118.157C67.8813 118.252 68.1287 118.402 68.3293 118.497C68.6035 118.622 68.8042 118.673 69.0984 118.673C69.386 118.679 69.5666 118.641 69.7338 118.553C69.8609 118.484 70.008 118.34 70.0615 118.239C70.115 118.132 70.1351 117.969 70.1083 117.849C70.0882 117.724 69.9879 117.585 69.8542 117.491C69.7338 117.403 69.3058 117.227 68.8978 117.089C68.4966 116.957 68.0351 116.787 67.8813 116.712C67.7208 116.637 67.5001 116.498 67.3797 116.398C67.2593 116.297 67.0854 116.065 66.9918 115.882C66.8647 115.612 66.8313 115.443 66.8313 115.072C66.8313 114.707 66.8714 114.519 66.9985 114.261C67.0854 114.073 67.2861 113.809 67.4466 113.677C67.6004 113.545 67.8478 113.381 67.995 113.312Z" fill="#202020"/>
<path d="M47.129 119.798C47.129 119.772 47.7844 118.27 48.5803 116.467L50.0382 113.186L51.7102 113.18L53.128 116.404C53.9104 118.176 54.5659 119.672 54.5859 119.735C54.6194 119.835 54.5458 119.842 52.7401 119.816L52.2117 118.528L49.4564 118.56L48.9682 119.816L48.0519 119.829C47.5437 119.835 47.129 119.823 47.129 119.798Z" fill="#202020"/>
<path d="M56.3582 119.842V116.511V113.18H58.7992L59.6018 115.317C60.0432 116.492 60.4177 117.454 60.4377 117.454C60.4511 117.454 60.8123 116.492 62.0094 113.18H64.5173V119.842H62.8119L62.832 117.535C62.8387 116.26 62.8253 115.248 62.7985 115.273C62.7651 115.304 62.3505 116.335 60.9928 119.81H59.7422L58.8995 117.598C58.4381 116.385 58.0368 115.367 58.0101 115.336C57.9766 115.311 57.9566 116.31 57.9633 119.842H56.3582Z" fill="#202020"/>
<path d="M73.2783 114.563V113.871V113.18H79.0298V114.563H77.0235V119.842H75.2847V114.563H73.2783Z" fill="#202020"/>
<path d="M80.9024 119.904V116.542V113.18H85.6508V114.563H82.5744V115.82H85.517V117.076H82.5744V118.522H85.8514V119.904H80.9024Z" fill="#202020"/>
<path d="M88.1252 119.842V116.505L88.1319 113.168L89.951 113.193C91.6163 113.218 91.7968 113.23 92.1379 113.356C92.3386 113.425 92.6462 113.589 92.8201 113.714C93.0408 113.865 93.1946 114.041 93.3217 114.299C93.4755 114.594 93.5022 114.745 93.5022 115.16C93.5022 115.537 93.4688 115.738 93.3685 115.945C93.2882 116.102 93.1277 116.335 93.0006 116.467C92.8736 116.605 92.6128 116.781 92.4188 116.863C92.2249 116.944 92.0777 117.032 92.0911 117.064C92.1045 117.089 92.5124 117.717 92.994 118.459C93.4755 119.201 93.8701 119.829 93.8701 119.86C93.8701 119.886 93.4287 119.898 91.9039 119.873L90.3657 117.202H89.7972V119.842H88.1252Z" fill="#202020"/>
<path d="M95.8764 119.842L95.8831 116.505L95.8898 113.174L97.7423 113.199C99.4544 113.218 99.6283 113.23 100.056 113.369C100.317 113.444 100.665 113.576 100.825 113.652C100.993 113.733 101.307 113.947 101.521 114.129C101.775 114.349 101.976 114.6 102.103 114.846C102.21 115.053 102.344 115.392 102.397 115.6C102.457 115.807 102.497 116.203 102.497 116.479C102.497 116.756 102.451 117.152 102.397 117.359C102.337 117.567 102.21 117.893 102.109 118.082C102.009 118.27 101.742 118.604 101.514 118.824C101.227 119.094 100.946 119.282 100.611 119.427C100.344 119.546 99.9091 119.691 99.6416 119.741C99.2671 119.823 98.7722 119.842 95.8764 119.842Z" fill="#202020"/>
<path d="M104.845 117.102C105.507 115.619 106.169 114.129 106.316 113.79L106.59 113.174L108.282 113.18L109.62 116.234C110.355 117.912 111.011 119.414 111.191 119.835L109.292 119.804L109.051 119.232C108.924 118.911 108.791 118.622 108.75 118.585C108.71 118.541 108.242 118.522 106.015 118.547L105.761 119.175C105.621 119.521 105.5 119.816 105.487 119.823C105.48 119.829 105.065 119.829 103.648 119.804L104.845 117.102Z" fill="#202020"/>
<path d="M112.93 119.842V116.511V113.18H115.371L116.174 115.317C116.615 116.486 116.996 117.428 117.023 117.403C117.043 117.378 117.404 116.417 118.581 113.174L121.023 113.18V119.842H119.351L119.397 117.592C119.431 115.776 119.424 115.355 119.357 115.38C119.304 115.399 118.882 116.398 117.558 119.81L116.308 119.842L115.472 117.636C115.01 116.423 114.602 115.405 114.569 115.38C114.522 115.342 114.509 116.084 114.535 119.842H112.93Z" fill="#202020"/>
<path d="M75.6186 59.827C75.5718 59.827 75.5517 56.2324 75.5517 49.1751V38.5232H80.1128C82.8882 38.5232 84.9815 38.5484 85.4496 38.5924C85.871 38.6301 86.4729 38.7306 86.7872 38.8123C87.1015 38.9003 87.5964 39.0763 87.8907 39.202C88.185 39.3339 88.6197 39.5664 88.8604 39.7173C89.1012 39.8681 89.4556 40.1383 89.6563 40.308C89.8569 40.484 90.198 40.8422 90.4187 41.0998C90.6394 41.3575 90.9203 41.7659 91.054 42.011C91.1811 42.2561 91.3416 42.608 91.4152 42.7966C91.482 42.9851 91.589 43.337 91.6425 43.5821C91.7027 43.8523 91.7429 44.3551 91.7429 44.9018C91.7429 45.3983 91.696 46.0141 91.6425 46.3158C91.589 46.6111 91.462 47.1013 91.3683 47.4155C91.268 47.7297 91.1008 48.1948 90.9938 48.4524C90.8801 48.7101 90.6394 49.194 90.4588 49.5208C90.2716 49.8476 89.9505 50.344 89.7432 50.6142C89.5359 50.8907 89.0611 51.4061 88.6932 51.7705C88.3254 52.1288 87.7569 52.6189 87.4225 52.8577C87.0882 53.0903 84.3127 54.7556 81.2564 56.5529C78.1934 58.3565 75.652 59.827 75.6186 59.827Z" fill="white"/>
<path d="M46.5935 96.5273V93.4166V90.3059H48.1183C48.9543 90.3121 50.0244 90.3373 50.5059 90.3687C50.9874 90.4001 51.6027 90.4693 51.8769 90.5258C52.1511 90.5887 52.5925 90.7269 52.8466 90.84C53.1008 90.9469 53.4686 91.1668 53.6492 91.3239C53.8364 91.481 54.0638 91.745 54.1641 91.9146C54.2644 92.0843 54.3915 92.3922 54.445 92.5996C54.5052 92.807 54.552 93.1966 54.552 93.4606C54.552 93.8188 54.5052 94.089 54.3714 94.4661C54.2109 94.9311 54.144 95.0317 53.7562 95.4024C53.4953 95.6475 53.1676 95.88 52.9469 95.9743C52.7463 96.0686 52.3517 96.2005 52.0775 96.2697C51.8033 96.3388 51.3084 96.4268 50.974 96.4645C50.6396 96.4959 49.5228 96.5273 46.5935 96.5273Z" fill="white"/>
<path d="M89.7967 116.009L89.8034 115.248L89.8101 114.488L91.4018 114.532L91.6158 114.739C91.7964 114.909 91.8365 114.991 91.8298 115.211C91.8298 115.355 91.7897 115.537 91.7496 115.619C91.7027 115.694 91.5422 115.814 91.3817 115.883C91.161 115.977 90.9537 116.009 89.7967 116.009Z" fill="white"/>
<path d="M97.5546 118.46V116.511V114.563H98.2434C98.7584 114.563 99.0393 114.595 99.3937 114.695C99.7682 114.808 99.922 114.89 100.183 115.135C100.404 115.355 100.524 115.537 100.598 115.77C100.651 115.952 100.698 116.291 100.698 116.524C100.698 116.788 100.651 117.077 100.571 117.278C100.491 117.479 100.323 117.718 100.149 117.881C99.9755 118.045 99.7147 118.208 99.494 118.284C99.2198 118.384 98.9323 118.422 97.5546 118.46Z" fill="white"/>
<path d="M50.3721 116.159C50.5728 115.644 50.7667 115.185 50.7935 115.135C50.8202 115.085 50.8603 115.072 50.8871 115.104C50.9138 115.135 51.0743 115.525 51.2482 115.977C51.4154 116.423 51.596 116.901 51.7431 117.266H50.8737C50.1982 117.266 50.0043 117.247 50.0043 117.184C49.9976 117.134 50.1648 116.675 50.3721 116.159Z" fill="white"/>
<path d="M106.543 117.184C106.556 117.146 106.744 116.65 106.958 116.09C107.178 115.525 107.379 115.072 107.406 115.085C107.439 115.091 107.64 115.562 107.86 116.134C108.081 116.706 108.255 117.19 108.255 117.215C108.255 117.247 107.867 117.266 107.386 117.266C106.724 117.266 106.523 117.247 106.543 117.184Z" fill="white"/>
<path d="M75.6186 59.827C75.5718 59.827 75.5517 56.2324 75.5517 49.1751V38.5232H80.1128C82.8882 38.5232 84.9815 38.5484 85.4496 38.5924C85.871 38.6301 86.4729 38.7306 86.7872 38.8123C87.1015 38.9003 87.5964 39.0763 87.8907 39.202C88.185 39.3339 88.6197 39.5664 88.8604 39.7173C89.1012 39.8681 89.4556 40.1383 89.6563 40.308C89.8569 40.484 90.198 40.8422 90.4187 41.0998C90.6394 41.3575 90.9203 41.7659 91.054 42.011C91.1811 42.2561 91.3416 42.608 91.4152 42.7966C91.482 42.9851 91.589 43.337 91.6425 43.5821C91.7027 43.8523 91.7429 44.3551 91.7429 44.9018C91.7429 45.3983 91.696 46.0141 91.6425 46.3158C91.589 46.6111 91.462 47.1013 91.3683 47.4155C91.268 47.7297 91.1008 48.1948 90.9938 48.4524C90.8801 48.7101 90.6394 49.194 90.4588 49.5208C90.2716 49.8476 89.9505 50.344 89.7432 50.6142C89.5359 50.8907 89.0611 51.4061 88.6932 51.7705C88.3254 52.1288 87.7569 52.6189 87.4225 52.8577C87.0882 53.0903 84.3127 54.7556 81.2564 56.5529C78.1934 58.3565 75.652 59.827 75.6186 59.827Z" stroke="white" stroke-width="0.5"/>
<path d="M46.5935 96.5273V93.4166V90.3059H48.1183C48.9543 90.3121 50.0244 90.3373 50.5059 90.3687C50.9874 90.4001 51.6027 90.4693 51.8769 90.5258C52.1511 90.5887 52.5925 90.7269 52.8466 90.84C53.1008 90.9469 53.4686 91.1668 53.6492 91.3239C53.8364 91.481 54.0638 91.745 54.1641 91.9146C54.2644 92.0843 54.3915 92.3922 54.445 92.5996C54.5052 92.807 54.552 93.1966 54.552 93.4606C54.552 93.8188 54.5052 94.089 54.3714 94.4661C54.2109 94.9311 54.144 95.0317 53.7562 95.4024C53.4953 95.6475 53.1676 95.88 52.9469 95.9743C52.7463 96.0686 52.3517 96.2005 52.0775 96.2697C51.8033 96.3388 51.3084 96.4268 50.974 96.4645C50.6396 96.4959 49.5228 96.5273 46.5935 96.5273Z" stroke="white" stroke-width="0.5"/>
<path d="M89.7967 116.009L89.8034 115.248L89.8101 114.488L91.4018 114.532L91.6158 114.739C91.7964 114.909 91.8365 114.991 91.8298 115.211C91.8298 115.355 91.7897 115.537 91.7496 115.619C91.7027 115.694 91.5422 115.814 91.3817 115.883C91.161 115.977 90.9537 116.009 89.7967 116.009Z" stroke="white" stroke-width="0.5"/>
<path d="M97.5546 118.46V116.511V114.563H98.2434C98.7584 114.563 99.0393 114.595 99.3937 114.695C99.7682 114.808 99.922 114.89 100.183 115.135C100.404 115.355 100.524 115.537 100.598 115.77C100.651 115.952 100.698 116.291 100.698 116.524C100.698 116.788 100.651 117.077 100.571 117.278C100.491 117.479 100.323 117.718 100.149 117.881C99.9755 118.045 99.7147 118.208 99.494 118.284C99.2198 118.384 98.9323 118.422 97.5546 118.46Z" stroke="white" stroke-width="0.5"/>
<path d="M50.3721 116.159C50.5728 115.644 50.7667 115.185 50.7935 115.135C50.8202 115.085 50.8603 115.072 50.8871 115.104C50.9138 115.135 51.0743 115.525 51.2482 115.977C51.4154 116.423 51.596 116.901 51.7431 117.266H50.8737C50.1982 117.266 50.0043 117.247 50.0043 117.184C49.9976 117.134 50.1648 116.675 50.3721 116.159Z" stroke="white" stroke-width="0.5"/>
<path d="M106.543 117.184C106.556 117.146 106.744 116.65 106.958 116.09C107.178 115.525 107.379 115.072 107.406 115.085C107.439 115.091 107.64 115.562 107.86 116.134C108.081 116.706 108.255 117.19 108.255 117.215C108.255 117.247 107.867 117.266 107.386 117.266C106.724 117.266 106.523 117.247 106.543 117.184Z" stroke="white" stroke-width="0.5"/>
</svg>
