<svg width="7" height="11" viewBox="0 0 7 11" fill="none" xmlns="http://www.w3.org/2000/svg">
<path d="M3.36994 11C2.74823 11 2.18834 10.8764 1.69027 10.6291C1.1922 10.3818 0.793032 10.0427 0.492775 9.61175C0.192518 9.1808 0.0282594 8.68979 0 8.13873H1.27168C1.32113 8.62974 1.54367 9.03597 1.93931 9.35742C2.33847 9.67534 2.81535 9.8343 3.36994 9.8343C3.81503 9.8343 4.21066 9.73009 4.55684 9.52168C4.90655 9.31326 5.18031 9.02714 5.37813 8.66329C5.57948 8.29592 5.68015 7.88086 5.68015 7.41811C5.68015 6.94477 5.57595 6.52264 5.36753 6.15173C5.16265 5.7773 4.88006 5.48234 4.51975 5.26686C4.15944 5.05138 3.74791 4.94188 3.28516 4.93834C2.95311 4.93481 2.61223 4.98603 2.26252 5.092C1.91281 5.19444 1.62492 5.32691 1.39884 5.4894L0.169557 5.34104L0.82659 0H6.46435V1.1657H1.92871L1.54721 4.36609H1.61079C1.83333 4.18947 2.1124 4.04287 2.44798 3.9263C2.78356 3.80973 3.13327 3.75145 3.49711 3.75145C4.16121 3.75145 4.75289 3.9104 5.27216 4.22832C5.79496 4.54271 6.20472 4.97367 6.50145 5.52119C6.8017 6.06872 6.95183 6.69396 6.95183 7.39692C6.95183 8.08927 6.7964 8.70745 6.48555 9.25145C6.17823 9.79191 5.75434 10.2193 5.21387 10.5337C4.67341 10.8446 4.05877 11 3.36994 11Z" fill="#99A1AF"/>
</svg>
