<svg width="19" height="18" viewBox="0 0 19 18" fill="none" xmlns="http://www.w3.org/2000/svg">
<path d="M18.0032 12.8596C18.0032 13.3143 17.8225 13.7504 17.501 14.072C17.1794 14.3935 16.7433 14.5742 16.2886 14.5742H4.99607C4.54136 14.5743 4.10531 14.755 3.78383 15.0766L1.89604 16.9644C1.81091 17.0495 1.70246 17.1074 1.58439 17.1309C1.46633 17.1544 1.34395 17.1423 1.23274 17.0963C1.12153 17.0502 1.02647 16.9722 0.959583 16.8721C0.892698 16.772 0.856991 16.6544 0.856975 16.534V2.57185C0.856975 2.1171 1.03762 1.68098 1.35918 1.35943C1.68073 1.03787 2.11685 0.857227 2.5716 0.857227H16.2886C16.7433 0.857227 17.1794 1.03787 17.501 1.35943C17.8225 1.68098 18.0032 2.1171 18.0032 2.57185V12.8596Z" stroke="#99A1AF" stroke-width="1.66667" stroke-linecap="round" stroke-linejoin="round"/>
</svg>
