<svg width="12" height="15" viewBox="0 0 12 15" fill="none" xmlns="http://www.w3.org/2000/svg">
<path d="M11.3327 8.00038C11.3327 11.3337 8.99935 13.0004 6.22602 13.967C6.08079 14.0163 5.92304 14.0139 5.77935 13.9604C2.99935 13.0004 0.666016 11.3337 0.666016 8.00038V3.33371C0.666016 3.1569 0.736254 2.98733 0.861278 2.86231C0.986302 2.73729 1.15587 2.66705 1.33268 2.66705C2.66602 2.66705 4.33268 1.86705 5.49268 0.853714C5.63392 0.733047 5.81358 0.666748 5.99935 0.666748C6.18511 0.666748 6.36478 0.733047 6.50602 0.853714C7.67268 1.87371 9.33268 2.66705 10.666 2.66705C10.8428 2.66705 11.0124 2.73729 11.1374 2.86231C11.2624 2.98733 11.3327 3.1569 11.3327 3.33371V8.00038Z" stroke="white" stroke-width="1.33333" stroke-linecap="round" stroke-linejoin="round"/>
</svg>
