<svg width="14" height="14" viewBox="0 0 14 14" fill="none" xmlns="http://www.w3.org/2000/svg">
<path d="M8.16436 2.33335C8.37482 2.33335 8.58137 2.39028 8.76211 2.49811C8.94285 2.60594 9.09106 2.76065 9.19103 2.94585L9.47453 3.47085C9.57449 3.65606 9.7227 3.81077 9.90344 3.9186C10.0842 4.02643 10.2907 4.08335 10.5012 4.08335H11.6661C11.9755 4.08335 12.2723 4.20627 12.4911 4.42506C12.7099 4.64385 12.8328 4.9406 12.8328 5.25002V10.5C12.8328 10.8094 12.7099 11.1062 12.4911 11.325C12.2723 11.5438 11.9755 11.6667 11.6661 11.6667H2.33279C2.02337 11.6667 1.72662 11.5438 1.50783 11.325C1.28904 11.1062 1.16612 10.8094 1.16612 10.5V5.25002C1.16612 4.9406 1.28904 4.64385 1.50783 4.42506C1.72662 4.20627 2.02337 4.08335 2.33279 4.08335H3.4977C3.70795 4.08336 3.91429 4.02656 4.0949 3.91895C4.27552 3.81134 4.42371 3.65692 4.52378 3.47202L4.80903 2.94469C4.90911 2.75979 5.05729 2.60537 5.23791 2.49776C5.41853 2.39015 5.62487 2.33334 5.83511 2.33335H8.16436Z" stroke="white" stroke-width="1.15093" stroke-linecap="round" stroke-linejoin="round"/>
<path d="M7.00051 9.33332C7.967 9.33332 8.75051 8.54982 8.75051 7.58332C8.75051 6.61682 7.967 5.83332 7.00051 5.83332C6.03401 5.83332 5.25051 6.61682 5.25051 7.58332C5.25051 8.54982 6.03401 9.33332 7.00051 9.33332Z" stroke="white" stroke-width="1.15093" stroke-linecap="round" stroke-linejoin="round"/>
</svg>
