<svg width="15" height="15" viewBox="0 0 15 15" fill="none" xmlns="http://www.w3.org/2000/svg">
<path d="M9.49951 1.875C9.82921 1.8797 10.1437 2.01448 10.3745 2.24999L12.7494 4.62491C12.9849 4.8557 13.1197 5.17019 13.1244 5.49989V11.8747C13.1244 12.2062 12.9927 12.5241 12.7583 12.7585C12.5239 12.993 12.2059 13.1246 11.8744 13.1246H3.12471C2.7932 13.1246 2.47526 12.993 2.24085 12.7585C2.00644 12.5241 1.87475 12.2062 1.87475 11.8747V3.12496C1.87475 2.79345 2.00644 2.47552 2.24085 2.24111C2.47526 2.00669 2.7932 1.875 3.12471 1.875H9.49951Z" stroke="white" stroke-width="1.19934" stroke-linecap="round" stroke-linejoin="round"/>
<path d="M10.6242 13.1245V8.74964C10.6242 8.58389 10.5584 8.42492 10.4412 8.30771C10.324 8.19051 10.165 8.12466 9.99923 8.12466H4.99939C4.83363 8.12466 4.67467 8.19051 4.55746 8.30771C4.44025 8.42492 4.37441 8.58389 4.37441 8.74964V13.1245" stroke="white" stroke-width="1.19934" stroke-linecap="round" stroke-linejoin="round"/>
<path d="M4.37441 1.875V4.37492C4.37441 4.54068 4.44025 4.69964 4.55746 4.81685C4.67467 4.93406 4.83363 4.9999 4.99939 4.9999H9.37425" stroke="white" stroke-width="1.19934" stroke-linecap="round" stroke-linejoin="round"/>
</svg>
