<svg width="29" height="29" viewBox="0 0 29 29" fill="none" xmlns="http://www.w3.org/2000/svg">
<g opacity="0.8">
<path d="M18.7018 15.5754L20.5324 25.8777C20.553 25.999 20.5359 26.1237 20.4837 26.235C20.4314 26.3464 20.3464 26.4392 20.2399 26.5009C20.1335 26.5627 20.0108 26.5905 19.8882 26.5806C19.7655 26.5707 19.6488 26.5236 19.5537 26.4456L15.2279 23.1988C15.019 23.0428 14.7653 22.9585 14.5047 22.9585C14.244 22.9585 13.9903 23.0428 13.7815 23.1988L9.44838 26.4444C9.3533 26.5222 9.23675 26.5693 9.11426 26.5792C8.99178 26.5891 8.86919 26.5614 8.76284 26.4998C8.6565 26.4382 8.57146 26.3457 8.51907 26.2345C8.46668 26.1234 8.44943 25.9989 8.46962 25.8777L10.299 15.5754" stroke="white" stroke-width="2.39869" stroke-linecap="round" stroke-linejoin="round"/>
<path d="M14.5003 16.9167C18.5043 16.9167 21.7503 13.6708 21.7503 9.66669C21.7503 5.66261 18.5043 2.41667 14.5003 2.41667C10.4962 2.41667 7.25025 5.66261 7.25025 9.66669C7.25025 13.6708 10.4962 16.9167 14.5003 16.9167Z" stroke="white" stroke-width="2.39869" stroke-linecap="round" stroke-linejoin="round"/>
</g>
</svg>
