<svg width="63" height="64" viewBox="0 0 63 64" fill="none" xmlns="http://www.w3.org/2000/svg">
<path d="M26.25 39.0933V43.4293C26.2401 44.3429 25.9993 45.2387 25.5506 46.0306C25.102 46.8226 24.4606 47.4842 23.688 47.9519C22.0477 49.1861 20.7135 50.7919 19.7911 52.6417C18.8688 54.4915 18.3839 56.5344 18.375 58.6079" stroke="#F0B100" stroke-width="2.39869" stroke-linecap="round" stroke-linejoin="round"/>
<path d="M36.75 39.0933V43.4293C36.7599 44.3429 37.0007 45.2387 37.4494 46.0306C37.898 46.8226 38.5394 47.4842 39.312 47.9519C40.9523 49.1861 42.2865 50.7919 43.2088 52.6417C44.1312 54.4915 44.6161 56.5344 44.625 58.6079" stroke="#F0B100" stroke-width="2.39869" stroke-linecap="round" stroke-linejoin="round"/>
<path d="M47.25 23.9998H51.1875C52.928 23.9998 54.5972 23.2975 55.8279 22.0472C57.0586 20.797 57.75 19.1013 57.75 17.3332C57.75 15.5651 57.0586 13.8694 55.8279 12.6191C54.5972 11.3689 52.928 10.6665 51.1875 10.6665H47.25" stroke="#F0B100" stroke-width="2.39869" stroke-linecap="round" stroke-linejoin="round"/>
<path d="M10.5 58.6665H52.5" stroke="#F0B100" stroke-width="2.39869" stroke-linecap="round" stroke-linejoin="round"/>
<path d="M15.75 24.0002C15.75 28.2436 17.4094 32.3133 20.3631 35.3139C23.3168 38.3145 27.3228 40.0002 31.5 40.0002C35.6772 40.0002 39.6832 38.3145 42.6369 35.3139C45.5906 32.3133 47.25 28.2436 47.25 24.0002V8.00016C47.25 7.29292 46.9734 6.61464 46.4812 6.11454C45.9889 5.61445 45.3212 5.3335 44.625 5.3335H18.375C17.6788 5.3335 17.0111 5.61445 16.5188 6.11454C16.0266 6.61464 15.75 7.29292 15.75 8.00016V24.0002Z" stroke="#F0B100" stroke-width="2.39869" stroke-linecap="round" stroke-linejoin="round"/>
<path d="M15.75 23.9998H11.8125C10.072 23.9998 8.40282 23.2975 7.17211 22.0472C5.9414 20.797 5.25 19.1013 5.25 17.3332C5.25 15.5651 5.9414 13.8694 7.17211 12.6191C8.40282 11.3689 10.072 10.6665 11.8125 10.6665H15.75" stroke="#F0B100" stroke-width="2.39869" stroke-linecap="round" stroke-linejoin="round"/>
</svg>
