<svg width="10" height="10" viewBox="0 0 10 10" fill="none" xmlns="http://www.w3.org/2000/svg">
<path d="M4.7844 0.588544C4.80432 0.548299 4.83509 0.514422 4.87324 0.490737C4.91139 0.467051 4.9554 0.454501 5.00031 0.454501C5.04521 0.454501 5.08922 0.467051 5.12737 0.490737C5.16553 0.514422 5.1963 0.548299 5.21622 0.588544L6.26622 2.71537C6.33539 2.85536 6.4375 2.97647 6.56378 3.06831C6.69006 3.16015 6.83674 3.21997 6.99123 3.24265L9.33942 3.58629C9.38392 3.59274 9.42572 3.6115 9.4601 3.64047C9.49448 3.66944 9.52007 3.70745 9.53398 3.7502C9.54788 3.79296 9.54955 3.83875 9.53878 3.8824C9.52802 3.92605 9.50525 3.96581 9.47306 3.9972L7.77487 5.65085C7.66287 5.75998 7.57908 5.8947 7.5307 6.04341C7.48232 6.19211 7.4708 6.35035 7.49714 6.50449L7.89805 8.84087C7.90591 8.88534 7.9011 8.93112 7.88419 8.97299C7.86727 9.01487 7.83893 9.05114 7.80239 9.07768C7.76585 9.10422 7.72259 9.11996 7.67753 9.12309C7.63248 9.12623 7.58746 9.11664 7.54759 9.09541L5.44849 7.99177C5.31018 7.91914 5.1563 7.8812 5.00008 7.8812C4.84386 7.8812 4.68998 7.91914 4.55167 7.99177L2.45302 9.09541C2.41317 9.11651 2.3682 9.126 2.32322 9.1228C2.27825 9.1196 2.23507 9.10385 2.19861 9.07733C2.16214 9.05081 2.13385 9.01459 2.11695 8.97278C2.10005 8.93098 2.09522 8.88528 2.10302 8.84087L2.50347 6.50494C2.52993 6.35073 2.51847 6.19239 2.47008 6.0436C2.4217 5.8948 2.33784 5.76001 2.22574 5.65085L0.527553 3.99765C0.495095 3.96631 0.472095 3.92647 0.461172 3.88269C0.450249 3.8389 0.451842 3.79293 0.46577 3.75001C0.479698 3.70709 0.505401 3.66894 0.539951 3.63992C0.574502 3.61089 0.616509 3.59215 0.66119 3.58583L3.00893 3.24265C3.16359 3.22015 3.31047 3.1604 3.43693 3.06855C3.56338 2.9767 3.66562 2.8555 3.73484 2.71537L4.7844 0.588544Z" fill="#F0B100" stroke="#F0B100" stroke-width="0.899508" stroke-linecap="round" stroke-linejoin="round"/>
</svg>
