<svg width="14" height="14" viewBox="0 0 14 14" fill="none" xmlns="http://www.w3.org/2000/svg">
<g clip-path="url(#clip0_542_19966)">
<path d="M1.20321 7.20279C1.15459 7.07182 1.15459 6.92776 1.20321 6.79679C1.67669 5.64872 2.48041 4.66709 3.51246 3.97635C4.54451 3.28562 5.75842 2.91687 7.0003 2.91687C8.24217 2.91687 9.45608 3.28562 10.4881 3.97635C11.5202 4.66709 12.3239 5.64872 12.7974 6.79679C12.846 6.92776 12.846 7.07182 12.7974 7.20279C12.3239 8.35085 11.5202 9.33248 10.4881 10.0232C9.45608 10.714 8.24217 11.0827 7.0003 11.0827C5.75842 11.0827 4.54451 10.714 3.51246 10.0232C2.48041 9.33248 1.67669 8.35085 1.20321 7.20279Z" stroke="#99A1AF" stroke-width="1.16006" stroke-linecap="round" stroke-linejoin="round"/>
<path d="M7.00034 8.74983C7.96683 8.74983 8.75032 7.96634 8.75032 6.99985C8.75032 6.03337 7.96683 5.24988 7.00034 5.24988C6.03386 5.24988 5.25037 6.03337 5.25037 6.99985C5.25037 7.96634 6.03386 8.74983 7.00034 8.74983Z" stroke="#99A1AF" stroke-width="1.16006" stroke-linecap="round" stroke-linejoin="round"/>
</g>
<defs>
<clipPath id="clip0_542_19966">
<rect width="13.9207" height="13.9207" fill="white" transform="scale(1.00568)"/>
</clipPath>
</defs>
</svg>
