<svg width="11" height="11" viewBox="0 0 11 11" fill="none" xmlns="http://www.w3.org/2000/svg">
<path d="M7.33168 9.62429V8.7077C7.33168 8.2215 7.13854 7.75522 6.79475 7.41143C6.45096 7.06764 5.98468 6.8745 5.49849 6.8745H2.7487C2.26251 6.8745 1.79623 7.06764 1.45244 7.41143C1.10865 7.75522 0.915506 8.2215 0.915506 8.7077V9.62429" stroke="white" stroke-width="0.899508" stroke-linecap="round" stroke-linejoin="round"/>
<path d="M7.33201 1.43359C7.72511 1.5355 8.07326 1.76506 8.32178 2.08623C8.57031 2.40741 8.70516 2.80202 8.70516 3.20812C8.70516 3.61422 8.57031 4.00883 8.32178 4.33C8.07326 4.65118 7.72511 4.88074 7.33201 4.98265" stroke="white" stroke-width="0.899508" stroke-linecap="round" stroke-linejoin="round"/>
<path d="M10.0822 9.6243V8.7077C10.0818 8.30152 9.94666 7.90695 9.69781 7.58593C9.44895 7.26491 9.10053 7.03563 8.70726 6.93408" stroke="white" stroke-width="0.899508" stroke-linecap="round" stroke-linejoin="round"/>
<path d="M4.12395 5.04126C5.13639 5.04126 5.95714 4.22051 5.95714 3.20807C5.95714 2.19562 5.13639 1.37488 4.12395 1.37488C3.1115 1.37488 2.29075 2.19562 2.29075 3.20807C2.29075 4.22051 3.1115 5.04126 4.12395 5.04126Z" stroke="white" stroke-width="0.899508" stroke-linecap="round" stroke-linejoin="round"/>
</svg>
