<svg width="165" height="40" viewBox="0 0 165 40" fill="none" xmlns="http://www.w3.org/2000/svg">
<path d="M4.51578 19.6228C2.04028 13.1598 0.00819508 7.86498 3.40917e-05 7.85402C-0.0081269 7.84305 1.44997 7.83208 3.23995 7.83208C6.31664 7.83208 6.49618 7.83482 6.50979 7.88144C6.51795 7.90611 7.85907 11.4132 9.49127 15.6743C11.1235 19.9354 12.4646 23.4315 12.4755 23.4424C12.4836 23.4534 13.8411 19.9491 18.4792 7.84579H27.7148C35.1848 7.84579 36.9993 7.85402 37.2196 7.88144C37.3692 7.90337 37.6467 7.94999 37.8317 7.98838C38.0194 8.02676 38.3105 8.09806 38.4791 8.15015C38.6478 8.20225 38.9089 8.29548 39.064 8.35581C39.2163 8.41887 39.502 8.54775 39.6951 8.64646C39.891 8.74517 40.1548 8.89324 40.28 8.97824C40.4078 9.06051 40.6227 9.21132 40.756 9.31277C40.892 9.41423 41.1178 9.60068 41.2593 9.72956C41.4035 9.85843 41.6293 10.0915 41.7626 10.2451C41.8986 10.3986 42.1053 10.6618 42.225 10.8319C42.3447 10.9991 42.5188 11.2733 42.6113 11.4406C42.7038 11.6051 42.8344 11.8683 42.8996 12.0274C42.9677 12.1864 43.071 12.4688 43.1309 12.658C43.1934 12.8472 43.2723 13.1543 43.3104 13.3435C43.3485 13.5327 43.392 13.8234 43.4084 13.9879C43.4247 14.1552 43.4356 14.6296 43.4356 15.0436C43.4356 15.4576 43.4247 15.9402 43.4084 16.113C43.3947 16.2857 43.3567 16.5709 43.3267 16.7437C43.2968 16.9164 43.2288 17.2263 43.1744 17.4292C43.1227 17.6321 43.0166 17.9666 42.9432 18.1695C42.867 18.3724 42.7092 18.7371 42.5923 18.9784C42.4753 19.2197 42.2767 19.5734 42.1516 19.7599C42.0291 19.9491 41.8224 20.2397 41.6945 20.4043C41.5694 20.5688 41.3055 20.8677 41.1097 21.0651C40.9165 21.2625 40.6418 21.523 40.4976 21.6409C40.3561 21.7588 40.2392 21.874 40.2419 21.8987C40.2419 21.9206 41.0253 23.9853 41.9829 26.4833C42.9377 28.984 43.7321 31.0269 43.7457 31.0214C43.7593 31.0186 45.7669 25.8033 52.6493 7.84579L59.1455 7.83208L63.7564 19.8723C66.2945 26.4915 68.3701 31.9208 68.3755 31.9345C68.3783 31.9537 67.2439 31.9591 61.8957 31.9482L60.7341 28.9182C60.0949 27.2511 59.5481 25.8307 59.4719 25.6306L57.7037 26.7411L57.2673 27.0159C56.5024 27.4975 55.9256 27.8607 55.9164 27.8653C55.9056 27.8708 55.8947 26.6122 55.8947 22.2551L57.7445 21.1035L57.146 19.5487L57.0442 19.2841C56.7359 18.4827 56.3855 17.5722 56.2266 17.1604C56.0525 16.7053 55.9028 16.3324 55.8947 16.3324C55.8892 16.3324 54.5345 19.8504 49.8963 31.9619L37.6004 31.9646L36.3083 28.5892C35.3099 25.9843 35.008 25.2165 34.9753 25.2275C34.9536 25.233 33.9933 25.8307 30.7452 27.8735L30.7316 31.9619H24.2572L24.2599 20.8923C24.2599 11.8327 24.2545 9.82553 24.2246 9.85295C24.2055 9.8694 22.2877 14.8517 15.729 31.9619H9.241L9.12946 31.6685C9.06962 31.5067 6.994 26.0857 4.51578 19.6228Z" fill="white"/>
<path d="M86.5732 9.95913H85.1394C85.0546 9.54672 84.9062 9.18441 84.6942 8.87221C84.4861 8.56002 84.2317 8.29792 83.9311 8.08594C83.6343 7.8701 83.3048 7.70821 82.9425 7.60029C82.5802 7.49237 82.2024 7.43841 81.8093 7.43841C81.0924 7.43841 80.4429 7.61957 79.8609 7.98187C79.2828 8.34417 78.8222 8.87799 78.4792 9.58333C78.14 10.2887 77.9704 11.154 77.9704 12.1792C77.9704 13.2044 78.14 14.0697 78.4792 14.7751C78.8222 15.4804 79.2828 16.0142 79.8609 16.3765C80.4429 16.7388 81.0924 16.92 81.8093 16.92C82.2024 16.92 82.5802 16.866 82.9425 16.7581C83.3048 16.6502 83.6343 16.4902 83.9311 16.2783C84.2317 16.0624 84.4861 15.7984 84.6942 15.4862C84.9062 15.1701 85.0546 14.8078 85.1394 14.3993H86.5732C86.4653 15.0044 86.2687 15.5459 85.9835 16.0239C85.6983 16.5018 85.3437 16.9084 84.9197 17.2438C84.4957 17.5752 84.0197 17.8277 83.4917 18.0011C82.9675 18.1746 82.4067 18.2613 81.8093 18.2613C80.7995 18.2613 79.9014 18.0146 79.1151 17.5213C78.3289 17.0279 77.7102 16.3264 77.2593 15.4168C76.8083 14.5072 76.5829 13.428 76.5829 12.1792C76.5829 10.9304 76.8083 9.85121 77.2593 8.94159C77.7102 8.03198 78.3289 7.33049 79.1151 6.83714C79.9014 6.34379 80.7995 6.09712 81.8093 6.09712C82.4067 6.09712 82.9675 6.18384 83.4917 6.35728C84.0197 6.53073 84.4957 6.78511 84.9197 7.12043C85.3437 7.4519 85.6983 7.8566 85.9835 8.33454C86.2687 8.80862 86.4653 9.35015 86.5732 9.95913ZM88.3076 18.0994V9.2191H89.6258V10.5604H89.7183C89.8802 10.121 90.1731 9.76448 90.5971 9.49083C91.0211 9.21717 91.499 9.08035 92.0309 9.08035C92.1311 9.08035 92.2564 9.08227 92.4067 9.08613C92.557 9.08998 92.6707 9.09576 92.7478 9.10347V10.491C92.7016 10.4795 92.5956 10.4621 92.4298 10.439C92.2679 10.412 92.0964 10.3985 91.9153 10.3985C91.4836 10.3985 91.0982 10.4891 90.759 10.6702C90.4237 10.8475 90.1577 11.0942 89.9611 11.4103C89.7684 11.7225 89.6721 12.079 89.6721 12.4798V18.0994H88.3076ZM93.9677 18.0994V9.2191H95.3321V18.0994H93.9677ZM94.6615 7.73905C94.3955 7.73905 94.1662 7.64847 93.9735 7.46732C93.7846 7.28617 93.6902 7.0684 93.6902 6.81402C93.6902 6.55963 93.7846 6.34186 93.9735 6.16071C94.1662 5.97956 94.3955 5.88898 94.6615 5.88898C94.9274 5.88898 95.1548 5.97956 95.3437 6.16071C95.5364 6.34186 95.6327 6.55963 95.6327 6.81402C95.6327 7.0684 95.5364 7.28617 95.3437 7.46732C95.1548 7.64847 94.9274 7.73905 94.6615 7.73905ZM101.041 18.2844C100.209 18.2844 99.4919 18.0878 98.8906 17.6947C98.2893 17.3016 97.8268 16.76 97.503 16.0701C97.1793 15.3802 97.0174 14.592 97.0174 13.7055C97.0174 12.8036 97.1831 12.0077 97.5146 11.3178C97.8499 10.624 98.3163 10.0825 98.9137 9.69318C99.515 9.30004 100.216 9.10347 101.018 9.10347C101.643 9.10347 102.205 9.2191 102.706 9.45036C103.207 9.68162 103.618 10.0054 103.938 10.4216C104.258 10.8379 104.456 11.3235 104.533 11.8786H103.169C103.065 11.4739 102.834 11.1154 102.475 10.8032C102.12 10.4872 101.643 10.3291 101.041 10.3291C100.509 10.3291 100.043 10.4679 99.6422 10.7454C99.2452 11.0191 98.9349 11.4064 98.7114 11.9075C98.4917 12.4047 98.3818 12.9886 98.3818 13.6593C98.3818 14.3453 98.4897 14.9427 98.7056 15.4515C98.9253 15.9603 99.2336 16.3553 99.6306 16.6367C100.031 16.9181 100.502 17.0587 101.041 17.0587C101.396 17.0587 101.718 16.9971 102.007 16.8737C102.296 16.7504 102.541 16.5731 102.741 16.3418C102.941 16.1106 103.084 15.8331 103.169 15.5093H104.533C104.456 16.0335 104.265 16.5057 103.961 16.9258C103.66 17.342 103.261 17.6735 102.764 17.9202C102.271 18.163 101.697 18.2844 101.041 18.2844ZM107.402 14.8618L107.379 13.1736H107.657L111.542 9.2191H113.23L109.091 13.4049H108.975L107.402 14.8618ZM106.13 18.0994V6.259H107.495V18.0994H106.13ZM111.773 18.0994L108.304 13.7055L109.276 12.7573L113.508 18.0994H111.773ZM117.946 18.2844C117.091 18.2844 116.353 18.0956 115.732 17.7178C115.115 17.3363 114.639 16.8044 114.304 16.1222C113.972 15.4361 113.807 14.6382 113.807 13.7286C113.807 12.819 113.972 12.0173 114.304 11.3235C114.639 10.6259 115.106 10.0825 115.703 9.69318C116.304 9.30004 117.006 9.10347 117.808 9.10347C118.27 9.10347 118.727 9.18056 119.178 9.33473C119.629 9.4889 120.039 9.73943 120.409 10.0863C120.779 10.4294 121.074 10.8842 121.294 11.4507C121.513 12.0173 121.623 12.715 121.623 13.5436V14.1218H114.778V12.9424H120.236C120.236 12.4413 120.135 11.9942 119.935 11.6011C119.739 11.2079 119.457 10.8976 119.091 10.6702C118.729 10.4428 118.301 10.3291 117.808 10.3291C117.264 10.3291 116.794 10.464 116.397 10.7338C116.004 10.9998 115.701 11.3467 115.489 11.7745C115.277 12.2023 115.171 12.661 115.171 13.1505V13.9368C115.171 14.6074 115.287 15.1759 115.518 15.6423C115.753 16.1048 116.079 16.4575 116.495 16.7003C116.911 16.9393 117.395 17.0587 117.946 17.0587C118.305 17.0587 118.628 17.0086 118.918 16.9084C119.21 16.8044 119.463 16.6502 119.675 16.4459C119.887 16.2378 120.051 15.9795 120.166 15.6712L121.485 16.0412C121.346 16.4883 121.113 16.8815 120.785 17.2206C120.457 17.556 120.053 17.818 119.571 18.0069C119.089 18.1919 118.548 18.2844 117.946 18.2844ZM127.163 9.2191V10.3754H122.561V9.2191H127.163ZM123.903 7.09153H125.267V15.5556C125.267 15.941 125.323 16.2301 125.435 16.4228C125.55 16.6116 125.697 16.7388 125.874 16.8044C126.055 16.866 126.246 16.8969 126.446 16.8969C126.597 16.8969 126.72 16.8892 126.816 16.8737C126.913 16.8545 126.99 16.8391 127.048 16.8275L127.325 18.0532C127.233 18.0878 127.104 18.1225 126.938 18.1572C126.772 18.1958 126.562 18.215 126.308 18.215C125.922 18.215 125.545 18.1322 125.175 17.9664C124.808 17.8007 124.504 17.5482 124.261 17.2091C124.022 16.8699 123.903 16.4421 123.903 15.9256V7.09153ZM142.713 9.95913H141.279C141.194 9.54672 141.046 9.18441 140.834 8.87221C140.625 8.56002 140.371 8.29792 140.07 8.08594C139.774 7.8701 139.444 7.70821 139.082 7.60029C138.719 7.49237 138.342 7.43841 137.949 7.43841C137.232 7.43841 136.582 7.61957 136 7.98187C135.422 8.34417 134.962 8.87799 134.619 9.58333C134.279 10.2887 134.11 11.154 134.11 12.1792C134.11 13.2044 134.279 14.0697 134.619 14.7751C134.962 15.4804 135.422 16.0142 136 16.3765C136.582 16.7388 137.232 16.92 137.949 16.92C138.342 16.92 138.719 16.866 139.082 16.7581C139.444 16.6502 139.774 16.4902 140.07 16.2783C140.371 16.0624 140.625 15.7984 140.834 15.4862C141.046 15.1701 141.194 14.8078 141.279 14.3993H142.713C142.605 15.0044 142.408 15.5459 142.123 16.0239C141.838 16.5018 141.483 16.9084 141.059 17.2438C140.635 17.5752 140.159 17.8277 139.631 18.0011C139.107 18.1746 138.546 18.2613 137.949 18.2613C136.939 18.2613 136.041 18.0146 135.254 17.5213C134.468 17.0279 133.85 16.3264 133.399 15.4168C132.948 14.5072 132.722 13.428 132.722 12.1792C132.722 10.9304 132.948 9.85121 133.399 8.94159C133.85 8.03198 134.468 7.33049 135.254 6.83714C136.041 6.34379 136.939 6.09712 137.949 6.09712C138.546 6.09712 139.107 6.18384 139.631 6.35728C140.159 6.53073 140.635 6.78511 141.059 7.12043C141.483 7.4519 141.838 7.8566 142.123 8.33454C142.408 8.80862 142.605 9.35015 142.713 9.95913ZM145.811 6.259V18.0994H144.447V6.259H145.811ZM153.509 14.4687V9.2191H154.874V18.0994H153.509V16.5962H153.417C153.209 17.0472 152.885 17.4307 152.446 17.7467C152.006 18.0589 151.451 18.215 150.781 18.215C150.226 18.215 149.732 18.0936 149.301 17.8508C148.869 17.6041 148.53 17.2341 148.283 16.7408C148.036 16.2436 147.913 15.6172 147.913 14.8618V9.2191H149.277V14.7693C149.277 15.4168 149.459 15.9333 149.821 16.3187C150.187 16.7042 150.653 16.8969 151.22 16.8969C151.559 16.8969 151.904 16.8101 152.255 16.6367C152.609 16.4633 152.906 16.1973 153.145 15.8389C153.388 15.4804 153.509 15.0237 153.509 14.4687ZM157.16 18.0994V6.259H158.525V10.6298H158.64C158.741 10.4756 158.879 10.279 159.057 10.0401C159.238 9.79725 159.496 9.5814 159.831 9.39254C160.171 9.19983 160.629 9.10347 161.207 9.10347C161.955 9.10347 162.614 9.29041 163.185 9.66427C163.755 10.0381 164.2 10.5681 164.52 11.2542C164.84 11.9402 165 12.7496 165 13.6824C165 14.6228 164.84 15.438 164.52 16.1279C164.2 16.814 163.757 17.3459 163.19 17.7236C162.624 18.0975 161.971 18.2844 161.231 18.2844C160.66 18.2844 160.203 18.19 159.86 18.0011C159.517 17.8084 159.253 17.5906 159.068 17.3478C158.883 17.1011 158.741 16.8969 158.64 16.735H158.479V18.0994H157.16ZM158.502 13.6593C158.502 14.3299 158.6 14.9215 158.797 15.4342C158.993 15.9429 159.28 16.3418 159.658 16.6309C160.036 16.9161 160.498 17.0587 161.046 17.0587C161.616 17.0587 162.092 16.9084 162.474 16.6078C162.859 16.3033 163.148 15.8947 163.341 15.3821C163.537 14.8657 163.636 14.2914 163.636 13.6593C163.636 13.0349 163.539 12.4721 163.347 11.9711C163.158 11.4662 162.871 11.0672 162.485 10.7743C162.104 10.4775 161.624 10.3291 161.046 10.3291C160.491 10.3291 160.024 10.4698 159.646 10.7512C159.269 11.0287 158.983 11.418 158.791 11.919C158.598 12.4162 158.502 12.9963 158.502 13.6593Z" fill="white"/>
<path d="M77.573 24.3693H78.7138L81.3964 30.9216H81.4889L84.1715 24.3693H85.3124V32.2629H84.4182V26.2656H84.3411L81.8744 32.2629H81.011L78.5443 26.2656H78.4672V32.2629H77.573V24.3693ZM89.5878 32.3862C89.0174 32.3862 88.5253 32.2603 88.1116 32.0085C87.7005 31.7541 87.3831 31.3995 87.1596 30.9447C86.9386 30.4873 86.8281 29.9555 86.8281 29.349C86.8281 28.7426 86.9386 28.2082 87.1596 27.7457C87.3831 27.2806 87.694 26.9183 88.0923 26.6587C88.4932 26.3966 88.9608 26.2656 89.4953 26.2656C89.8036 26.2656 90.1081 26.317 90.4088 26.4198C90.7094 26.5226 90.983 26.6896 91.2297 26.9208C91.4764 27.1495 91.673 27.4527 91.8194 27.8304C91.9659 28.2082 92.0391 28.6733 92.0391 29.2257V29.6111H87.4756V28.8249H91.1141C91.1141 28.4908 91.0473 28.1928 90.9137 27.9307C90.7826 27.6686 90.595 27.4617 90.3509 27.3101C90.1094 27.1585 89.8242 27.0827 89.4953 27.0827C89.133 27.0827 88.8195 27.1726 88.5548 27.3525C88.2927 27.5298 88.091 27.7611 87.9497 28.0463C87.8084 28.3315 87.7377 28.6373 87.7377 28.9636V29.4878C87.7377 29.9349 87.8148 30.3139 87.969 30.6248C88.1257 30.9332 88.3428 31.1683 88.6204 31.3302C88.8979 31.4895 89.2203 31.5691 89.5878 31.5691C89.8268 31.5691 90.0426 31.5357 90.2353 31.4689C90.4306 31.3995 90.5989 31.2968 90.7402 31.1606C90.8815 31.0218 90.9908 30.8497 91.0678 30.6441L91.9466 30.8908C91.8541 31.1888 91.6987 31.4509 91.4802 31.677C91.2618 31.9006 90.992 32.0753 90.6708 32.2012C90.3497 32.3246 89.9886 32.3862 89.5878 32.3862ZM93.4228 32.2629V26.3427H94.3016V27.2677H94.3787C94.502 26.9517 94.7012 26.7063 94.9761 26.5315C95.251 26.3543 95.5812 26.2656 95.9667 26.2656C96.3572 26.2656 96.6823 26.3543 96.9418 26.5315C97.2039 26.7063 97.4082 26.9517 97.5546 27.2677H97.6163C97.7679 26.9619 97.9953 26.7191 98.2985 26.5393C98.6017 26.3568 98.9653 26.2656 99.3893 26.2656C99.9186 26.2656 100.352 26.4313 100.688 26.7628C101.025 27.0917 101.193 27.6043 101.193 28.3007V32.2629H100.283V28.3007C100.283 27.8639 100.164 27.5517 99.925 27.3641C99.6861 27.1765 99.4047 27.0827 99.0809 27.0827C98.6647 27.0827 98.3422 27.2086 98.1135 27.4604C97.8848 27.7097 97.7705 28.0257 97.7705 28.4086V32.2629H96.8454V28.2082C96.8454 27.8716 96.7362 27.6005 96.5178 27.3949C96.2994 27.1868 96.018 27.0827 95.6737 27.0827C95.4373 27.0827 95.2164 27.1457 95.0108 27.2716C94.8078 27.3975 94.6433 27.5722 94.5174 27.7958C94.3941 28.0167 94.3324 28.2724 94.3324 28.5628V32.2629H93.4228ZM102.98 32.2629V24.3693H103.889V27.2831H103.966C104.033 27.1804 104.126 27.0493 104.244 26.89C104.365 26.7281 104.537 26.5842 104.76 26.4583C104.986 26.3298 105.292 26.2656 105.678 26.2656C106.176 26.2656 106.615 26.3902 106.996 26.6395C107.376 26.8887 107.673 27.242 107.886 27.6994C108.099 28.1568 108.206 28.6964 108.206 29.3182C108.206 29.9452 108.099 30.4886 107.886 30.9486C107.673 31.406 107.377 31.7606 107 32.0124C106.622 32.2616 106.186 32.3862 105.693 32.3862C105.313 32.3862 105.008 32.3233 104.78 32.1974C104.551 32.0689 104.375 31.9237 104.251 31.7618C104.128 31.5974 104.033 31.4612 103.966 31.3533H103.858V32.2629H102.98ZM103.874 29.3028C103.874 29.7499 103.939 30.1443 104.07 30.4861C104.201 30.8252 104.393 31.0912 104.645 31.2839C104.896 31.474 105.205 31.5691 105.57 31.5691C105.95 31.5691 106.267 31.4689 106.522 31.2685C106.779 31.0655 106.971 30.7931 107.1 30.4514C107.231 30.1071 107.296 29.7242 107.296 29.3028C107.296 28.8865 107.232 28.5114 107.104 28.1773C106.978 27.8407 106.786 27.5748 106.529 27.3795C106.275 27.1816 105.955 27.0827 105.57 27.0827C105.2 27.0827 104.889 27.1765 104.637 27.3641C104.385 27.5491 104.195 27.8086 104.066 28.1426C103.938 28.4741 103.874 28.8608 103.874 29.3028ZM112.08 32.3862C111.509 32.3862 111.017 32.2603 110.603 32.0085C110.192 31.7541 109.875 31.3995 109.651 30.9447C109.43 30.4873 109.32 29.9555 109.32 29.349C109.32 28.7426 109.43 28.2082 109.651 27.7457C109.875 27.2806 110.186 26.9183 110.584 26.6587C110.985 26.3966 111.453 26.2656 111.987 26.2656C112.295 26.2656 112.6 26.317 112.901 26.4198C113.201 26.5226 113.475 26.6896 113.721 26.9208C113.968 27.1495 114.165 27.4527 114.311 27.8304C114.458 28.2082 114.531 28.6733 114.531 29.2257V29.6111H109.967V28.8249H113.606C113.606 28.4908 113.539 28.1928 113.405 27.9307C113.274 27.6686 113.087 27.4617 112.843 27.3101C112.601 27.1585 112.316 27.0827 111.987 27.0827C111.625 27.0827 111.311 27.1726 111.047 27.3525C110.785 27.5298 110.583 27.7611 110.441 28.0463C110.3 28.3315 110.229 28.6373 110.229 28.9636V29.4878C110.229 29.9349 110.307 30.3139 110.461 30.6248C110.617 30.9332 110.835 31.1683 111.112 31.3302C111.39 31.4895 111.712 31.5691 112.08 31.5691C112.319 31.5691 112.534 31.5357 112.727 31.4689C112.922 31.3995 113.091 31.2968 113.232 31.1606C113.373 31.0218 113.483 30.8497 113.56 30.6441L114.438 30.8908C114.346 31.1888 114.19 31.4509 113.972 31.677C113.754 31.9006 113.484 32.0753 113.163 32.2012C112.841 32.3246 112.48 32.3862 112.08 32.3862ZM115.915 32.2629V26.3427H116.793V27.2369H116.855C116.963 26.944 117.158 26.7063 117.441 26.5238C117.724 26.3414 118.042 26.2502 118.397 26.2502C118.464 26.2502 118.547 26.2515 118.647 26.254C118.748 26.2566 118.823 26.2605 118.875 26.2656V27.1906C118.844 27.1829 118.773 27.1714 118.663 27.1559C118.555 27.138 118.44 27.129 118.32 27.129C118.032 27.129 117.775 27.1894 117.549 27.3101C117.325 27.4283 117.148 27.5928 117.017 27.8035C116.888 28.0116 116.824 28.2493 116.824 28.5165V32.2629H115.915ZM123.129 32.2629V24.3693H125.796C126.415 24.3693 126.922 24.4811 127.315 24.7046C127.71 24.9256 128.003 25.2249 128.193 25.6027C128.384 25.9804 128.479 26.4018 128.479 26.8669C128.479 27.332 128.384 27.7546 128.193 28.1349C128.006 28.5152 127.715 28.8184 127.322 29.0446C126.929 29.2681 126.426 29.3799 125.811 29.3799H123.9V28.5319H125.781C126.205 28.5319 126.545 28.4587 126.802 28.3122C127.059 28.1658 127.245 27.9679 127.361 27.7187C127.479 27.4669 127.538 27.1829 127.538 26.8669C127.538 26.5508 127.479 26.2682 127.361 26.0189C127.245 25.7697 127.058 25.5744 126.798 25.4331C126.539 25.2892 126.194 25.2172 125.765 25.2172H124.085V32.2629H123.129ZM132.237 32.3862C131.702 32.3862 131.233 32.259 130.83 32.0047C130.429 31.7503 130.115 31.3944 129.889 30.937C129.666 30.4796 129.554 29.9452 129.554 29.3336C129.554 28.7169 129.666 28.1786 129.889 27.7187C130.115 27.2587 130.429 26.9016 130.83 26.6472C131.233 26.3928 131.702 26.2656 132.237 26.2656C132.771 26.2656 133.239 26.3928 133.64 26.6472C134.043 26.9016 134.356 27.2587 134.58 27.7187C134.806 28.1786 134.919 28.7169 134.919 29.3336C134.919 29.9452 134.806 30.4796 134.58 30.937C134.356 31.3944 134.043 31.7503 133.64 32.0047C133.239 32.259 132.771 32.3862 132.237 32.3862ZM132.237 31.5691C132.643 31.5691 132.977 31.4651 133.239 31.2569C133.501 31.0488 133.695 30.7751 133.821 30.436C133.947 30.0968 134.01 29.7293 134.01 29.3336C134.01 28.9379 133.947 28.5692 133.821 28.2274C133.695 27.8857 133.501 27.6095 133.239 27.3988C132.977 27.1881 132.643 27.0827 132.237 27.0827C131.831 27.0827 131.497 27.1881 131.234 27.3988C130.972 27.6095 130.778 27.8857 130.652 28.2274C130.527 28.5692 130.464 28.9379 130.464 29.3336C130.464 29.7293 130.527 30.0968 130.652 30.436C130.778 30.7751 130.972 31.0488 131.234 31.2569C131.497 31.4651 131.831 31.5691 132.237 31.5691ZM136.308 32.2629V26.3427H137.186V27.2369H137.248C137.356 26.944 137.551 26.7063 137.834 26.5238C138.117 26.3414 138.435 26.2502 138.79 26.2502C138.857 26.2502 138.94 26.2515 139.04 26.254C139.141 26.2566 139.216 26.2605 139.268 26.2656V27.1906C139.237 27.1829 139.166 27.1714 139.056 27.1559C138.948 27.138 138.834 27.129 138.713 27.129C138.425 27.129 138.168 27.1894 137.942 27.3101C137.718 27.4283 137.541 27.5928 137.41 27.8035C137.282 28.0116 137.217 28.2493 137.217 28.5165V32.2629H136.308ZM143.292 26.3427V27.1135H140.224V26.3427H143.292ZM141.118 24.9243H142.027V30.567C142.027 30.824 142.065 31.0167 142.139 31.1451C142.216 31.2711 142.314 31.3558 142.432 31.3995C142.553 31.4406 142.68 31.4612 142.814 31.4612C142.914 31.4612 142.996 31.4561 143.06 31.4458C143.125 31.4329 143.176 31.4227 143.215 31.4149L143.4 32.2321C143.338 32.2552 143.252 32.2783 143.141 32.3014C143.031 32.3271 142.891 32.34 142.721 32.34C142.464 32.34 142.212 32.2847 141.966 32.1742C141.722 32.0638 141.519 31.8955 141.357 31.6693C141.198 31.4432 141.118 31.158 141.118 30.8137V24.9243ZM146.402 32.4016C146.027 32.4016 145.686 32.331 145.381 32.1897C145.075 32.0458 144.832 31.8389 144.652 31.5691C144.472 31.2968 144.382 30.9678 144.382 30.5824C144.382 30.2432 144.449 29.9683 144.583 29.7576C144.716 29.5443 144.895 29.3773 145.119 29.2565C145.342 29.1358 145.589 29.0458 145.859 28.9867C146.131 28.9251 146.405 28.8762 146.68 28.8403C147.039 28.794 147.331 28.7593 147.555 28.7362C147.781 28.7105 147.945 28.6681 148.048 28.609C148.153 28.5499 148.206 28.4471 148.206 28.3007V28.2698C148.206 27.8895 148.102 27.5941 147.894 27.3833C147.688 27.1726 147.376 27.0673 146.957 27.0673C146.523 27.0673 146.182 27.1624 145.936 27.3525C145.689 27.5427 145.516 27.7457 145.415 27.9615L144.552 27.6532C144.706 27.2934 144.912 27.0133 145.169 26.8129C145.428 26.6099 145.711 26.4686 146.017 26.3889C146.325 26.3067 146.628 26.2656 146.926 26.2656C147.116 26.2656 147.335 26.2887 147.582 26.335C147.831 26.3787 148.071 26.4699 148.302 26.6086C148.536 26.7474 148.73 26.9568 148.884 27.2369C149.038 27.517 149.116 27.8921 149.116 28.3623V32.2629H148.206V31.4612H148.16C148.098 31.5897 147.995 31.7271 147.851 31.8736C147.707 32.0201 147.516 32.1447 147.277 32.2475C147.038 32.3503 146.746 32.4016 146.402 32.4016ZM146.541 31.5845C146.901 31.5845 147.204 31.5139 147.45 31.3726C147.7 31.2312 147.887 31.0488 148.013 30.8252C148.142 30.6017 148.206 30.3666 148.206 30.1199V29.2874C148.167 29.3336 148.083 29.376 147.952 29.4146C147.823 29.4505 147.674 29.4827 147.504 29.5109C147.337 29.5366 147.174 29.5597 147.015 29.5803C146.858 29.5983 146.731 29.6137 146.633 29.6266C146.397 29.6574 146.176 29.7075 145.97 29.7769C145.767 29.8437 145.603 29.9452 145.477 30.0814C145.354 30.215 145.292 30.3974 145.292 30.6287C145.292 30.9447 145.409 31.1837 145.643 31.3456C145.879 31.5049 146.179 31.5845 146.541 31.5845ZM151.685 24.3693V32.2629H150.776V24.3693H151.685Z" fill="white"/>
<path d="M30.291 23.1319C30.2706 23.1319 30.2619 21.4353 30.2619 18.1043V13.0767H32.2447C33.4513 13.0767 34.3613 13.0886 34.5648 13.1093C34.7479 13.1271 35.0096 13.1746 35.1462 13.2131C35.2829 13.2547 35.498 13.3377 35.6259 13.397C35.7539 13.4593 35.9428 13.5691 36.0475 13.6403C36.1522 13.7115 36.3063 13.839 36.3935 13.9191C36.4807 14.0021 36.629 14.1712 36.7249 14.2928C36.8209 14.4144 36.943 14.6072 37.0011 14.7229C37.0564 14.8386 37.1261 15.0047 37.1581 15.0937C37.1872 15.1827 37.2337 15.3488 37.257 15.4645C37.2831 15.592 37.3006 15.8293 37.3006 16.0873C37.3006 16.3217 37.2802 16.6123 37.257 16.7547C37.2337 16.8941 37.1785 17.1255 37.1378 17.2738C37.0942 17.4221 37.0215 17.6416 36.975 17.7632C36.9255 17.8848 36.8209 18.1132 36.7424 18.2675C36.661 18.4217 36.5214 18.656 36.4313 18.7836C36.3412 18.9141 36.1347 19.1573 35.9748 19.3293C35.8149 19.4984 35.5678 19.7298 35.4224 19.8425C35.2771 19.9522 34.0705 20.7383 32.7419 21.5866C31.4103 22.4379 30.3055 23.1319 30.291 23.1319Z" fill="#181818"/>
</svg>
