<svg width="165" height="40" viewBox="0 0 165 40" fill="none" xmlns="http://www.w3.org/2000/svg">
<path d="M4.51578 19.6229C2.04028 13.16 0.00819508 7.86511 3.40917e-05 7.85414C-0.0081269 7.84317 1.44997 7.8322 3.23995 7.8322C6.31664 7.8322 6.49618 7.83494 6.50979 7.88156C6.51795 7.90624 7.85907 11.4133 9.49127 15.6744C11.1235 19.9355 12.4646 23.4316 12.4755 23.4425C12.4836 23.4535 13.8411 19.9492 18.4792 7.84591H27.7148C35.1848 7.84591 36.9993 7.85414 37.2196 7.88156C37.3692 7.90349 37.6467 7.95011 37.8317 7.9885C38.0194 8.02689 38.3105 8.09818 38.4791 8.15028C38.6478 8.20238 38.9089 8.2956 39.064 8.35593C39.2163 8.419 39.502 8.54787 39.6951 8.64658C39.891 8.7453 40.1548 8.89336 40.28 8.97837C40.4078 9.06063 40.6227 9.21144 40.756 9.3129C40.892 9.41435 41.1178 9.60081 41.2593 9.72968C41.4035 9.85856 41.6293 10.0916 41.7626 10.2452C41.8986 10.3987 42.1053 10.662 42.225 10.832C42.3447 10.9992 42.5188 11.2734 42.6113 11.4407C42.7038 11.6052 42.8344 11.8685 42.8996 12.0275C42.9677 12.1865 43.071 12.469 43.1309 12.6582C43.1934 12.8474 43.2723 13.1545 43.3104 13.3437C43.3485 13.5329 43.392 13.8235 43.4084 13.988C43.4247 14.1553 43.4356 14.6297 43.4356 15.0437C43.4356 15.4578 43.4247 15.9404 43.4084 16.1131C43.3947 16.2859 43.3567 16.571 43.3267 16.7438C43.2968 16.9165 43.2288 17.2264 43.1744 17.4293C43.1227 17.6322 43.0166 17.9667 42.9432 18.1696C42.867 18.3725 42.7092 18.7372 42.5923 18.9785C42.4753 19.2198 42.2767 19.5735 42.1516 19.76C42.0291 19.9492 41.8224 20.2399 41.6945 20.4044C41.5694 20.5689 41.3055 20.8678 41.1097 21.0652C40.9165 21.2626 40.6418 21.5231 40.4976 21.641C40.3561 21.7589 40.2392 21.8741 40.2419 21.8988C40.2419 21.9207 41.0253 23.9855 41.9829 26.4834C42.9377 28.9842 43.7321 31.027 43.7457 31.0215C43.7593 31.0188 45.7669 25.8034 52.6493 7.84591L59.1455 7.8322L63.7564 19.8724C66.2945 26.4917 68.3701 31.9209 68.3755 31.9346C68.3783 31.9538 67.2439 31.9593 61.8957 31.9483L60.7341 28.9184C60.0949 27.2512 59.5481 25.8308 59.4719 25.6307L57.7037 26.7412L57.2673 27.016C56.5024 27.4976 55.9256 27.8608 55.9164 27.8654C55.9056 27.8709 55.8947 26.6123 55.8947 22.2552L57.7445 21.1036L57.146 19.5489L57.0442 19.2842C56.7359 18.4828 56.3855 17.5723 56.2266 17.1606C56.0525 16.7054 55.9028 16.3325 55.8947 16.3325C55.8892 16.3325 54.5345 19.8505 49.8963 31.962L37.6004 31.9647L36.3083 28.5893C35.3099 25.9844 35.008 25.2166 34.9753 25.2276C34.9536 25.2331 33.9933 25.8308 30.7452 27.8737L30.7316 31.962H24.2572L24.2599 20.8925C24.2599 11.8328 24.2545 9.82565 24.2246 9.85307C24.2055 9.86953 22.2877 14.8518 15.729 31.962H9.241L9.12946 31.6686C9.06962 31.5068 6.994 26.0859 4.51578 19.6229Z" fill="white"/>
<path d="M86.5732 9.95913H85.1394C85.0546 9.54672 84.9062 9.18441 84.6942 8.87221C84.4861 8.56002 84.2317 8.29792 83.9311 8.08594C83.6343 7.8701 83.3048 7.70821 82.9425 7.60029C82.5802 7.49237 82.2024 7.43841 81.8093 7.43841C81.0924 7.43841 80.4429 7.61957 79.8609 7.98187C79.2828 8.34417 78.8222 8.87799 78.4792 9.58333C78.14 10.2887 77.9704 11.154 77.9704 12.1792C77.9704 13.2044 78.14 14.0697 78.4792 14.7751C78.8222 15.4804 79.2828 16.0142 79.8609 16.3765C80.4429 16.7388 81.0924 16.92 81.8093 16.92C82.2024 16.92 82.5802 16.866 82.9425 16.7581C83.3048 16.6502 83.6343 16.4902 83.9311 16.2783C84.2317 16.0624 84.4861 15.7984 84.6942 15.4862C84.9062 15.1701 85.0546 14.8078 85.1394 14.3993H86.5732C86.4653 15.0044 86.2687 15.5459 85.9835 16.0239C85.6983 16.5018 85.3437 16.9084 84.9197 17.2438C84.4957 17.5752 84.0197 17.8277 83.4917 18.0011C82.9675 18.1746 82.4067 18.2613 81.8093 18.2613C80.7995 18.2613 79.9014 18.0146 79.1151 17.5213C78.3289 17.0279 77.7102 16.3264 77.2593 15.4168C76.8083 14.5072 76.5829 13.428 76.5829 12.1792C76.5829 10.9304 76.8083 9.85121 77.2593 8.94159C77.7102 8.03198 78.3289 7.33049 79.1151 6.83714C79.9014 6.34379 80.7995 6.09712 81.8093 6.09712C82.4067 6.09712 82.9675 6.18384 83.4917 6.35728C84.0197 6.53073 84.4957 6.78511 84.9197 7.12043C85.3437 7.4519 85.6983 7.8566 85.9835 8.33454C86.2687 8.80862 86.4653 9.35015 86.5732 9.95913ZM88.3076 18.0994V9.2191H89.6258V10.5604H89.7183C89.8802 10.121 90.1731 9.76448 90.5971 9.49083C91.0211 9.21717 91.499 9.08035 92.0309 9.08035C92.1311 9.08035 92.2564 9.08227 92.4067 9.08613C92.557 9.08998 92.6707 9.09576 92.7478 9.10347V10.491C92.7016 10.4795 92.5956 10.4621 92.4298 10.439C92.2679 10.412 92.0964 10.3985 91.9153 10.3985C91.4836 10.3985 91.0982 10.4891 90.759 10.6702C90.4237 10.8475 90.1577 11.0942 89.9611 11.4103C89.7684 11.7225 89.6721 12.079 89.6721 12.4798V18.0994H88.3076ZM93.9677 18.0994V9.2191H95.3321V18.0994H93.9677ZM94.6615 7.73905C94.3955 7.73905 94.1662 7.64847 93.9735 7.46732C93.7846 7.28617 93.6902 7.0684 93.6902 6.81402C93.6902 6.55963 93.7846 6.34186 93.9735 6.16071C94.1662 5.97956 94.3955 5.88898 94.6615 5.88898C94.9274 5.88898 95.1548 5.97956 95.3437 6.16071C95.5364 6.34186 95.6327 6.55963 95.6327 6.81402C95.6327 7.0684 95.5364 7.28617 95.3437 7.46732C95.1548 7.64847 94.9274 7.73905 94.6615 7.73905ZM101.041 18.2844C100.209 18.2844 99.4919 18.0878 98.8906 17.6947C98.2893 17.3016 97.8268 16.76 97.503 16.0701C97.1793 15.3802 97.0174 14.592 97.0174 13.7055C97.0174 12.8036 97.1831 12.0077 97.5146 11.3178C97.8499 10.624 98.3163 10.0825 98.9137 9.69318C99.515 9.30004 100.216 9.10347 101.018 9.10347C101.643 9.10347 102.205 9.2191 102.706 9.45036C103.207 9.68162 103.618 10.0054 103.938 10.4216C104.258 10.8379 104.456 11.3235 104.533 11.8786H103.169C103.065 11.4739 102.834 11.1154 102.475 10.8032C102.12 10.4872 101.643 10.3291 101.041 10.3291C100.509 10.3291 100.043 10.4679 99.6422 10.7454C99.2452 11.0191 98.9349 11.4064 98.7114 11.9075C98.4917 12.4047 98.3818 12.9886 98.3818 13.6593C98.3818 14.3453 98.4897 14.9427 98.7056 15.4515C98.9253 15.9603 99.2336 16.3553 99.6306 16.6367C100.031 16.9181 100.502 17.0587 101.041 17.0587C101.396 17.0587 101.718 16.9971 102.007 16.8737C102.296 16.7504 102.541 16.5731 102.741 16.3418C102.941 16.1106 103.084 15.8331 103.169 15.5093H104.533C104.456 16.0335 104.265 16.5057 103.961 16.9258C103.66 17.342 103.261 17.6735 102.764 17.9202C102.271 18.163 101.697 18.2844 101.041 18.2844ZM107.402 14.8618L107.379 13.1736H107.657L111.542 9.2191H113.23L109.091 13.4049H108.975L107.402 14.8618ZM106.13 18.0994V6.259H107.495V18.0994H106.13ZM111.773 18.0994L108.304 13.7055L109.276 12.7573L113.508 18.0994H111.773ZM117.946 18.2844C117.091 18.2844 116.353 18.0956 115.732 17.7178C115.115 17.3363 114.639 16.8044 114.304 16.1222C113.972 15.4361 113.807 14.6382 113.807 13.7286C113.807 12.819 113.972 12.0173 114.304 11.3235C114.639 10.6259 115.106 10.0825 115.703 9.69318C116.304 9.30004 117.006 9.10347 117.808 9.10347C118.27 9.10347 118.727 9.18056 119.178 9.33473C119.629 9.4889 120.039 9.73943 120.409 10.0863C120.779 10.4294 121.074 10.8842 121.294 11.4507C121.513 12.0173 121.623 12.715 121.623 13.5436V14.1218H114.778V12.9424H120.236C120.236 12.4413 120.135 11.9942 119.935 11.6011C119.739 11.2079 119.457 10.8976 119.091 10.6702C118.729 10.4428 118.301 10.3291 117.808 10.3291C117.264 10.3291 116.794 10.464 116.397 10.7338C116.004 10.9998 115.701 11.3467 115.489 11.7745C115.277 12.2023 115.171 12.661 115.171 13.1505V13.9368C115.171 14.6074 115.287 15.1759 115.518 15.6423C115.753 16.1048 116.079 16.4575 116.495 16.7003C116.911 16.9393 117.395 17.0587 117.946 17.0587C118.305 17.0587 118.628 17.0086 118.918 16.9084C119.21 16.8044 119.463 16.6502 119.675 16.4459C119.887 16.2378 120.051 15.9795 120.166 15.6712L121.485 16.0412C121.346 16.4883 121.113 16.8815 120.785 17.2206C120.457 17.556 120.053 17.818 119.571 18.0069C119.089 18.1919 118.548 18.2844 117.946 18.2844ZM127.163 9.2191V10.3754H122.561V9.2191H127.163ZM123.903 7.09153H125.267V15.5556C125.267 15.941 125.323 16.2301 125.435 16.4228C125.55 16.6116 125.697 16.7388 125.874 16.8044C126.055 16.866 126.246 16.8969 126.446 16.8969C126.597 16.8969 126.72 16.8892 126.816 16.8737C126.913 16.8545 126.99 16.8391 127.048 16.8275L127.325 18.0532C127.233 18.0878 127.104 18.1225 126.938 18.1572C126.772 18.1958 126.562 18.215 126.308 18.215C125.922 18.215 125.545 18.1322 125.175 17.9664C124.808 17.8007 124.504 17.5482 124.261 17.2091C124.022 16.8699 123.903 16.4421 123.903 15.9256V7.09153ZM142.713 9.95913H141.279C141.194 9.54672 141.046 9.18441 140.834 8.87221C140.625 8.56002 140.371 8.29792 140.07 8.08594C139.774 7.8701 139.444 7.70821 139.082 7.60029C138.719 7.49237 138.342 7.43841 137.949 7.43841C137.232 7.43841 136.582 7.61957 136 7.98187C135.422 8.34417 134.962 8.87799 134.619 9.58333C134.279 10.2887 134.11 11.154 134.11 12.1792C134.11 13.2044 134.279 14.0697 134.619 14.7751C134.962 15.4804 135.422 16.0142 136 16.3765C136.582 16.7388 137.232 16.92 137.949 16.92C138.342 16.92 138.719 16.866 139.082 16.7581C139.444 16.6502 139.774 16.4902 140.07 16.2783C140.371 16.0624 140.625 15.7984 140.834 15.4862C141.046 15.1701 141.194 14.8078 141.279 14.3993H142.713C142.605 15.0044 142.408 15.5459 142.123 16.0239C141.838 16.5018 141.483 16.9084 141.059 17.2438C140.635 17.5752 140.159 17.8277 139.631 18.0011C139.107 18.1746 138.546 18.2613 137.949 18.2613C136.939 18.2613 136.041 18.0146 135.254 17.5213C134.468 17.0279 133.85 16.3264 133.399 15.4168C132.948 14.5072 132.722 13.428 132.722 12.1792C132.722 10.9304 132.948 9.85121 133.399 8.94159C133.85 8.03198 134.468 7.33049 135.254 6.83714C136.041 6.34379 136.939 6.09712 137.949 6.09712C138.546 6.09712 139.107 6.18384 139.631 6.35728C140.159 6.53073 140.635 6.78511 141.059 7.12043C141.483 7.4519 141.838 7.8566 142.123 8.33454C142.408 8.80862 142.605 9.35015 142.713 9.95913ZM145.811 6.259V18.0994H144.447V6.259H145.811ZM153.509 14.4687V9.2191H154.874V18.0994H153.509V16.5962H153.417C153.209 17.0472 152.885 17.4307 152.446 17.7467C152.006 18.0589 151.451 18.215 150.781 18.215C150.226 18.215 149.732 18.0936 149.301 17.8508C148.869 17.6041 148.53 17.2341 148.283 16.7408C148.036 16.2436 147.913 15.6172 147.913 14.8618V9.2191H149.277V14.7693C149.277 15.4168 149.459 15.9333 149.821 16.3187C150.187 16.7042 150.653 16.8969 151.22 16.8969C151.559 16.8969 151.904 16.8101 152.255 16.6367C152.609 16.4633 152.906 16.1973 153.145 15.8389C153.388 15.4804 153.509 15.0237 153.509 14.4687ZM157.16 18.0994V6.259H158.525V10.6298H158.64C158.741 10.4756 158.879 10.279 159.057 10.0401C159.238 9.79725 159.496 9.5814 159.831 9.39254C160.171 9.19983 160.629 9.10347 161.207 9.10347C161.955 9.10347 162.614 9.29041 163.185 9.66427C163.755 10.0381 164.2 10.5681 164.52 11.2542C164.84 11.9402 165 12.7496 165 13.6824C165 14.6228 164.84 15.438 164.52 16.1279C164.2 16.814 163.757 17.3459 163.19 17.7236C162.624 18.0975 161.971 18.2844 161.231 18.2844C160.66 18.2844 160.203 18.19 159.86 18.0011C159.517 17.8084 159.253 17.5906 159.068 17.3478C158.883 17.1011 158.741 16.8969 158.64 16.735H158.479V18.0994H157.16ZM158.502 13.6593C158.502 14.3299 158.6 14.9215 158.797 15.4342C158.993 15.9429 159.28 16.3418 159.658 16.6309C160.036 16.9161 160.498 17.0587 161.046 17.0587C161.616 17.0587 162.092 16.9084 162.474 16.6078C162.859 16.3033 163.148 15.8947 163.341 15.3821C163.537 14.8657 163.636 14.2914 163.636 13.6593C163.636 13.0349 163.539 12.4721 163.347 11.9711C163.158 11.4662 162.871 11.0672 162.485 10.7743C162.104 10.4775 161.624 10.3291 161.046 10.3291C160.491 10.3291 160.024 10.4698 159.646 10.7512C159.269 11.0287 158.983 11.418 158.791 11.919C158.598 12.4162 158.502 12.9963 158.502 13.6593Z" fill="white"/>
<path d="M77.573 24.3694H78.7138L81.3964 30.9217H81.4889L84.1715 24.3694H85.3124V32.263H84.4182V26.2657H84.3411L81.8744 32.263H81.011L78.5443 26.2657H78.4672V32.263H77.573V24.3694ZM89.5878 32.3864C89.0174 32.3864 88.5253 32.2604 88.1116 32.0086C87.7005 31.7542 87.3831 31.3997 87.1596 30.9448C86.9386 30.4875 86.8281 29.9556 86.8281 29.3492C86.8281 28.7428 86.9386 28.2083 87.1596 27.7458C87.3831 27.2807 87.694 26.9184 88.0923 26.6589C88.4932 26.3968 88.9608 26.2657 89.4953 26.2657C89.8036 26.2657 90.1081 26.3171 90.4088 26.4199C90.7094 26.5227 90.983 26.6897 91.2297 26.921C91.4764 27.1496 91.673 27.4529 91.8194 27.8306C91.9659 28.2083 92.0391 28.6734 92.0391 29.2258V29.6113H87.4756V28.825H91.1141C91.1141 28.4909 91.0473 28.1929 90.9137 27.9308C90.7826 27.6687 90.595 27.4618 90.3509 27.3102C90.1094 27.1586 89.8242 27.0828 89.4953 27.0828C89.133 27.0828 88.8195 27.1728 88.5548 27.3526C88.2927 27.5299 88.091 27.7612 87.9497 28.0464C87.8084 28.3316 87.7377 28.6374 87.7377 28.9637V29.4879C87.7377 29.935 87.8148 30.314 87.969 30.6249C88.1257 30.9333 88.3428 31.1684 88.6204 31.3303C88.8979 31.4896 89.2203 31.5692 89.5878 31.5692C89.8268 31.5692 90.0426 31.5358 90.2353 31.469C90.4306 31.3997 90.5989 31.2969 90.7402 31.1607C90.8815 31.0219 90.9908 30.8498 91.0678 30.6442L91.9466 30.8909C91.8541 31.189 91.6987 31.451 91.4802 31.6772C91.2618 31.9007 90.992 32.0754 90.6708 32.2013C90.3497 32.3247 89.9886 32.3864 89.5878 32.3864ZM93.4228 32.263V26.3428H94.3016V27.2678H94.3787C94.502 26.9518 94.7012 26.7064 94.9761 26.5317C95.251 26.3544 95.5812 26.2657 95.9667 26.2657C96.3572 26.2657 96.6823 26.3544 96.9418 26.5317C97.2039 26.7064 97.4082 26.9518 97.5546 27.2678H97.6163C97.7679 26.9621 97.9953 26.7192 98.2985 26.5394C98.6017 26.3569 98.9653 26.2657 99.3893 26.2657C99.9186 26.2657 100.352 26.4315 100.688 26.7629C101.025 27.0918 101.193 27.6045 101.193 28.3008V32.263H100.283V28.3008C100.283 27.864 100.164 27.5518 99.925 27.3642C99.6861 27.1766 99.4047 27.0828 99.0809 27.0828C98.6647 27.0828 98.3422 27.2087 98.1135 27.4606C97.8848 27.7098 97.7705 28.0259 97.7705 28.4087V32.263H96.8454V28.2083C96.8454 27.8717 96.7362 27.6006 96.5178 27.395C96.2994 27.1869 96.018 27.0828 95.6737 27.0828C95.4373 27.0828 95.2164 27.1458 95.0108 27.2717C94.8078 27.3976 94.6433 27.5723 94.5174 27.7959C94.3941 28.0169 94.3324 28.2725 94.3324 28.5629V32.263H93.4228ZM102.98 32.263V24.3694H103.889V27.2833H103.966C104.033 27.1805 104.126 27.0494 104.244 26.8901C104.365 26.7282 104.537 26.5843 104.76 26.4584C104.986 26.33 105.292 26.2657 105.678 26.2657C106.176 26.2657 106.615 26.3903 106.996 26.6396C107.376 26.8888 107.673 27.2421 107.886 27.6995C108.099 28.1569 108.206 28.6965 108.206 29.3183C108.206 29.9453 108.099 30.4888 107.886 30.9487C107.673 31.4061 107.377 31.7607 107 32.0125C106.622 32.2617 106.186 32.3864 105.693 32.3864C105.313 32.3864 105.008 32.3234 104.78 32.1975C104.551 32.069 104.375 31.9238 104.251 31.762C104.128 31.5975 104.033 31.4613 103.966 31.3534H103.858V32.263H102.98ZM103.874 29.3029C103.874 29.75 103.939 30.1444 104.07 30.4862C104.201 30.8254 104.393 31.0913 104.645 31.284C104.896 31.4742 105.205 31.5692 105.57 31.5692C105.95 31.5692 106.267 31.469 106.522 31.2686C106.779 31.0656 106.971 30.7932 107.1 30.4515C107.231 30.1072 107.296 29.7243 107.296 29.3029C107.296 28.8867 107.232 28.5115 107.104 28.1775C106.978 27.8408 106.786 27.5749 106.529 27.3796C106.275 27.1818 105.955 27.0828 105.57 27.0828C105.2 27.0828 104.889 27.1766 104.637 27.3642C104.385 27.5492 104.195 27.8087 104.066 28.1428C103.938 28.4742 103.874 28.861 103.874 29.3029ZM112.08 32.3864C111.509 32.3864 111.017 32.2604 110.603 32.0086C110.192 31.7542 109.875 31.3997 109.651 30.9448C109.43 30.4875 109.32 29.9556 109.32 29.3492C109.32 28.7428 109.43 28.2083 109.651 27.7458C109.875 27.2807 110.186 26.9184 110.584 26.6589C110.985 26.3968 111.453 26.2657 111.987 26.2657C112.295 26.2657 112.6 26.3171 112.901 26.4199C113.201 26.5227 113.475 26.6897 113.721 26.921C113.968 27.1496 114.165 27.4529 114.311 27.8306C114.458 28.2083 114.531 28.6734 114.531 29.2258V29.6113H109.967V28.825H113.606C113.606 28.4909 113.539 28.1929 113.405 27.9308C113.274 27.6687 113.087 27.4618 112.843 27.3102C112.601 27.1586 112.316 27.0828 111.987 27.0828C111.625 27.0828 111.311 27.1728 111.047 27.3526C110.785 27.5299 110.583 27.7612 110.441 28.0464C110.3 28.3316 110.229 28.6374 110.229 28.9637V29.4879C110.229 29.935 110.307 30.314 110.461 30.6249C110.617 30.9333 110.835 31.1684 111.112 31.3303C111.39 31.4896 111.712 31.5692 112.08 31.5692C112.319 31.5692 112.534 31.5358 112.727 31.469C112.922 31.3997 113.091 31.2969 113.232 31.1607C113.373 31.0219 113.483 30.8498 113.56 30.6442L114.438 30.8909C114.346 31.189 114.19 31.451 113.972 31.6772C113.754 31.9007 113.484 32.0754 113.163 32.2013C112.841 32.3247 112.48 32.3864 112.08 32.3864ZM115.915 32.263V26.3428H116.793V27.237H116.855C116.963 26.9441 117.158 26.7064 117.441 26.524C117.724 26.3415 118.042 26.2503 118.397 26.2503C118.464 26.2503 118.547 26.2516 118.647 26.2542C118.748 26.2567 118.823 26.2606 118.875 26.2657V27.1908C118.844 27.183 118.773 27.1715 118.663 27.1561C118.555 27.1381 118.44 27.1291 118.32 27.1291C118.032 27.1291 117.775 27.1895 117.549 27.3102C117.325 27.4284 117.148 27.5929 117.017 27.8036C116.888 28.0117 116.824 28.2494 116.824 28.5166V32.263H115.915ZM123.129 32.263V24.3694H125.796C126.415 24.3694 126.922 24.4812 127.315 24.7047C127.71 24.9257 128.003 25.2251 128.193 25.6028C128.384 25.9805 128.479 26.4019 128.479 26.867C128.479 27.3321 128.384 27.7548 128.193 28.1351C128.006 28.5154 127.715 28.8186 127.322 29.0447C126.929 29.2682 126.426 29.38 125.811 29.38H123.9V28.5321H125.781C126.205 28.5321 126.545 28.4588 126.802 28.3124C127.059 28.1659 127.245 27.968 127.361 27.7188C127.479 27.467 127.538 27.183 127.538 26.867C127.538 26.5509 127.479 26.2683 127.361 26.019C127.245 25.7698 127.058 25.5745 126.798 25.4332C126.539 25.2893 126.194 25.2174 125.765 25.2174H124.085V32.263H123.129ZM132.237 32.3864C131.702 32.3864 131.233 32.2592 130.83 32.0048C130.429 31.7504 130.115 31.3945 129.889 30.9371C129.666 30.4798 129.554 29.9453 129.554 29.3337C129.554 28.7171 129.666 28.1787 129.889 27.7188C130.115 27.2589 130.429 26.9017 130.83 26.6473C131.233 26.3929 131.702 26.2657 132.237 26.2657C132.771 26.2657 133.239 26.3929 133.64 26.6473C134.043 26.9017 134.356 27.2589 134.58 27.7188C134.806 28.1787 134.919 28.7171 134.919 29.3337C134.919 29.9453 134.806 30.4798 134.58 30.9371C134.356 31.3945 134.043 31.7504 133.64 32.0048C133.239 32.2592 132.771 32.3864 132.237 32.3864ZM132.237 31.5692C132.643 31.5692 132.977 31.4652 133.239 31.257C133.501 31.0489 133.695 30.7753 133.821 30.4361C133.947 30.0969 134.01 29.7295 134.01 29.3337C134.01 28.938 133.947 28.5693 133.821 28.2276C133.695 27.8858 133.501 27.6096 133.239 27.3989C132.977 27.1882 132.643 27.0828 132.237 27.0828C131.831 27.0828 131.497 27.1882 131.234 27.3989C130.972 27.6096 130.778 27.8858 130.652 28.2276C130.527 28.5693 130.464 28.938 130.464 29.3337C130.464 29.7295 130.527 30.0969 130.652 30.4361C130.778 30.7753 130.972 31.0489 131.234 31.257C131.497 31.4652 131.831 31.5692 132.237 31.5692ZM136.308 32.263V26.3428H137.186V27.237H137.248C137.356 26.9441 137.551 26.7064 137.834 26.524C138.117 26.3415 138.435 26.2503 138.79 26.2503C138.857 26.2503 138.94 26.2516 139.04 26.2542C139.141 26.2567 139.216 26.2606 139.268 26.2657V27.1908C139.237 27.183 139.166 27.1715 139.056 27.1561C138.948 27.1381 138.834 27.1291 138.713 27.1291C138.425 27.1291 138.168 27.1895 137.942 27.3102C137.718 27.4284 137.541 27.5929 137.41 27.8036C137.282 28.0117 137.217 28.2494 137.217 28.5166V32.263H136.308ZM143.292 26.3428V27.1137H140.224V26.3428H143.292ZM141.118 24.9244H142.027V30.5671C142.027 30.8241 142.065 31.0168 142.139 31.1453C142.216 31.2712 142.314 31.356 142.432 31.3997C142.553 31.4408 142.68 31.4613 142.814 31.4613C142.914 31.4613 142.996 31.4562 143.06 31.4459C143.125 31.4331 143.176 31.4228 143.215 31.4151L143.4 32.2322C143.338 32.2553 143.252 32.2784 143.141 32.3016C143.031 32.3273 142.891 32.3401 142.721 32.3401C142.464 32.3401 142.212 32.2849 141.966 32.1744C141.722 32.0639 141.519 31.8956 141.357 31.6695C141.198 31.4433 141.118 31.1581 141.118 30.8138V24.9244ZM146.402 32.4018C146.027 32.4018 145.686 32.3311 145.381 32.1898C145.075 32.0459 144.832 31.839 144.652 31.5692C144.472 31.2969 144.382 30.968 144.382 30.5825C144.382 30.2434 144.449 29.9684 144.583 29.7577C144.716 29.5445 144.895 29.3774 145.119 29.2567C145.342 29.1359 145.589 29.046 145.859 28.9869C146.131 28.9252 146.405 28.8764 146.68 28.8404C147.039 28.7941 147.331 28.7595 147.555 28.7363C147.781 28.7106 147.945 28.6682 148.048 28.6091C148.153 28.55 148.206 28.4473 148.206 28.3008V28.27C148.206 27.8897 148.102 27.5942 147.894 27.3835C147.688 27.1728 147.376 27.0674 146.957 27.0674C146.523 27.0674 146.182 27.1625 145.936 27.3526C145.689 27.5428 145.516 27.7458 145.415 27.9616L144.552 27.6533C144.706 27.2935 144.912 27.0135 145.169 26.813C145.428 26.61 145.711 26.4687 146.017 26.3891C146.325 26.3068 146.628 26.2657 146.926 26.2657C147.116 26.2657 147.335 26.2889 147.582 26.3351C147.831 26.3788 148.071 26.47 148.302 26.6088C148.536 26.7475 148.73 26.9569 148.884 27.237C149.038 27.5171 149.116 27.8922 149.116 28.3625V32.263H148.206V31.4613H148.16C148.098 31.5898 147.995 31.7273 147.851 31.8737C147.707 32.0202 147.516 32.1448 147.277 32.2476C147.038 32.3504 146.746 32.4018 146.402 32.4018ZM146.541 31.5847C146.901 31.5847 147.204 31.514 147.45 31.3727C147.7 31.2313 147.887 31.0489 148.013 30.8254C148.142 30.6018 148.206 30.3667 148.206 30.12V29.2875C148.167 29.3337 148.083 29.3761 147.952 29.4147C147.823 29.4507 147.674 29.4828 147.504 29.511C147.337 29.5367 147.174 29.5599 147.015 29.5804C146.858 29.5984 146.731 29.6138 146.633 29.6267C146.397 29.6575 146.176 29.7076 145.97 29.777C145.767 29.8438 145.603 29.9453 145.477 30.0815C145.354 30.2151 145.292 30.3975 145.292 30.6288C145.292 30.9448 145.409 31.1838 145.643 31.3457C145.879 31.505 146.179 31.5847 146.541 31.5847ZM151.685 24.3694V32.263H150.776V24.3694H151.685Z" fill="white"/>
<path d="M30.291 23.1319C30.2706 23.1319 30.2619 21.4353 30.2619 18.1043V13.0767H32.2447C33.4513 13.0767 34.3613 13.0886 34.5648 13.1093C34.7479 13.1271 35.0096 13.1746 35.1462 13.2131C35.2829 13.2547 35.498 13.3377 35.6259 13.397C35.7539 13.4593 35.9428 13.5691 36.0475 13.6403C36.1522 13.7115 36.3063 13.839 36.3935 13.9191C36.4807 14.0021 36.629 14.1712 36.7249 14.2928C36.8209 14.4144 36.943 14.6072 37.0011 14.7229C37.0564 14.8386 37.1261 15.0047 37.1581 15.0937C37.1872 15.1827 37.2337 15.3488 37.257 15.4645C37.2831 15.592 37.3006 15.8293 37.3006 16.0873C37.3006 16.3217 37.2802 16.6123 37.257 16.7547C37.2337 16.8941 37.1785 17.1255 37.1378 17.2738C37.0942 17.4221 37.0215 17.6416 36.975 17.7632C36.9255 17.8848 36.8209 18.1132 36.7424 18.2675C36.661 18.4217 36.5214 18.656 36.4313 18.7836C36.3412 18.9141 36.1347 19.1573 35.9748 19.3293C35.8149 19.4984 35.5678 19.7298 35.4224 19.8425C35.2771 19.9522 34.0705 20.7383 32.7419 21.5866C31.4103 22.4379 30.3055 23.1319 30.291 23.1319Z" fill="#181818"/>
</svg>
