<svg width="15" height="17" viewBox="0 0 15 17" fill="none" xmlns="http://www.w3.org/2000/svg">
<path d="M1.50244 9.74845C1.36056 9.74893 1.22146 9.70915 1.1013 9.63372C0.98113 9.5583 0.884832 9.45032 0.823591 9.32234C0.762349 9.19436 0.738678 9.05163 0.755327 8.91074C0.771976 8.76984 0.828262 8.63656 0.917645 8.52638L8.34004 0.879066C8.39571 0.8148 8.47159 0.771371 8.5552 0.755909C8.63881 0.740447 8.72519 0.753869 8.80017 0.793974C8.87515 0.834078 8.93427 0.898482 8.96782 0.976613C9.00137 1.05474 9.00736 1.14196 8.98481 1.22394L7.54532 5.73736C7.50287 5.85096 7.48861 5.97317 7.50377 6.09349C7.51893 6.21381 7.56306 6.32866 7.63235 6.42819C7.70165 6.52771 7.79406 6.60894 7.90165 6.6649C8.00924 6.72087 8.1288 6.7499 8.25007 6.7495H13.4982C13.6401 6.74902 13.7792 6.7888 13.8994 6.86423C14.0195 6.93966 14.1158 7.04763 14.1771 7.17561C14.2383 7.30359 14.262 7.44632 14.2453 7.58721C14.2287 7.72811 14.1724 7.86139 14.083 7.97157L6.66063 15.6189C6.60495 15.6832 6.52908 15.7266 6.44547 15.742C6.36185 15.7575 6.27547 15.7441 6.20049 15.704C6.12551 15.6639 6.0664 15.5995 6.03285 15.5213C5.9993 15.4432 5.9933 15.356 6.01585 15.274L7.45535 10.7606C7.49779 10.647 7.51205 10.5248 7.49689 10.4045C7.48173 10.2841 7.43761 10.1693 7.36831 10.0698C7.29901 9.97024 7.20661 9.88901 7.09902 9.83305C6.99143 9.77708 6.87187 9.74805 6.7506 9.74845H1.50244Z" stroke="white" stroke-width="1.49918" stroke-linecap="round" stroke-linejoin="round"/>
</svg>
