<svg width="10" height="10" viewBox="0 0 10 10" fill="none" xmlns="http://www.w3.org/2000/svg">
<path d="M9.54516 4.99958H8.41798C8.21935 4.99916 8.02604 5.06381 7.86762 5.18364C7.70921 5.30348 7.59441 5.47191 7.54078 5.66317L6.47268 9.46286C6.4658 9.48646 6.45145 9.50719 6.43178 9.52194C6.41211 9.53669 6.38819 9.54467 6.3636 9.54467C6.33902 9.54467 6.31509 9.53669 6.29543 9.52194C6.27576 9.50719 6.2614 9.48646 6.25452 9.46286L3.74563 0.536312C3.73875 0.51271 3.7244 0.491977 3.70473 0.477226C3.68506 0.462475 3.66114 0.454501 3.63655 0.454501C3.61197 0.454501 3.58804 0.462475 3.56838 0.477226C3.54871 0.491977 3.53435 0.51271 3.52747 0.536312L2.45938 4.336C2.40595 4.52651 2.29184 4.69439 2.13434 4.81415C1.97685 4.93391 1.78458 4.99902 1.58672 4.99958H0.454994" stroke="#282828" stroke-width="0.899429" stroke-linecap="round" stroke-linejoin="round"/>
</svg>
