<svg width="20" height="20" viewBox="0 0 20 20" fill="none" xmlns="http://www.w3.org/2000/svg">
<path d="M1.66699 7.91686C1.66701 6.98953 1.94832 6.08402 2.47377 5.31992C2.99922 4.55582 3.74409 3.96908 4.61 3.6372C5.47591 3.30531 6.42212 3.2439 7.32367 3.46107C8.22522 3.67823 9.03968 4.16376 9.65949 4.85353C9.70315 4.90021 9.75593 4.93742 9.81456 4.96286C9.87318 4.9883 9.93641 5.00143 10.0003 5.00143C10.0642 5.00143 10.1275 4.9883 10.1861 4.96286C10.2447 4.93742 10.2975 4.90021 10.3412 4.85353C10.959 4.15928 11.7737 3.66967 12.6767 3.44986C13.5797 3.23006 14.5282 3.29049 15.3961 3.6231C16.2639 3.95571 17.0098 4.54474 17.5346 5.31178C18.0594 6.07882 18.3381 6.9875 18.3337 7.91686C18.3337 9.8252 17.0837 11.2502 15.8337 12.5002L11.257 16.9277C11.1017 17.106 10.9103 17.2493 10.6954 17.3479C10.4805 17.4466 10.247 17.4984 10.0106 17.4999C9.77411 17.5014 9.54003 17.4526 9.3239 17.3566C9.10776 17.2607 8.91452 17.1199 8.75699 16.9435L4.16699 12.5002C2.91699 11.2502 1.66699 9.83353 1.66699 7.91686Z" stroke="#99A1AF" stroke-width="1.66667" stroke-linecap="round" stroke-linejoin="round"/>
<path d="M2.68359 10.8334H7.91693L8.33359 10.0001L10.0003 13.7501L11.6669 7.91675L12.9169 10.8334H17.3086" stroke="#99A1AF" stroke-width="1.66667" stroke-linecap="round" stroke-linejoin="round"/>
</svg>
