<svg width="15" height="15" viewBox="0 0 15 15" fill="none" xmlns="http://www.w3.org/2000/svg">
<g clip-path="url(#clip0_542_20974)">
<path d="M6.25037 9.16203V10.1782C6.24801 10.3924 6.19067 10.6023 6.08386 10.7879C5.97705 10.9735 5.82434 11.1286 5.64038 11.2382C5.24986 11.5275 4.93218 11.9038 4.71259 12.3373C4.493 12.7709 4.37755 13.2497 4.37542 13.7356" stroke="white" stroke-width="1.19934" stroke-linecap="round" stroke-linejoin="round"/>
<path d="M8.74983 9.16203V10.1782C8.75219 10.3924 8.80953 10.6023 8.91634 10.7879C9.02315 10.9735 9.17585 11.1286 9.35981 11.2382C9.75034 11.5275 10.068 11.9038 10.2876 12.3373C10.5072 12.7709 10.6226 13.2497 10.6248 13.7356" stroke="white" stroke-width="1.19934" stroke-linecap="round" stroke-linejoin="round"/>
<path d="M11.2495 5.62482H12.187C12.6013 5.62482 12.9988 5.4602 13.2918 5.16719C13.5848 4.87417 13.7494 4.47675 13.7494 4.06237C13.7494 3.64798 13.5848 3.25056 13.2918 2.95755C12.9988 2.66453 12.6013 2.49992 12.187 2.49992H11.2495" stroke="white" stroke-width="1.19934" stroke-linecap="round" stroke-linejoin="round"/>
<path d="M2.49966 13.7497H12.4993" stroke="white" stroke-width="1.19934" stroke-linecap="round" stroke-linejoin="round"/>
<path d="M3.74949 5.62469C3.74949 6.61922 4.14457 7.57302 4.84781 8.27626C5.55105 8.9795 6.50484 9.37458 7.49937 9.37458C8.49391 9.37458 9.4477 8.9795 10.1509 8.27626C10.8542 7.57302 11.2493 6.61922 11.2493 5.62469V1.87481C11.2493 1.70906 11.1834 1.55009 11.0662 1.43288C10.949 1.31568 10.79 1.24983 10.6243 1.24983H4.37447C4.20872 1.24983 4.04975 1.31568 3.93254 1.43288C3.81534 1.55009 3.74949 1.70906 3.74949 1.87481V5.62469Z" stroke="white" stroke-width="1.19934" stroke-linecap="round" stroke-linejoin="round"/>
<path d="M3.74975 5.62482H2.81228C2.39789 5.62482 2.00048 5.4602 1.70746 5.16719C1.41445 4.87417 1.24983 4.47675 1.24983 4.06237C1.24983 3.64798 1.41445 3.25056 1.70746 2.95755C2.00048 2.66453 2.39789 2.49992 2.81228 2.49992H3.74975" stroke="white" stroke-width="1.19934" stroke-linecap="round" stroke-linejoin="round"/>
</g>
<defs>
<clipPath id="clip0_542_20974">
<rect width="14.3921" height="14.3921" fill="white" transform="scale(1.0422)"/>
</clipPath>
</defs>
</svg>
