<svg width="16" height="16" viewBox="0 0 16 16" fill="none" xmlns="http://www.w3.org/2000/svg">
<g clip-path="url(#clip0_542_21276)">
<path d="M10.6663 6.66663C10.6663 7.37387 10.3854 8.05215 9.88529 8.55224C9.3852 9.05234 8.70692 9.33329 7.99967 9.33329C7.29243 9.33329 6.61415 9.05234 6.11406 8.55224C5.61396 8.05215 5.33301 7.37387 5.33301 6.66663" stroke="white" stroke-width="1.33333" stroke-linecap="round" stroke-linejoin="round"/>
<path d="M2.06836 4.02271H13.931" stroke="white" stroke-width="1.33333" stroke-linecap="round" stroke-linejoin="round"/>
<path d="M2.26667 3.64471C2.09357 3.8755 2 4.15621 2 4.44471V13.3334C2 13.687 2.14048 14.0261 2.39052 14.2762C2.64057 14.5262 2.97971 14.6667 3.33333 14.6667H12.6667C13.0203 14.6667 13.3594 14.5262 13.6095 14.2762C13.8595 14.0261 14 13.687 14 13.3334V4.44471C14 4.15621 13.9064 3.8755 13.7333 3.64471L12.4 1.86671C12.2758 1.70111 12.1148 1.56671 11.9296 1.47414C11.7445 1.38157 11.5403 1.33337 11.3333 1.33337H4.66667C4.45967 1.33337 4.25552 1.38157 4.07038 1.47414C3.88524 1.56671 3.7242 1.70111 3.6 1.86671L2.26667 3.64471Z" stroke="white" stroke-width="1.33333" stroke-linecap="round" stroke-linejoin="round"/>
</g>
<defs>
<clipPath id="clip0_542_21276">
<rect width="16" height="16" fill="white"/>
</clipPath>
</defs>
</svg>
