<svg width="15" height="15" viewBox="0 0 15 15" fill="none" xmlns="http://www.w3.org/2000/svg">
<g clip-path="url(#clip0_542_23048)">
<path d="M6.24993 9.16261V10.1789C6.24757 10.393 6.19023 10.6029 6.08341 10.7886C5.9766 10.9742 5.82389 11.1292 5.63993 11.2389C5.24939 11.5281 4.9317 11.9045 4.7121 12.338C4.49251 12.7716 4.37706 13.2504 4.37493 13.7364" stroke="white" stroke-width="1.19924" stroke-linecap="round" stroke-linejoin="round"/>
<path d="M8.74985 9.16261V10.1789C8.75221 10.393 8.80955 10.6029 8.91636 10.7886C9.02318 10.9742 9.17589 11.1292 9.35985 11.2389C9.75039 11.5281 10.0681 11.9045 10.2877 12.338C10.5073 12.7716 10.6227 13.2504 10.6249 13.7364" stroke="white" stroke-width="1.19924" stroke-linecap="round" stroke-linejoin="round"/>
<path d="M11.2498 5.62496H12.1873C12.6017 5.62496 12.9991 5.46034 13.2922 5.16731C13.5852 4.87429 13.7498 4.47686 13.7498 4.06246C13.7498 3.64806 13.5852 3.25063 13.2922 2.9576C12.9991 2.66458 12.6017 2.49996 12.1873 2.49996H11.2498" stroke="white" stroke-width="1.19924" stroke-linecap="round" stroke-linejoin="round"/>
<path d="M2.49996 13.75H12.5" stroke="white" stroke-width="1.19924" stroke-linecap="round" stroke-linejoin="round"/>
<path d="M3.74994 5.62498C3.74994 6.61954 4.14502 7.57337 4.84829 8.27663C5.55155 8.97989 6.50537 9.37498 7.49994 9.37498C8.4945 9.37498 9.44833 8.97989 10.1516 8.27663C10.8548 7.57337 11.2499 6.61954 11.2499 5.62498V1.87498C11.2499 1.70922 11.1841 1.55025 11.0669 1.43304C10.9497 1.31583 10.7907 1.24998 10.6249 1.24998H4.37494C4.20918 1.24998 4.05021 1.31583 3.93299 1.43304C3.81578 1.55025 3.74994 1.70922 3.74994 1.87498V5.62498Z" stroke="white" stroke-width="1.19924" stroke-linecap="round" stroke-linejoin="round"/>
<path d="M3.74998 5.62496H2.81248C2.39808 5.62496 2.00065 5.46034 1.70762 5.16731C1.4146 4.87429 1.24998 4.47686 1.24998 4.06246C1.24998 3.64806 1.4146 3.25063 1.70762 2.9576C2.00065 2.66458 2.39808 2.49996 2.81248 2.49996H3.74998" stroke="white" stroke-width="1.19924" stroke-linecap="round" stroke-linejoin="round"/>
</g>
<defs>
<clipPath id="clip0_542_23048">
<rect width="14.3909" height="14.3909" fill="white" transform="scale(1.04233)"/>
</clipPath>
</defs>
</svg>
