<svg width="16" height="16" viewBox="0 0 16 16" fill="none" xmlns="http://www.w3.org/2000/svg">
<g clip-path="url(#clip0_549_31942)">
<path d="M6.66624 9.7733V10.8573C6.66372 11.0857 6.60256 11.3097 6.48862 11.5076C6.37468 11.7056 6.21179 11.871 6.01556 11.988C5.59899 12.2965 5.26012 12.698 5.02588 13.1604C4.79164 13.6229 4.6685 14.1336 4.66622 14.652" stroke="#FDC700" stroke-width="1.28333" stroke-linecap="round" stroke-linejoin="round"/>
<path d="M9.33346 9.7733V10.8573C9.33598 11.0857 9.39714 11.3097 9.51107 11.5076C9.62501 11.7056 9.7879 11.871 9.98413 11.988C10.4007 12.2965 10.7396 12.698 10.9738 13.1604C11.2081 13.6229 11.3312 14.1336 11.3335 14.652" stroke="#FDC700" stroke-width="1.28333" stroke-linecap="round" stroke-linejoin="round"/>
<path d="M11.9999 5.99977H12.9999C13.4419 5.99977 13.8658 5.82417 14.1784 5.51161C14.491 5.19905 14.6666 4.77512 14.6666 4.33309C14.6666 3.89106 14.491 3.46713 14.1784 3.15457C13.8658 2.84201 13.4419 2.66641 12.9999 2.66641H11.9999" stroke="#FDC700" stroke-width="1.28333" stroke-linecap="round" stroke-linejoin="round"/>
<path d="M2.66641 14.6663H13.3331" stroke="#FDC700" stroke-width="1.28333" stroke-linecap="round" stroke-linejoin="round"/>
<path d="M3.99962 5.9999C3.99962 7.06078 4.42105 8.0782 5.1712 8.82835C5.92135 9.5785 6.93877 9.99993 7.99964 9.99993C9.06052 9.99993 10.0779 9.5785 10.8281 8.82835C11.5782 8.0782 11.9997 7.06078 11.9997 5.9999V1.99988C11.9997 1.82307 11.9294 1.65349 11.8044 1.52847C11.6794 1.40344 11.5098 1.33321 11.333 1.33321H4.66629C4.48948 1.33321 4.31991 1.40344 4.19488 1.52847C4.06986 1.65349 3.99962 1.82307 3.99962 1.99988V5.9999Z" stroke="#FDC700" stroke-width="1.28333" stroke-linecap="round" stroke-linejoin="round"/>
<path d="M3.99989 5.99977H2.99988C2.55785 5.99977 2.13393 5.82417 1.82137 5.51161C1.5088 5.19905 1.33321 4.77512 1.33321 4.33309C1.33321 3.89106 1.5088 3.46713 1.82137 3.15457C2.13393 2.84201 2.55785 2.66641 2.99988 2.66641H3.99989" stroke="#FDC700" stroke-width="1.28333" stroke-linecap="round" stroke-linejoin="round"/>
</g>
<defs>
<clipPath id="clip0_549_31942">
<rect width="15.4" height="15.4" fill="white" transform="scale(1.03897)"/>
</clipPath>
</defs>
</svg>
