<svg width="16" height="16" viewBox="0 0 16 16" fill="none" xmlns="http://www.w3.org/2000/svg">
<g clip-path="url(#clip0_549_32177)">
<path d="M6.66653 9.77349V10.8575C6.66401 11.0859 6.60286 11.3098 6.48892 11.5078C6.37499 11.7058 6.2121 11.8712 6.01588 11.9881C5.59932 12.2966 5.26046 12.6981 5.02623 13.1605C4.792 13.623 4.66886 14.1337 4.66658 14.652" stroke="#C27AFF" stroke-width="1.28333" stroke-linecap="round" stroke-linejoin="round"/>
<path d="M9.33316 9.77349V10.8575C9.33568 11.0859 9.39684 11.3098 9.51077 11.5078C9.62471 11.7058 9.78759 11.8712 9.98381 11.9881C10.4004 12.2966 10.7392 12.6981 10.9735 13.1605C11.2077 13.623 11.3308 14.1337 11.3331 14.652" stroke="#C27AFF" stroke-width="1.28333" stroke-linecap="round" stroke-linejoin="round"/>
<path d="M11.9995 5.99958H12.9995C13.4415 5.99958 13.8654 5.82399 14.1779 5.51143C14.4905 5.19888 14.6661 4.77497 14.6661 4.33295C14.6661 3.89094 14.4905 3.46702 14.1779 3.15447C13.8654 2.84192 13.4415 2.66633 12.9995 2.66633H11.9995" stroke="#C27AFF" stroke-width="1.28333" stroke-linecap="round" stroke-linejoin="round"/>
<path d="M2.66633 14.6668H13.3327" stroke="#C27AFF" stroke-width="1.28333" stroke-linecap="round" stroke-linejoin="round"/>
<path d="M4 5.99971C4 7.06055 4.42142 8.07794 5.17154 8.82807C5.92167 9.57819 6.93906 9.99961 7.9999 9.99961C9.06074 9.99961 10.0781 9.57819 10.8283 8.82807C11.5784 8.07794 11.9998 7.06055 11.9998 5.99971V1.99981C11.9998 1.82301 11.9296 1.65344 11.8045 1.52842C11.6795 1.4034 11.51 1.33316 11.3331 1.33316H4.66665C4.48984 1.33316 4.32028 1.4034 4.19526 1.52842C4.07024 1.65344 4 1.82301 4 1.99981V5.99971Z" stroke="#C27AFF" stroke-width="1.28333" stroke-linecap="round" stroke-linejoin="round"/>
<path d="M4.00027 5.99958H3.0003C2.55828 5.99958 2.13437 5.82399 1.82181 5.51143C1.50926 5.19888 1.33367 4.77497 1.33367 4.33295C1.33367 3.89094 1.50926 3.46702 1.82181 3.15447C2.13437 2.84192 2.55828 2.66633 3.0003 2.66633H4.00027" stroke="#C27AFF" stroke-width="1.28333" stroke-linecap="round" stroke-linejoin="round"/>
</g>
<defs>
<clipPath id="clip0_549_32177">
<rect width="15.4" height="15.4" fill="white" transform="scale(1.03893)"/>
</clipPath>
</defs>
</svg>
