<svg width="20" height="22" viewBox="0 0 20 22" fill="none" xmlns="http://www.w3.org/2000/svg">
<path d="M2.00265 12.9987C1.81348 12.9994 1.628 12.9463 1.46778 12.8458C1.30755 12.7452 1.17915 12.6012 1.0975 12.4306C1.01584 12.2599 0.984277 12.0696 1.00648 11.8818C1.02868 11.6939 1.10373 11.5162 1.22291 11.3693L11.1196 1.17262C11.1939 1.08693 11.295 1.02903 11.4065 1.00841C11.518 0.987794 11.6332 1.00569 11.7332 1.05916C11.8331 1.11264 11.912 1.19851 11.9567 1.30269C12.0014 1.40687 12.0094 1.52316 11.9794 1.63247L10.06 7.65049C10.0034 7.80196 9.98439 7.9649 10.0046 8.12534C10.0248 8.28577 10.0836 8.43891 10.176 8.57161C10.2684 8.70431 10.3917 8.81262 10.5351 8.88724C10.6786 8.96186 10.838 9.00057 10.9997 9.00004H17.9974C18.1865 8.9994 18.372 9.05244 18.5322 9.15301C18.6925 9.25359 18.8209 9.39756 18.9025 9.5682C18.9842 9.73884 19.0157 9.92915 18.9935 10.117C18.9713 10.3049 18.8963 10.4826 18.7771 10.6295L8.88038 20.8261C8.80614 20.9118 8.70498 20.9697 8.59349 20.9904C8.48201 21.011 8.36683 20.9931 8.26685 20.9396C8.16688 20.8861 8.08806 20.8003 8.04332 20.6961C7.99859 20.5919 7.9906 20.4756 8.02066 20.3663L9.94003 14.3483C9.99663 14.1968 10.0156 14.0339 9.99542 13.8734C9.97521 13.713 9.91638 13.5599 9.82398 13.4272C9.73158 13.2945 9.60837 13.1861 9.46491 13.1115C9.32146 13.0369 9.16204 12.9982 9.00034 12.9987H2.00265Z" stroke="#C27AFF" stroke-width="1.925" stroke-linecap="round" stroke-linejoin="round"/>
</svg>
