<svg width="16" height="16" viewBox="0 0 16 16" fill="none" xmlns="http://www.w3.org/2000/svg">
<g clip-path="url(#clip0_549_32120)">
<path d="M6.66602 9.77349V10.8575C6.66351 11.0859 6.60235 11.3098 6.48842 11.5078C6.37448 11.7058 6.2116 11.8712 6.01537 11.9881C5.59881 12.2966 5.25995 12.6981 5.02572 13.1605C4.79149 13.623 4.66835 14.1337 4.66607 14.652" stroke="#FDC700" stroke-width="1.28333" stroke-linecap="round" stroke-linejoin="round"/>
<path d="M9.33316 9.77349V10.8575C9.33568 11.0859 9.39684 11.3098 9.51077 11.5078C9.62471 11.7058 9.78759 11.8712 9.98381 11.9881C10.4004 12.2966 10.7392 12.6981 10.9735 13.1605C11.2077 13.623 11.3308 14.1337 11.3331 14.652" stroke="#FDC700" stroke-width="1.28333" stroke-linecap="round" stroke-linejoin="round"/>
<path d="M11.9995 5.99958H12.9995C13.4415 5.99958 13.8654 5.82399 14.1779 5.51143C14.4905 5.19888 14.6661 4.77497 14.6661 4.33295C14.6661 3.89094 14.4905 3.46702 14.1779 3.15447C13.8654 2.84192 13.4415 2.66633 12.9995 2.66633H11.9995" stroke="#FDC700" stroke-width="1.28333" stroke-linecap="round" stroke-linejoin="round"/>
<path d="M2.66633 14.6668H13.3327" stroke="#FDC700" stroke-width="1.28333" stroke-linecap="round" stroke-linejoin="round"/>
<path d="M4 5.99971C4 7.06055 4.42142 8.07794 5.17154 8.82807C5.92167 9.57819 6.93906 9.99961 7.9999 9.99961C9.06074 9.99961 10.0781 9.57819 10.8283 8.82807C11.5784 8.07794 11.9998 7.06055 11.9998 5.99971V1.99981C11.9998 1.82301 11.9296 1.65344 11.8045 1.52842C11.6795 1.4034 11.51 1.33316 11.3331 1.33316H4.66665C4.48984 1.33316 4.32028 1.4034 4.19526 1.52842C4.07024 1.65344 4 1.82301 4 1.99981V5.99971Z" stroke="#FDC700" stroke-width="1.28333" stroke-linecap="round" stroke-linejoin="round"/>
<path d="M3.99976 5.99958H2.99979C2.55777 5.99958 2.13386 5.82399 1.82131 5.51143C1.50875 5.19888 1.33316 4.77497 1.33316 4.33295C1.33316 3.89094 1.50875 3.46702 1.82131 3.15447C2.13386 2.84192 2.55777 2.66633 2.99979 2.66633H3.99976" stroke="#FDC700" stroke-width="1.28333" stroke-linecap="round" stroke-linejoin="round"/>
</g>
<defs>
<clipPath id="clip0_549_32120">
<rect width="15.4" height="15.4" fill="white" transform="scale(1.03893)"/>
</clipPath>
</defs>
</svg>
