<svg width="24" height="24" viewBox="0 0 24 24" fill="none" xmlns="http://www.w3.org/2000/svg">
<path d="M11.9997 21.9997C17.5226 21.9997 21.9997 17.5226 21.9997 11.9997C21.9997 6.47692 17.5226 1.99979 11.9997 1.99979C6.47692 1.99979 1.99979 6.47692 1.99979 11.9997C1.99979 17.5226 6.47692 21.9997 11.9997 21.9997Z" stroke="#FDC700" stroke-width="1.925" stroke-linecap="round" stroke-linejoin="round"/>
<path d="M11.9998 17.9993C15.3135 17.9993 17.9998 15.313 17.9998 11.9993C17.9998 8.68565 15.3135 5.99937 11.9998 5.99937C8.68615 5.99937 5.99987 8.68565 5.99987 11.9993C5.99987 15.313 8.68615 17.9993 11.9998 17.9993Z" stroke="#FDC700" stroke-width="1.925" stroke-linecap="round" stroke-linejoin="round"/>
<path d="M11.9999 13.9999C13.1045 13.9999 13.9999 13.1045 13.9999 11.9999C13.9999 10.8954 13.1045 9.99996 11.9999 9.99996C10.8954 9.99996 9.99996 10.8954 9.99996 11.9999C9.99996 13.1045 10.8954 13.9999 11.9999 13.9999Z" stroke="#FDC700" stroke-width="1.925" stroke-linecap="round" stroke-linejoin="round"/>
</svg>
