<svg width="40" height="40" viewBox="0 0 40 40" fill="none" xmlns="http://www.w3.org/2000/svg">
<path d="M20 8.20578C16.8711 8.20578 13.8713 9.44807 11.6598 11.6596C9.44827 13.8712 8.20598 16.8712 8.20598 19.9998C8.20598 23.1284 9.44827 26.1285 11.6598 28.34C13.8714 30.5515 16.8714 31.7938 20 31.7938C23.1286 31.7938 26.1287 30.5515 28.3402 28.34C30.5517 26.1284 31.794 23.1284 31.794 19.9998C31.7902 16.8729 30.544 13.8765 28.3344 11.665C26.1229 9.45541 23.1271 8.20962 20 8.20578ZM20 28.7173C17.6885 28.7173 15.4712 27.8 13.8348 26.1654C12.2002 24.5289 11.2829 22.3116 11.2829 20.0002C11.2829 17.6889 12.2002 15.4714 13.8348 13.8351C15.4714 12.2005 17.6887 11.2831 20 11.2831C22.3113 11.2831 24.5288 12.2005 26.1652 13.8351C27.7998 15.4716 28.7171 17.6889 28.7171 20.0002C28.7132 22.3099 27.7921 24.5252 26.1575 26.158C24.5248 27.7926 22.3097 28.7135 20 28.7173ZM5.86732 8.04037C5.30196 7.43459 5.31924 6.49039 5.90386 5.90385C6.4904 5.31924 7.43464 5.30191 8.04038 5.86731L9.47693 7.30387V7.30194C9.76924 7.58848 9.93463 7.98079 9.93463 8.39039C9.93463 8.79999 9.76924 9.19039 9.47693 9.47691C9.19424 9.77306 8.80001 9.93652 8.39041 9.92883C7.98079 9.93076 7.59041 9.7673 7.30197 9.47691L5.86732 8.04037ZM34.1327 31.9596C34.4269 32.2442 34.5923 32.6366 34.5923 33.0462C34.5923 33.4558 34.4269 33.8481 34.1327 34.1327C33.85 34.4308 33.4558 34.5942 33.0462 34.5846C32.6385 34.5865 32.2462 34.4231 31.9596 34.1327L30.5231 32.6961V32.698C29.9577 32.0903 29.975 31.1461 30.5615 30.5615C31.1462 29.975 32.0904 29.9577 32.6981 30.5231L34.1327 31.9596ZM9.51729 30.5231C9.81153 30.8096 9.97691 31.2 9.97691 31.6096C9.97691 32.0192 9.81152 32.4115 9.51729 32.698L8.08074 34.1346L8.08266 34.1327C7.7942 34.4231 7.40382 34.5865 6.99422 34.5846C6.5846 34.5942 6.19038 34.4308 5.9077 34.1327C5.61539 33.8481 5.45 33.4557 5.45 33.0462C5.45 32.6366 5.61539 32.2442 5.9077 31.9596L7.34425 30.5231C7.93463 29.9385 8.88655 29.9385 9.47693 30.5231L9.51729 30.5231ZM34.1327 5.90769C34.4269 6.19423 34.5923 6.58462 34.5923 6.99422C34.5923 7.40382 34.4269 7.79614 34.1327 8.08266L32.6961 9.51921L32.698 9.51729C32.4096 9.80767 32.0192 9.97114 31.6096 9.96921C31.2 9.97883 30.8058 9.81537 30.5231 9.51729C30.2308 9.23268 30.0654 8.84037 30.0654 8.43077C30.0654 8.02117 30.2308 7.62885 30.5231 7.34424L31.9596 5.90769C32.2385 5.60961 32.6289 5.43654 33.0366 5.42884C33.4462 5.42115 33.8423 5.57884 34.1327 5.8673L34.1327 5.90769ZM5.12886 20C5.11732 20.8442 4.43461 21.5269 3.5904 21.5385H1.53846C0.688443 21.5385 0 20.85 0 20C0 19.15 0.688443 18.4615 1.53846 18.4615H3.5904C4.43461 18.4731 5.11734 19.1558 5.12886 20ZM40 20C39.9885 20.8442 39.3057 21.5269 38.4615 21.5385H36.4096C35.5615 21.5385 34.8711 20.85 34.8711 20C34.8711 19.15 35.5615 18.4615 36.4096 18.4615H38.4615C39.3057 18.4731 39.9885 19.1558 40 20ZM21.5385 36.4096V38.4615C21.5385 39.3116 20.85 40 20 40C19.15 40 18.4615 39.3116 18.4615 38.4615V36.4096C18.4615 35.5615 19.15 34.8711 20 34.8711C20.85 34.8711 21.5385 35.5615 21.5385 36.4096ZM18.4615 3.5904V1.53846C18.4615 0.688443 19.15 0 20 0C20.85 0 21.5385 0.688443 21.5385 1.53846V3.5904C21.5385 4.4385 20.85 5.12886 20 5.12886C19.15 5.12886 18.4615 4.4385 18.4615 3.5904Z" fill="#202020"/>
</svg>
