<svg width="26" height="6" viewBox="0 0 26 6" fill="none" xmlns="http://www.w3.org/2000/svg">
<path d="M5.26334 0.136382H23.6982C24.24 0.136382 24.6359 0.137498 24.9347 0.16871C25.2334 0.199937 25.4116 0.259705 25.5328 0.361665C25.6887 0.492922 25.7989 0.67076 25.8469 0.868805C25.8843 1.02271 25.8591 1.20879 25.754 1.4901C25.6489 1.77157 25.4721 2.12625 25.2307 2.61147C24.6212 3.83648 24.3317 4.41459 23.882 4.8148C23.6107 5.05628 23.2988 5.24819 22.9617 5.38356C22.4031 5.60782 21.7569 5.61086 20.3886 5.61086H2.00431C1.59052 5.61086 1.28836 5.61109 1.05671 5.59066C0.826031 5.57028 0.682219 5.53035 0.575836 5.46337C0.357657 5.3258 0.20358 5.10538 0.149515 4.85319C0.12328 4.73029 0.13577 4.58163 0.195986 4.35817C0.25652 4.1337 0.360724 3.85044 0.503099 3.46209C0.950946 2.24049 1.16409 1.66315 1.5295 1.23653C1.87641 0.831518 2.32092 0.521727 2.82059 0.335399C3.34691 0.139158 3.96224 0.136382 5.26334 0.136382Z" stroke="white" stroke-width="0.264571"/>
</svg>
