<svg width="27" height="8" viewBox="0 0 27 8" fill="none" xmlns="http://www.w3.org/2000/svg">
<path d="M6.5118 0.546177H24.6898C25.2656 0.546178 25.6487 0.546967 25.9293 0.580439C26.2041 0.613241 26.2822 0.668418 26.3143 0.699349C26.3645 0.747889 26.4047 0.805866 26.4332 0.869651C26.4513 0.910401 26.4768 1.00219 26.414 1.27173C26.3499 1.54706 26.2201 1.90719 26.024 2.44873L25.5202 3.84239C25.2155 4.684 24.9984 5.28158 24.7846 5.73889C24.575 6.18705 24.3852 6.46094 24.1557 6.668C23.9903 6.8173 23.8073 6.94615 23.6106 7.05093C23.3377 7.19624 23.0151 7.28056 22.5223 7.32502C22.0195 7.37036 21.3838 7.37138 20.4887 7.37138H2.31067C1.73488 7.37138 1.35189 7.37055 1.07119 7.33712C0.796506 7.30436 0.718402 7.24917 0.686249 7.21821C0.635846 7.1696 0.594882 7.11184 0.566331 7.0479C0.548167 7.00722 0.522788 6.91532 0.585478 6.64583C0.649571 6.37046 0.779342 6.00948 0.97546 5.46782L1.48032 4.07517C1.78505 3.23354 2.00114 2.63598 2.21494 2.17866C2.42445 1.73051 2.61436 1.45664 2.84375 1.24956C3.00928 1.10021 3.19315 0.971427 3.38993 0.866628C3.66279 0.721355 3.98538 0.63597 4.47825 0.591524C4.981 0.546224 5.61686 0.546177 6.5118 0.546177Z" stroke="white" stroke-width="1.05828"/>
</svg>
