<svg width="41" height="41" viewBox="0 0 41 41" fill="none" xmlns="http://www.w3.org/2000/svg">
<path d="M20.5 8.41093C17.2929 8.41093 14.218 9.68428 11.9513 11.9511C9.68448 14.2179 8.41113 17.293 8.41113 20.4998C8.41113 23.7066 9.68448 26.7818 11.9513 29.0485C14.2181 31.3153 17.2932 32.5887 20.5 32.5887C23.7068 32.5887 26.782 31.3153 29.0487 29.0485C31.3155 26.7817 32.5889 23.7066 32.5889 20.4998C32.5849 17.2947 31.3076 14.2234 29.0428 11.9567C26.7759 9.69179 23.7053 8.41486 20.5 8.41093ZM20.5 29.4353C18.1307 29.4353 15.8579 28.495 14.1807 26.8195C12.5052 25.1421 11.565 22.8694 11.565 20.5002C11.565 18.1311 12.5052 15.8582 14.1807 14.181C15.8581 12.5055 18.1309 11.5652 20.5 11.5652C22.8691 11.5652 25.1421 12.5055 26.8193 14.181C28.4948 15.8584 29.435 18.1311 29.435 20.5002C29.4311 22.8676 28.4869 25.1384 26.8114 26.812C25.1379 28.4875 22.8675 29.4313 20.5 29.4353ZM6.01401 8.24138C5.43451 7.62045 5.45222 6.65265 6.05146 6.05145C6.65266 5.45222 7.62051 5.43445 8.24139 6.014L9.71386 7.48646V7.48449C10.0135 7.77819 10.183 8.18031 10.183 8.60015C10.183 9.01999 10.0135 9.42015 9.71386 9.71383C9.4241 10.0174 9.02001 10.1849 8.60017 10.1771C8.18031 10.179 7.78017 10.0115 7.48452 9.71383L6.01401 8.24138ZM34.986 32.7586C35.2876 33.0503 35.4571 33.4525 35.4571 33.8723C35.4571 34.2921 35.2876 34.6943 34.986 34.986C34.6962 35.2915 34.2921 35.4591 33.8723 35.4492C33.4544 35.4512 33.0523 35.2836 32.7586 34.986L31.2862 33.5135V33.5155C30.7067 32.8926 30.7244 31.9248 31.3256 31.3256C31.9248 30.7244 32.8927 30.7066 33.5155 31.2861L34.986 32.7586ZM9.75522 31.2862C10.0568 31.5799 10.2263 31.98 10.2263 32.3998C10.2263 32.8197 10.0568 33.2218 9.75522 33.5155L8.28276 34.988L8.28473 34.986C7.98905 35.2836 7.58891 35.4512 7.16907 35.4492C6.74922 35.4591 6.34514 35.2915 6.05539 34.986C5.75577 34.6943 5.58625 34.2921 5.58625 33.8723C5.58625 33.4525 5.75577 33.0503 6.05539 32.7586L7.52786 31.2861C8.13299 30.6869 9.10872 30.6869 9.71385 31.2861L9.75522 31.2862ZM34.986 6.05538C35.2876 6.34909 35.4571 6.74923 35.4571 7.16907C35.4571 7.58891 35.2876 7.99104 34.986 8.28472L33.5135 9.75719L33.5155 9.75522C33.2198 10.0529 32.8197 10.2204 32.3998 10.2184C31.98 10.2283 31.5759 10.0608 31.2862 9.75522C30.9865 9.46349 30.817 9.06137 30.817 8.64153C30.817 8.22169 30.9865 7.81957 31.2862 7.52785L32.7586 6.05538C33.0444 5.74985 33.4446 5.57245 33.8625 5.56456C34.2823 5.55668 34.6884 5.71831 34.986 6.01398L34.986 6.05538ZM5.25708 20.5C5.24526 21.3653 4.54547 22.0651 3.68016 22.0769H1.57692C0.705654 22.0769 0 21.3713 0 20.5C0 19.6287 0.705654 18.9231 1.57692 18.9231H3.68016C4.54547 18.9349 5.24527 19.6347 5.25708 20.5ZM41 20.5C40.9882 21.3653 40.2884 22.0651 39.4231 22.0769H37.3198C36.4505 22.0769 35.7429 21.3713 35.7429 20.5C35.7429 19.6287 36.4505 18.9231 37.3198 18.9231H39.4231C40.2884 18.9349 40.9882 19.6347 41 20.5ZM22.0769 37.3198V39.4231C22.0769 40.2943 21.3713 41 20.5 41C19.6287 41 18.9231 40.2943 18.9231 39.4231V37.3198C18.9231 36.4505 19.6287 35.7429 20.5 35.7429C21.3713 35.7429 22.0769 36.4505 22.0769 37.3198ZM18.9231 3.68016V1.57692C18.9231 0.705654 19.6287 0 20.5 0C21.3713 0 22.0769 0.705654 22.0769 1.57692V3.68016C22.0769 4.54946 21.3713 5.25708 20.5 5.25708C19.6287 5.25708 18.9231 4.54946 18.9231 3.68016Z" fill="white"/>
</svg>
