<svg width="41" height="41" viewBox="0 0 41 41" fill="none" xmlns="http://www.w3.org/2000/svg">
<path d="M20.5 0C31.8218 0 41 9.17816 41 20.5C41 31.8218 31.8218 41 20.5 41C9.17816 41 0 31.8218 0 20.5C0 9.17816 9.17816 0 20.5 0ZM19.7393 9.11133C19.0528 9.11133 18.4061 9.41501 17.9746 9.9502C17.5223 10.5048 17.3558 11.2528 17.5293 11.9482C17.7146 12.6926 17.8096 13.4595 17.8096 14.2305C17.8094 18.3838 15.0188 22.066 11.0225 23.1855C10.3314 23.3798 9.76585 23.8962 9.50781 24.5635L9.5127 24.5527C9.25763 25.2245 9.33518 25.9838 9.71777 26.5918C11.8206 29.8986 15.4169 31.877 19.3301 31.877C25.6085 31.8767 30.7187 26.7668 30.7188 20.4883C30.7188 14.2098 25.9393 9.37997 19.8389 9.11133H19.7393ZM19.7705 10.624C25.0317 10.8555 29.1736 15.1648 29.2002 20.4336C29.2268 25.658 25.0094 30.1025 19.7998 30.3428C19.6398 30.3502 19.4813 30.3545 19.3213 30.3545C15.9239 30.3545 12.841 28.6652 10.999 25.7764C10.8701 25.5718 10.8433 25.3245 10.9307 25.0977C11.0181 24.8693 11.2003 24.7029 11.4346 24.6377L11.4336 24.6328C16.0792 23.3307 19.3299 19.0482 19.3301 14.2158C19.3301 13.3231 19.22 12.4315 18.999 11.5654C18.9383 11.3297 18.9948 11.0867 19.1475 10.9014C19.2987 10.716 19.5318 10.6122 19.7705 10.624Z" fill="white"/>
</svg>
