<svg width="69" height="98" viewBox="0 0 69 98" fill="none" xmlns="http://www.w3.org/2000/svg">
<path d="M1.27675 97C1.08302 97 1 80.8018 1 49V1H19.874C31.3589 1 40.0211 1.11327 41.9583 1.3115C43.7018 1.48142 46.1925 1.93451 47.4932 2.30265C48.7939 2.69912 50.8418 3.49204 52.0595 4.05841C53.2772 4.6531 55.076 5.70088 56.0723 6.38053C57.0686 7.06018 58.5353 8.27788 59.3656 9.04248C60.1958 9.8354 61.6072 11.4496 62.5204 12.6106C63.4337 13.7717 64.596 15.6124 65.1495 16.7168C65.6753 17.8212 66.3395 19.4071 66.644 20.2566C66.9207 21.1062 67.3635 22.692 67.5849 23.7965C67.8339 25.0142 68 27.2796 68 29.7434C68 31.9805 67.8063 34.7558 67.5849 36.115C67.3635 37.446 66.8377 39.6549 66.4502 41.0708C66.0351 42.4867 65.3433 44.5823 64.9005 45.7434C64.43 46.9044 63.4337 49.085 62.6865 50.5575C61.9116 52.0301 60.5832 54.2673 59.7253 55.485C58.8674 56.731 56.9025 59.0531 55.3804 60.6956C53.8583 62.3097 51.506 64.5186 50.1223 65.5947C48.7385 66.6425 37.2536 74.1469 24.6064 82.246C11.9314 90.3735 1.41512 97 1.27675 97Z" fill="#F3C628" stroke="#F3C628" stroke-width="2"/>
</svg>
