<svg width="54" height="76" viewBox="0 0 54 76" fill="none" xmlns="http://www.w3.org/2000/svg">
<path d="M1.21479 75C1.06444 75 1 62.5139 1 38V1H15.6485C24.5622 1 31.285 1.08732 32.7885 1.24012C34.1417 1.37109 36.0748 1.72035 37.0843 2.00413C38.0938 2.30973 39.6832 2.92094 40.6283 3.35752C41.5733 3.81593 42.9694 4.6236 43.7427 5.14749C44.5159 5.67139 45.6543 6.61003 46.2986 7.19941C46.943 7.81062 48.0384 9.05487 48.7472 9.94985C49.456 10.8448 50.3581 12.2637 50.7877 13.115C51.1958 13.9664 51.7113 15.1888 51.9475 15.8437C52.1623 16.4985 52.506 17.7209 52.6778 18.5723C52.8711 19.5109 53 21.2572 53 23.1563C53 24.8808 52.8496 27.0201 52.6778 28.0678C52.506 29.0938 52.0979 30.7965 51.7972 31.8879C51.475 32.9794 50.938 34.5947 50.5944 35.4897C50.2293 36.3847 49.456 38.0655 48.8761 39.2006C48.2747 40.3357 47.2437 42.0602 46.5779 42.9988C45.912 43.9593 44.387 45.7493 43.2057 47.0153C42.0244 48.2596 40.1987 49.9622 39.1247 50.7917C38.0508 51.5994 29.1371 57.3841 19.3214 63.6271C9.48409 69.892 1.32218 75 1.21479 75Z" fill="#233F84" stroke="#F3C628" stroke-width="2"/>
</svg>
