<svg width="86" height="122" viewBox="0 0 86 122" fill="none" xmlns="http://www.w3.org/2000/svg">
<path d="M1.34697 121C1.10409 121 1 100.752 1 61V1H24.6629C39.062 1 49.9219 1.14159 52.3507 1.38938C54.5366 1.60177 57.6592 2.16814 59.29 2.62832C60.9207 3.12389 63.4882 4.11504 65.0149 4.82301C66.5415 5.56637 68.7968 6.87611 70.0459 7.72566C71.2949 8.57522 73.1338 10.0973 74.1747 11.0531C75.2156 12.0442 76.9851 14.0619 78.1301 15.5133C79.2751 16.9646 80.7323 19.2655 81.4263 20.646C82.0855 22.0266 82.9182 24.0089 83.2999 25.0708C83.6468 26.1327 84.202 28.115 84.4795 29.4956C84.7918 31.0177 85 33.8496 85 36.9292C85 39.7257 84.7571 43.1947 84.4795 44.8938C84.202 46.5575 83.5427 49.3186 83.057 51.0885C82.5365 52.8584 81.6692 55.4779 81.114 56.9292C80.5242 58.3805 79.2751 61.1062 78.3383 62.9469C77.3668 64.7876 75.7014 67.5841 74.6258 69.1062C73.5502 70.6637 71.0867 73.5664 69.1784 75.6195C67.2701 77.6372 64.3209 80.3982 62.5861 81.7434C60.8513 83.0531 46.4523 92.4336 30.596 102.558C14.7051 112.717 1.52045 121 1.34697 121Z" fill="#202020"/>
<path d="M1.34697 121C1.10409 121 1 100.752 1 61V1H24.6629C39.062 1 49.9219 1.14159 52.3507 1.38938C54.5366 1.60177 57.6592 2.16814 59.29 2.62832C60.9207 3.12389 63.4882 4.11504 65.0149 4.82301C66.5415 5.56637 68.7968 6.87611 70.0459 7.72566C71.2949 8.57522 73.1338 10.0973 74.1747 11.0531C75.2156 12.0442 76.9851 14.0619 78.1301 15.5133C79.2751 16.9646 80.7323 19.2655 81.4263 20.646C82.0855 22.0266 82.9182 24.0089 83.2999 25.0708C83.6468 26.1327 84.202 28.115 84.4795 29.4956C84.7918 31.0177 85 33.8496 85 36.9292C85 39.7257 84.7571 43.1947 84.4795 44.8938C84.202 46.5575 83.5427 49.3186 83.057 51.0885C82.5365 52.8584 81.6692 55.4779 81.114 56.9292C80.5242 58.3805 79.2751 61.1062 78.3383 62.9469C77.3668 64.7876 75.7014 67.5841 74.6258 69.1062C73.5502 70.6637 71.0867 73.5664 69.1784 75.6195C67.2701 77.6372 64.3209 80.3982 62.5861 81.7434C60.8513 83.0531 46.4523 92.4336 30.596 102.558C14.7051 112.717 1.52045 121 1.34697 121Z" stroke="#DB3242" stroke-width="2"/>
<path d="M1.34697 121C1.10409 121 1 100.752 1 61V1H24.6629C39.062 1 49.9219 1.14159 52.3507 1.38938C54.5366 1.60177 57.6592 2.16814 59.29 2.62832C60.9207 3.12389 63.4882 4.11504 65.0149 4.82301C66.5415 5.56637 68.7968 6.87611 70.0459 7.72566C71.2949 8.57522 73.1338 10.0973 74.1747 11.0531C75.2156 12.0442 76.9851 14.0619 78.1301 15.5133C79.2751 16.9646 80.7323 19.2655 81.4263 20.646C82.0855 22.0266 82.9182 24.0089 83.2999 25.0708C83.6468 26.1327 84.202 28.115 84.4795 29.4956C84.7918 31.0177 85 33.8496 85 36.9292C85 39.7257 84.7571 43.1947 84.4795 44.8938C84.202 46.5575 83.5427 49.3186 83.057 51.0885C82.5365 52.8584 81.6692 55.4779 81.114 56.9292C80.5242 58.3805 79.2751 61.1062 78.3383 62.9469C77.3668 64.7876 75.7014 67.5841 74.6258 69.1062C73.5502 70.6637 71.0867 73.5664 69.1784 75.6195C67.2701 77.6372 64.3209 80.3982 62.5861 81.7434C60.8513 83.0531 46.4523 92.4336 30.596 102.558C14.7051 112.717 1.52045 121 1.34697 121Z" stroke="#202020" stroke-width="2"/>
</svg>
