<svg width="105" height="148" viewBox="0 0 105 148" fill="none" xmlns="http://www.w3.org/2000/svg">
<path d="M29.5791 1C47.6102 1 61.1156 1.17646 64.0879 1.47559H64.0928C66.4428 1.70088 69.6801 2.25746 71.7734 2.76074L72.5938 2.97168C74.5834 3.56984 77.7293 4.76778 79.5938 5.62012C81.4602 6.51755 84.2317 8.10609 85.75 9.125C87.2532 10.1338 89.5023 11.968 90.7832 13.127V13.1279C92.0366 14.3056 94.2163 16.754 95.6318 18.5244C97.0224 20.2636 98.8062 23.044 99.6416 24.6836C100.448 26.3528 101.464 28.7391 101.929 30.0117C102.353 31.2962 103.033 33.6933 103.369 35.3438L103.37 35.3477C103.739 37.1237 104 40.5355 104 44.3125C104 47.7258 103.698 51.9432 103.363 53.9688C103.024 55.9726 102.21 59.3411 101.607 61.5078C100.964 63.6637 99.8983 66.8402 99.2178 68.5986C98.4942 70.3552 96.9501 73.6813 95.791 75.9297C94.5906 78.1737 92.531 81.5828 91.2188 83.415L91.2129 83.4238C89.9116 85.283 86.8759 88.8173 84.501 91.3389C82.1387 93.8033 78.4923 97.1673 76.377 98.7861C74.4852 100.192 60.5254 109.191 43.7881 119.782L36.4619 124.408C26.5318 130.672 17.4474 136.358 10.8193 140.477C7.50517 142.536 4.80585 144.203 2.92285 145.354C2.2911 145.741 1.75019 146.065 1.31152 146.33C1.28598 145.587 1.25971 144.583 1.2373 143.314C1.18252 140.214 1.13777 135.565 1.10254 129.38C1.03208 117.011 1 98.5136 1 74V1H29.5791Z" fill="#DB3242" stroke="#DB3242" stroke-width="2"/>
</svg>
